<svg id="Group_13569" data-name="Group 13569" xmlns="http://www.w3.org/2000/svg" width="64.338" height="63.984" viewBox="0 0 64.338 63.984">
  <path id="Path_7205" data-name="Path 7205" d="M-1674.557-231.649a5.991,5.991,0,0,1-2.521-.706c-1.295-.629-2.6-1.233-3.89-1.873a3.648,3.648,0,0,0-2.768-.25c-1.659.482-3.331.92-5.007,1.338-.443.11-.572.224-.427.705.366,1.216.138,1.575-1.1,1.913q-1.7.465-3.4.909c-.9.237-1.356,0-1.594-.886q-2.168-8.053-4.322-16.109a1.1,1.1,0,0,1,.917-1.538c1.218-.333,2.439-.654,3.661-.973.926-.242,1.423.007,1.607.943.133.676.378.748,1.009.574,4.762-1.308,9.537-2.571,14.3-3.858a6.206,6.206,0,0,1,3.286-.018c3.979,1.067,7.963,2.119,11.935,3.211a4.1,4.1,0,0,1,3.2,3.592c.073.506.293.35.579.274q6.932-1.859,13.866-3.708c1.627-.433,3.241-.928,4.889-1.261a4.192,4.192,0,0,1,4.9,3.178,4.248,4.248,0,0,1-2.933,5.07c-2.062.6-4.145,1.133-6.221,1.688q-14.154,3.783-28.309,7.564A5.7,5.7,0,0,1-1674.557-231.649Z" transform="translate(1699.655 293.511)"/>
  <path id="Path_7206" data-name="Path 7206" d="M-1602.884-474.368a18.137,18.137,0,0,1,18.095,18.212,18.147,18.147,0,0,1-18.127,18.047,18.156,18.156,0,0,1-18.13-18.25A18.138,18.138,0,0,1-1602.884-474.368Z" transform="translate(1635.051 476.518)"/>
  <path id="Path_7207" data-name="Path 7207" d="M-1421.446-472.244c-.573,0-1.147-.016-1.718.018-.363.022-.425-.116-.433-.446-.035-1.7-.045-1.7,1.622-1.694.176,0,.352.006.528.01l.077.087a4.021,4.021,0,0,1,0,1.939Z" transform="translate(1472.784 476.517)"/>
  <path id="Path_7208" data-name="Path 7208" d="M-1400.519-474.405c.573,0,1.147.016,1.719-.018.363-.022.425.116.432.446.036,1.7.046,1.7-1.622,1.694-.176,0-.352-.006-.529-.01-.025-.029-.051-.058-.077-.087a4.02,4.02,0,0,1,0-1.939Z" transform="translate(1453.972 476.566)"/>
  <path id="Path_7209" data-name="Path 7209" d="M-1636.883-463.351c0,.573-.016,1.147.018,1.718.022.362-.115.425-.446.432-1.7.036-1.7.046-1.694-1.622,0-.176.006-.352.01-.529l.087-.077a4.021,4.021,0,0,1,1.939,0Z" transform="translate(1649.81 467.625)"/>
  <path id="Path_7210" data-name="Path 7210" d="M-1628.075-474.406c.573,0,1.147.016,1.718-.018.364-.022.425.117.432.447.036,1.7.046,1.7-1.623,1.694-.176,0-.353-.006-.529-.009l.019.018a2.941,2.941,0,0,1-.1-2.039Z" transform="translate(1641.003 476.566)"/>
  <path id="Path_7211" data-name="Path 7211" d="M-1409.455-463.519c0,.573-.016,1.148.017,1.719.021.362-.115.426-.446.433-1.7.036-1.7.046-1.694-1.623,0-.176.006-.353.009-.529l-.018.019a2.432,2.432,0,0,1,2.151,0Z" transform="translate(1462.908 467.793)"/>
  <path id="Path_7212" data-name="Path 7212" d="M-1686.933-400.473c0-.573.016-1.147-.018-1.718-.022-.362.116-.425.446-.432,1.7-.036,1.7-.046,1.695,1.622,0,.176-.006.352-.01.529l-.087.077a4.023,4.023,0,0,1-1.939,0Z" transform="translate(1689.216 417.562)"/>
  <path id="Path_7213" data-name="Path 7213" d="M-1363.684-400.473c0-.573.016-1.147-.018-1.718-.022-.362.115-.425.447-.432,1.7-.036,1.7-.046,1.694,1.622,0,.176-.006.352-.009.529l-.088.077a4.021,4.021,0,0,1-1.939,0Z" transform="translate(1423.555 417.562)"/>
  <path id="Path_7214" data-name="Path 7214" d="M-1696.805-388.483c-.573,0-1.147-.016-1.719.018-.363.022-.425-.117-.432-.447-.035-1.7-.045-1.7,1.623-1.694.176,0,.352.006.529.009l-.02-.018a2.941,2.941,0,0,1,.1,2.039Z" transform="translate(1699.088 407.686)"/>
  <path id="Path_7215" data-name="Path 7215" d="M-1675.964-390.6c.573,0,1.147.016,1.719-.017.361-.021.426.114.433.446.035,1.7.046,1.7-1.622,1.695-.177,0-.352-.006-.529-.01l-.081-.094a2.933,2.933,0,0,1,.1-2.038Z" transform="translate(1680.36 407.69)"/>
  <path id="Path_7216" data-name="Path 7216" d="M-1373.557-388.483c-.573,0-1.147-.016-1.718.018-.363.022-.425-.116-.432-.447-.036-1.7-.045-1.7,1.623-1.694.176,0,.352.006.529.009l-.02-.018a2.942,2.942,0,0,1,.1,2.039Z" transform="translate(1433.427 407.686)"/>
  <path id="Path_7217" data-name="Path 7217" d="M-1352.716-390.6c.573,0,1.147.016,1.718-.017.362-.021.426.114.433.446.036,1.7.046,1.7-1.622,1.695-.176,0-.352-.006-.529-.01l-.081-.094a2.933,2.933,0,0,1,.1-2.038Z" transform="translate(1414.699 407.69)"/>
  <path id="Path_7218" data-name="Path 7218" d="M-1684.814-379.714c0,.573-.017,1.147.017,1.719.022.362-.115.426-.446.433-1.7.036-1.7.046-1.694-1.623,0-.176.006-.353.009-.529l-.019.019a2.434,2.434,0,0,1,2.152,0Z" transform="translate(1689.211 398.917)"/>
  <path id="Path_7219" data-name="Path 7219" d="M-1361.566-379.714c0,.573-.017,1.147.017,1.719.021.362-.115.426-.446.433-1.7.036-1.7.046-1.695-1.623,0-.176.006-.353.009-.529l-.019.019a2.434,2.434,0,0,1,2.151,0Z" transform="translate(1423.55 398.917)"/>
  <path id="Path_7220" data-name="Path 7220" d="M-1639.044-292.723c0-.573.016-1.147-.018-1.718-.021-.363.115-.425.446-.432,1.7-.036,1.7-.046,1.694,1.622,0,.176-.006.352-.01.529l-.087.077a4.022,4.022,0,0,1-1.939,0Z" transform="translate(1649.859 329.009)"/>
  <path id="Path_7221" data-name="Path 7221" d="M-1411.573-292.723c0-.573.016-1.147-.018-1.718-.022-.363.116-.425.446-.432,1.7-.036,1.7-.046,1.694,1.622,0,.176-.006.352-.01.529l-.087.077a4.019,4.019,0,0,1-1.939,0Z" transform="translate(1462.912 329.009)"/>
  <path id="Path_7222" data-name="Path 7222" d="M-1628.075-282.851c.573,0,1.147.016,1.719-.017.362-.021.426.114.433.446.036,1.7.046,1.7-1.622,1.695-.176,0-.353-.006-.529-.01l-.081-.094a2.934,2.934,0,0,1,.1-2.038Z" transform="translate(1641.003 319.136)"/>
  <path id="Path_7223" data-name="Path 7223" d="M-1421.446-280.733c-.573,0-1.147-.016-1.718.018-.363.022-.425-.116-.432-.447-.036-1.7-.046-1.7,1.622-1.694.177,0,.353.006.529.009l-.02-.019a2.941,2.941,0,0,1,.1,2.039Z" transform="translate(1472.784 319.132)"/>
  <path id="Path_7224" data-name="Path 7224" d="M-1400.6-282.851c.573,0,1.147.016,1.719-.017.362-.021.426.114.433.446.037,1.7.046,1.7-1.622,1.695-.176,0-.352-.006-.529-.01l-.081-.094a2.937,2.937,0,0,1,.1-2.038Z" transform="translate(1454.056 319.136)"/>
  <path id="Path_7225" data-name="Path 7225" d="M-1648.917-280.733c-.573,0-1.147-.016-1.718.018-.364.022-.425-.116-.432-.447-.036-1.7-.045-1.7,1.623-1.694.176,0,.352.006.529.009l-.02-.019a2.945,2.945,0,0,1,.1,2.039Z" transform="translate(1659.73 319.132)"/>
  <path id="Path_7226" data-name="Path 7226" d="M-1409.455-271.964c0,.573-.016,1.147.017,1.719.021.362-.115.426-.446.433-1.7.036-1.7.046-1.694-1.623,0-.176.006-.353.009-.529l-.018.019a2.432,2.432,0,0,1,2.151,0Z" transform="translate(1462.908 310.363)"/>
  <path id="Path_7227" data-name="Path 7227" d="M-1639.044-484.278c0-.573.016-1.147-.018-1.719-.021-.363.116-.425.447-.432,1.7-.036,1.7-.045,1.694,1.623,0,.176-.006.352-.009.529l.018-.019a2.941,2.941,0,0,1-2.039.1Z" transform="translate(1649.859 486.438)"/>
  <path id="Path_7228" data-name="Path 7228" d="M-1411.574-484.278c0-.573.016-1.147-.017-1.719-.021-.362.115-.426.446-.433,1.7-.036,1.7-.046,1.694,1.623,0,.176-.006.353-.009.529l.018-.019a2.434,2.434,0,0,1-2.151,0Z" transform="translate(1462.912 486.438)"/>
  <path id="Path_7229" data-name="Path 7229" d="M-1648.916-472.287c-.573,0-1.148-.016-1.719.017-.362.021-.426-.115-.433-.446-.036-1.7-.046-1.7,1.623-1.695.176,0,.352.006.529.009l-.02-.019a2.434,2.434,0,0,1,0,2.152Z" transform="translate(1659.731 476.561)"/>
  <path id="Path_7230" data-name="Path 7230" d="M-1636.926-271.964c0,.573-.016,1.147.018,1.719.021.362-.115.426-.446.433-1.7.036-1.7.046-1.695-1.623,0-.176.006-.353.009-.529l-.019.019a2.433,2.433,0,0,1,2.152,0Z" transform="translate(1649.854 310.363)"/>
  <path id="Path_7231" data-name="Path 7231" d="M-1603.646-231.509a2.073,2.073,0,0,1-1.73,2.373q-5.647,1.519-11.3,3.031-11.4,3.051-22.788,6.11a3.852,3.852,0,0,1-2.892-.277c-1.363-.69-2.755-1.323-4.134-1.982a5.319,5.319,0,0,0-3.819-.353c-1.752.479-3.511.934-5.265,1.4-.284.076-.52.2-.638-.251-.772-2.958-1.569-5.909-2.357-8.863a.557.557,0,0,1,0-.133A3.017,3.017,0,0,1-1657.1-231c4.4-1.159,8.781-2.362,13.178-3.521a5.077,5.077,0,0,1,2.57.012c3.953,1.015,7.89,2.091,11.826,3.168.566.155,1.186.273,1.5.885a2.1,2.1,0,0,1-2.763,2.351c-1.35-.349-2.694-.726-4.041-1.089-2.865-.772-5.733-1.535-8.594-2.324-.439-.121-.69-.124-.759.415-.064.5-.506,1.072-.275,1.439.193.307.871.317,1.338.443,3.869,1.046,7.741,2.082,11.608,3.134a4.491,4.491,0,0,0,4.4-.97,1.347,1.347,0,0,0,.907-.079c6.5-1.715,12.977-3.5,19.477-5.211a3.4,3.4,0,0,1,2.023.075A1.827,1.827,0,0,1-1603.646-231.509Z" transform="translate(1665.891 279.531)" fill="#fec377"/>
  <path id="Path_7232" data-name="Path 7232" d="M-1684.093-224.345c.271-.039.226.25.278.443q1.267,4.715,2.528,9.432c.355,1.326.7,2.656,1.075,3.975.114.4.094.562-.365.681-1.553.4-1.549.425-1.966-1.131-1.1-4.106-2.2-8.214-3.315-12.315-.121-.442-.09-.646.4-.724A13.928,13.928,0,0,0-1684.093-224.345Z" transform="translate(1688.365 271.041)" fill="#006def"/>
  <path id="Path_7233" data-name="Path 7233" d="M-1628.972-234.488a10.143,10.143,0,0,0-3.542-1.238q-4.983-1.363-9.982-2.663a4.473,4.473,0,0,0-2.3.009q-6.529,1.734-13.053,3.484c-.554.148-1.113.277-1.669.415-.339-.9-.34-.9.578-1.15q7.087-1.9,14.173-3.8a4.406,4.406,0,0,1,2.358.005q5.8,1.563,11.609,3.1A2.1,2.1,0,0,1-1628.972-234.488Z" transform="translate(1666.838 283.564)" fill="#fea633"/>
  <path id="Path_7234" data-name="Path 7234" d="M-1458.488-225.393a7.207,7.207,0,0,0-.851-.494,3.379,3.379,0,0,0-2.263-.16q-9.879,2.675-19.769,5.313c-.236.063-.533.282-.577-.2a2.354,2.354,0,0,1,1.606-1.126c6.305-1.665,12.6-3.363,18.9-5.05C-1459.86-227.539-1458.667-226.842-1458.488-225.393Z" transform="translate(1520.733 273.415)" fill="#fea633"/>
  <path id="Path_7235" data-name="Path 7235" d="M-1590.6-430.749a14.37,14.37,0,0,1-7.029-.411,16,16,0,0,1-11.463-16.206,16.063,16.063,0,0,1,12.895-14.826,13.627,13.627,0,0,1,5.613-.051,15.581,15.581,0,0,1,7.111,5.59,15.966,15.966,0,0,1,3.1,7.355,16.938,16.938,0,0,1-4.2,14.316,16.843,16.843,0,0,1-3.921,3.264A10.6,10.6,0,0,1-1590.6-430.749Z" transform="translate(1625.24 466.775)" fill="#fee377"/>
  <path id="Path_7236" data-name="Path 7236" d="M-1505.2-429.5a33.632,33.632,0,0,0,3.774-2.328,16.856,16.856,0,0,0,6.076-9.564,16.522,16.522,0,0,0-1.558-11.835,16.837,16.837,0,0,0-7.367-7.24,2.483,2.483,0,0,1-.908-.526,13.912,13.912,0,0,1,7.074,2.974c5.316,4.233,7.466,9.782,5.929,16.393-1.523,6.552-5.877,10.528-12.426,12.075A3.959,3.959,0,0,1-1505.2-429.5Z" transform="translate(1539.84 465.529)" fill="#fed322"/>
  <circle id="Ellipse_1245" data-name="Ellipse 1245" cx="1.521" cy="1.521" r="1.521" transform="translate(50.757 1.822) rotate(-4.606)" fill="#fefefe"/>
  <circle id="Ellipse_1246" data-name="Ellipse 1246" cx="1.521" cy="1.521" r="1.521" transform="translate(10.267 1.783) rotate(-3.2)" fill="#fefefe"/>
  <circle id="Ellipse_1247" data-name="Ellipse 1247" cx="1.521" cy="1.521" r="1.521" transform="matrix(0.053, -0.999, 0.999, 0.053, 1.74, 19.586)" fill="#fefefe"/>
  <circle id="Ellipse_1248" data-name="Ellipse 1248" cx="1.521" cy="1.521" r="1.521" transform="translate(59.406 16.626)" fill="#fefefe"/>
  <circle id="Ellipse_1249" data-name="Ellipse 1249" cx="1.521" cy="1.521" r="1.521" transform="translate(10.35 35.821)" fill="#fefefe"/>
  <circle id="Ellipse_1250" data-name="Ellipse 1250" cx="1.521" cy="1.521" r="1.521" transform="translate(50.874 35.821)" fill="#fefefe"/>
  <path id="Path_7237" data-name="Path 7237" d="M-1553.693-450.445c.688,0,1.377-.014,2.065,0s1.194.438,1.108,1.125a2.425,2.425,0,0,0,1.323,2.587,6.856,6.856,0,0,1,2.955,5.62c.046.9-.368,1.321-1.26,1.326-1.31.007-2.62.01-3.93,0a1.076,1.076,0,0,1-1.2-1.06c-.11-.7-.534-1.1-1.124-1.068a1.083,1.083,0,0,0-1.008,1.049c-.009.625.448,1.045,1.177,1.084a7.437,7.437,0,0,1,7.106,5.664,7.411,7.411,0,0,1-3.518,8.257.843.843,0,0,0-.513.865c.015,2.266-.008,2.276-2.308,2.276-.932,0-1.865.005-2.8,0-.877-.006-1.348-.4-1.261-1.243a2.233,2.233,0,0,0-1.2-2.38,6.9,6.9,0,0,1-3.076-5.692c-.051-.938.362-1.342,1.3-1.346q1.9-.007,3.8,0c.83,0,1.154.288,1.288,1.107a1.088,1.088,0,0,0,1.17,1.018,1.086,1.086,0,0,0,.959-1.1,1.09,1.09,0,0,0-1.162-1.032,7.417,7.417,0,0,1-7.349-7.809,7.118,7.118,0,0,1,3.806-6.164.717.717,0,0,0,.448-.767,10.555,10.555,0,0,1,0-1.2,1.06,1.06,0,0,1,1.135-1.12C-1555.07-450.458-1554.381-450.445-1553.693-450.445Z" transform="translate(1585.83 456.862)"/>
  <path id="Path_7238" data-name="Path 7238" d="M-1542.735-436.59c.22.428.658.569,1.036.791a5.4,5.4,0,0,1,2.018,3c.081.247.188.506-.035.744a1.3,1.3,0,0,1-1.531-.713,3.118,3.118,0,0,0-4.747-.56l-.39.358a.433.433,0,0,1-.109.073,2.021,2.021,0,0,0-1.438,1.93,2.021,2.021,0,0,0,1.438,1.93.425.425,0,0,1,.109.073,3.784,3.784,0,0,0,2.91,1.222,3.227,3.227,0,0,1,1.773.483,6.259,6.259,0,0,1,0,9.645c-.375.226-.816.368-1.035.8a1.438,1.438,0,0,0-.964,1.539.371.371,0,0,1-.147.286c-1.062.055-1.1.053-1.051-.98a1.47,1.47,0,0,0-1.067-1.6,5.172,5.172,0,0,1-3.1-3.779h1.22a12.216,12.216,0,0,0,1.46.917,3.3,3.3,0,0,0,3.1,1.138,3.2,3.2,0,0,0,2.626-3.413,3.226,3.226,0,0,0-3.163-2.927,5.3,5.3,0,0,1-5.115-3.815,5.236,5.236,0,0,1,3.007-6.414,1.428,1.428,0,0,0,1.03-1.56c-.043-1.04-.01-1.042,1.052-.986a.372.372,0,0,1,.147.286A1.435,1.435,0,0,0-1542.735-436.59Z" transform="translate(1575.978 446.984)" fill="#fecc00"/>
  <path id="Path_7239" data-name="Path 7239" d="M-1507.259-366.09a13.536,13.536,0,0,0,1.408-1.917,6.367,6.367,0,0,0-1.042-7.265c-.137-.141-.312-.256-.366-.464a5.226,5.226,0,0,1,3.174,4.856A5.223,5.223,0,0,1-1507.259-366.09Z" transform="translate(1541.535 395.457)" fill="#dcb100"/>
  <path id="Path_7240" data-name="Path 7240" d="M-1541.5-403.784a1.925,1.925,0,0,1-1.726-2.035,1.923,1.923,0,0,1,1.726-1.97A3.387,3.387,0,0,0-1541.5-403.784Z" transform="translate(1571.096 421.801)" fill="#dcb100"/>
  <path id="Path_7241" data-name="Path 7241" d="M-1505.26-419.912a5.7,5.7,0,0,0-1.4-3.046c-.194-.232-.482-.387-.587-.694a4.959,4.959,0,0,1,3.024,3.718A3.448,3.448,0,0,1-1505.26-419.912Z" transform="translate(1541.522 434.838)" fill="#dbb000"/>
  <path id="Path_7242" data-name="Path 7242" d="M-1518.193-436.6c-1.092-.24-1.1-.252-1.113-1.824a.566.566,0,0,1,.065-.01c1-.039,1-.039,1.007.978C-1518.233-437.175-1518.208-436.89-1518.193-436.6Z" transform="translate(1551.436 446.999)" fill="#dcb100"/>
  <path id="Path_7243" data-name="Path 7243" d="M-1519.306-315.3c0-.174,0-.347,0-.521,0-.969.092-1.076,1.108-1.3-.014.285-.038.57-.039.856C-1518.24-315.241-1518.237-315.241-1519.306-315.3Z" transform="translate(1551.436 347.285)" fill="#dcb100"/>
  <path id="Path_7244" data-name="Path 7244" d="M-1540.276-341.939c-.713.054-1.066-.463-1.459-.917C-1540.907-343.1-1540.526-342.623-1540.276-341.939Z" transform="translate(1569.869 368.488)" fill="#daaf00"/>
</svg>
