<svg xmlns="http://www.w3.org/2000/svg" width="59.891" height="59.865" viewBox="0 0 59.891 59.865">
  <g id="Group_13568" data-name="Group 13568" transform="translate(0 0)">
    <g id="Group_13567" data-name="Group 13567" transform="translate(0 0)">
      <path id="Path_7186" data-name="Path 7186" d="M-842.015,256.409c.34-.411.346-.961.613-1.414a5.011,5.011,0,0,1,4.4-2.608,2.447,2.447,0,0,1,.984.332,7.433,7.433,0,0,0,5.8.04,3.981,3.981,0,0,1,4.186.673A4.561,4.561,0,0,1-824.1,257c.124,2.141.1,4.285.025,6.424a2.8,2.8,0,0,1-2.444,2.832c-.025.006-.039.058-.058.089h-12.98a2.737,2.737,0,0,1-2.456-2.339Z" transform="translate(842.015 -206.482)"/>
      <path id="Path_7187" data-name="Path 7187" d="M-553.887,266.329c-1.953-.749-2.429-2.277-2.314-4.2.106-1.766-.063-3.541.082-5.31a4.978,4.978,0,0,1,4.989-4.453,3.072,3.072,0,0,1,.98.35,7.543,7.543,0,0,0,5.853-.007,3.65,3.65,0,0,1,3.236.172,4.828,4.828,0,0,1,2.834,4.535c.043,1.946.026,3.894,0,5.841a3.091,3.091,0,0,1-2.45,3.073Z" transform="translate(598.091 -206.463)"/>
      <path id="Path_7188" data-name="Path 7188" d="M-690.2,41.522c-1.889,0-3.777.006-5.666,0a3.022,3.022,0,0,1-3.314-3.343c.022-2.14-.126-4.283.092-6.419a5.03,5.03,0,0,1,4.993-4.2,2.019,2.019,0,0,1,.65.234,7.681,7.681,0,0,0,6.392.022,3.357,3.357,0,0,1,2.963.245,4.882,4.882,0,0,1,2.878,4.631c.035,1.888.021,3.777,0,5.665a3.005,3.005,0,0,1-3.15,3.16H-690.2Z" transform="translate(720.133 -14.59)"/>
      <path id="Path_7189" data-name="Path 7189" d="M-788.437-14.609A20.452,20.452,0,0,0-795.689-7.7a21.987,21.987,0,0,0-3.464,11.589c-.012.55-.141,1.02-.741,1.173-.717.183-1.27-.3-1.252-1.122a23.68,23.68,0,0,1,.485-4.58,23.718,23.718,0,0,1,11.628-16.043c.149-.087.293-.18.482-.3-.649-.3-1.252-.568-1.845-.855-.645-.312-.876-.826-.634-1.363a1,1,0,0,1,1.434-.452q1.9.832,3.775,1.7a1.006,1.006,0,0,1,.512,1.457q-.937,1.978-1.9,3.94a1.014,1.014,0,0,1-1.386.6,1.038,1.038,0,0,1-.406-1.461C-788.827-13.813-788.627-14.209-788.437-14.609Z" transform="translate(807.135 25.806)" fill="#fedb13"/>
      <path id="Path_7190" data-name="Path 7190" d="M-567.312,12.368c.526-.533.912-.942,1.318-1.331a.987.987,0,0,1,1.5-.089,1.024,1.024,0,0,1-.108,1.5q-1.389,1.421-2.8,2.819a1,1,0,0,1-1.542-.013q-1.413-1.4-2.805-2.817a1,1,0,0,1-.1-1.5,1,1,0,0,1,1.5.1c.157.145.31.3.455.454a1.967,1.967,0,0,0,.44.411,7.364,7.364,0,0,0-.307-2.322A21.813,21.813,0,0,0-580.887-4.8c-.494-.27-1.02-.481-1.524-.734a1.027,1.027,0,0,1-.608-1.426,1.019,1.019,0,0,1,1.468-.374,23.79,23.79,0,0,1,13.78,16.651A15.691,15.691,0,0,1-567.312,12.368Z" transform="translate(621.064 15.314)" fill="#fedb13"/>
      <path id="Path_7191" data-name="Path 7191" d="M-672.558-48.96a5.974,5.974,0,0,1-5.89-6.171,6.014,6.014,0,0,1,6.109-5.786,6.007,6.007,0,0,1,5.833,6.178A6,6,0,0,1-672.558-48.96Z" transform="translate(702.414 60.918)"/>
      <path id="Path_7192" data-name="Path 7192" d="M-529.517,163.889a5.993,5.993,0,0,1,5.956,6,6.014,6.014,0,0,1-6,5.962,6.044,6.044,0,0,1-5.963-6.006A6.014,6.014,0,0,1-529.517,163.889Z" transform="translate(580.428 -130.951)"/>
      <path id="Path_7193" data-name="Path 7193" d="M-821.5,169.879a5.984,5.984,0,0,1,5.961-5.99,6.019,6.019,0,0,1,6,5.963,6.045,6.045,0,0,1-5.972,6A6.015,6.015,0,0,1-821.5,169.879Z" transform="translate(824.502 -130.951)"/>
      <path id="Path_7194" data-name="Path 7194" d="M-702.638,277.1c.215.426.443.85.647,1.286a1.014,1.014,0,0,1-.343,1.419.982.982,0,0,1-1.416-.5q-.983-1.823-1.925-3.668a1.023,1.023,0,0,1,.681-1.512c1.212-.356,2.424-.71,3.639-1.053.762-.215,1.288.009,1.482.606.186.573-.159,1.061-.913,1.319-.154.052-.364.006-.465.23a15.685,15.685,0,0,0,3.48.618,22.041,22.041,0,0,0,10.068-1.468,4.564,4.564,0,0,1,.555-.175.984.984,0,0,1,1.231.6.988.988,0,0,1-.579,1.253,20.678,20.678,0,0,1-3.533,1.191,23.845,23.845,0,0,1-12.175-.162A.463.463,0,0,0-702.638,277.1Z" transform="translate(725.765 -224.067)" fill="#fedb13"/>
      <path id="Path_7195" data-name="Path 7195" d="M-828.42,275.255c0-2.006-.049-4.013,0-6.019a2.859,2.859,0,0,1,1.9-2.7,1.733,1.733,0,0,1,1.4,0,9.693,9.693,0,0,0,7.015.133,2.471,2.471,0,0,1,3.345,1.454c.121.362-.124.59-.325.812a18.912,18.912,0,0,1-12.1,6.367C-827.595,275.35-828.02,275.559-828.42,275.255Z" transform="translate(830.432 -218.433)" fill="#fea411"/>
      <path id="Path_7196" data-name="Path 7196" d="M-828.285,285.353a17.97,17.97,0,0,0,6.634-1.574A19.135,19.135,0,0,0-815.109,279a1.772,1.772,0,0,0,.488-.778,2.812,2.812,0,0,1,.294,1.518c.015,1.771.011,3.541,0,5.312,0,1.013-.358,1.356-1.382,1.356q-5.634,0-11.267,0C-827.859,286.4-828.161,286.156-828.285,285.353Z" transform="translate(830.297 -228.53)" fill="#ef7f15"/>
      <path id="Path_7197" data-name="Path 7197" d="M-542.289,269.043a2.931,2.931,0,0,1,2.284-2.748,1.387,1.387,0,0,1,.851.083,9.761,9.761,0,0,0,7.606,0,1.619,1.619,0,0,1,1.347.093,2.618,2.618,0,0,1,1.62,1.781,7.734,7.734,0,0,1-1.541,1.811,19.059,19.059,0,0,1-10.386,5.077c-.443.064-.887.129-1.333.155-.272.016-.5-.047-.492-.413C-542.3,272.934-542.381,270.988-542.289,269.043Z" transform="translate(586.242 -218.326)" fill="#4db4fe"/>
      <path id="Path_7198" data-name="Path 7198" d="M-542.44,280.617c.01,1.848.04,3.7.016,5.543-.007.546.221.612.661.553a20.9,20.9,0,0,0,5.823-1.507,20.766,20.766,0,0,0,4.851-3.064c.855-.712,1.516-1.6,2.357-2.32a2.222,2.222,0,0,1,.221,1.183q0,2.718,0,5.436c0,.979-.359,1.332-1.347,1.333q-5.67,0-11.34,0c-.86,0-1.285-.337-1.3-1.151-.031-1.948-.007-3.9,0-5.844A.523.523,0,0,1-542.44,280.617Z" transform="translate(586.393 -229.9)" fill="#3595d7"/>
      <path id="Path_7199" data-name="Path 7199" d="M-685.157,43.919a2.952,2.952,0,0,1,2.47-2.52,1.674,1.674,0,0,1,.885.229,9.782,9.782,0,0,0,6.954.066,2.365,2.365,0,0,1,2.884.748,1.923,1.923,0,0,1,.492.908,7.813,7.813,0,0,1-1.991,2.264,19.142,19.142,0,0,1-9.5,4.609,6.955,6.955,0,0,1-1.8.178c-.252-.021-.448-.082-.443-.41C-685.168,47.967-685.242,45.943-685.157,43.919Z" transform="translate(708.175 -26.4)" fill="#ee2648"/>
      <path id="Path_7200" data-name="Path 7200" d="M-685.488,55.336c.006,1.906.026,3.811.007,5.717,0,.471.1.664.61.622a18.14,18.14,0,0,0,6.038-1.569,19.207,19.207,0,0,0,6.09-4.314,5.207,5.207,0,0,1,.941-1.025,2.733,2.733,0,0,1,.23,1.248q.01,2.684,0,5.368c0,1.017-.346,1.357-1.366,1.358q-5.632,0-11.263,0c-1.006,0-1.379-.36-1.383-1.354-.007-1.809,0-3.618,0-5.427A1.061,1.061,0,0,1-685.488,55.336Z" transform="translate(708.507 -37.817)" fill="#b10d24"/>
      <path id="Path_7201" data-name="Path 7201" d="M-660.877-39.35a3.97,3.97,0,0,1-3.97-3.963,4.011,4.011,0,0,1,3.954-4,4,4,0,0,1,4,3.95A3.975,3.975,0,0,1-660.877-39.35Z" transform="translate(690.805 49.306)" fill="#fed3af"/>
      <path id="Path_7202" data-name="Path 7202" d="M-517.907,177.536a3.959,3.959,0,0,1,3.965,3.963,4,4,0,0,1-4.011,4,4.027,4.027,0,0,1-3.952-4.01A4,4,0,0,1-517.907,177.536Z" transform="translate(568.805 -142.599)" fill="#fed3af"/>
      <path id="Path_7203" data-name="Path 7203" d="M-804.466,185.4a3.94,3.94,0,0,1-2.716-6.1,3.863,3.863,0,0,1,4-1.717,3.975,3.975,0,0,1,3.188,3.037,1.657,1.657,0,0,1,.014.289c.359,1.77-1.446,3.912-3.124,4.381A2.714,2.714,0,0,1-804.466,185.4Z" transform="translate(812.852 -142.594)" fill="#fed3af"/>
      <path id="Path_7204" data-name="Path 7204" d="M-784.774,205.1c2.088.222,4.713-2.4,4.491-4.49A3.905,3.905,0,0,1-784.774,205.1Z" transform="translate(793.161 -162.291)" fill="#e9c1a0"/>
    </g>
  </g>
</svg>
