<svg xmlns="http://www.w3.org/2000/svg" width="308.321" height="236.434" viewBox="0 0 308.321 236.434">
  <g id="Sign_in-pana" data-name="Sign in-pana" transform="translate(-32.466 -60.283)">
    <g id="freepik--background-simple--inject-32" transform="translate(87.794 60.283)">
      <path id="Path_7354" data-name="Path 7354" d="M293.448,77.675l-1.472-2.428c-12.419-20.465-34.871-32.8-58.545-31.317a62.1,62.1,0,0,0-9.059,1.258C202.85,49.8,184.109,66.074,176.358,86.916c-4.567,12.261-5.838,26.372-14.5,36.1-11.28,12.664-30.417,13.06-47.246,12.538s-35.985-.082-47.183,12.632c-7.021,7.964-9.254,19.288-8.688,29.952,1.5,28.228,21.169,53.474,46.189,66.019s54.474,13.671,81.853,8.178c38.376-7.732,74.864-28.97,96.757-61.766S310.987,113.075,293.448,77.675Z" transform="translate(-50.849 -43.81)" fill="#f0f7ff"/>
      <circle id="Ellipse_1256" data-name="Ellipse 1256" cx="21.968" cy="21.968" r="21.968" transform="translate(0 41.816) rotate(-45)" fill="#f0f7ff"/>
    </g>
    <g id="freepik--Floor--inject-32" transform="translate(32.466 276.515)">
      <path id="Path_7355" data-name="Path 7355" d="M305.289,445.9c0,.088-60.923.164-136.063.164S33.15,445.992,33.15,445.9s60.91-.164,136.076-.164S305.289,445.809,305.289,445.9Z" transform="translate(-33.15 -445.74)" fill="#263238"/>
    </g>
    <g id="freepik--speech-bubble--inject-32" transform="translate(246.85 99.591)">
      <path id="Path_7414" data-name="Path 7414" d="M417.773,164.81H380.109a5.939,5.939,0,0,0-5.939,5.939v9.374a5.939,5.939,0,0,0,5.939,5.939h.39v5.354l6.033-5.354h31.242a5.939,5.939,0,0,0,5.939-5.939v-9.374A5.939,5.939,0,0,0,417.773,164.81Z" transform="translate(-374.016 -164.621)" fill="#fff"/>
      <path id="Path_7415" data-name="Path 7415" d="M417.683,164.7h.327a5.432,5.432,0,0,1,.868.082c.189.038.4.094.629.151a6.4,6.4,0,0,1,.73.283,5.851,5.851,0,0,1,1.623,1.095,6.1,6.1,0,0,1,1.4,2.013,6.846,6.846,0,0,1,.472,2.881v9.185a6.065,6.065,0,0,1-3.775,5.247,6.379,6.379,0,0,1-2.391.447H386.454l.107-.044-6.027,5.36-.277.239v-5.719l.164.164a6.392,6.392,0,0,1-3.378-.786,6.222,6.222,0,0,1-2.4-2.447,6.676,6.676,0,0,1-.585-1.611,8.027,8.027,0,0,1-.132-1.68v-8.071c0-.522,0-1.044.044-1.579a6.121,6.121,0,0,1,3.51-4.832,6.4,6.4,0,0,1,2.919-.56h18.049l14.086.05h0l-14.086.057H380.4a6.021,6.021,0,0,0-2.793.535,5.794,5.794,0,0,0-3.328,4.592,14.034,14.034,0,0,0-.038,1.548v8.071a7.687,7.687,0,0,0,.126,1.617,6.43,6.43,0,0,0,.56,1.522,5.864,5.864,0,0,0,2.271,2.315,6.078,6.078,0,0,0,3.215.742h.164v5.524l-.277-.12,6.033-5.354.044-.044h28.694c1.68-.05,3.353.208,4.781-.415a5.813,5.813,0,0,0,3.636-5.033c.038-.679,0-1.371,0-2.032v-7.14a6.777,6.777,0,0,0-.434-2.831,5.991,5.991,0,0,0-1.353-1.982,5.735,5.735,0,0,0-1.579-1.095,6.79,6.79,0,0,0-.711-.289l-.629-.164Q418.228,164.618,417.683,164.7Z" transform="translate(-373.926 -164.51)" fill="#263238"/>
      <path id="Path_7416" data-name="Path 7416" d="M390.294,179.686l1.208.629-.686,1.132-1.258-.742.038,1.359H388.25l.031-1.359-1.258.742-.673-1.132,1.2-.629-1.2-.661.673-1.139,1.258.761-.031-1.378H389.6l-.038,1.378,1.258-.761.686,1.139Z" transform="translate(-378.534 -169.242)" fill="#e0e0e0"/>
      <path id="Path_7417" data-name="Path 7417" d="M399.176,179.686l1.208.629-.686,1.132-1.258-.742.038,1.359h-1.346V180.7l-1.258.742-.673-1.132,1.2-.629-1.2-.661.673-1.139,1.258.761V177.27h1.346l-.038,1.378,1.258-.761.686,1.139Z" transform="translate(-381.816 -169.242)" fill="#e0e0e0"/>
      <path id="Path_7418" data-name="Path 7418" d="M408.091,179.686l1.208.629-.686,1.132-1.258-.742.031,1.359H406.04l.031-1.359-1.258.742-.673-1.132,1.2-.629-1.2-.661.673-1.139,1.258.761-.031-1.378h1.346l-.031,1.378,1.258-.761.686,1.139Z" transform="translate(-385.132 -169.242)" fill="#e0e0e0"/>
      <path id="Path_7419" data-name="Path 7419" d="M416.991,179.686l1.208.629-.686,1.132-1.258-.742.031,1.359H414.94l.031-1.359-1.258.742-.673-1.132,1.208-.629-1.208-.661.673-1.139,1.258.761-.031-1.378h1.346l-.031,1.378,1.258-.761.686,1.139Z" transform="translate(-388.433 -169.242)" fill="#e0e0e0"/>
      <path id="Path_7420" data-name="Path 7420" d="M425.906,179.686l1.208.629-.686,1.132-1.258-.742.031,1.359H423.88l.031-1.359-1.258.742-.673-1.132,1.208-.629-1.2-.661.673-1.139,1.258.761-.031-1.378h1.346l-.031,1.378,1.258-.761.686,1.139Z" transform="translate(-391.749 -169.242)" fill="#e0e0e0"/>
      <path id="Path_7421" data-name="Path 7421" d="M434.824,179.719l1.208.629-.654,1.189-1.258-.742v1.359h-1.346l.031-1.359-1.2.742-.673-1.132,1.208-.629-1.208-.661.673-1.139,1.258.761-.031-1.378h1.29v1.378l1.258-.761.686,1.139Z" transform="translate(-395.068 -169.276)" fill="#e0e0e0"/>
    </g>
    <g id="freepik--Plant--inject-32" transform="translate(94.578 130.896)">
      <path id="Path_7422" data-name="Path 7422" d="M52.1,219.63c7.423,3.844,13.111,10.462,17.2,17.747s6.731,15.281,9.342,23.22l2.284,40.936c-8.631-14.683-15.564-31.971-17.433-48.888l5.744-.51c-3.85-.591-7.084-3.378-9.141-6.687s-3.146-7.128-4.152-10.884l7.008,1.025A25.976,25.976,0,0,1,52.1,219.63Z" transform="translate(-39.505 -216.258)" fill="#455a64"/>
      <g id="Group_14181" data-name="Group 14181" transform="translate(12.595 3.372)" opacity="0.3">
        <path id="Path_7423" data-name="Path 7423" d="M52.1,219.63c7.423,3.844,13.111,10.462,17.2,17.747s6.731,15.281,9.342,23.22l2.284,40.936c-8.631-14.683-15.564-31.971-17.433-48.888l5.744-.51c-3.85-.591-7.084-3.378-9.141-6.687s-3.146-7.128-4.152-10.884l7.008,1.025A25.976,25.976,0,0,1,52.1,219.63Z" transform="translate(-52.1 -219.63)"/>
      </g>
      <path id="Path_7424" data-name="Path 7424" d="M97.793,309.139s18.741-22.428,18.527-43.842h-7.549s8.222-5.41,7.549-8.436-.868-14.469-.868-14.469l-6.92,1.73s5.19-2.6,5.838-6.706-1.51-23.145-1.51-23.145-8.436,8.87-11.035,17.955-9.437,19.678-7.4,47.366S97.793,309.139,97.793,309.139Z" transform="translate(-55.064 -214.27)" fill="#455a64"/>
      <path id="Path_7425" data-name="Path 7425" d="M65.278,325.646s-20.3-13.526-24.812-30.789l6.083-1.661s-7.788-2.548-7.933-5.121-2.472-11.84-2.472-11.84l5.945-.126s-4.743-.95-6.165-4.114S32.08,253.06,32.08,253.06s8.719,5.284,12.8,12.022S56.747,278.847,61.2,301.539,65.278,325.646,65.278,325.646Z" transform="translate(-32.08 -228.657)" fill="#455a64"/>
      <path id="Path_7426" data-name="Path 7426" d="M109.444,245.33a1.37,1.37,0,0,1-.031.239l-.132.7c-.126.629-.3,1.529-.535,2.674s-.522,2.579-.83,4.234-.686,3.529-1.051,5.612c-.774,4.165-1.6,9.135-2.447,14.671S102.757,285.083,102,291.5s-1.309,12.544-1.768,18.125-.768,10.613-.963,14.841c-.12,2.114-.189,4.026-.258,5.706s-.12,3.146-.151,4.309-.076,2.082-.094,2.724a4.488,4.488,0,0,1-.031.711,1.434,1.434,0,0,1,0,.239,1.391,1.391,0,0,1,0-.239c0-.176,0-.409,0-.711v-2.724c0-1.17.044-2.636.1-4.316s.1-3.6.208-5.712c.17-4.234.478-9.267.893-14.853s1.013-11.714,1.749-18.137,1.592-12.519,2.435-18.055,1.717-10.5,2.516-14.658c.377-2.089.768-3.963,1.1-5.612s.629-3.064.887-4.221.453-2.038.591-2.661l.164-.692a1.371,1.371,0,0,1,.063-.233Z" transform="translate(-56.801 -225.79)" fill="#263238"/>
      <path id="Path_7427" data-name="Path 7427" d="M104.09,356.06s17.149-19.458,22.472-31.216l-4.02-1.717a10.5,10.5,0,0,0,8.178-2.674,30.193,30.193,0,0,0,5.542-6.87l-5.31-.868a19.7,19.7,0,0,0,11.569-8.965c-6.253,1.032-11.9,4.46-16.564,8.751a82.759,82.759,0,0,0-10.034,11.6,39.414,39.414,0,0,0-3.894,6.411C109.148,336.47,104.077,348.92,104.09,356.06Z" transform="translate(-58.788 -247.458)" fill="#455a64"/>
      <path id="Path_7428" data-name="Path 7428" d="M45,271.06a1.261,1.261,0,0,1,.113.182c.069.145.17.321.289.554.264.5.629,1.22,1.1,2.133.956,1.85,2.3,4.548,3.9,7.914s3.454,7.392,5.423,11.9,4.033,9.525,6.09,14.822,3.869,10.405,5.467,15.067,2.925,8.889,3.995,12.456,1.887,6.467,2.441,8.48l.629,2.315.157.629a.893.893,0,0,1,.038.208.628.628,0,0,1-.069-.2c-.05-.145-.113-.346-.189-.591-.157-.547-.384-1.321-.673-2.3-.579-2-1.441-4.888-2.516-8.443s-2.472-7.769-4.064-12.431-3.441-9.739-5.486-15.042-4.121-10.3-6.058-14.822-3.775-8.556-5.36-11.953-2.875-6.083-3.775-7.952l-1.044-2.158c-.113-.239-.2-.421-.264-.566a1.107,1.107,0,0,1-.145-.2Z" transform="translate(-36.872 -235.333)" fill="#263238"/>
      <path id="Path_7429" data-name="Path 7429" d="M101.764,380.518a1.772,1.772,0,0,1,0-.365c0-.277.063-.629.1-1.044s.113-1.007.214-1.642.2-1.371.352-2.17c.277-1.6.7-3.5,1.258-5.58s1.258-4.335,2.139-6.662,1.85-4.492,2.8-6.423,1.887-3.624,2.755-5.033c.409-.7.818-1.315,1.17-1.887a13.8,13.8,0,0,1,.925-1.371c.3-.371.447-.629.629-.849a1.524,1.524,0,0,1,.233-.289,1.968,1.968,0,0,1-.176.327l-.56.881c-.252.384-.547.849-.881,1.4s-.73,1.17-1.126,1.887c-.818,1.4-1.736,3.1-2.68,5.033s-1.887,4.089-2.762,6.4-1.579,4.567-2.158,6.631-1,3.951-1.309,5.542c-.17.793-.283,1.516-.4,2.152s-.2,1.183-.271,1.636-.12.761-.164,1.032a1.661,1.661,0,0,1-.094.39Z" transform="translate(-57.922 -263.573)" fill="#263238"/>
      <rect id="Rectangle_26836" data-name="Rectangle 26836" width="37.533" height="7.656" transform="translate(21.213 112.365)" fill="#fa935b"/>
      <path id="Path_7430" data-name="Path 7430" d="M101.784,405.05l-4.058,25.756H75.047L71.26,405.05Z" transform="translate(-46.612 -285.029)" fill="#fa935b"/>
      <path id="Path_7431" data-name="Path 7431" d="M69.46,404.954c0-.088,7.1-.164,15.86-.164s15.86.075,15.86.164-7.1.164-15.86.164S69.46,405.048,69.46,404.954Z" transform="translate(-45.944 -284.932)" fill="#263238"/>
    </g>
    <g id="freepik--Character--inject-32" transform="translate(191.389 137.823)">
      <path id="Path_7432" data-name="Path 7432" d="M360.738,391.887s45.113-23.5,54.9-10.538-9.82,23.151-13.608,25.441S359.92,422.1,359.92,422.1l-10.11-10.789Z" transform="translate(-309.52 -281.719)" fill="#263238"/>
      <path id="Path_7433" data-name="Path 7433" d="M392.3,420.39l17.986,9.682,16.439,3.561a2.1,2.1,0,0,1,1.566,2.63h0a2.064,2.064,0,0,1-1.315,1.39c-4.083,1.422-19.112,6.574-20.389,5.794-1.478-.906-19.653-8.958-19.653-8.958Z" transform="translate(-323.287 -297.645)" fill="#fa935b"/>
      <g id="Group_14182" data-name="Group 14182" transform="translate(82.069 138.592)" opacity="0.6">
        <path id="Path_7434" data-name="Path 7434" d="M439.151,445.605l-22.931,6.53.768.4a3.145,3.145,0,0,0,2.164.258c1.944-.459,7.291-1.887,18.653-5.763a2.088,2.088,0,0,0,1.346-1.447Z" transform="translate(-416.22 -445.58)" fill="#fff"/>
      </g>
      <g id="Group_14183" data-name="Group 14183" transform="translate(77.482 138.31)" opacity="0.6">
        <path id="Path_7435" data-name="Path 7435" d="M409.546,445.269a1.258,1.258,0,0,1,1.629.44,1.221,1.221,0,0,1-.422,1.623,1.34,1.34,0,0,1-1.724-.478,1.258,1.258,0,0,1,.629-1.636" transform="translate(-408.929 -445.132)" fill="#fff"/>
      </g>
      <path id="Path_7436" data-name="Path 7436" d="M436.025,443.057a7,7,0,0,1-.629-2.315,6.5,6.5,0,0,1,.667-2.3c-.1-.082-.3.12-.572.516a3.284,3.284,0,0,0-.541,1.78,3.247,3.247,0,0,0,.491,1.793C435.73,442.931,435.988,443.095,436.025,443.057Z" transform="translate(-341.097 -304.333)" fill="#263238"/>
      <path id="Path_7437" data-name="Path 7437" d="M441.311,443.4a18.363,18.363,0,0,1,.038-2.007c.208-1.076.78-1.805.679-1.887s-.9.579-1.12,1.812A2.336,2.336,0,0,0,441.311,443.4Z" transform="translate(-343.288 -304.733)" fill="#263238"/>
      <path id="Path_7438" data-name="Path 7438" d="M429.372,443.486a19.82,19.82,0,0,1-.151-3.108,26.54,26.54,0,0,1,.749-3.02,4.477,4.477,0,0,0-1.2,2.976A4.761,4.761,0,0,0,429.372,443.486Z" transform="translate(-338.797 -303.938)" fill="#263238"/>
      <path id="Path_7439" data-name="Path 7439" d="M420.609,440.29c.132,0,.22-1.208.843-2.516s1.46-2.208,1.371-2.309a3.9,3.9,0,0,0-1.78,2.12A4.024,4.024,0,0,0,420.609,440.29Z" transform="translate(-335.747 -303.233)" fill="#263238"/>
      <path id="Path_7440" data-name="Path 7440" d="M412.061,436a10.176,10.176,0,0,1,.812-2.674,11.807,11.807,0,0,1,1.831-2.108c-.057-.113-.352.038-.805.333a4.441,4.441,0,0,0-1.422,1.554,4.517,4.517,0,0,0-.566,2.032C411.9,435.678,412,436.005,412.061,436Z" transform="translate(-332.552 -301.647)" fill="#263238"/>
      <path id="Path_7441" data-name="Path 7441" d="M409.112,431.4a2.43,2.43,0,0,0-.673-.378,5.361,5.361,0,0,0-2.082-.371,2.4,2.4,0,0,0-1.478.39.862.862,0,0,0-.264.931,1.39,1.39,0,0,0,.679.711,2.957,2.957,0,0,0,3.611-1.07,3.422,3.422,0,0,0-.069-3.819,1.183,1.183,0,0,0-.856-.5.83.83,0,0,0-.78.573,2.919,2.919,0,0,0,0,1.516,5.926,5.926,0,0,0,.78,1.963,2.58,2.58,0,0,0,.491.629,9.434,9.434,0,0,1-.956-2.623,2.686,2.686,0,0,1,0-1.321.434.434,0,0,1,.421-.315.805.805,0,0,1,.547.365,3.051,3.051,0,0,1,0,3.309,2.567,2.567,0,0,1-3.051.95,1.013,1.013,0,0,1-.5-.472.459.459,0,0,1,.138-.516,2.152,2.152,0,0,1,1.258-.359A7.909,7.909,0,0,1,409.112,431.4Z" transform="translate(-329.83 -300.205)" fill="#263238"/>
      <path id="Path_7442" data-name="Path 7442" d="M361.51,404.886S319,379.13,313.257,375.947c-4.938-2.749-20.54-8.808-26.039,6.134S311.326,419.1,311.326,419.1l25.127,1.126,8.386-3.2,9.525,2.932Z" transform="translate(-286.053 -279.839)" fill="#263238"/>
      <path id="Path_7443" data-name="Path 7443" d="M337.093,441.472l-19.056,7.392L304.65,459.037a2.1,2.1,0,0,1-3.02-.516h0a2.089,2.089,0,0,1-.2-1.887c1.573-4.02,7.436-18.791,8.858-19.251,1.648-.535,19.584-9.1,19.584-9.1Z" transform="translate(-291.525 -300.572)" fill="#fa935b"/>
      <g id="Group_14184" data-name="Group 14184" transform="translate(9.733 136.233)" opacity="0.6">
        <path id="Path_7444" data-name="Path 7444" d="M301.611,463.515l9.934-21.685-.8.327a3.146,3.146,0,0,0-1.6,1.472c-.912,1.78-3.328,6.757-7.757,17.923A2.1,2.1,0,0,0,301.611,463.515Z" transform="translate(-301.238 -441.83)" fill="#fff"/>
      </g>
      <g id="Group_14185" data-name="Group 14185" transform="translate(25.36 136.163)" opacity="0.6">
        <path id="Path_7445" data-name="Path 7445" d="M328.445,443.154a1.258,1.258,0,0,1-1.4.95,1.214,1.214,0,0,1-.956-1.371,1.34,1.34,0,0,1,1.485-1,1.258,1.258,0,0,1,.837,1.541" transform="translate(-326.078 -441.719)" fill="#fff"/>
      </g>
      <path id="Path_7446" data-name="Path 7446" d="M312.11,463.947A6.341,6.341,0,0,1,314.262,465a7.6,7.6,0,0,1,1.315,2c.126-.025.1-.3,0-.768a3.328,3.328,0,0,0-2.68-2.359C312.4,463.821,312.11,463.909,312.11,463.947Z" transform="translate(-295.537 -313.767)" fill="#263238"/>
      <path id="Path_7447" data-name="Path 7447" d="M309,467.8c-.044.126.818.478,1.5,1.34s.874,1.762,1,1.743a2.3,2.3,0,0,0-.629-2.026C310.094,467.89,309,467.682,309,467.8Z" transform="translate(-294.383 -315.219)" fill="#263238"/>
      <path id="Path_7448" data-name="Path 7448" d="M315.619,457.908a24.15,24.15,0,0,1,2.46,1.887,21.9,21.9,0,0,1,1.806,2.516,4.44,4.44,0,0,0-1.485-2.844A4.579,4.579,0,0,0,315.619,457.908Z" transform="translate(-296.838 -311.553)" fill="#263238"/>
      <path id="Path_7449" data-name="Path 7449" d="M324.526,453.585c-.094.094.774.956,1.384,2.3s.73,2.548.862,2.516a5.11,5.11,0,0,0-2.246-4.813Z" transform="translate(-300.14 -309.954)" fill="#263238"/>
      <path id="Path_7450" data-name="Path 7450" d="M333.327,449.924a9.869,9.869,0,0,1,1.51,2.353,11.9,11.9,0,0,1,.4,2.762c.132.025.2-.289.277-.83a4.4,4.4,0,0,0-.264-2.089,4.491,4.491,0,0,0-1.17-1.755C333.673,450.006,333.359,449.874,333.327,449.924Z" transform="translate(-303.405 -308.596)" fill="#263238"/>
      <path id="Path_7451" data-name="Path 7451" d="M337.3,450.646a1.7,1.7,0,0,0,.724-.271,5.317,5.317,0,0,0,1.636-1.34,2.353,2.353,0,0,0,.661-1.378.83.83,0,0,0-.535-.805,1.366,1.366,0,0,0-.975.057,2.963,2.963,0,0,0-1.541,3.441,3.435,3.435,0,0,0,2.951,2.428,1.189,1.189,0,0,0,.937-.327.83.83,0,0,0,.069-.963,2.849,2.849,0,0,0-1.158-.975,6.1,6.1,0,0,0-2-.686,1.887,1.887,0,0,0-.774,0,9.63,9.63,0,0,1,2.617.975,2.717,2.717,0,0,1,.988.881.428.428,0,0,1-.038.522.812.812,0,0,1-.629.182,3.07,3.07,0,0,1-2.516-2.139,2.573,2.573,0,0,1,1.258-2.938.969.969,0,0,1,.679-.069.453.453,0,0,1,.3.44,2.145,2.145,0,0,1-.535,1.176A7.9,7.9,0,0,1,337.3,450.646Z" transform="translate(-304.828 -307.436)" fill="#263238"/>
      <path id="Path_7452" data-name="Path 7452" d="M337.8,445.234c.535-.277,22.057-9.04,22.057-9.04L338.472,425.6,325.6,432.275Z" transform="translate(-300.541 -299.578)" fill="#263238"/>
      <path id="Path_7453" data-name="Path 7453" d="M302.75,406.371l.3.088.849.283,3.253,1.126,11.953,4.2,39.414,13.91,1.887.585-.2.088,7.178-15.017.063.2-24.793-15.161-7.134-4.4-1.887-1.183-.484-.315c-.107-.069-.164-.107-.157-.113l.17.094.5.289,1.919,1.139,7.184,4.322,24.85,15.061.12.075-.057.126-7.159,15.036-.063.126-.132-.044-1.887-.585c-.988-.283-1.931-.629-2.881-.975l-2.831-1.007-5.555-1.982-10.449-3.731-17.7-6.291-11.922-4.3-3.234-1.183-.837-.315A2.472,2.472,0,0,1,302.75,406.371Z" transform="translate(-292.066 -286.615)" fill="#455a64"/>
      <path id="Path_7454" data-name="Path 7454" d="M337.627,446.462a8.9,8.9,0,0,1-.8-.761l-2.089-2.158c-1.755-1.831-4.165-4.4-6.813-7.2l-2.661-2.85-.145-.157.189-.094,6.53-3.146,1.887-.893a5.039,5.039,0,0,1,.7-.289,3.536,3.536,0,0,1-.629.384l-1.831.931-6.48,3.271.044-.252,2.674,2.844c2.649,2.825,5.033,5.4,6.744,7.272l2.013,2.227a6,6,0,0,1,.667.874Z" transform="translate(-300.363 -300.805)" fill="#455a64"/>
      <path id="Path_7455" data-name="Path 7455" d="M399.98,390.489c.038.082-5.259,2.384-11.827,5.133s-11.915,4.92-11.953,4.838,5.259-2.384,11.827-5.14S399.98,390.4,399.98,390.489Z" transform="translate(-319.308 -286.554)" fill="#455a64"/>
      <path id="Path_7456" data-name="Path 7456" d="M345.058,287.449c-.447,0-15.967-.145-19.1,2.988s-9.638,51.115-9.638,51.115a26.68,26.68,0,0,1,7.549,2.881l26.378,15.382,11.418-5.932a2.869,2.869,0,0,0,.805-4.36h0l15.193-54.915a28.041,28.041,0,0,0-7.4-4.026C365.818,288.947,345.058,287.449,345.058,287.449Z" transform="translate(-297.099 -248.338)" fill="#455a64"/>
      <path id="Path_7457" data-name="Path 7457" d="M402.977,295.55s4.668,1.032,6.455,3.913c4.19,6.75,17.061,30.726,19.226,36.488,2.29,6.083-.17,9.544-1.824,12.11-1.78,2.762-11.563,2.755-16-1.982-1.887-2.038-12.494-11.645-12.494-11.645Z" transform="translate(-327.519 -251.343)" fill="#455a64"/>
      <path id="Path_7458" data-name="Path 7458" d="M405.219,309.7a3.184,3.184,0,0,1-.176.472l-.573,1.334c-.472,1.164-1.132,2.856-1.887,4.97-1.522,4.234-3.385,10.154-5.36,16.722s-3.693,12.513-4.97,16.854c-.629,2.158-1.17,3.9-1.554,5.1l-.453,1.378a2.681,2.681,0,0,1-.176.472,3.217,3.217,0,0,1,.113-.491q.151-.522.4-1.4c.352-1.258.843-2.982,1.453-5.121,1.22-4.328,2.906-10.3,4.876-16.885s3.875-12.488,5.454-16.7c.786-2.114,1.485-3.775,1.994-4.945l.629-1.308A2.515,2.515,0,0,1,405.219,309.7Z" transform="translate(-324.452 -256.591)" fill="#263238"/>
      <path id="Path_7459" data-name="Path 7459" d="M315.368,291.148a55.737,55.737,0,0,0-6.694,4.4c-1.793,1.617-20.314,28.046-22.686,36.281-1.378,4.769,3.875,14.633,9.537,14.155,7.4-.629,35.186-11.28,35.186-11.28l-6.234-13.57-15.728,2.516,11.418-11.475-4.259-21.339" transform="translate(-285.767 -249.596)" fill="#455a64"/>
      <path id="Path_7460" data-name="Path 7460" d="M423.837,348.483a1.466,1.466,0,0,1-.277-.17l-.768-.528-2.787-1.988c-2.34-1.7-5.561-4.07-9.109-6.706l-2.372-1.768.22-.031c-2.258,2.951-4.272,5.524-5.737,7.342a21.775,21.775,0,0,1-2.447,2.825l2.284-2.957,5.662-7.4.094-.126.126.094,2.378,1.761c3.548,2.636,6.744,5.033,9.053,6.788l2.7,2.07.73.579A1.493,1.493,0,0,1,423.837,348.483Z" transform="translate(-328.343 -266.706)" fill="#263238"/>
      <path id="Path_7461" data-name="Path 7461" d="M360.326,331.37l-12.456,5.58,4.97,10.8,7.788-5.14Z" transform="translate(-308.8 -264.629)" fill="#b2655f"/>
      <path id="Path_7462" data-name="Path 7462" d="M380.268,329.553l8.336-5.662a1.535,1.535,0,0,1,1-.264l10.9.931a.837.837,0,0,1,.768.856,1.485,1.485,0,0,1-.459,1.158l-17.7,12.312L369.9,336.788Z" transform="translate(-316.971 -261.755)" fill="#e0e0e0"/>
      <path id="Path_7463" data-name="Path 7463" d="M367.67,329.2s4.5-3.334,5.555-3.517,5.807-.164,5.807-.164l4,2.284-2.479,1.68a3.788,3.788,0,0,1-2.208-1.044l-2.768.182Z" transform="translate(-316.144 -262.458)" fill="#b2655f"/>
      <path id="Path_7464" data-name="Path 7464" d="M372.721,329.07l7.1,2.472,10.217,1.441a2.233,2.233,0,0,1-2.038,2.3c-1.258.132-3.385.277-3.385.277a3.439,3.439,0,0,1-2.114,2.3,5.214,5.214,0,0,1-1.535,1.818,1.261,1.261,0,0,1-.315.138c-.981.283-2.938,2.944-4.246,3.3s-8.455-1.327-8.455-1.327l-.3-11.236Z" transform="translate(-316.137 -263.776)" fill="#b2655f"/>
      <path id="Path_7465" data-name="Path 7465" d="M379,338.288c0-.031.566.12,1.466.3a27.151,27.151,0,0,0,3.58.466,26.029,26.029,0,0,0,3.6,0c.925-.063,1.491-.145,1.5-.113a1.884,1.884,0,0,1-.4.094c-.252.05-.629.107-1.088.157a21.321,21.321,0,0,1-3.624.063,21.083,21.083,0,0,1-3.592-.528c-.453-.107-.818-.208-1.063-.289A1.834,1.834,0,0,1,379,338.288Z" transform="translate(-320.346 -267.193)" fill="#8e4842"/>
      <path id="Path_7466" data-name="Path 7466" d="M379.106,342.92a1.6,1.6,0,0,1-.069.7,1.491,1.491,0,0,1-.384.686,1.258,1.258,0,0,1-.925.308,2.416,2.416,0,0,1-.919-.264c-.258-.132-.472-.271-.661-.371-.365-.22-.629-.3-.629-.333a1.465,1.465,0,0,1,.667.208,4.222,4.222,0,0,0,1.529.566,1.082,1.082,0,0,0,.793-.245,1.39,1.39,0,0,0,.371-.6A6,6,0,0,1,379.106,342.92Z" transform="translate(-319.056 -268.912)" fill="#8e4842"/>
      <path id="Path_7467" data-name="Path 7467" d="M386.388,344a3.091,3.091,0,0,1-.78.2,17.672,17.672,0,0,1-1.887.233,17.1,17.1,0,0,1-1.931,0,3.147,3.147,0,0,1-.8-.088c0-.063,1.22,0,2.718-.132S386.375,343.958,386.388,344Z" transform="translate(-321.084 -269.309)" fill="#8e4842"/>
      <path id="Path_7468" data-name="Path 7468" d="M379.561,348.716a2.516,2.516,0,0,1-2.441.384c0-.063.566.044,1.258-.063S379.561,348.666,379.561,348.716Z" transform="translate(-319.649 -271.06)" fill="#8e4842"/>
      <path id="Path_7469" data-name="Path 7469" d="M384.154,348.5a1.818,1.818,0,0,1-.761.2,1.719,1.719,0,0,1-.793,0,1.692,1.692,0,0,1,.768-.2C383.8,348.446,384.148,348.44,384.154,348.5Z" transform="translate(-321.682 -270.966)" fill="#8e4842"/>
      <path id="Path_7470" data-name="Path 7470" d="M383.146,331.5a19.305,19.305,0,0,1-3.328-1.113c-.906-.352-1.717-.686-2.3-.95a4.091,4.091,0,0,1-.912-.478,7.39,7.39,0,0,1,.963.352l2.315.893,2.309.9A3.249,3.249,0,0,1,383.146,331.5Z" transform="translate(-319.46 -263.735)" fill="#8e4842"/>
      <path id="Path_7471" data-name="Path 7471" d="M398.308,335.821s-.786-.271.063-1.51,3.227.264,3.227.264l3.039,1.806s.679,1.579-.164,2l-.629.768s1.189,1.2.711,2.252a1.636,1.636,0,0,1-1.655.906s.138,2.126-.554,2.944a2.321,2.321,0,0,1-1.321.893,3.775,3.775,0,0,1-2.623,2.284c-2.038.522-3.108.56-3.661-.3a9.386,9.386,0,0,1-.9-1.944s-4.372-2.3-4.467-3.46.107-1.258.107-1.258a2.183,2.183,0,0,1,.088-1.68c.44-.711,2.177-.088,2.177-.088l5.58,1.309s-4.467-2.095-5-2.781.038-1.529,1.831-1.315,7.21,1.227,7.21,1.227a1.66,1.66,0,0,0-.629-.692c-.359-.151-1.478-.8-1.478-.8Z" transform="translate(-324.185 -265.538)" fill="#b2655f"/>
      <path id="Path_7472" data-name="Path 7472" d="M399.794,348.836c0,.05-2.277-.529-5.033-1.29s-5.033-1.428-5-1.478,2.277.528,5.033,1.29S399.807,348.786,399.794,348.836Z" transform="translate(-324.337 -270.079)" fill="#8e4842"/>
      <path id="Path_7473" data-name="Path 7473" d="M399.626,354.631a6.43,6.43,0,0,1-1.629-.415,11.454,11.454,0,0,1-1.114-.428,2.084,2.084,0,0,1-.327-.176.423.423,0,0,1-.076-.069s0-.057,0-.044.692.239,1.566.528A8.654,8.654,0,0,1,399.626,354.631Z" transform="translate(-326.829 -272.835)" fill="#8e4842"/>
      <path id="Path_7474" data-name="Path 7474" d="M406.2,346.091c0,.05-1.1-.17-2.447-.39a24.636,24.636,0,0,1-2.441-.422,11.482,11.482,0,0,1,2.472.233A11.077,11.077,0,0,1,406.2,346.091Z" transform="translate(-328.621 -269.787)" fill="#8e4842"/>
      <path id="Path_7475" data-name="Path 7475" d="M409.926,341.5c-.038.05-.478-.264-1.095-.484s-1.151-.277-1.151-.333a2.063,2.063,0,0,1,1.22.151A2.1,2.1,0,0,1,409.926,341.5Z" transform="translate(-330.983 -268.069)" fill="#8e4842"/>
      <path id="Path_7476" data-name="Path 7476" d="M408.074,326.127h-.2l-.585-.069c-.5-.069-1.258-.164-2.133-.264-1.806-.208-4.309-.428-7.084-.491a3.925,3.925,0,0,0-1.938.226,8.19,8.19,0,0,0-.793.522l-.755.535-2.611,1.843-1.768,1.227-.491.327c-.107.076-.17.107-.176.1a1.747,1.747,0,0,1,.157-.132l.466-.352,1.736-1.258,2.586-1.887.749-.541a9.1,9.1,0,0,1,.812-.541,2.283,2.283,0,0,1,1-.252h1.032a68.185,68.185,0,0,1,7.09.547c.906.12,1.636.239,2.133.327l.579.107a.63.63,0,0,1,.2.025Z" transform="translate(-324.256 -262.311)" fill="#263238"/>
      <path id="Path_7477" data-name="Path 7477" d="M407.478,328.136a.528.528,0,0,0-.522-.2h-.088a.742.742,0,0,0-.428.239.453.453,0,0,0,0,.572.523.523,0,0,0,.308.145.767.767,0,0,0,.629-.157A.528.528,0,0,0,407.478,328.136Z" transform="translate(-330.486 -263.351)" fill="#fff"/>
      <path id="Path_7486" data-name="Path 7486" d="M365.934,252.285a53.9,53.9,0,0,1-.572-9.223,18.729,18.729,0,0,1,2.466-8.808c.245-.4,2.17-3.02,2.617-2.888.321.094-1.044,2.623-.931,2.938a16.132,16.132,0,0,1,0,9.437,41.573,41.573,0,0,1-3.561,8.562" transform="translate(-315.282 -227.536)" fill="#263238"/>
      <path id="Path_7487" data-name="Path 7487" d="M378.1,270.739c.44-2.133.793-3.812.812-3.812s7.48.692,9.38-6.486c.918-3.466,2.221-10.758,3.328-17.37a13.84,13.84,0,0,0-10.267-15.728l-.7-.176c-7.6-1.441-13.073,4.2-14.306,11.84L361.18,265.58l11.84,12.444Z" transform="translate(-313.737 -225.897)" fill="#b2655f"/>
      <path id="Path_7488" data-name="Path 7488" d="M384.245,287.477a17.923,17.923,0,0,1-8.675-5.127s.969,5.813,8.31,6.971Z" transform="translate(-319.074 -246.447)" fill="#8e4842"/>
      <path id="Path_7489" data-name="Path 7489" d="M402.481,260.941a1.057,1.057,0,0,1-1.258.786,1.013,1.013,0,0,1-.824-1.2,1.063,1.063,0,0,1,1.258-.786,1.007,1.007,0,0,1,.824,1.2Z" transform="translate(-328.276 -238.055)" fill="#263238"/>
      <path id="Path_7490" data-name="Path 7490" d="M403.54,255.724c-.157.1-.793-.667-1.887-.944s-2.057.076-2.145-.094c-.038-.076.151-.283.566-.453a2.969,2.969,0,0,1,1.762-.088,2.793,2.793,0,0,1,1.472.919C403.59,255.409,403.622,255.68,403.54,255.724Z" transform="translate(-327.951 -235.952)" fill="#263238"/>
      <path id="Path_7491" data-name="Path 7491" d="M386.531,257.874a1.063,1.063,0,0,1-1.258.793,1.013,1.013,0,0,1-.824-1.2,1.057,1.057,0,0,1,1.258-.786,1.006,1.006,0,0,1,.824,1.189Z" transform="translate(-322.36 -236.919)" fill="#263238"/>
      <path id="Path_7492" data-name="Path 7492" d="M386.139,252.1c-.164.1-.8-.667-1.887-.944s-2.057.076-2.145-.094c-.044-.069.145-.283.566-.447a2.894,2.894,0,0,1,1.755-.094,2.743,2.743,0,0,1,1.472.918C386.164,251.789,386.214,252.047,386.139,252.1Z" transform="translate(-321.496 -234.609)" fill="#263238"/>
      <path id="Path_7493" data-name="Path 7493" d="M391.43,262.682a7.552,7.552,0,0,1,1.887.126c.289.044.572.057.667-.126a1.466,1.466,0,0,0,0-.887c-.094-.749-.189-1.535-.3-2.359a38.354,38.354,0,0,1-.459-6.1,38.785,38.785,0,0,1,.95,6.046c.094.824.176,1.611.258,2.365a1.687,1.687,0,0,1-.132,1.145.749.749,0,0,1-.566.3,1.663,1.663,0,0,1-.5-.057A7.478,7.478,0,0,1,391.43,262.682Z" transform="translate(-324.956 -235.688)" fill="#263238"/>
      <path id="Path_7494" data-name="Path 7494" d="M385.768,268.108c.182.031-.12,1.258.7,2.347s2.126,1.3,2.089,1.466-.34.164-.887.044a3.108,3.108,0,0,1-1.761-1.164,2.674,2.674,0,0,1-.51-1.944C385.447,268.341,385.655,268.077,385.768,268.108Z" transform="translate(-322.711 -241.164)" fill="#263238"/>
      <path id="Path_7495" data-name="Path 7495" d="M387.168,245.041c-.189.277-1.258-.145-2.592-.315s-2.479-.082-2.579-.4c-.044-.145.208-.384.7-.566a4.492,4.492,0,0,1,3.938.541C387.068,244.613,387.25,244.909,387.168,245.041Z" transform="translate(-321.456 -232.051)" fill="#263238"/>
      <path id="Path_7496" data-name="Path 7496" d="M404.463,249.671c-.258.2-.956-.245-1.887-.491s-1.736-.258-1.85-.566c-.044-.145.138-.365.541-.522a2.812,2.812,0,0,1,2.995.856C404.539,249.287,404.576,249.57,404.463,249.671Z" transform="translate(-328.402 -233.692)" fill="#263238"/>
      <path id="Path_7497" data-name="Path 7497" d="M364.775,254.428c-.113-.082-4.58-2.705-5.662,2.252s4.127,5.033,4.165,4.882S364.775,254.428,364.775,254.428Z" transform="translate(-312.915 -235.807)" fill="#b2655f"/>
      <path id="Path_7498" data-name="Path 7498" d="M362.943,260.27a1.386,1.386,0,0,1-.258.075.868.868,0,0,1-.629-.126,2.2,2.2,0,0,1-.573-2.133,2.844,2.844,0,0,1,.51-1.183,1.013,1.013,0,0,1,.793-.522.447.447,0,0,1,.459.346.5.5,0,0,1,0,.258c0,.013.126-.057.132-.271a.566.566,0,0,0-.126-.352.66.66,0,0,0-.453-.233,1.258,1.258,0,0,0-1.07.573,3.057,3.057,0,0,0-.629,1.315,2.311,2.311,0,0,0,.8,2.422.962.962,0,0,0,.818.038C362.905,260.389,362.955,260.282,362.943,260.27Z" transform="translate(-313.688 -236.723)" fill="#8e4842"/>
      <path id="Path_7499" data-name="Path 7499" d="M391.771,233.547c.9-.277-.975-3.385-2.762-4.693-2.705-1.975-7.1-3.775-10.015-3.554-3.51.245-6.612,1.321-8.9,3.995a19.974,19.974,0,0,0-4.278,9.525,6.063,6.063,0,0,0,.069,3.183c.465,1.258,1.654,2.214,1.258,3.718a2.114,2.114,0,0,0,.2,1.623c.7,1.158,2.007.478,2.711-.327,1.5-1.717,2.1-4.014,2.661-6.228a14.643,14.643,0,0,0,.673-4.788c-.069-.881-.3-1.749-.321-2.63a3.07,3.07,0,0,1,.874-2.409,3.777,3.777,0,0,1,.484-.321,5.285,5.285,0,0,1,5.347.094c2.592,1.573,7.065,4.045,8.512,3.359a7.879,7.879,0,0,0,2.7-1.793Z" transform="translate(-315.389 -225.281)" fill="#263238"/>
      <path id="Path_7500" data-name="Path 7500" d="M316.745,360.278a1.991,1.991,0,0,1,.4-.176l1.176-.459,4.441-1.661,15.375-5.662-.088.214c-1.258-2.774-2.667-5.794-4.114-8.921l-2.12-4.624.17.088-15.4,2.365h0a31.158,31.158,0,0,0-7.958,3.5c-.881.541-1.541,1.007-1.994,1.321l-.5.365a.629.629,0,0,1-.182.113l.157-.145.484-.39c.434-.34,1.088-.824,1.963-1.384a30.122,30.122,0,0,1,7.964-3.617h0l15.394-2.4h.12l.057.107c.686,1.5,1.4,3.051,2.126,4.624,1.434,3.146,2.825,6.146,4.1,8.927l.075.151-.163.063L322.8,358.208l-4.467,1.579-1.2.409Z" transform="translate(-293.253 -267.384)" fill="#263238"/>
      <path id="Path_7501" data-name="Path 7501" d="M332.145,328a10.77,10.77,0,0,1-1.258,1.548c-.818.925-1.963,2.183-3.265,3.548s-2.516,2.567-3.429,3.391a10.207,10.207,0,0,1-1.145.925c-.157.088-.264.176-.4.151a.094.094,0,0,1,0-.126v-.031s0,.082.038.094a.888.888,0,0,0,.3-.189c.258-.214.629-.56,1.057-.988.874-.868,2.057-2.095,3.353-3.454l3.334-3.479a12.207,12.207,0,0,1,1.416-1.39Z" transform="translate(-299.436 -263.379)" fill="#263238"/>
      <path id="Path_7502" data-name="Path 7502" d="M338.954,308.859c-.069,0,.132-.988.132-2.579a16.558,16.558,0,0,0-.239-2.768,17.149,17.149,0,0,0-2.428-6.323,17.362,17.362,0,0,0-1.686-2.221c-1.069-1.176-1.887-1.768-1.824-1.818a2.889,2.889,0,0,1,.579.39,6.219,6.219,0,0,1,.629.522,10.361,10.361,0,0,1,.786.749,15.543,15.543,0,0,1,1.768,2.214,17.441,17.441,0,0,1,1.585,3.083,17.988,17.988,0,0,1,.893,3.353,15.366,15.366,0,0,1,.17,2.825,10.3,10.3,0,0,1-.082,1.082,5.653,5.653,0,0,1-.12.812A2.891,2.891,0,0,1,338.954,308.859Z" transform="translate(-303.25 -250.453)" fill="#263238"/>
      <path id="Path_7503" data-name="Path 7503" d="M368,390.4a19.728,19.728,0,0,1,2.063,0,18.773,18.773,0,0,0,9.386-2.768c1.082-.629,1.7-1.158,1.736-1.114s-.126.157-.4.4a12.721,12.721,0,0,1-1.214.912,16.983,16.983,0,0,1-4.542,2.126,16.79,16.79,0,0,1-4.97.679,11.852,11.852,0,0,1-1.516-.107A2.008,2.008,0,0,1,368,390.4Z" transform="translate(-316.266 -285.082)" fill="#263238"/>
      <path id="Path_7504" data-name="Path 7504" d="M375.284,370.609a2.726,2.726,0,0,1-.422.535c-.283.333-.711.8-1.258,1.371-1.076,1.139-2.617,2.667-4.4,4.259s-3.466,2.963-4.718,3.907c-.629.472-1.139.849-1.5,1.095a2.515,2.515,0,0,1-.579.359,2.821,2.821,0,0,1,.5-.459l1.434-1.176c1.208-.988,2.869-2.372,4.649-3.963s3.334-3.089,4.454-4.184l1.321-1.3A2.566,2.566,0,0,1,375.284,370.609Z" transform="translate(-314.189 -279.182)" fill="#263238"/>
    </g>
  </g>
</svg>
