<svg xmlns="http://www.w3.org/2000/svg" width="813" height="240" viewBox="0 0 813 240">
  <g id="Group_13426" data-name="Group 13426" transform="translate(0.5 0.5)">
    <g id="Group_14466" data-name="Group 14466" transform="translate(0 0)">
      <rect id="F8IwlJu" width="812" height="239" fill="#d3deeb" stroke="#d3deeb" stroke-width="1" opacity="0.18"/>
      <path id="Union_13" data-name="Union 13" d="M20.642,114.751a6.6,6.6,0,0,1-1.237-.639,6.519,6.519,0,0,1-2.858-4.257,6.427,6.427,0,0,1,1.087-4.937,23.477,23.477,0,0,1,4.76-5.034,29.246,29.246,0,0,0-4.983-2.609,24.923,24.923,0,0,0-2.6-.853,11.563,11.563,0,0,0-4.648-.352,6.282,6.282,0,0,1-1.985.9,2.379,2.379,0,0,1-3.1-1.871,7.932,7.932,0,0,1-.135-2.223A21.921,21.921,0,0,1,6.5,86.657a73.82,73.82,0,0,1,9.125-16.774,42.444,42.444,0,0,1,6.612-7.561,9.939,9.939,0,0,1,3.143-1.994c1.934-.69,3.434.187,3.657,2.229A12.489,12.489,0,0,1,29,64.7a14.415,14.415,0,0,0,1.143,2.684,13.1,13.1,0,0,1,.732,1.208,22.628,22.628,0,0,0,3.159,3.687c.949.913,2.019,1.838,3.358,2.907q.177.14.355.278C45.363,62.88,51.5,35.264,56.6,22.925c-3.092-.449-5.69-.967-8.785-.533-4.825.681-9.836,3.654-9.348,7.122s5.775,2.47,6.264,5.935c.641,4.579-7.095,10.589-15.266,11.737-22.4,3.148-23.91-33.619,4.806-37.656A48.215,48.215,0,0,1,61.182,14.2a15.789,15.789,0,0,1,10.69-6.552c5.941-.834,7.2,13.505-6.289,15.4-1.619,3.763-2.637,9.08-3.306,15.1C77.13,36.068,74.834,3.575,99.591.1c10.52-1.476,10.375,14.571,2.332,15.7a8.9,8.9,0,0,1-3.665-.422,9.39,9.39,0,0,0-3.9-.407c-9.528,1.338-11.407,19.4-20.723,25.883,14.9.051,8.812,20.47,14.506,19.672,2.476-.349,2.747-3.8,4.853-4.091,5.813-.816,3.211,25.549-9.537,27.341C74.018,85.1,72.65,75.824,71.505,66.552c-1.136-9.212-2.052-18.424-10.438-17.244C59.393,67.679,60.33,86.941,48.28,95.58A15,15,0,0,1,40.9,99.017a32.088,32.088,0,0,1-4.092.838q-.438.062-.862.116-.428.363-.839.719c-.146.127-.293.247-.437.374l-.007,0a15.812,15.812,0,0,0-1.925,1.832,18.879,18.879,0,0,0-3.248,6.522c-.038.117-.075.235-.114.355a10.423,10.423,0,0,1-.934,2.314,6.445,6.445,0,0,1-7.8,2.663Zm.274-6.368A1.932,1.932,0,0,0,22,110.862l.019.006a1.892,1.892,0,0,0,1.467-.045,1.924,1.924,0,0,0-.1-3.552l-.01,0a1.914,1.914,0,0,0-2.467,1.115Zm3.133-3.4a1.539,1.539,0,0,0,.864,1.976l.016,0a1.487,1.487,0,0,0,1.169-.036,1.533,1.533,0,0,0-.075-2.826l-.012,0a1.5,1.5,0,0,0-.533-.1A1.529,1.529,0,0,0,24.049,104.982ZM26.3,62.036a7.859,7.859,0,0,0-1.685.84,25.1,25.1,0,0,0-5.034,4.94A73.982,73.982,0,0,0,10.56,82a41.219,41.219,0,0,0-3.185,8.11,19.3,19.3,0,0,0-.567,3.778c-.062,1.316.446,1.573,1.622.985a13.821,13.821,0,0,0,3.618-2.868,57.46,57.46,0,0,0,7.621-10.014A70.268,70.268,0,0,0,25.107,71.54a27.7,27.7,0,0,0,2.076-7.131,7.875,7.875,0,0,0-.067-1.88c-.038-.3-.141-.473-.313-.539a.456.456,0,0,0-.165-.027A.967.967,0,0,0,26.3,62.036ZM14.909,77.571a4.955,4.955,0,0,1,6.156-1.916c-1.534,2.678-3.037,5.3-4.55,7.938A5.064,5.064,0,0,1,14.909,77.571ZM.619,80.34a1.026,1.026,0,0,1-.567-1.3,2.537,2.537,0,0,1,.763-.467c1.865-.346,3.733-.66,5.6-.964a.927.927,0,0,1,1.078.741.949.949,0,0,1-.762,1.106c-.325.072-.654.117-.982.175-1.509.256-3.016.518-4.524.765a1.708,1.708,0,0,1-.211.015A1.122,1.122,0,0,1,.619,80.34Zm8.232-6.356s-.006,0-.009-.006a.9.9,0,0,1-.09-.039c-1.558-.952-3.121-1.895-4.67-2.859a.9.9,0,0,1-.271-1.271.912.912,0,0,1,1.261-.313c.307.166.6.358.894.539,1.232.756,2.467,1.5,3.694,2.265a.918.918,0,0,1,.379,1.244.947.947,0,0,1-.835.506A1.029,1.029,0,0,1,8.851,73.983Zm3.781-5.01a1.116,1.116,0,0,1-.506-.41c-1.269-1.807-2.536-3.615-3.775-5.441a3.54,3.54,0,0,1-.279-1,4.4,4.4,0,0,1,.894-.5.848.848,0,0,1,.928.44q1.894,2.716,3.781,5.435a.938.938,0,0,1-.2,1.362.922.922,0,0,1-.522.169A.892.892,0,0,1,12.632,68.974Z" transform="translate(352.096 62.934)" fill="#91a7c0" opacity="0.5"/>
    </g>
  </g>
</svg>
