<svg xmlns="http://www.w3.org/2000/svg" width="143" height="144" viewBox="0 0 143 144">
  <g id="Group_13427" data-name="Group 13427" transform="translate(0 0)">
    <g id="Group" transform="translate(0 0)">
      <ellipse id="profile_image" data-name="profile image" cx="71.5" cy="72" rx="71.5" ry="72" fill="#91a7c0"/>
    </g>
    <path id="Union_16" data-name="Union 16" d="M12.575,70.184a4.037,4.037,0,0,1-.753-.391,3.989,3.989,0,0,1-1.742-2.6,3.946,3.946,0,0,1,.662-3.02,14.339,14.339,0,0,1,2.9-3.079,17.777,17.777,0,0,0-3.038-1.6,14.953,14.953,0,0,0-1.583-.521,7.013,7.013,0,0,0-2.831-.216,3.815,3.815,0,0,1-1.211.549,1.45,1.45,0,0,1-1.889-1.144,4.959,4.959,0,0,1-.082-1.36A13.47,13.47,0,0,1,3.961,53,45.181,45.181,0,0,1,9.52,42.742a25.883,25.883,0,0,1,4.029-4.625,6.048,6.048,0,0,1,1.914-1.22,1.524,1.524,0,0,1,2.228,1.363,7.744,7.744,0,0,1-.025,1.31,8.765,8.765,0,0,0,.7,1.642,7.98,7.98,0,0,1,.446.739,13.764,13.764,0,0,0,1.925,2.255c.578.558,1.229,1.124,2.046,1.778q.107.086.217.17c4.643-7.7,8.381-24.586,11.489-32.134a17.879,17.879,0,0,0-5.352-.326c-2.939.416-5.992,2.235-5.7,4.356s3.519,1.511,3.815,3.63c.391,2.8-4.322,6.476-9.3,7.178C4.306,30.784,3.386,8.3,20.88,5.828a29.274,29.274,0,0,1,16.394,2.86A9.615,9.615,0,0,1,43.787,4.68c3.619-.51,4.388,8.26-3.831,9.419a34.5,34.5,0,0,0-2.015,9.238C46.99,22.06,45.592,2.187,60.674.059c6.41-.9,6.321,8.912,1.421,9.6A5.4,5.4,0,0,1,59.863,9.4a5.7,5.7,0,0,0-2.376-.249c-5.8.818-6.951,11.866-12.626,15.831,9.08.031,5.368,12.52,8.838,12.032,1.509-.214,1.673-2.322,2.957-2.5,3.542-.5,1.955,15.626-5.812,16.723-5.749.809-6.583-4.862-7.281-10.534-.692-5.634-1.25-11.269-6.358-10.547-1.02,11.236-.449,23.017-7.791,28.3a9.122,9.122,0,0,1-4.5,2.1,19.492,19.492,0,0,1-2.493.512c-.177.025-.353.049-.525.071-.173.148-.344.294-.511.44-.088.077-.179.151-.267.228l0,0a9.557,9.557,0,0,0-1.172,1.12,11.559,11.559,0,0,0-1.979,3.989c-.023.072-.046.144-.069.217a6.433,6.433,0,0,1-.569,1.415,3.917,3.917,0,0,1-4.754,1.629Zm.169-3.9a1.181,1.181,0,0,0,.661,1.516l.012,0a1.146,1.146,0,0,0,.893-.028,1.178,1.178,0,0,0-.058-2.172l-.006,0a1.163,1.163,0,0,0-1.5.682Zm1.907-2.08a.943.943,0,0,0,.527,1.209l.009,0A.9.9,0,0,0,15.9,65.4a.939.939,0,0,0-.046-1.728l-.008,0a.907.907,0,0,0-.324-.059A.932.932,0,0,0,14.651,64.209Zm1.371-26.267A4.8,4.8,0,0,0,15,38.456a15.262,15.262,0,0,0-3.066,3.022,45.191,45.191,0,0,0-5.5,8.676,25.3,25.3,0,0,0-1.94,4.96,11.772,11.772,0,0,0-.345,2.311c-.039.805.271.962.986.6a8.4,8.4,0,0,0,2.205-1.754,35.148,35.148,0,0,0,4.644-6.124,42.93,42.93,0,0,0,3.312-6.394,16.908,16.908,0,0,0,1.266-4.361,4.726,4.726,0,0,0-.041-1.15c-.022-.181-.086-.289-.189-.33a.288.288,0,0,0-.1-.017A.59.59,0,0,0,16.022,37.942Zm-6.939,9.5a3.013,3.013,0,0,1,3.751-1.172c-.936,1.638-1.852,3.241-2.772,4.855A3.1,3.1,0,0,1,9.083,47.444ZM.376,49.137a.627.627,0,0,1-.344-.8A1.527,1.527,0,0,1,.5,48.056c1.136-.212,2.273-.4,3.413-.59a.566.566,0,0,1,.658.453A.582.582,0,0,1,4.1,48.6c-.2.044-.4.072-.6.107-.918.157-1.837.317-2.756.468a1.034,1.034,0,0,1-.128.009A.692.692,0,0,1,.376,49.137ZM5.391,45.25s0,0,0,0a.571.571,0,0,1-.055-.024c-.948-.582-1.9-1.159-2.845-1.749a.55.55,0,0,1-.166-.778.555.555,0,0,1,.769-.192c.187.1.363.219.545.33.75.462,1.5.919,2.249,1.386a.561.561,0,0,1,.231.761.576.576,0,0,1-.509.31A.633.633,0,0,1,5.391,45.25Zm2.3-3.064a.682.682,0,0,1-.308-.251c-.772-1.106-1.545-2.211-2.3-3.328A2.162,2.162,0,0,1,4.917,38a2.674,2.674,0,0,1,.545-.3.515.515,0,0,1,.564.269q1.154,1.661,2.3,3.324a.574.574,0,0,1-.122.833.56.56,0,0,1-.318.1A.546.546,0,0,1,7.695,42.186Z" transform="translate(39.52 37.023)" fill="#fff" opacity="0.42"/>
  </g>
</svg>
