<svg xmlns="http://www.w3.org/2000/svg" xmlns:xlink="http://www.w3.org/1999/xlink" width="62.249" height="62.402" viewBox="0 0 62.249 62.402">
  <defs>
    <filter id="Path_7249" x="0" y="0" width="62.249" height="62.402" filterUnits="userSpaceOnUse">
      <feOffset dy="3" input="SourceAlpha"/>
      <feGaussianBlur stdDeviation="3" result="blur"/>
      <feFlood flood-opacity="0.161"/>
      <feComposite operator="in" in2="blur"/>
      <feComposite in="SourceGraphic"/>
    </filter>
    <filter id="Path_7251" x="6.351" y="6.433" width="49.52" height="49.597" filterUnits="userSpaceOnUse">
      <feOffset dy="3" input="SourceAlpha"/>
      <feGaussianBlur stdDeviation="3" result="blur-2"/>
      <feFlood flood-opacity="0.161"/>
      <feComposite operator="in" in2="blur-2"/>
      <feComposite in="SourceGraphic"/>
    </filter>
  </defs>
  <g id="Component_21_1" data-name="Component 21 – 1" transform="translate(9 6)">
    <g transform="matrix(1, 0, 0, 1, -9, -6)" filter="url(#Path_7249)">
      <path id="Path_7249-2" data-name="Path 7249" d="M114.567,182.565c-3.378-1.775-5.626-.213-8.05,1.252-.7.422-2.336-.032-3.149-.624a5.37,5.37,0,0,0-4.979-1.12c-2.187.626-3.544-.191-4.682-2.249a6.558,6.558,0,0,0-3.535-2.6c-2.148-.7-3.157-1.722-3.253-4.1a5.958,5.958,0,0,0-1.857-3.735c-1.8-1.642-2.377-3.075-1.249-5.437a5.722,5.722,0,0,0-.173-4.167c-.894-2.135-.624-3.5,1.156-5.059a6.587,6.587,0,0,0,1.854-3.982c.238-2.232.948-3.451,3.281-4.047a6.336,6.336,0,0,0,3.392-2.786c1.161-1.947,2.357-2.7,4.7-2.283a6.542,6.542,0,0,0,4.275-.995c1.947-1.258,3.421-1.553,5.411-.016a6,6,0,0,0,4.078.884c2.356-.307,3.92.017,5.077,2.4a5.852,5.852,0,0,0,3.36,2.481c2.244.688,3.323,1.721,3.375,4.223a5.853,5.853,0,0,0,1.935,3.7c1.756,1.586,2.272,2.964,1.192,5.242a5.783,5.783,0,0,0,.12,4.167c.9,2.207.85,3.873-1.306,5.16-1.67,1-1.767,2.675-1.77,4.318,0,2.142-.932,3.367-3.093,3.6-1.954.207-2.86,1.588-3.758,3.132A17.316,17.316,0,0,1,114.567,182.565Zm8.723-20.847A18.037,18.037,0,1,0,105.4,179.892,18.045,18.045,0,0,0,123.291,161.718Z" transform="translate(-74.14 -133.58)" fill="#fff"/>
    </g>
    <g transform="matrix(1, 0, 0, 1, -9, -6)" filter="url(#Path_7251)">
      <path id="Path_7251-2" data-name="Path 7251" d="M128.879,169.777a15.76,15.76,0,1,1-15.76-15.793A15.788,15.788,0,0,1,128.879,169.777Zm-5.794-5.185-2.5-3.028L110.44,172.356l-5.184-4.95-2.3,2.417,7.359,7.431Z" transform="translate(-82.01 -141.55)" fill="#fff"/>
    </g>
    <path id="Path_7252" data-name="Path 7252" d="M130.022,173.985l-12.769,12.662-7.359-7.431,2.3-2.417,5.184,4.95,10.144-10.792Z" transform="translate(-97.946 -156.945)" fill="#00c569"/>
  </g>
</svg>
