<svg xmlns="http://www.w3.org/2000/svg" xmlns:xlink="http://www.w3.org/1999/xlink" width="62.247" height="62.4" viewBox="0 0 62.247 62.4">
  <defs>
    <filter id="Path_7253" x="0" y="0" width="62.247" height="62.4" filterUnits="userSpaceOnUse">
      <feOffset dy="3" input="SourceAlpha"/>
      <feGaussianBlur stdDeviation="3" result="blur"/>
      <feFlood flood-opacity="0.161"/>
      <feComposite operator="in" in2="blur"/>
      <feComposite in="SourceGraphic"/>
    </filter>
    <filter id="Path_7255" x="6.349" y="6.432" width="49.519" height="49.596" filterUnits="userSpaceOnUse">
      <feOffset dy="3" input="SourceAlpha"/>
      <feGaussianBlur stdDeviation="3" result="blur-2"/>
      <feFlood flood-opacity="0.161"/>
      <feComposite operator="in" in2="blur-2"/>
      <feComposite in="SourceGraphic"/>
    </filter>
  </defs>
  <g id="Group_15058" data-name="Group 15058" transform="translate(-74.142 -221.761)">
    <g id="Group_13624" data-name="Group 13624" transform="translate(83.142 227.761)">
      <g transform="matrix(1, 0, 0, 1, -9, -6)" filter="url(#Path_7253)">
        <path id="Path_7253-2" data-name="Path 7253" d="M114.566,329.627c-3.378-1.775-5.626-.213-8.05,1.252-.7.422-2.336-.031-3.149-.624a5.369,5.369,0,0,0-4.979-1.12c-2.187.626-3.544-.191-4.682-2.25a6.56,6.56,0,0,0-3.535-2.6c-2.148-.7-3.157-1.722-3.253-4.1a5.956,5.956,0,0,0-1.857-3.735c-1.8-1.642-2.377-3.075-1.249-5.437a5.722,5.722,0,0,0-.173-4.166c-.894-2.135-.624-3.5,1.156-5.059a6.588,6.588,0,0,0,1.854-3.982c.238-2.232.948-3.451,3.281-4.047a6.335,6.335,0,0,0,3.392-2.785c1.161-1.947,2.357-2.7,4.7-2.283a6.544,6.544,0,0,0,4.275-.995c1.947-1.258,3.421-1.553,5.411-.016a6,6,0,0,0,4.078.884c2.356-.307,3.92.017,5.077,2.4a5.852,5.852,0,0,0,3.36,2.481c2.244.688,3.322,1.721,3.375,4.223a5.854,5.854,0,0,0,1.935,3.7c1.755,1.586,2.272,2.964,1.192,5.241a5.783,5.783,0,0,0,.12,4.167c.9,2.207.85,3.873-1.306,5.16-1.67,1-1.767,2.675-1.77,4.318,0,2.142-.932,3.367-3.092,3.6-1.954.207-2.86,1.588-3.758,3.132A17.29,17.29,0,0,1,114.566,329.627Zm8.723-20.846A18.037,18.037,0,1,0,105.4,326.955,18.044,18.044,0,0,0,123.289,308.782Z" transform="translate(-74.14 -280.64)" fill="#fff"/>
      </g>
    </g>
    <g transform="matrix(1, 0, 0, 1, 74.14, 221.76)" filter="url(#Path_7255)">
      <path id="Path_7255-2" data-name="Path 7255" d="M113.119,301.048a15.8,15.8,0,1,0,15.76,15.792A15.761,15.761,0,0,0,113.119,301.048Z" transform="translate(-82.01 -288.62)" fill="#fff"/>
    </g>
    <path id="Path_7256" data-name="Path 7256" d="M131.049,332.55l-5.784-5.783-.02-.021.008-.009,5.8-5.795.316-.316-.317-.316q-.961-.959-1.92-1.92l-.316-.316-.316.316-5.784,5.783-.021.02-.008-.008-5.8-5.795-.316-.316-.316.316-1.755,1.754-.148.149-.316.316.316.316,5.786,5.785-5.8,5.8-.316.316.316.316,1.926,1.925.316.316.316-.316,5.777-5.776,5.818,5.817.316.316.316-.316.639-.639,1.291-1.29.316-.316Z" transform="translate(-17.088 -76.278)" fill="#ff3c3c"/>
  </g>
</svg>
