<?xml version="1.0" encoding="utf-8"?>
<!-- Generator: Adobe Illustrator 16.0.0, SVG Export Plug-In . SVG Version: 6.00 Build 0)  -->
<!DOCTYPE svg PUBLIC "-//W3C//DTD SVG 1.1//EN" "http://www.w3.org/Graphics/SVG/1.1/DTD/svg11.dtd">
<svg version="1.1" id="Layer_1" xmlns="http://www.w3.org/2000/svg" xmlns:xlink="http://www.w3.org/1999/xlink" x="0px" y="0px"
	 width="306px" height="426.112px" viewBox="0 0 306 426.112" enable-background="new 0 0 306 426.112" xml:space="preserve">
<g id="Group_13426" transform="translate(0.5 0.5)">
	<g id="Group_14466" transform="translate(0)">
		
			<rect id="F8IwlJu" opacity="0.18" fill="#D3DEEB" stroke="#D3DEEB" enable-background="new    " width="304.83" height="425.612"/>
		<path id="Union_13" opacity="0.5" fill="#91A7C0" enable-background="new    " d="M98.771,305.244
			c-0.692-0.269-1.353-0.61-1.973-1.017c-2.385-1.548-4.032-4.001-4.562-6.793c-0.522-2.753,0.104-5.6,1.733-7.877
			c2.121-3.038,4.68-5.746,7.594-8.031c-2.51-1.64-5.172-3.034-7.951-4.163c-1.355-0.529-2.739-0.984-4.147-1.359
			c-2.407-0.69-4.93-0.88-7.415-0.563c-0.964,0.66-2.036,1.144-3.167,1.433c-1.989,0.662-4.14-0.416-4.802-2.404
			c-0.063-0.188-0.111-0.384-0.144-0.582c-0.235-1.164-0.307-2.359-0.21-3.546c0.34-3.411,1.179-6.752,2.489-9.921
			c3.674-9.511,8.568-18.506,14.559-26.758c3.023-4.423,6.561-8.474,10.537-12.064c1.456-1.365,3.157-2.446,5.014-3.182
			c1.952-1.02,4.362-0.262,5.381,1.69c0.301,0.576,0.456,1.217,0.452,1.866c0.076,1.137,0.054,2.281-0.066,3.417
			c0.461,1.483,1.07,2.918,1.821,4.281c0.426,0.621,0.814,1.266,1.17,1.928c1.463,2.133,3.151,4.105,5.037,5.876
			c1.515,1.457,3.22,2.939,5.358,4.641l0.568,0.442c12.162-20.068,21.956-64.135,30.095-83.813c-4.604-0.983-9.328-1.27-14.016-0.85
			c-7.698,1.085-15.693,5.829-14.913,11.36c0.78,5.533,9.214,3.941,9.991,9.468c1.021,7.304-11.32,16.892-24.349,18.725
			c-35.741,5.022-38.148-53.637,7.663-60.077c14.729-1.699,29.634,0.896,42.922,7.469c3.999-5.689,10.173-9.473,17.057-10.453
			c9.478-1.33,11.486,21.546-10.032,24.568c-2.857,7.747-4.633,15.853-5.27,24.086c23.695-3.327,20.032-55.167,59.535-60.717
			c16.792-2.355,16.552,23.248,3.718,25.049c-1.974,0.187-3.964-0.043-5.846-0.674c-2.004-0.651-4.124-0.873-6.223-0.648
			c-15.201,2.135-18.2,30.952-33.059,41.293c23.777,0.084,14.051,32.659,23.136,31.38c3.95-0.558,4.382-6.056,7.742-6.526
			c9.272-1.303,5.12,40.762-15.218,43.621c-15.058,2.109-17.238-12.685-19.067-27.476c-1.812-14.692-3.273-29.386-16.652-27.512
			c-2.668,29.31-1.176,60.031-20.402,73.822c-3.342,2.878-7.415,4.776-11.769,5.483c-2.144,0.588-4.325,1.033-6.527,1.339
			c-0.467,0.065-0.925,0.127-1.374,0.184c-0.455,0.386-0.902,0.767-1.34,1.144c-0.23,0.212-0.468,0.396-0.697,0.6l0,0
			c-1.104,0.885-2.132,1.86-3.07,2.921c-2.387,3.097-4.147,6.631-5.183,10.404c-0.061,0.187-0.121,0.375-0.183,0.565
			c-0.348,1.285-0.848,2.525-1.49,3.691c-2.584,4.232-7.817,6.019-12.449,4.249L98.771,305.244z M99.213,295.084
			c-0.598,1.57,0.174,3.33,1.734,3.953h0.03c0.757,0.291,1.601,0.267,2.339-0.069c1.548-0.693,2.242-2.507,1.551-4.055
			c-0.332-0.742-0.945-1.324-1.703-1.615h-0.016c-1.577-0.594-3.339,0.201-3.936,1.779V295.084z M104.212,289.658
			c-0.475,1.25,0.138,2.647,1.378,3.148h0.025c0.604,0.237,1.277,0.217,1.865-0.058c1.231-0.556,1.78-2.005,1.223-3.235
			c-0.264-0.583-0.746-1.041-1.343-1.274h-0.021c-0.271-0.101-0.56-0.151-0.85-0.151c-1.014-0.002-1.922,0.623-2.284,1.57H104.212z
			 M107.799,221.142c-0.947,0.337-1.85,0.788-2.688,1.341c-3.035,2.234-5.738,4.889-8.031,7.881
			c-5.642,6.972-10.471,14.566-14.395,22.635c-2.146,4.122-3.849,8.457-5.081,12.936c-0.499,1.977-0.803,3.993-0.905,6.026
			c-0.101,2.099,0.713,2.521,2.587,1.574c2.167-1.19,4.118-2.738,5.771-4.577c4.626-4.864,8.704-10.22,12.159-15.975
			c3.354-5.306,6.256-10.884,8.676-16.677c1.61-3.625,2.724-7.452,3.313-11.375c0.084-1.001,0.047-2.009-0.108-3.001
			c-0.061-0.47-0.225-0.753-0.499-0.861c-0.085-0.028-0.174-0.045-0.264-0.043C108.149,221.031,107.969,221.072,107.799,221.142z
			 M89.625,245.928c2.069-3.305,6.239-4.608,9.822-3.066c-2.448,4.271-4.848,8.454-7.259,12.663
			C89.235,253.291,88.18,249.335,89.625,245.928z M66.827,250.344c-0.81-0.337-1.208-1.253-0.905-2.075
			c0.357-0.319,0.769-0.571,1.215-0.746c2.977-0.551,5.957-1.05,8.941-1.537c0.798-0.151,1.566,0.373,1.717,1.169
			c0.001,0.004,0.002,0.008,0.003,0.012c0.149,0.821-0.394,1.61-1.216,1.763c-0.519,0.114-1.049,0.188-1.567,0.278
			c-2.405,0.41-4.811,0.828-7.217,1.222c-0.111,0.017-0.223,0.025-0.336,0.025C67.246,250.456,67.029,250.417,66.827,250.344z
			 M79.962,240.205h-0.015c-0.05-0.021-0.097-0.041-0.144-0.063c-2.484-1.519-4.978-3.023-7.451-4.562
			c-0.673-0.409-0.886-1.289-0.477-1.963c0.017-0.024,0.033-0.05,0.051-0.074c0.41-0.692,1.302-0.922,1.993-0.512
			c0.006,0.004,0.012,0.008,0.018,0.012c0.489,0.263,0.951,0.57,1.428,0.861c1.967,1.205,3.936,2.398,5.894,3.613
			c0.714,0.382,0.985,1.269,0.604,1.986c-0.26,0.492-0.771,0.804-1.33,0.804c-0.194,0-0.388-0.037-0.57-0.106V240.205z
			 M85.989,232.211c-0.327-0.131-0.609-0.361-0.808-0.652c-2.023-2.886-4.047-5.768-6.021-8.679
			c-0.227-0.508-0.377-1.043-0.448-1.592c0.444-0.318,0.923-0.585,1.428-0.793c0.595-0.126,1.2,0.161,1.479,0.7
			c2.016,2.888,4.026,5.778,6.033,8.671c0.518,0.644,0.415,1.587-0.229,2.103c-0.029,0.025-0.061,0.049-0.091,0.07
			c-0.246,0.172-0.54,0.267-0.841,0.269C86.319,232.306,86.15,232.272,85.989,232.211z"/>
	</g>
</g>
</svg>
