<svg id="Group_14258" data-name="Group 14258" xmlns="http://www.w3.org/2000/svg" width="70" height="71" viewBox="0 0 70 71">
  <ellipse id="Ellipse_1200" data-name="Ellipse 1200" cx="35" cy="35.5" rx="35" ry="35.5" fill="#91a7c0"/>
  <g id="Group_13522" data-name="Group 13522" transform="translate(18.934 21.451)">
    <path id="Path_2560" data-name="Path 2560" d="M120.2,88.565a9.609,9.609,0,0,1-3.291-5.216,6.251,6.251,0,0,1,.877-5.528,6.045,6.045,0,0,1,10.873,2.662,8.112,8.112,0,0,1-.742,4.415,8.957,8.957,0,0,1-2.785,3.673c.742.3,1.457.586,2.172.866.925.36,1.855.71,2.78,1.07.231.091.457.21.678.317a3.215,3.215,0,0,1,1.861,2.646,18.216,18.216,0,0,1,.134,1.952c.021,1.28.005,2.565.005,3.845,0,.07-.011.14-.016.226H112.627a.953.953,0,0,1-.027-.172c.005-1.629.005-3.264.032-4.893A7.364,7.364,0,0,1,112.8,93.1a2.967,2.967,0,0,1,1.678-2.2c.93-.436,1.893-.8,2.845-1.188.86-.35,1.732-.683,2.592-1.027A1.166,1.166,0,0,0,120.2,88.565Z" transform="translate(-106.547 -71.279)" fill="#fff"/>
    <path id="Path_2561" data-name="Path 2561" d="M10.21,16.678c-.78.312-1.533.6-2.269.92a11.555,11.555,0,0,0-1.355.7,4.967,4.967,0,0,0-2.35,3.791c-.108.753-.145,1.511-.215,2.291H.047c-.005-.086-.011-.156-.011-.226,0-1.4-.027-2.8.011-4.194a13.2,13.2,0,0,1,.263-2.2,2.564,2.564,0,0,1,1.377-1.834c.909-.457,1.855-.839,2.8-1.226.957-.4,1.93-.764,2.9-1.14.081-.032.156-.075.263-.124a8.182,8.182,0,0,1-2.162-2.474A9.367,9.367,0,0,1,4.069,6.068,6.043,6.043,0,0,1,14.5,2.089c.07.07.129.145.22.247-.2.048-.366.091-.532.134a8.069,8.069,0,0,0-6.076,8.292,11.773,11.773,0,0,0,1.909,5.609Z" transform="translate(-0.027 -0.188)" fill="#fff"/>
    <path id="Path_2562" data-name="Path 2562" d="M334.182,13.308c.532.215,1.049.436,1.57.64,1.118.436,2.237.86,3.355,1.291.2.075.387.177.586.269a3.323,3.323,0,0,1,1.984,2.855c.059.586.1,1.178.108,1.769.016,1.36.005,2.721.005,4.1h-4c-.048-.645-.075-1.28-.145-1.909a5.161,5.161,0,0,0-2.468-4.205,16.956,16.956,0,0,0-1.8-.887c-.57-.253-1.161-.457-1.769-.7.07-.108.124-.194.177-.28a11.539,11.539,0,0,0,1.93-5.759,8.043,8.043,0,0,0-6.458-8.26c-.038-.011-.081-.016-.156-.032.075-.091.124-.161.183-.22a6.052,6.052,0,0,1,10.367,3.07,7.409,7.409,0,0,1-.565,4.227,9.064,9.064,0,0,1-2.828,3.947C334.236,13.233,334.22,13.26,334.182,13.308Z" transform="translate(-309.512 -0.039)" fill="#fff"/>
  </g>
</svg>
