<svg id="Group_13412" data-name="Group 13412" xmlns="http://www.w3.org/2000/svg" width="168.241" height="167.915" viewBox="0 0 168.241 167.915">
  <path id="Path_7159" data-name="Path 7159" d="M-335.936,583c3.457.751,7.041,1.143,10.35,2.311,18.227,6.429,29.1,19.208,32.04,38.32,1.715,11.162-.825,21.594-6.818,31.173-2.459,3.93-4.943,7.845-7.487,11.881.534.34.964.644,1.42.9,7.861,4.422,15.712,8.864,23.6,13.234a5.778,5.778,0,0,1,2.773,3.235q11.789,31.155,23.661,62.277c.171.45.421.869.634,1.3v1.64c-1.53,1.942-2.31,2.089-4.585.809q-18.574-10.439-37.128-20.913a2.7,2.7,0,0,0-3.089-.03c-12.308,6.98-24.669,13.867-36.972,20.855a4.206,4.206,0,0,1-4.693,0c-12.254-6.964-24.566-13.828-36.826-20.782a2.813,2.813,0,0,0-3.235-.037q-18.6,10.563-37.271,20.991c-2.117,1.189-2.944,1.01-4.442-.893v-1.64c2.076-5.329,4.185-10.646,6.222-15.99,6.084-15.959,12.118-31.937,18.258-47.874a5.793,5.793,0,0,1,2.357-2.7c7.86-4.534,15.791-8.946,23.7-13.4.472-.266.934-.55,1.553-.916-.3-.508-.556-.967-.836-1.411-2.413-3.839-4.89-7.641-7.238-11.518-17.362-28.667.66-66.052,33.935-70.433.747-.1,1.486-.258,2.228-.389Zm38.028,46.727c-.167-1.9-.257-3.816-.513-5.707a41.9,41.9,0,0,0-47.371-35.7c-29.46,4.238-45.495,37.292-30.1,62.646,10.914,17.978,22.4,35.613,33.644,53.389,1.409,2.227,3.345,2.21,4.762-.031q16.78-26.528,33.507-53.089A40.816,40.816,0,0,0-297.909,629.727Zm-80,94.509,35.365,19.882a3.951,3.951,0,0,0,.177-.7q.017-15.985-.01-31.971a2.25,2.25,0,0,0-.726-1.267c-1.182-1.251-2.677-2.287-3.587-3.7-6.53-10.157-12.945-20.387-19.4-30.594-.3-.475-.614-.942-1.112-1.7-.165.646-.236.891-.29,1.14-1.191,5.55-2.365,11.1-3.58,16.647A2.473,2.473,0,0,1-374,694.15c-1.451-.285-2.194-1.585-1.841-3.288.531-2.565,1.086-5.126,1.629-7.688.732-3.454,1.461-6.907,2.224-10.516a6.474,6.474,0,0,0-.832.3c-7.1,3.991-14.208,7.972-21.281,12.012a3.249,3.249,0,0,0-1.242,1.6q-10.424,27.3-20.783,54.622c-.167.441-.291.9-.51,1.58.51-.224.8-.323,1.066-.472q15.867-8.925,31.708-17.9a3.139,3.139,0,0,0,1.235-1.9c1.576-7.085,3.059-14.191,4.6-21.284.383-1.763,1.54-2.54,3.038-2.183,1.4.333,2.081,1.557,1.752,3.189-.313,1.551-.656,3.1-.985,4.645C-375.446,712.622-376.669,718.38-377.913,724.236Zm40.581,19.874c.655-.327,1.139-.544,1.6-.8,10.771-6.055,21.523-12.141,32.328-18.135,1.321-.733,1.5-1.45,1.2-2.819-2.643-12.16-5.209-24.336-7.8-36.506-.8-3.764-1.621-7.525-2.527-11.729-.548.849-.862,1.327-1.167,1.81-6.451,10.208-12.877,20.431-19.384,30.6a11.281,11.281,0,0,1-3.1,3.275,2.408,2.408,0,0,0-1.244,2.351c.027,10.056.015,20.113.019,30.169C-337.409,742.854-337.365,743.382-337.332,744.11Zm74.252-1.232c-.22-.722-.295-1.034-.408-1.332q-10.465-27.54-20.969-55.065a3.737,3.737,0,0,0-1.549-1.738c-6.738-3.852-13.513-7.641-20.28-11.442-.4-.227-.837-.4-1.4-.676.042.453.039.722.094.98q5.23,24.578,10.511,49.144a3.116,3.116,0,0,0,1.41,1.774c7.976,4.551,15.988,9.038,23.993,13.538C-268.926,739.611-266.165,741.151-263.08,742.879Z" transform="translate(424 -583)" fill="#515c6f"/>
  <path id="Path_7160" data-name="Path 7160" d="M-293.844,654.947a27.1,27.1,0,0,1,27.2-27.031,27.1,27.1,0,0,1,26.991,27.075,27.1,27.1,0,0,1-27.2,27.035A27.109,27.109,0,0,1-293.844,654.947Zm4.929-.006a22.179,22.179,0,0,0,22.1,22.165,22.173,22.173,0,0,0,22.234-22.028A22.174,22.174,0,0,0-266.6,632.835,22.167,22.167,0,0,0-288.915,654.941Z" transform="translate(350.869 -608.237)" fill="#515c6f"/>
  <path id="Path_7161" data-name="Path 7161" d="M-236.869,667.794A17.224,17.224,0,0,1-254.456,684.8a17.245,17.245,0,0,1-16.858-17.409,17.226,17.226,0,0,1,17.587-17.006A17.238,17.238,0,0,1-236.869,667.794Zm-4.922-.172a12.3,12.3,0,0,0-12.272-12.32,12.3,12.3,0,0,0-12.328,12.263,12.315,12.315,0,0,0,12.271,12.324A12.3,12.3,0,0,0-241.791,667.622Z" transform="translate(338.211 -620.862)" fill="#515c6f"/>
</svg>
