<svg xmlns="http://www.w3.org/2000/svg" width="97.958" height="114.012" viewBox="0 0 97.958 114.012">
  <g id="Group_15623" data-name="Group 15623" transform="translate(-175.44 -333.469)">
    <g id="Group_15621" data-name="Group 15621" transform="translate(-327.559 -168.032)">
      <path id="Path_14830" data-name="Path 14830" d="M546.281,564.93c-10.838,0-21.677.019-32.515,0a10.7,10.7,0,0,1-10.7-11.654c.293-2.623.964-5.208,1.516-7.8,1.434-6.753,3.165-13.419,6.254-19.653a39.05,39.05,0,0,1,8.349-11.414,10.549,10.549,0,0,1,12.8-1.726,30.14,30.14,0,0,0,12.22,3.654,28.218,28.218,0,0,0,15.159-3.055,14,14,0,0,1,6.225-1.966,10.416,10.416,0,0,1,7.544,2.853,41.443,41.443,0,0,1,10.153,15.112c2.724,6.666,4.192,13.668,5.626,20.684.494,2.393.954,4.748.216,7.179a10.751,10.751,0,0,1-10.335,7.784Q562.535,564.954,546.281,564.93Z" transform="translate(0 37.048)" fill="#787c94"/>
      <path id="Path_14831" data-name="Path 14831" d="M553.809,524.789A23.324,23.324,0,1,1,530.477,501.5,23.385,23.385,0,0,1,553.809,524.789Z" transform="translate(15.795 0)" fill="#787c94"/>
      <path id="Path_14832" data-name="Path 14832" d="M540.581,552.094H508.4c-2.8,0-4.345-2-3.784-4.743a142.8,142.8,0,0,1,4.369-17.744,39.012,39.012,0,0,1,8.066-14.311c2.288-2.451,3.256-3.424,7.141-1.357a35.094,35.094,0,0,0,20.7,3.659,34.577,34.577,0,0,0,12.9-4.062c2.23-1.213,3.5-1.05,5.323.724a37.213,37.213,0,0,1,8.743,14.411c2.254,6.215,3.482,12.685,4.8,19.135a3.564,3.564,0,0,1-3.669,4.282Q556.779,552.1,540.581,552.094Z" transform="translate(5.691 42.709)" fill="#fcc1a1"/>
      <path id="Path_14833" data-name="Path 14833" d="M540.993,519.207c.2,8.671-7.366,16.368-16.545,16.162A16.193,16.193,0,1,1,525.4,503C533.929,503.28,541.194,510.584,540.993,519.207Z" transform="translate(21.436 5.645)" fill="#fcc1a1"/>
    </g>
    <g id="Group_15622" data-name="Group 15622" transform="translate(-273.584 -91.95)">
      <path id="Path_14823" data-name="Path 14823" d="M514.524,523.147a16.229,16.229,0,1,1,16.212,16.282A16.082,16.082,0,0,1,514.524,523.147Zm11.339.027c-.873.863-1.66,1.621-2.425,2.4a3.381,3.381,0,0,0-1.052,2.98,3.324,3.324,0,0,0,2.329,2.827,3.4,3.4,0,0,0,3.663-.919c.645-.632,1.3-1.258,1.912-1.918.328-.351.552-.354.883,0,.66.706,1.343,1.394,2.051,2.052a3.476,3.476,0,0,0,4.914-4.917c-.407-.442-.846-.856-1.269-1.284l-1.319-1.334c.974-.9,1.929-1.677,2.759-2.571a3.453,3.453,0,0,0-1.116-5.3,3.413,3.413,0,0,0-4.077.712c-.8.775-1.56,1.581-2.4,2.436-.859-.88-1.636-1.68-2.417-2.476A3.384,3.384,0,0,0,526,514.828a3.421,3.421,0,0,0-3.318,2.007,3.374,3.374,0,0,0,.649,3.87C524.12,521.527,524.96,522.3,525.863,523.174Z" fill="#ff3c3c"/>
      <path id="Path_14824" data-name="Path 14824" d="M563.427,560.908c-.9-.878-1.743-1.647-2.527-2.469a3.374,3.374,0,0,1-.649-3.87,3.421,3.421,0,0,1,3.318-2.007,3.384,3.384,0,0,1,2.294,1.034c.782.8,1.558,1.6,2.417,2.476.84-.855,1.6-1.661,2.4-2.436a3.413,3.413,0,0,1,4.077-.712,3.453,3.453,0,0,1,1.116,5.3c-.83.893-1.785,1.671-2.759,2.571l1.32,1.334c.424.427.862.841,1.269,1.284a3.476,3.476,0,0,1-4.914,4.917c-.708-.658-1.391-1.346-2.051-2.052-.331-.354-.555-.352-.883,0-.616.66-1.267,1.286-1.912,1.918a3.4,3.4,0,0,1-3.663.919,3.324,3.324,0,0,1-2.329-2.827A3.381,3.381,0,0,1,561,563.31C561.767,562.529,562.554,561.77,563.427,560.908Z" transform="translate(-37.564 -37.734)" fill="#fff"/>
    </g>
  </g>
</svg>
