<svg xmlns="http://www.w3.org/2000/svg" width="497.242" height="300.335" viewBox="0 0 497.242 300.335">
  <g id="Computer_troubleshooting-pana" data-name="Computer troubleshooting-pana" transform="translate(-33.85 -42.46)">
    <g id="freepik--background-complete--inject-6" transform="translate(40.345 42.46)">
      <path id="Path_14840" data-name="Path 14840" d="M360.685,152.707a5.222,5.222,0,0,1-1.731-.292l-8.931-3.1a5.323,5.323,0,0,1-3.469-4.009l-1.789-9.3A5.3,5.3,0,0,1,346.5,131l7.149-6.193a5.331,5.331,0,0,1,5.214-1.008l8.938,3.1a5.309,5.309,0,0,1,3.476,4.009l1.782,9.289a5.338,5.338,0,0,1-1.731,5.017l-7.157,6.193a5.316,5.316,0,0,1-3.491,1.293Zm-8.471-8.807,8.354,2.921,6.689-5.784-1.672-8.683-8.354-2.921-6.682,5.791Z" transform="translate(-124.185 -64.324)" fill="#f5f5f5"/>
      <path id="Path_14841" data-name="Path 14841" d="M505.477,119.147a5.221,5.221,0,0,1-1.731-.292l-4.528-1.57a5.309,5.309,0,0,1-3.469-4.009l-.905-4.7a5.316,5.316,0,0,1,1.731-5.01l3.651-3.14a5.309,5.309,0,0,1,5.207-1l4.52,1.57A5.309,5.309,0,0,1,513.43,105l.906,4.7a5.3,5.3,0,0,1-1.738,5.01l-3.651,3.14a5.353,5.353,0,0,1-3.469,1.293Zm-4.053-7.3,3.943,1.366,3.147-2.731-.789-4.089-3.936-1.366-3.155,2.775Z" transform="translate(-164.668 -57.746)" fill="#f5f5f5"/>
      <path id="Path_14842" data-name="Path 14842" d="M678.318,215.116a3.87,3.87,0,0,1-3-1.461l-2.549-3.184a3.856,3.856,0,0,1-.584-3.8l1.461-3.8a3.841,3.841,0,0,1,2.994-2.4l4.031-.621a3.863,3.863,0,0,1,3.586,1.395l2.549,3.184a3.856,3.856,0,0,1,.584,3.8l-1.461,3.8a3.834,3.834,0,0,1-3,2.4l-4.031.621A3.771,3.771,0,0,1,678.318,215.116Zm2.958-12.363h-.139l-4.031.621a.935.935,0,0,0-.73.577l-1.461,3.8a.92.92,0,0,0,.139.913l2.549,3.184a.949.949,0,0,0,.862.336l4.031-.621a.92.92,0,0,0,.73-.577l1.461-3.8a.935.935,0,0,0-.139-.913h0L682,203.089A.942.942,0,0,0,681.276,202.753Z" transform="translate(-212.459 -84.903)" fill="#e0e0e0"/>
      <path id="Path_14843" data-name="Path 14843" d="M53.666,253.984a4.98,4.98,0,0,1-3.863-1.848l-5.988-7.478a4.951,4.951,0,0,1-.73-4.878l3.5-8.931a4.951,4.951,0,0,1,3.848-3.089l9.493-1.461a4.958,4.958,0,0,1,4.6,1.8l5.937,7.463a4.958,4.958,0,0,1,.73,4.885l-3.432,8.938a4.951,4.951,0,0,1-3.856,3.1l-9.493,1.461a4.262,4.262,0,0,1-.745.044Zm-5.8-12.414,5.842,7.3,9.274-1.417,3.4-8.763-5.842-7.3-9.274,1.424ZM66.475,238.8Z" transform="translate(-42.744 -92.034)" fill="#e0e0e0"/>
      <path id="Path_14844" data-name="Path 14844" d="M86.333,168.159H80.688a3.848,3.848,0,0,1-3.33-1.9l-2.826-4.885a3.892,3.892,0,0,1,0-3.848l2.826-4.885a3.841,3.841,0,0,1,3.33-1.921h5.645a3.841,3.841,0,0,1,3.33,1.921l2.826,4.856a3.892,3.892,0,0,1,0,3.848l-2.826,4.915A3.856,3.856,0,0,1,86.333,168.159Zm-5.645-14.547a.935.935,0,0,0-.8.46l-2.819,4.885a.92.92,0,0,0,0,.927l2.819,4.915a.942.942,0,0,0,.8.467h5.645a.942.942,0,0,0,.818-.467l2.819-4.885a.92.92,0,0,0,0-.927l-2.819-4.915a.935.935,0,0,0-.8-.46Z" transform="translate(-51.181 -71.662)" fill="#ebebeb"/>
      <path id="Path_14845" data-name="Path 14845" d="M205.43,83.712l-11.012-6.93L180.9,53.969,162.1,42.46,158.46,46.4l1.906,2.571,5.937,7.96,23.566,31.635,9.61,5.287Z" transform="translate(-73.957 -42.46)" fill="#ebebeb"/>
      <path id="Path_14846" data-name="Path 14846" d="M188.169,102.917l-3.155-10.5L150.385,52.85l-4.615,2.731,7.31,20.805,20.1,19.746,4.506,12.327Z" transform="translate(-70.534 -45.263)" fill="#ebebeb"/>
      <path id="Path_14847" data-name="Path 14847" d="M226.833,101.63s39.105,21.462,46.985,28.707,26.289,37.411,24.42,41.267-3.3,4.382-7.544.643-17.957-24.405-21.638-27.75-49.5-30.182-49.5-30.182Z" transform="translate(-90.438 -58.42)" fill="#e0e0e0"/>
      <circle id="Ellipse_1291" data-name="Ellipse 1291" cx="12.385" cy="12.385" r="12.385" transform="translate(97.494 27.633)" fill="#ebebeb"/>
      <path id="Path_14848" data-name="Path 14848" d="M185.5,104.609a18.432,18.432,0,0,0,3.023.314,11.83,11.83,0,0,0,3.505-.518A12.261,12.261,0,0,0,200.8,91.486a11.611,11.611,0,0,0-.906-3.432,13.351,13.351,0,0,0-.789-1.628,12.627,12.627,0,0,0-1.073-1.512,12.137,12.137,0,0,0-13.955-3.651,14.528,14.528,0,0,0-1.665.8,13.574,13.574,0,0,0-1.461,1.044,11.356,11.356,0,0,0-2.388,2.571,12.243,12.243,0,0,0,1.329,15.533A11.9,11.9,0,0,0,182.7,103.4a18.986,18.986,0,0,0,2.8,1.2.782.782,0,0,1-.2,0l-.57-.161a5.629,5.629,0,0,1-.906-.314,8.845,8.845,0,0,1-1.19-.555,11.684,11.684,0,0,1-2.921-2.14,12.388,12.388,0,0,1-1.461-15.883,11.889,11.889,0,0,1,2.454-2.658,11.611,11.611,0,0,1,3.25-1.906,12.509,12.509,0,0,1,14.379,3.739,14.014,14.014,0,0,1,1.1,1.563,13.212,13.212,0,0,1,.811,1.687,11.545,11.545,0,0,1,.847,3.505,12.414,12.414,0,0,1-4.769,11.012,12.283,12.283,0,0,1-4.25,2.147,11.538,11.538,0,0,1-3.564.46A8.661,8.661,0,0,1,187.19,105a5.937,5.937,0,0,1-.957-.146l-.577-.139A.664.664,0,0,1,185.5,104.609Z" transform="translate(-78.698 -52.607)" fill="#e0e0e0"/>
      <path id="Path_14849" data-name="Path 14849" d="M188.872,101.444a7,7,0,1,1,8.522-5.01A7,7,0,0,1,188.872,101.444Z" transform="translate(-80.746 -54.656)" fill="#e0e0e0"/>
      <path id="Path_14850" data-name="Path 14850" d="M188.819,101.377c0-.051.606.146,1.7.146a6.959,6.959,0,0,0,6.236-4,6.836,6.836,0,0,0-.913-7.2A6.77,6.77,0,0,0,188.06,88.3a6.229,6.229,0,0,0-1.76,1.008,6.346,6.346,0,0,0-1.336,1.461,6.908,6.908,0,0,0-1.2,3.388,6.8,6.8,0,0,0,.5,3.111,6.952,6.952,0,0,0,3,3.418,14.8,14.8,0,0,0,1.563.73,5.273,5.273,0,0,1-1.636-.577,6.959,6.959,0,0,1-3.177-3.44,7.032,7.032,0,0,1-.562-3.242,7.178,7.178,0,0,1,1.227-3.571,6.813,6.813,0,0,1,1.366-1.548,6.74,6.74,0,0,1,1.855-1.088,7.148,7.148,0,0,1,7.1,12.261,6.989,6.989,0,0,1-4.455,1.461,5.214,5.214,0,0,1-1.716-.292Z" transform="translate(-80.693 -54.589)" fill="#e0e0e0"/>
      <rect id="Rectangle_27172" data-name="Rectangle 27172" width="20.937" height="11.326" rx="5.663" transform="translate(121.023 54.319) rotate(-60.12)" fill="#ebebeb"/>
      <path id="Path_14851" data-name="Path 14851" d="M211.86,106.138a7.244,7.244,0,0,0-.606,2.052,5.615,5.615,0,0,0,.329,2.461,5.747,5.747,0,0,0,.73,1.358,5.324,5.324,0,0,0,1.271,1.176,7.828,7.828,0,0,0,1.709.869,5.214,5.214,0,0,0,5.893-1.877c1.68-2.8,3.454-6,5.367-9.3a5.229,5.229,0,0,0,0-5.112A5.112,5.112,0,0,0,224.9,95.9a6.31,6.31,0,0,0-2.242-.993,5.236,5.236,0,0,0-4.287,1.022,10.736,10.736,0,0,0-2.322,3.257l-3.009,5.112-.833,1.38a2.76,2.76,0,0,1-.314.467,4.79,4.79,0,0,1,.248-.511c.2-.351.453-.825.774-1.409.73-1.256,1.687-3.009,2.921-5.163l.964-1.709a5.776,5.776,0,0,1,1.395-1.665,5.543,5.543,0,0,1,4.513-1.125,6.616,6.616,0,0,1,2.351,1.022,5.411,5.411,0,0,1,1.862,1.964,5.565,5.565,0,0,1,0,5.506c-1.921,3.308-3.651,6.463-5.411,9.318a5.616,5.616,0,0,1-4.119,2.242,5.689,5.689,0,0,1-2.154-.292,8.2,8.2,0,0,1-1.76-.935,5.551,5.551,0,0,1-1.322-1.249,6.039,6.039,0,0,1-.73-1.461,5.272,5.272,0,0,1,.19-4.1,2.978,2.978,0,0,1,.241-.438Z" transform="translate(-88.157 -56.488)" fill="#e0e0e0"/>
      <path id="Path_14852" data-name="Path 14852" d="M191.47,135.663s14.817,42.078,20.688,51.031,32.635,32.015,36.739,30.8,4.827-2.549,1.862-7.3-21.178-21.681-23.865-25.866-21.769-53.747-21.769-53.747Z" transform="translate(-82.861 -66.229)" fill="#e0e0e0"/>
      <rect id="Rectangle_27173" data-name="Rectangle 27173" width="20.937" height="11.326" rx="5.663" transform="matrix(0.937, -0.351, 0.351, 0.937, 102.464, 63.419)" fill="#ebebeb"/>
      <path id="Path_14853" data-name="Path 14853" d="M198.119,121.678a2.57,2.57,0,0,1,.526-.2,5.382,5.382,0,0,1,1.614-.2,5.492,5.492,0,0,1,2.468.679,6.1,6.1,0,0,1,1.285.986,5.842,5.842,0,0,1,1.022,1.5,7.887,7.887,0,0,1,.628,1.891,5.484,5.484,0,0,1-.058,2.191,5.594,5.594,0,0,1-2.921,3.7c-3.1,1.249-6.492,2.468-10.07,3.827a5.616,5.616,0,0,1-5.44-.876,5.55,5.55,0,0,1-1.636-2.191,6.572,6.572,0,0,1-.628-2.512,5.535,5.535,0,0,1,1.84-4.309,5.769,5.769,0,0,1,1.869-1.1l1.84-.679,5.565-2.016,1.519-.533a3.066,3.066,0,0,1,.54-.161,2.433,2.433,0,0,1-.511.234l-1.461.6-5.521,2.132a10.954,10.954,0,0,0-3.593,1.76,5.265,5.265,0,0,0-1.709,4.068,6.434,6.434,0,0,0,.621,2.373,5.112,5.112,0,0,0,1.534,2.016,5.229,5.229,0,0,0,5.075.811c3.556-1.351,7.01-2.585,10.048-3.783a5.251,5.251,0,0,0,2.811-5.506,7.806,7.806,0,0,0-.591-1.833,5.455,5.455,0,0,0-.949-1.461,5.624,5.624,0,0,0-1.212-.964,5.44,5.44,0,0,0-2.373-.73A7.076,7.076,0,0,0,198.119,121.678Z" transform="translate(-81.091 -63.717)" fill="#e0e0e0"/>
    </g>
    <g id="freepik--Floor--inject-6" transform="translate(33.85 342.415)">
      <path id="Path_14854" data-name="Path 14854" d="M531.092,453.4c0,.1-111.321.19-248.61.19S33.85,453.5,33.85,453.4s111.3-.19,248.632-.19S531.092,453.3,531.092,453.4Z" transform="translate(-33.85 -453.21)" fill="#263238"/>
    </g>
    <g id="freepik--Screwdriver--inject-6" transform="translate(42.525 164.881)">
      <path id="Path_14855" data-name="Path 14855" d="M87,304.336c.2-.613,22.952-75,22.952-75l-.57-9.238,5.952-9.8,7.39,2.446L121.717,223.7l-5.258,7.989L93.572,306.475Z" transform="translate(-56.862 -210.154)" fill="#e0e0e0"/>
      <path id="Path_14856" data-name="Path 14856" d="M87,304.282l.438.124,1.263.394,4.871,1.526-.08.044c3.7-12.13,12.261-40.2,22.806-74.764h0l5.251-7.982v.08c.321-3.5.665-7.215,1.008-10.954l.131.2-.613-.2-6.777-2.242.219-.08-5.952,9.8v-.11q.285,4.725.562,9.238v.066c-6.653,21.608-12.414,40.325-16.511,53.645-2.059,6.667-3.71,11.976-4.842,15.635-.562,1.826-1.008,3.235-1.307,4.2l-.343,1.088-.124.372a3.238,3.238,0,0,1,.095-.358c.073-.256.175-.613.314-1.073.292-.964.73-2.366,1.256-4.177,1.1-3.651,2.709-8.968,4.725-15.628,4.075-13.364,9.786-32.132,16.387-53.813v.066q-.285-4.513-.577-9.238v-.11l5.952-9.8.073-.131.146.051,6.784,2.235.606.2.146.044v.153c-.343,3.761-.686,7.478-1.015,10.954v.088l-5.251,7.989v-.051c-10.655,34.49-19.286,62.525-23.025,74.655v.066H93.55l-4.878-1.614-1.234-.416Z" transform="translate(-56.862 -210.1)" fill="#263238"/>
      <path id="Path_14857" data-name="Path 14857" d="M70.384,341.305,60.16,355.122,45.869,406.97s-2.052,10.574,9.625,13.576c13.145,3.374,16.139-6.675,16.139-6.675l13.875-50.629-.146-17.555,3.425-3.863a1.461,1.461,0,0,0-.621-2.33l-16.416-5.419a1.461,1.461,0,0,0-1.891,1.512Z" transform="translate(-45.73 -243.523)" fill="#fa935b"/>
      <path id="Path_14858" data-name="Path 14858" d="M94.488,349.039c-.037.1-3.476-.9-7.682-2.235s-7.6-2.5-7.566-2.607,3.469.906,7.682,2.242S94.517,348.937,94.488,349.039Z" transform="translate(-54.769 -246.269)" fill="#263238"/>
      <path id="Path_14859" data-name="Path 14859" d="M90.961,371.088a4.873,4.873,0,0,1-1.022-.175c-.657-.139-1.592-.365-2.753-.657-2.322-.577-5.506-1.461-8.975-2.571s-6.572-2.235-8.814-3.1c-1.11-.438-2.008-.8-2.622-1.066a5.205,5.205,0,0,1-.935-.445,5.312,5.312,0,0,1,.993.307l2.658.949c2.249.8,5.36,1.891,8.829,2.994s6.638,2.03,8.931,2.68l2.724.767A5.662,5.662,0,0,1,90.961,371.088Z" transform="translate(-51.154 -251.362)" fill="#263238"/>
      <g id="Group_15463" data-name="Group 15463" transform="translate(3.911 116.316)" opacity="0.3">
        <rect id="Rectangle_27174" data-name="Rectangle 27174" width="5.192" height="50.016" rx="2.596" transform="translate(14.004 0) rotate(16.26)"/>
      </g>
      <g id="Group_15464" data-name="Group 15464" transform="translate(11.237 118.692)" opacity="0.3">
        <rect id="Rectangle_27175" data-name="Rectangle 27175" width="5.192" height="50.016" rx="2.596" transform="translate(14.004 0) rotate(16.26)"/>
      </g>
      <g id="Group_15465" data-name="Group 15465" transform="translate(17.656 120.867)" opacity="0.3">
        <rect id="Rectangle_27176" data-name="Rectangle 27176" width="5.192" height="50.016" rx="2.596" transform="translate(14.197) rotate(16.49)"/>
      </g>
      <path id="Path_14860" data-name="Path 14860" d="M124.912,238.783a15.249,15.249,0,0,1-3.257-.927,14.606,14.606,0,0,1-3.126-1.285,15.787,15.787,0,0,1,3.25.927A14.8,14.8,0,0,1,124.912,238.783Z" transform="translate(-65.367 -217.24)" fill="#263238"/>
      <path id="Path_14861" data-name="Path 14861" d="M131.786,212.749a5.931,5.931,0,0,1-.256,1.022c-.212.73-.489,1.65-.832,2.79l-2.921,9.493-.058.183-.183-.058L124.169,225l-3.461-1.212-.168-.058.051-.168c1.052-3.754,1.979-7.047,2.665-9.493.336-1.132.606-2.067.818-2.768a6.689,6.689,0,0,1,.336-.993,5.929,5.929,0,0,1-.212,1.03l-.73,2.8c-.65,2.432-1.526,5.733-2.534,9.493l-.117-.226,3.469,1.212,3.359,1.176-.241.124,3.067-9.428c.38-1.132.73-2.052.935-2.753A6.258,6.258,0,0,1,131.786,212.749Z" transform="translate(-65.909 -210.157)" fill="#263238"/>
    </g>
    <g id="freepik--Gears--inject-6" transform="translate(255.056 62.513)">
      <path id="Path_14862" data-name="Path 14862" d="M424.979,101.139a5.221,5.221,0,0,1-1.731-.292l-8.946-3.1a5.324,5.324,0,0,1-3.469-4.009l-1.789-9.3a5.3,5.3,0,0,1,1.738-5.01l7.157-6.193a5.316,5.316,0,0,1,5.207-1l8.938,3.1a5.324,5.324,0,0,1,3.476,4.009l1.789,9.3a5.338,5.338,0,0,1-1.738,5.01l-7.157,6.193a5.316,5.316,0,0,1-3.476,1.293Zm-8.471-8.807,8.362,2.921,6.682-5.784-1.672-8.719-8.354-2.921-6.7,5.842Z" transform="translate(-356.235 -70.468)" fill="#e0e0e0"/>
      <path id="Path_14863" data-name="Path 14863" d="M424.979,101.139a5.221,5.221,0,0,1-1.731-.292l-8.946-3.1a5.324,5.324,0,0,1-3.469-4.009l-1.789-9.3a5.3,5.3,0,0,1,1.738-5.01l7.157-6.193a5.316,5.316,0,0,1,5.207-1l8.938,3.1a5.324,5.324,0,0,1,3.476,4.009l1.789,9.3a5.338,5.338,0,0,1-1.738,5.01l-7.157,6.193a5.316,5.316,0,0,1-3.476,1.293Zm-8.471-8.807,8.362,2.921,6.682-5.784-1.672-8.719-8.354-2.921-6.7,5.842Z" transform="translate(-356.235 -70.468)" fill="none"/>
      <path id="Path_14864" data-name="Path 14864" d="M418.632,94.447a4.646,4.646,0,0,1-.146-.577l-.365-1.716c-.314-1.541-.73-3.71-1.293-6.361a.146.146,0,0,1,.044-.139l6.66-5.842a.19.19,0,0,1,.175,0l8.354,2.921.131.146h0v.27l.058.285.11.57c.073.372.139.73.212,1.125.146.73.285,1.461.424,2.191q.416,2.191.8,4.214a.175.175,0,0,1-.058.168l-6.66,5.769a.139.139,0,0,1-.139,0l-6.112-2.191-1.643-.613a4.132,4.132,0,0,1-.555-.226,4.435,4.435,0,0,1,.613.175l1.687.54,6.1,2.045H426.9l6.66-5.842-.058.175c-.263-1.358-.54-2.76-.818-4.214-.139-.73-.285-1.461-.431-2.191-.073-.372-.139-.73-.212-1.125l-.11-.57-.058-.285v-.27h0s.234.27.117.139L423.642,80.1h.175l-6.711,5.762.051-.139c.475,2.644.869,4.8,1.147,6.339.124.73.226,1.307.3,1.745A3.5,3.5,0,0,1,418.632,94.447Z" transform="translate(-358.359 -72.582)" fill="#263238"/>
      <path id="Path_14865" data-name="Path 14865" d="M424.909,101.079a5.239,5.239,0,0,0,.906-.117,5.316,5.316,0,0,0,2.329-1.074l7.266-6.361a5.185,5.185,0,0,0,1.628-2.614,5.359,5.359,0,0,0,.175-1.643,15.339,15.339,0,0,0-.292-1.716c-.46-2.359-.949-4.871-1.461-7.514a7.411,7.411,0,0,0-.533-1.921,5.112,5.112,0,0,0-2.921-2.68l-2.059-.73-4.228-1.461-2.191-.73a5.886,5.886,0,0,0-2.191-.46,5.192,5.192,0,0,0-2.191.482,7.215,7.215,0,0,0-1.811,1.293l-3.381,2.921-3.264,2.826a5.156,5.156,0,0,0-1.665,3.52,7.574,7.574,0,0,0,.219,1.935c.124.65.241,1.285.365,1.913.234,1.256.467,2.468.686,3.651s.431,2.322.657,3.388a5.221,5.221,0,0,0,1.636,2.6,5.316,5.316,0,0,0,1.22.781c.431.19.891.329,1.314.489l2.446.862,3.914,1.387a20.857,20.857,0,0,0,2.483.825c.584.11.905.1.905.117a3.819,3.819,0,0,1-.92,0,18.768,18.768,0,0,1-2.512-.767l-3.9-1.336-2.454-.833c-.438-.153-.884-.285-1.344-.482a5.623,5.623,0,0,1-1.293-.811,5.485,5.485,0,0,1-1.745-2.724c-.248-1.11-.445-2.235-.679-3.41s-.467-2.4-.73-3.651q-.19-.927-.372-1.906a7.859,7.859,0,0,1-.234-2.016,5.528,5.528,0,0,1,1.775-3.775l3.257-2.833,3.381-2.921c.292-.248.562-.5.876-.73A6.017,6.017,0,0,1,419,72.241a5.5,5.5,0,0,1,2.322-.511,6.273,6.273,0,0,1,2.315.482l2.191.73,4.228,1.461,2.059.73a5.521,5.521,0,0,1,1.877,1.132A5.419,5.419,0,0,1,435.257,78a7.646,7.646,0,0,1,.555,2.008q.73,3.98,1.424,7.522a14.246,14.246,0,0,1,.285,1.76,5.484,5.484,0,0,1-1.928,4.455l-7.346,6.273a5.382,5.382,0,0,1-2.417,1.037A3.753,3.753,0,0,1,424.909,101.079Z" transform="translate(-356.164 -70.408)" fill="#263238"/>
      <path id="Path_14866" data-name="Path 14866" d="M343.306,85.446a3.848,3.848,0,0,1-3.009-1.461l-2.549-3.177a3.87,3.87,0,0,1-.584-3.8l1.461-3.8a3.848,3.848,0,0,1,3-2.4l4.024-.621a3.863,3.863,0,0,1,3.586,1.395l2.549,3.184a3.856,3.856,0,0,1,.584,3.8l-1.461,3.8a3.863,3.863,0,0,1-2.979,2.424L343.9,85.4a3.906,3.906,0,0,1-.591.044Zm2.921-12.363h-.139l-4,.606a.935.935,0,0,0-.73.577l-1.461,3.8a.935.935,0,0,0,.139.913l2.549,3.177a.935.935,0,0,0,.862.336l4.031-.621a.928.928,0,0,0,.73-.577l1.461-3.8a.92.92,0,0,0-.139-.913l-2.549-3.177a.935.935,0,0,0-.723-.329Z" transform="translate(-336.801 -69.979)" fill="#e0e0e0"/>
      <path id="Path_14867" data-name="Path 14867" d="M343.306,85.446a3.848,3.848,0,0,1-3.009-1.461l-2.549-3.177a3.87,3.87,0,0,1-.584-3.8l1.461-3.8a3.848,3.848,0,0,1,3-2.4l4.024-.621a3.863,3.863,0,0,1,3.586,1.395l2.549,3.184a3.856,3.856,0,0,1,.584,3.8l-1.461,3.8a3.863,3.863,0,0,1-2.979,2.424L343.9,85.4a3.906,3.906,0,0,1-.591.044Zm2.921-12.363h-.139l-4,.606a.935.935,0,0,0-.73.577l-1.461,3.8a.935.935,0,0,0,.139.913l2.549,3.177a.935.935,0,0,0,.862.336l4.031-.621a.928.928,0,0,0,.73-.577l1.461-3.8a.92.92,0,0,0-.139-.913l-2.549-3.177a.935.935,0,0,0-.723-.329Z" transform="translate(-336.801 -69.979)" fill="none"/>
      <path id="Path_14868" data-name="Path 14868" d="M347.271,74.161a.526.526,0,0,1,.314,0,.876.876,0,0,1,.343.183,4.758,4.758,0,0,1,.351.387l2.074,2.49.336.416a1.052,1.052,0,0,1,.2.592,1.461,1.461,0,0,1-.146.606c-.066.183-.139.365-.2.555-.292.73-.6,1.555-.92,2.4-.08.212-.161.424-.248.643a1.1,1.1,0,0,1-.54.606,2.877,2.877,0,0,1-.73.168l-.73.117c-.986.146-1.95.314-3.045.453a1.11,1.11,0,0,1-.833-.372l-.482-.606-.942-1.168-.9-1.139-.226-.277a1.22,1.22,0,0,1-.2-.343,1.125,1.125,0,0,1,0-.8l.949-2.388.431-1.081a2.594,2.594,0,0,1,.248-.526,1.037,1.037,0,0,1,.467-.365c1.4-.256,2.468-.358,3.235-.46a5.557,5.557,0,0,1,1.19-.1,1.329,1.329,0,0,1-.3.073l-.862.175c-.73.146-1.884.307-3.162.562a.84.84,0,0,0-.343.277,2.976,2.976,0,0,0-.2.475l-.409,1.088-.92,2.4a.781.781,0,0,0,0,.548,2.5,2.5,0,0,0,.372.518l.935,1.146.942,1.168.475.592a.73.73,0,0,0,.548.241l2.987-.445.73-.11a2.425,2.425,0,0,0,.65-.131.73.73,0,0,0,.372-.409c.08-.219.168-.431.248-.643.336-.832.65-1.636.949-2.388a5.82,5.82,0,0,0,.219-.548,1.25,1.25,0,0,0,.139-.489.891.891,0,0,0-.139-.438l-.321-.409-1.979-2.563a1.234,1.234,0,0,0-.92-.679Z" transform="translate(-337.816 -71.057)" fill="#263238"/>
      <path id="Path_14869" data-name="Path 14869" d="M343.267,85.387a3.347,3.347,0,0,1,.482-.073l1.395-.241,2.191-.372a5.338,5.338,0,0,0,1.329-.321,3.651,3.651,0,0,0,1.241-.847,3.863,3.863,0,0,0,.905-1.417c.212-.555.438-1.139.665-1.745.4-1.22,1.22-2.468.92-3.863a3.878,3.878,0,0,0-.935-1.9L350,72.8l-.73-.935a4.208,4.208,0,0,0-.818-.832,3.651,3.651,0,0,0-2.191-.73,7.909,7.909,0,0,0-1.212.139l-1.22.183-2.373.372a3.651,3.651,0,0,0-1.9,1.081,3.791,3.791,0,0,0-.613.876c-.153.314-.277.679-.409,1.008l-.781,1.979a10.4,10.4,0,0,0-.643,1.855,3.848,3.848,0,0,0,1,3.206l1.833,2.337c.277.336.5.672.767.927a3.783,3.783,0,0,0,.8.6,4.637,4.637,0,0,0,1.8.526h-.5a3.7,3.7,0,0,1-1.373-.4,4.25,4.25,0,0,1-.854-.6,11.679,11.679,0,0,1-.811-.927l-1.877-2.3a4.1,4.1,0,0,1-1.1-3.418,10.172,10.172,0,0,1,.635-1.935l.767-1.979c.139-.343.248-.679.416-1.037a4.169,4.169,0,0,1,.665-.971,4.089,4.089,0,0,1,2.03-1.19c.8-.139,1.585-.248,2.4-.38l1.22-.183a7.675,7.675,0,0,1,1.271-.146,3.987,3.987,0,0,1,2.417.789,4.469,4.469,0,0,1,.884.9l.73.935c.5.613.979,1.227,1.461,1.818a4.155,4.155,0,0,1,1,2.067,3.987,3.987,0,0,1-.234,2.191c-.248.635-.5,1.256-.73,1.862s-.467,1.176-.686,1.738a4.053,4.053,0,0,1-.942,1.461,4.287,4.287,0,0,1-2.739,1.19l-2.191.307c-.606.08-1.081.146-1.4.168a2.132,2.132,0,0,1-.5.044Z" transform="translate(-336.763 -69.92)" fill="#263238"/>
      <path id="Path_14870" data-name="Path 14870" d="M441.544,78.05a11.078,11.078,0,0,1-1.884,2.4,9.1,9.1,0,0,1-2.3,2.023,19.939,19.939,0,0,1,2.023-2.271A13.5,13.5,0,0,1,441.544,78.05Z" transform="translate(-363.898 -72.113)" fill="#263238"/>
      <path id="Path_14871" data-name="Path 14871" d="M424.34,72.3a8.712,8.712,0,0,1,.971,2.76,8.6,8.6,0,0,1,.387,2.921,16.256,16.256,0,0,1-.73-2.819A15.938,15.938,0,0,1,424.34,72.3Z" transform="translate(-360.386 -70.562)" fill="#263238"/>
      <path id="Path_14872" data-name="Path 14872" d="M414.819,87.133a17.242,17.242,0,0,1-2.8-.8,18.4,18.4,0,0,1-2.775-.92,13.436,13.436,0,0,1,5.579,1.723Z" transform="translate(-356.313 -74.098)" fill="#263238"/>
      <path id="Path_14873" data-name="Path 14873" d="M414.75,103.669a8.764,8.764,0,0,1,1.461-2.089,8.952,8.952,0,0,1,1.782-1.84,8.384,8.384,0,0,1-1.461,2.089,8.952,8.952,0,0,1-1.782,1.84Z" transform="translate(-357.799 -77.963)" fill="#263238"/>
      <path id="Path_14874" data-name="Path 14874" d="M431.335,108.831a7.594,7.594,0,0,1-.511-2.351,7.513,7.513,0,0,1-.139-2.41,7.829,7.829,0,0,1,.511,2.359A7.726,7.726,0,0,1,431.335,108.831Z" transform="translate(-362.087 -79.131)" fill="#263238"/>
      <path id="Path_14875" data-name="Path 14875" d="M444.277,97.187a6.733,6.733,0,0,1-2.154-.628,6.573,6.573,0,0,1-2.023-.979,13.466,13.466,0,0,1,4.177,1.607Z" transform="translate(-364.637 -76.841)" fill="#263238"/>
    </g>
    <g id="freepik--Character--inject-6" transform="translate(99.391 57.876)">
      <path id="Path_14876" data-name="Path 14876" d="M644.34,155.876c4.944-5.959,9.888-11.976,13.744-18.695s6.572-14.225,6.77-21.966c0-1.176-.475-9.318-1.607-9.647-.8-.234-1.358,6.959-2.016,7.478-6.309,4.937-10.406,12.261-12.765,19.914a105.045,105.045,0,0,0-4.126,22.916" transform="translate(-264.064 -74.897)" fill="#263238"/>
      <path id="Path_14877" data-name="Path 14877" d="M555.952,192.41c1.972-5.112,11.684-30.671,11.633-30.671s-16.73-8.7-10.954-26.435c2.775-8.566,9.924-25.734,16.57-41.2a34.724,34.724,0,0,1,43.005-19.169l1.7.577c18.008,7.3,21.908,26.633,14.116,44.429L596.24,202.824l-31.357-9.691Z" transform="translate(-240.077 -66.141)" fill="#ffbf9d"/>
      <path id="Path_14878" data-name="Path 14878" d="M571.445,194.5s10.9,4.382,25.274.964c0,0-9.946,11.239-27.02,3.7Z" transform="translate(-243.93 -98.887)" fill="#ff9a6c"/>
      <path id="Path_14879" data-name="Path 14879" d="M579.675,124.638a2.665,2.665,0,0,0,1.57,3.367,2.549,2.549,0,0,0,3.366-1.395,2.658,2.658,0,0,0-1.57-3.367,2.541,2.541,0,0,0-3.366,1.395Z" transform="translate(-246.581 -79.611)" fill="#263238"/>
      <path id="Path_14880" data-name="Path 14880" d="M581.5,113.152c.2.438,2.592-.336,5.3.592s4.243,2.921,4.644,2.717c.2-.095.08-.8-.577-1.723a7.259,7.259,0,0,0-3.578-2.578,6.981,6.981,0,0,0-4.382-.058C581.863,112.458,581.4,112.955,581.5,113.152Z" transform="translate(-247.111 -76.573)" fill="#263238"/>
      <path id="Path_14881" data-name="Path 14881" d="M612.265,137.747a2.651,2.651,0,0,0,1.57,3.359,2.541,2.541,0,0,0,3.366-1.395,2.665,2.665,0,0,0-1.57-3.366,2.549,2.549,0,0,0-3.367,1.4Z" transform="translate(-255.371 -83.145)" fill="#263238"/>
      <path id="Path_14882" data-name="Path 14882" d="M617.4,126.941c.2.438,2.592-.329,5.3.592s4.236,2.921,4.644,2.724c.19-.1.08-.8-.577-1.723a7.3,7.3,0,0,0-3.586-2.585,6.959,6.959,0,0,0-4.382-.058C617.775,126.248,617.293,126.744,617.4,126.941Z" transform="translate(-256.792 -80.293)" fill="#263238"/>
      <path id="Path_14883" data-name="Path 14883" d="M592.073,143.3c.066-.146-1.526-1.008-4.141-2.278-.664-.307-1.278-.665-1.234-1.183a4.154,4.154,0,0,1,1.154-1.891l3.834-4.586c5.382-6.572,9.53-12.027,9.26-12.246s-4.842,4.922-10.224,11.472c-1.307,1.621-2.563,3.162-3.754,4.644a4.406,4.406,0,0,0-1.278,2.6,1.847,1.847,0,0,0,.8,1.395,5.191,5.191,0,0,0,1.125.562C590.3,142.865,592.007,143.456,592.073,143.3Z" transform="translate(-248.244 -79.091)" fill="#263238"/>
      <path id="Path_14884" data-name="Path 14884" d="M600.4,157.757c-.438-.168-1.461,2.775-4.659,4.009s-6.258-.139-6.419.263c-.1.168.511.8,1.818,1.293a7.792,7.792,0,0,0,5.3-.051,6.755,6.755,0,0,0,3.717-3.425C600.689,158.663,600.609,157.809,600.4,157.757Z" transform="translate(-249.221 -88.974)" fill="#263238"/>
      <path id="Path_14885" data-name="Path 14885" d="M622.69,112.126c0,.825,2.848,1.395,5.9,2.848s5.338,3.2,5.981,2.68c.292-.256.08-1.1-.73-2.191a11.355,11.355,0,0,0-9.048-4.214C623.479,111.351,622.7,111.739,622.69,112.126Z" transform="translate(-258.224 -76.431)" fill="#263238"/>
      <path id="Path_14886" data-name="Path 14886" d="M587.214,101.23c.27.781,2.351.73,4.608,1.461s4.016,1.818,4.666,1.322c.3-.248.212-.964-.424-1.833a7.032,7.032,0,0,0-7.478-2.271C587.579,100.31,587.1,100.858,587.214,101.23Z" transform="translate(-248.651 -73.29)" fill="#263238"/>
      <path id="Path_14887" data-name="Path 14887" d="M649.846,154.5c.35,0,13.342.5,8.887,12.414s-15.533,5-15.423,4.652S649.846,154.5,649.846,154.5Z" transform="translate(-263.786 -88.098)" fill="#ffbf9d"/>
      <path id="Path_14888" data-name="Path 14888" d="M650.6,170.361c.066,0,.153.226.445.518a2.19,2.19,0,0,0,1.541.613c1.461,0,3.242-1.6,4.1-3.732a7.3,7.3,0,0,0,.533-3.2,2.542,2.542,0,0,0-.971-2.191,1.125,1.125,0,0,0-1.461.11c-.285.278-.3.54-.365.54s-.183-.3.095-.73a1.46,1.46,0,0,1,.73-.577,1.687,1.687,0,0,1,1.263.124,3.133,3.133,0,0,1,1.461,2.665,7.616,7.616,0,0,1-.526,3.6c-.979,2.373-3.045,4.17-4.958,4.024a2.41,2.41,0,0,1-1.789-1.03C650.517,170.667,650.554,170.368,650.6,170.361Z" transform="translate(-265.743 -90.025)" fill="#ff9a6c"/>
      <path id="Path_14889" data-name="Path 14889" d="M600.572,76.633c-1.519-1.8,6.653-5.842,12.21-6.149,8.4-.5,20.089,1.694,25.961,6.1,7.083,5.294,12.159,11.779,13.371,20.535s-.518,17.753-3.914,25.917c-1.037,2.49-2.308,5.01-4.469,6.623-2.666,1.994-6.492,2.424-7.748,6.112a5.331,5.331,0,0,1-2.629,3.155c-3.067,1.461-4.893-1.716-5.28-4.382-.825-5.667,1.015-11.341,2.833-16.8,1.293-3.856,2.629-7.792,5.112-11.027,1.344-1.76,2.994-3.272,4.243-5.112a7.75,7.75,0,0,0,1.461-6.266,7.524,7.524,0,0,0-.592-1.351,13.3,13.3,0,0,0-11.407-7.069c-7.617-.2-20.447-1.052-22.529-4.469C604.15,77.531,603.938,75,603.938,75Z" transform="translate(-252.208 -65.417)" fill="#263238"/>
      <path id="Path_14890" data-name="Path 14890" d="M626.927,67.448c.767.387,18.709,11.472,18.593,27.64s-3.074,20.126-3.074,20.126a9.947,9.947,0,0,1,1.461,2.446c.482,1.227-2.271,5.389-4.63,4-16.11-14.948-38.31-23.536-63.635-31.4l-19.1-6.843c-5.594-1.22-6.989-3.3-4.257-3.863,2.1-.438,19.447-1.314,19.447-1.314l3.746-1.154,11.684-8.259s-.453-1.869,1.921-2.476S611.84,59.78,626.927,67.448Z" transform="translate(-238.867 -63.57)" fill="#fa935b"/>
      <path id="Path_14891" data-name="Path 14891" d="M584.52,82.12s.256.1.73.263l2.191.686c1.884.562,4.564,1.512,7.865,2.724a157.1,157.1,0,0,1,24.617,12.035,240.893,240.893,0,0,1,22.638,15.525c2.8,2.125,5.031,3.892,6.572,5.112l1.789,1.395c.409.314.635.467.635.467s-.2-.19-.6-.526l-1.745-1.461c-1.526-1.241-3.739-3.038-6.521-5.185a224.439,224.439,0,0,0-22.638-15.628A150,150,0,0,0,595.313,85.56a112.863,112.863,0,0,0-10.793-3.44Z" transform="translate(-247.928 -68.574)" fill="#263238"/>
      <g id="Group_15466" data-name="Group 15466" transform="translate(358.339 6.279)" opacity="0.3">
        <path id="Path_14892" data-name="Path 14892" d="M658.875,84.46s-19.8-10.6-30.744-9.318l1.285-.175-10.224.847c-1.731.146-3.71.2-4.893-1.066,0,0,6.2-2.629,15.993-2.578S654.457,75.7,658.875,84.46Z" transform="translate(-614.3 -72.169)"/>
      </g>
      <path id="Path_14893" data-name="Path 14893" d="M655.416,84.266a15.946,15.946,0,0,0-1.46-1.877,27.682,27.682,0,0,0-4.805-4.338,32.663,32.663,0,0,0-8.537-4.382,27.509,27.509,0,0,0-11.618-1.614,48.33,48.33,0,0,0-6.017.993c-1.913.431-3.776.73-5.535,1.241a29.7,29.7,0,0,1-4.951,1.183,9.566,9.566,0,0,1-4.338-.577c-5.178-1.7-7.974-3.856-7.624-4.1a.847.847,0,0,0,.27.548,6.93,6.93,0,0,0,1.4,1.059,30.065,30.065,0,0,0,5.886,2.709,9.9,9.9,0,0,0,4.44.628,29.875,29.875,0,0,0,5.01-1.147c1.723-.475,3.607-.8,5.521-1.227a51.222,51.222,0,0,1,5.974-.964,27.684,27.684,0,0,1,11.487,1.57,33.417,33.417,0,0,1,8.5,4.272,29.324,29.324,0,0,1,4.842,4.228c.519.562.906,1.015,1.154,1.329A4.855,4.855,0,0,0,655.416,84.266Z" transform="translate(-252.238 -65.52)" fill="#263238"/>
      <g id="Group_15467" data-name="Group 15467" transform="translate(377.925 19.564)" opacity="0.3">
        <path id="Path_14894" data-name="Path 14894" d="M669.615,109c-3.754-1.322-6.266-3.272-9.72-5.375-3.651-2.235-7.383-4.279-10.954-6.689-2.709-1.826-5.988-3.754-7.193-6.572a4.593,4.593,0,0,0-.066,4.52c.767,1.461,4.016,4.068,5.4,5.01,7.894,5.367,13.378,9.033,22.2,12.765a27.55,27.55,0,0,0,.321-3.651" transform="translate(-641.12 -90.36)"/>
      </g>
      <path id="Path_14895" data-name="Path 14895" d="M669.884,99.977c2.03,1.848,3.25,3.045,2.622,5.112-.518,1.709-1.57,3.651-3.337,3.381a4.309,4.309,0,0,1-1.461-.643l-24.186-14.16a4.009,4.009,0,0,1-2-1.928c-.482-1.373.73-2.877,2.125-3.257a7.347,7.347,0,0,1,4.272.482A91.421,91.421,0,0,1,669.884,99.97" transform="translate(-263.274 -70.248)" fill="#fa935b"/>
      <path id="Path_14896" data-name="Path 14896" d="M641.739,91.941a2.68,2.68,0,0,1-.307-1.373,3.44,3.44,0,0,1,2.191-2.921,8.5,8.5,0,0,1,5.616.643c2.016.818,4.287,1.745,6.572,2.8a73.024,73.024,0,0,1,11.37,6.309c1.373.942,2.432,1.775,3.169,2.351l.833.679a1.768,1.768,0,0,0,.307.219,2.621,2.621,0,0,0-.263-.27l-.8-.73c-.73-.606-1.745-1.461-3.111-2.446a66.8,66.8,0,0,0-11.37-6.419c-2.322-1.066-4.564-1.986-6.623-2.8a8.677,8.677,0,0,0-5.842-.57,3.556,3.556,0,0,0-2.235,3.133,2.308,2.308,0,0,0,.226,1.059,1.213,1.213,0,0,0,.263.329Z" transform="translate(-263.23 -69.924)" fill="#263238"/>
      <path id="Path_14897" data-name="Path 14897" d="M593.991,74.36l16.438,5.265-2.958,4.126-17.621-6.47Z" transform="translate(-249.366 -66.481)" fill="#fff"/>
      <path id="Path_14898" data-name="Path 14898" d="M611.051,100.083c.036-.088-6.879-3.651-15.46-7.9S580,84.492,580,84.579s6.879,3.651,15.46,7.9S611.007,100.163,611.051,100.083Z" transform="translate(-246.709 -69.237)" fill="#263238"/>
      <path id="Path_14899" data-name="Path 14899" d="M578.2,216.883l.219-10.793-36.937,13.722s-6.828-22.178-6.828-23.222l-8.186,5.112-13.6-5.842-13.6-6.718-27.516,48.2-28.867,85.1,68,45.364,50.432-54.039,30.671-46.737,16.854-29.59Z" transform="translate(-209.722 -97.441)" fill="#fa935b"/>
      <path id="Path_14900" data-name="Path 14900" d="M568.795,224.566a7.41,7.41,0,0,1-.051-1.081c0-.73,0-1.767-.044-3.023l.168.1a46.277,46.277,0,0,0-11.122,7.617l-.292.277v-.4c0-.482-.058-.993-.088-1.512-.3-5.294-.548-10.085-.73-13.561-.073-1.694-.131-3.082-.175-4.111v-1.117a.2.2,0,1,1,.073,0c0,.292.058.665.1,1.11.073,1.03.168,2.417.285,4.1.234,3.469.519,8.259.818,13.554,0,.518.058,1.03.08,1.512l-.314-.131a43.641,43.641,0,0,1,11.275-7.551l.175-.073v.183c0,1.256-.051,2.271-.066,3.023A7.354,7.354,0,0,1,568.795,224.566Z" transform="translate(-240.316 -102.357)" fill="#263238"/>
      <path id="Path_14901" data-name="Path 14901" d="M611.532,227.84a2.065,2.065,0,0,1-.424.226l-1.234.591-4.571,2.1-15.16,6.777-7.2,3.184-.307.131.058-.329a56.752,56.752,0,0,0,.833-10.37l.168.1-3.41,1.658-.913.424c-.2.095-.314.139-.321.124a1.382,1.382,0,0,1,.292-.183l.884-.482,3.367-1.753.161-.088v.2a53.063,53.063,0,0,1-.73,10.465l-.248-.2,7.193-3.2,15.2-6.682,4.63-1.986,1.263-.518A2.06,2.06,0,0,1,611.532,227.84Z" transform="translate(-246.453 -107.88)" fill="#263238"/>
      <rect id="Rectangle_27177" data-name="Rectangle 27177" width="299.436" height="213.879" rx="14.57" transform="translate(11.706 65.95)" fill="#455a64"/>
      <path id="Path_14902" data-name="Path 14902" d="M123.6,427.84H448.019v5.718a13,13,0,0,1-13,13H136.6a13,13,0,0,1-13-13Z" transform="translate(-123.6 -161.828)" fill="#455a64"/>
      <rect id="Rectangle_27178" data-name="Rectangle 27178" width="282.523" height="180.616" transform="translate(19.746 74.45)" fill="#263238"/>
      <path id="Path_14903" data-name="Path 14903" d="M304.23,425.1l4.024,6.916H364.9l3.739-6.916Z" transform="translate(-172.323 -161.089)" fill="#263238"/>
      <rect id="Rectangle_27179" data-name="Rectangle 27179" width="271.467" height="173.919" rx="3.27" transform="translate(25.559 80.562)" fill="#ebebeb"/>
      <path id="Path_14904" data-name="Path 14904" d="M429.677,352.866H158.21l.285-161.176H429.677Z" transform="translate(-132.936 -98.129)" fill="#fafafa"/>
      <path id="Path_14905" data-name="Path 14905" d="M188.19,182.224a2.235,2.235,0,1,1-2.235-2.344,2.293,2.293,0,0,1,2.235,2.344Z" transform="translate(-139.818 -94.943)" fill="#263238"/>
      <path id="Path_14906" data-name="Path 14906" d="M169.63,182.224a2.235,2.235,0,1,1-2.235-2.344A2.293,2.293,0,0,1,169.63,182.224Z" transform="translate(-134.811 -94.943)" fill="#263238"/>
      <path id="Path_14907" data-name="Path 14907" d="M179.17,182.224a2.235,2.235,0,1,1-2.235-2.344,2.293,2.293,0,0,1,2.235,2.344Z" transform="translate(-137.385 -94.943)" fill="#263238"/>
      <path id="Path_14908" data-name="Path 14908" d="M436.5,425.022c0,.117-66.454.2-148.426.2s-148.44-.088-148.44-.2,66.454-.212,148.44-.212S436.5,424.9,436.5,425.022Z" transform="translate(-127.924 -161.011)" fill="#263238"/>
      <path id="Path_14909" data-name="Path 14909" d="M289.664,226.415a57.916,57.916,0,0,1,14.123-6.134l2.921-13.984,23.617-.416,3.4,13.875a58.152,58.152,0,0,1,14.328,5.638L360,217.571l16.993,16.409L369.6,246.2a57.844,57.844,0,0,1,6.134,14.131l13.977,2.921.416,23.617-13.875,3.4a57.866,57.866,0,0,1-5.645,14.284l7.828,11.94-16.409,16.993-12.2-7.4a57.844,57.844,0,0,1-14.131,6.134l-2.921,13.984-23.624.409-3.4-13.875a57.757,57.757,0,0,1-14.291-5.6l-11.94,7.828-16.993-16.409,7.4-12.2a57.865,57.865,0,0,1-6.141-14.131l-13.977-2.921-.416-23.617,13.875-3.4a58.035,58.035,0,0,1,5.638-14.328l-7.821-11.94,16.409-16.993Zm12.59,31.467a17.923,17.923,0,1,1,0,.022Z" transform="translate(-157.53 -101.957)" fill="#e0e0e0"/>
      <path id="Path_14910" data-name="Path 14910" d="M432.013,238.688a20.221,20.221,0,0,1,1.643-5.046l-2.921-3.943,5.287-6.193L440.4,225.8a19.984,19.984,0,0,1,4.725-2.4l.73-4.871,8.113-.635,1.461,4.7a19.944,19.944,0,0,1,5.046,1.65l3.943-2.921,6.193,5.294-2.293,4.382a19.922,19.922,0,0,1,2.41,4.732l4.864.73.635,8.12-4.7,1.461a19.754,19.754,0,0,1-1.65,5.046l2.921,3.951-5.287,6.185-4.382-2.293a19.921,19.921,0,0,1-4.732,2.41l-.73,4.871-8.113.635-1.461-4.7a19.929,19.929,0,0,1-5.046-1.643l-3.951,2.921-6.178-5.353,2.293-4.382a20.06,20.06,0,0,1-2.41-4.732l-4.864-.73-.635-8.121,4.7-1.461Zm11.005,2.461a8.763,8.763,0,1,0,7.186-7.8,8.763,8.763,0,0,0-7.186,7.8Z" transform="translate(-205.522 -105.196)" fill="#e0e0e0"/>
      <path id="Path_14911" data-name="Path 14911" d="M188.281,347.607a23.369,23.369,0,0,1,1.015-6.185l-4.141-4.038,5.068-8.164,5.492,1.9a23.615,23.615,0,0,1,5.112-3.651l-.044-5.806,9.362-2.191,2.534,5.221a23.319,23.319,0,0,1,6.185,1.015l4.082-4.141,8.164,5.068-1.9,5.492a23.615,23.615,0,0,1,3.651,5.112l5.806-.044,2.191,9.355-5.229,2.519a23.675,23.675,0,0,1-1.022,6.185l4.141,4.075-5.068,8.172-5.492-1.9a23.44,23.44,0,0,1-5.112,3.651l.044,5.806-9.355,2.191-2.541-5.221a23.371,23.371,0,0,1-6.163-1.052l-4.075,4.141-8.172-5.068,1.9-5.492a23.617,23.617,0,0,1-3.651-5.112l-5.842.044-2.191-9.355,5.221-2.541Zm13.532,2.629a24.822,24.822,0,1,1,0,.022Z" transform="translate(-139.631 -132.596)" fill="#e0e0e0"/>
      <path id="Path_14912" data-name="Path 14912" d="M211.93,245.391a14.707,14.707,0,0,1,1.241-3.8l-2.191-2.979,3.987-4.666,3.286,1.731a15.181,15.181,0,0,1,3.564-1.818l.54-3.651,6.12-.482,1.1,3.542a15.285,15.285,0,0,1,3.8,1.241l2.979-2.191,4.659,3.987-1.723,3.286a14.883,14.883,0,0,1,1.811,3.564l3.651.533.482,6.12-3.534,1.066a15.168,15.168,0,0,1-1.234,3.8l2.191,2.972-3.987,4.666-3.286-1.731a14.905,14.905,0,0,1-3.564,1.818l-.533,3.651-6.12.475-1.1-3.542a14.8,14.8,0,0,1-3.8-1.241l-2.972,2.191-4.666-3.987,1.723-3.286a14.881,14.881,0,0,1-1.811-3.564l-3.651-.54-.475-6.12,3.542-1.1Zm8.288,2.972a6.572,6.572,0,1,0,1.557-4.8A6.572,6.572,0,0,0,220.218,248.364Z" transform="translate(-146.477 -108.387)" fill="#ebebeb"/>
      <path id="Path_14913" data-name="Path 14913" d="M433.04,336.443a13.21,13.21,0,0,1,1.066-3.272l-1.906-2.556,3.425-4.009,2.826,1.461a12.867,12.867,0,0,1,3.06-1.563l.46-3.155,5.258-.409.942,3.045a12.909,12.909,0,0,1,3.272,1.066L454,325.145l4.009,3.425-1.461,2.819a12.92,12.92,0,0,1,1.563,3.067l3.155.46.409,5.258-3.045.942a12.91,12.91,0,0,1-1.066,3.272l1.906,2.556-3.425,4-2.819-1.461a13.2,13.2,0,0,1-3.067,1.563l-.46,3.147-5.258.409-.942-3.038a13.211,13.211,0,0,1-3.272-1.066l-2.556,1.906-4.024-3.425,1.461-2.819a12.868,12.868,0,0,1-1.563-3.06l-3.147-.46-.416-5.258,3.045-.942Zm7.12,2.549a5.66,5.66,0,1,0,5.17-6.076A5.66,5.66,0,0,0,440.16,338.991Z" transform="translate(-206.243 -133.532)" fill="#ebebeb"/>
      <path id="Path_14914" data-name="Path 14914" d="M327.822,320.042H291.507a12.2,12.2,0,0,1-10.552-18.257l18.169-31.467,18.162-31.467a12.2,12.2,0,0,1,21.112,0l18.169,31.467,18.169,31.467a12.2,12.2,0,0,1-10.56,18.257Z" transform="translate(-165.609 -109.208)" fill="#fa935b"/>
      <path id="Path_14915" data-name="Path 14915" d="M370.1,308.057s.095.183.277.562a5,5,0,0,1-.482,4.688,4.929,4.929,0,0,1-1.366,1.358,4.454,4.454,0,0,1-2.089.686c-6.193.066-15.131.051-26.187.08l-38.835.044h-5.55a4.783,4.783,0,0,1-4.477-3.242,5.214,5.214,0,0,1-.183-2.921c.058-.241.139-.482.219-.73a4.843,4.843,0,0,1,.321-.679l.73-1.278c.935-1.716,1.884-3.44,2.833-5.185l11.772-21.608,11.845-21.594q2.855-5.236,5.623-10.275c.467-.832.9-1.672,1.395-2.5a5.615,5.615,0,0,1,2.045-2.03,6.01,6.01,0,0,1,5.492-.248,5.747,5.747,0,0,1,2.191,1.738,21.9,21.9,0,0,1,1.351,2.359c.854,1.563,1.7,3.1,2.527,4.623q2.5,4.557,4.827,8.843c3.118,5.7,6.017,11.02,8.661,15.869,5.287,9.705,9.559,17.563,12.517,23l3.388,6.258c.38.73.672,1.256.869,1.636l.292.562s-.117-.183-.321-.548l-.906-1.614-3.454-6.229c-2.979-5.426-7.3-13.254-12.619-22.937l-8.7-15.854-4.849-8.829c-.832-1.519-1.672-3.06-2.534-4.623a23.537,23.537,0,0,0-1.336-2.293,5.433,5.433,0,0,0-2.045-1.628,5.652,5.652,0,0,0-5.17.234,5.338,5.338,0,0,0-1.913,1.913c-.482.8-.92,1.65-1.38,2.483l-5.623,10.275c-3.812,6.981-7.77,14.2-11.816,21.608l-11.823,21.594c-.957,1.745-1.9,3.476-2.841,5.185a10.881,10.881,0,0,0-1.2,2.585,4.856,4.856,0,0,0,.168,2.738,4.382,4.382,0,0,0,4.133,3h5.55l38.835.037,26.18.036a4.3,4.3,0,0,0,2.023-.643,4.843,4.843,0,0,0,1.351-1.314,4.981,4.981,0,0,0,.862-2.8,5.5,5.5,0,0,0-.577-2.4Z" transform="translate(-168.777 -111.873)" fill="#263238"/>
      <path id="Path_14916" data-name="Path 14916" d="M337.67,310.816c0-3.22,2.57-5.623,6.229-5.623s6.171,2.4,6.171,5.623-2.512,5.733-6.171,5.733S337.67,313.993,337.67,310.816Zm.058-32.986H350.07L348,302.133h-8.245Z" transform="translate(-181.343 -121.364)" fill="#fff"/>
      <path id="Path_14917" data-name="Path 14917" d="M343.651,235.838a9.857,9.857,0,0,0-2.308-.482,8.223,8.223,0,0,0-5.272,1.767,13.072,13.072,0,0,0-3.454,4.469c-.665,1.314-.979,2.191-1.037,2.154a2.19,2.19,0,0,1,.153-.628,15.344,15.344,0,0,1,.643-1.643,12.3,12.3,0,0,1,3.483-4.659,8.033,8.033,0,0,1,5.521-1.723,5.411,5.411,0,0,1,1.731.424C343.469,235.685,343.666,235.817,343.651,235.838Z" transform="translate(-179.7 -109.832)" fill="#fff"/>
      <path id="Path_14918" data-name="Path 14918" d="M327.31,253.185a5.031,5.031,0,0,1,.8-1.753c.533-.9,1.037-1.585,1.132-1.534a4.967,4.967,0,0,1-.8,1.723,5.031,5.031,0,0,1-1.125,1.563Z" transform="translate(-178.548 -113.83)" fill="#fff"/>
      <g id="Group_15468" data-name="Group 15468" transform="translate(116.506 142.905)" opacity="0.3">
        <path id="Path_14919" data-name="Path 14919" d="M347.074,259.26l-56.588,34.863-7.346,12.736,67.929-40.683Z" transform="translate(-283.14 -259.26)" fill="#fff"/>
      </g>
      <g id="Group_15469" data-name="Group 15469" transform="translate(114.344 158.357)" opacity="0.3">
        <path id="Path_14920" data-name="Path 14920" d="M355.185,280.42,280.18,324.659a8.033,8.033,0,0,0,1.628,3.155l74.7-45.1Z" transform="translate(-280.18 -280.42)" fill="#fff"/>
      </g>
      <path id="Path_14921" data-name="Path 14921" d="M588.338,354.073a22.1,22.1,0,0,0-23.113-6.193l-6.989-7.668-.971-1.088-55.3-60.677a22.09,22.09,0,0,0-23.368-30.627l-2.7,1.073,9.4,6.3-.5,10.26-7.6,6.9-10.26-.5-6.7-7.39-2.768,1.088c-.8,6.185,3.352,13.984,7.872,18.987a22.083,22.083,0,0,0,23.076,6.2l56.23,61.693,1.723,1.921,5.331,5.842a22.068,22.068,0,0,0,3.936,23.529c4.5,4.966,10.472,8.281,16.686,8.113l2.775-1.081-6.711-7.4.5-10.224,7.6-6.9,10.224.5,3.929,8.478,2.775-1.088a22.076,22.076,0,0,0-5.068-20.046Z" transform="translate(-213.627 -113.211)" fill="#e0e0e0"/>
      <g id="Group_15470" data-name="Group 15470" transform="translate(243.728 134.392)" opacity="0.3">
        <path id="Path_14922" data-name="Path 14922" d="M588.338,354.073a22.1,22.1,0,0,0-23.113-6.193l-6.989-7.668-.971-1.088-55.3-60.677a22.09,22.09,0,0,0-23.368-30.627l-2.7,1.073,9.4,6.3-.5,10.26-7.6,6.9-10.26-.5-6.7-7.39-2.768,1.088c-.8,6.185,3.352,13.984,7.872,18.987a22.083,22.083,0,0,0,23.076,6.2l56.23,61.693,1.723,1.921,5.331,5.842a22.068,22.068,0,0,0,3.936,23.529c4.5,4.966,10.472,8.281,16.686,8.113l2.775-1.081-6.711-7.4.5-10.224,7.6-6.9,10.224.5,3.929,8.478,2.775-1.088a22.076,22.076,0,0,0-5.068-20.046Z" transform="translate(-457.355 -247.603)"/>
      </g>
      <path id="Path_14923" data-name="Path 14923" d="M585.379,355.555a22.076,22.076,0,0,0-23.105-6.185l-7-7.675-.971-1.088L499,279.929a22.083,22.083,0,0,0-23.368-30.62l6.7,7.39-.5,10.224-7.617,6.93-10.224-.5-6.7-7.39a22.076,22.076,0,0,0,28.173,26.246L541.7,353.9l1.731,1.921,5.331,5.842a22.083,22.083,0,0,0,23.368,30.591l-6.711-7.4.5-10.224,7.609-6.9,10.224.5,6.7,7.39A22.047,22.047,0,0,0,585.379,355.555Z" transform="translate(-213.443 -113.612)" fill="#e0e0e0"/>
      <path id="Path_14924" data-name="Path 14924" d="M585.29,355.487s.321.351.927,1.059a23.1,23.1,0,0,1,2.286,3.447,22.1,22.1,0,0,1,1.972,15.562v.146l-.1-.11-6.711-7.383.058.036-10.224-.489h.073l-7.595,6.908v-.08c-.146,3.184-.314,6.653-.489,10.26v-.095l6.653,7.339.175.19-.256.037a22.219,22.219,0,0,1-23.566-30.766v.175l-63.306-69.441.2.051a22.522,22.522,0,0,1-12.341.351,22.273,22.273,0,0,1-16.066-26.823l.088-.351.241.263,6.7,7.39-.131-.058,10.26.5-.139.051,7.653-6.908-.066.131c.168-3.461.336-6.872.5-10.26l.044.131-6.7-7.39-.226-.256.336-.044a22.262,22.262,0,0,1,25.274,19.885A22.638,22.638,0,0,1,499.1,279.9v-.175l63.2,69.492h-.088a22.141,22.141,0,0,1,18.183,2.14,23.207,23.207,0,0,1,3.827,2.921c.73.781,1.125,1.183,1.125,1.183l-1.154-1.154a24.431,24.431,0,0,0-3.841-2.921,22.112,22.112,0,0,0-18.089-2.059h-.051v-.044l-63.321-69.375-.073-.08.044-.095a22.368,22.368,0,0,0,1.68-10.822,21.926,21.926,0,0,0-24.887-19.564l.109-.3,6.616,7.463.051.051v.08q-.241,5.068-.5,10.224v.08l-.058.051-7.6,6.9-.058.051h-.08l-10.224-.5h-.08l-.051-.058-6.711-7.39.329-.08a21.908,21.908,0,0,0,27.9,26.056h.109l.088.088c22.989,25.252,44.546,48.891,63.263,69.47l.073.08-.044.1a21.933,21.933,0,0,0,23.23,30.386l-.088.226-6.7-7.39-.036-.044v-.1c.175-3.6.343-7.069.5-10.224v-.088l7.617-6.886h.044l10.224.511h0c2.454,2.717,4.71,5.207,6.689,7.4h-.131a22.061,22.061,0,0,0-1.891-15.489,24.338,24.338,0,0,0-2.242-3.461A11.084,11.084,0,0,0,585.29,355.487Z" transform="translate(-213.353 -113.544)" fill="#263238"/>
      <path id="Path_14925" data-name="Path 14925" d="M506.907,296.17a1.928,1.928,0,0,1-.241.548,12.869,12.869,0,0,1-.854,1.373,17.708,17.708,0,0,1-8.369,6.434,12.091,12.091,0,0,1-1.548.467,1.834,1.834,0,0,1-.584.095c0-.066.8-.285,2.037-.811a20.184,20.184,0,0,0,8.252-6.339C506.425,296.863,506.848,296.14,506.907,296.17Z" transform="translate(-223.865 -126.311)" fill="#263238"/>
      <path id="Path_14926" data-name="Path 14926" d="M574.473,327.78l-21-9.786L534.7,315.65l6.894,5.842s-24.274,8.464-24.7,10.37,1.913,7.032,6.193,6.083c0,0-2.4,2.921-1.4,6.142s3.213,3.827,7.3,3.074c0,0-2.775,4.155-.6,6.273s5.565,1.585,5.565,1.585.044,5.061,2.717,5.5a43.779,43.779,0,0,0,12.9-.935L563.7,355.2l9.158-2.052Z" transform="translate(-229.673 -131.566)" fill="#ffbf9d"/>
      <path id="Path_14927" data-name="Path 14927" d="M538.1,341.035c.08.277-2.717,1.329-6.236,2.359s-6.456,1.629-6.536,1.351,2.717-1.336,6.236-2.359S538.021,340.758,538.1,341.035Z" transform="translate(-231.962 -138.395)" fill="#ff9a6c"/>
      <path id="Path_14928" data-name="Path 14928" d="M543.935,354.7c.08.277-2.132,1.19-4.951,2.045s-5.178,1.307-5.265,1.03,2.14-1.19,4.958-2.037S543.855,354.431,543.935,354.7Z" transform="translate(-234.224 -142.079)" fill="#ff9a6c"/>
      <path id="Path_14929" data-name="Path 14929" d="M548.878,366.024c.051.314-1.964.73-4.33,1.329s-4.214,1.461-4.382,1.161,1.57-1.5,4.089-2.191S548.841,365.768,548.878,366.024Z" transform="translate(-235.961 -145.098)" fill="#ff9a6c"/>
      <path id="Path_14930" data-name="Path 14930" d="M551.151,322.474c.08.285-2.673,1.285-6.083,2.461s-6.193,2.074-6.309,1.8,2.527-1.614,5.974-2.8S551.078,322.2,551.151,322.474Z" transform="translate(-235.583 -133.388)" fill="#ff9a6c"/>
      <path id="Path_14931" data-name="Path 14931" d="M587.661,329.74l45.488,16.475-2.658,31.219L580.41,357.242Z" transform="translate(-246.819 -135.367)" fill="#ffbf9d"/>
      <path id="Path_14932" data-name="Path 14932" d="M657.5,254.93s5.93,6.127,9.384,17.147,19.717,57.734,19.323,72.6c-.431,15.372-10.779,26.341-33.519,20.265-13.568-3.651-29.736-9.493-29.736-9.493l11.494-37.784,8.99,2.315-14.518-27.253Z" transform="translate(-258.294 -115.187)" fill="#fa935b"/>
      <path id="Path_14933" data-name="Path 14933" d="M645.51,279.38c.088.066-6.207,9.026-14.05,20.016s-14.262,19.87-14.35,19.8,6.207-9.026,14.05-20.016S645.429,279.321,645.51,279.38Z" transform="translate(-256.718 -121.782)" fill="#263238"/>
      <path id="Path_14934" data-name="Path 14934" d="M668.743,348.187s-.394-.19-1.1-.518a20.7,20.7,0,0,0-3.118-1.1c-1.351-.372-2.987-.73-4.805-1.117l-5.9-1.3c-4.184-.935-7.974-1.8-10.706-2.454l-3.235-.789a6.854,6.854,0,0,1-1.176-.336,7.64,7.64,0,0,1,1.2.2l3.264.665c2.753.584,6.572,1.409,10.735,2.344l5.893,1.336c1.811.409,3.447.789,4.8,1.2a17.921,17.921,0,0,1,3.111,1.227,7.438,7.438,0,0,1,.781.46,1.219,1.219,0,0,1,.256.19Z" transform="translate(-262.542 -138.288)" fill="#263238"/>
      <g id="Group_15471" data-name="Group 15471" transform="translate(384.789 204.239)" opacity="0.3">
        <path id="Path_14935" data-name="Path 14935" d="M683.557,350.574a5.63,5.63,0,0,0-3.126-4.177A15.138,15.138,0,0,0,675.2,345a242.3,242.3,0,0,0-24.683-1.745l.73.329a153.889,153.889,0,0,1,29.758,8.676,2.293,2.293,0,0,0,1.723.2A1.8,1.8,0,0,0,683.557,350.574Z" transform="translate(-650.52 -343.25)"/>
      </g>
      <g id="Group_15472" data-name="Group 15472" transform="translate(200.827 66.138)" opacity="0.3">
        <path id="Path_14936" data-name="Path 14936" d="M428.207,154.709c-7.668-1.307-16.84.92-24.508-.387a5.108,5.108,0,0,0-3.4.212c-1.212.694-1.629,2.242-1.687,3.651a13.875,13.875,0,0,0,4.382,10.341,19.637,19.637,0,0,0,10.3,4.922,14.165,14.165,0,0,0,9.077-1.059C427.163,169.789,429.463,159.974,428.207,154.709Z" transform="translate(-398.608 -154.137)"/>
      </g>
      <path id="Path_14937" data-name="Path 14937" d="M396.328,163.457S391.676,158,391,155.49c-.445-1.665-.226-6.331,0-9.289a5.112,5.112,0,0,1,3.323-4.528,1.687,1.687,0,0,1,1.731.139,17.388,17.388,0,0,1,2.118-2.381c1.826-1.869,2.695-3.133,6.711-1.972,0,0,2.958-3.118,4.659-2.885a26.289,26.289,0,0,1,3.381.73s6.477-.277,7.806,1.782a5.937,5.937,0,0,0,2.921,1.95,8.033,8.033,0,0,1,4.623,4.214,16.73,16.73,0,0,1,1.293,5.645l-6.572.263s.467,15.124-1.19,16.343-2.286.781-2.286.781-1.263,3.549-6.193.927c0,0-4.089,1.234-5.842-.453s-8.164-17.891-8.164-17.891l.183,8.033s3.381,5.207,1.723,6.426S396.328,163.457,396.328,163.457Z" transform="translate(-195.66 -82.72)" fill="#ffbf9d"/>
      <path id="Path_14938" data-name="Path 14938" d="M409.63,146.06a5.111,5.111,0,0,1,.372.949l.891,2.629c.73,2.191,1.731,5.316,2.8,8.727a72.888,72.888,0,0,0,2.965,8.646,18.573,18.573,0,0,0,1.344,2.41c.358.548.584.825.562.847s-.08-.051-.2-.183a6.735,6.735,0,0,1-.482-.577,14.719,14.719,0,0,1-1.461-2.381,63.166,63.166,0,0,1-3.082-8.646c-1.081-3.4-2.023-6.514-2.695-8.763-.307-1.073-.57-1.964-.774-2.665a5.552,5.552,0,0,1-.241-.993Z" transform="translate(-200.753 -85.821)" fill="#ff9a6c"/>
      <path id="Path_14939" data-name="Path 14939" d="M420.7,143.5a4.87,4.87,0,0,1,.336.979l.781,2.709c.635,2.286,1.461,5.455,2.424,8.96s1.745,6.689,2.315,9c.27,1.1.489,2.016.665,2.731a5.069,5.069,0,0,1,.19,1.022,6.4,6.4,0,0,1-.336-.979c-.2-.73-.46-1.621-.774-2.709-.643-2.286-1.5-5.455-2.424-8.96s-1.745-6.689-2.322-9c-.263-1.1-.489-2.016-.657-2.738a5.425,5.425,0,0,1-.2-1.015Z" transform="translate(-203.739 -85.13)" fill="#ff9a6c"/>
    </g>
  </g>
</svg>
