<?xml version="1.0" encoding="utf-8"?>
<!-- Generator: Adobe Illustrator 16.0.0, SVG Export Plug-In . SVG Version: 6.00 Build 0)  -->
<!DOCTYPE svg PUBLIC "-//W3C//DTD SVG 1.1//EN" "http://www.w3.org/Graphics/SVG/1.1/DTD/svg11.dtd">
<svg version="1.1" id="Layer_1" xmlns="http://www.w3.org/2000/svg" xmlns:xlink="http://www.w3.org/1999/xlink" x="0px" y="0px"
	 width="634.596px" height="472.85px" viewBox="0 0 634.596 472.85" enable-background="new 0 0 634.596 472.85"
	 xml:space="preserve">
<g id="_403_Error_Forbidden-rafiki" transform="translate(0 -55)">
	<g id="freepik--background-complete--inject-36" transform="translate(0 55)">
		<rect id="Rectangle_27028" y="415.533" fill="#EBEBEB" width="634.596" height="0.315"/>
		<rect id="Rectangle_27029" x="66.582" y="427.616" fill="#EBEBEB" width="42.036" height="0.315"/>
		<rect id="Rectangle_27030" x="184.452" y="424.177" fill="#EBEBEB" width="43.787" height="0.317"/>
		<rect id="Rectangle_27031" x="96.56" y="433.746" fill="#EBEBEB" width="70.339" height="0.316"/>
		<rect id="Rectangle_27032" x="514.835" y="434.914" fill="#EBEBEB" width="54.816" height="0.317"/>
		<rect id="Rectangle_27033" x="470.147" y="426.981" fill="#EBEBEB" width="29.063" height="0.315"/>
		<rect id="Rectangle_27034" x="248.292" y="432.071" fill="#EBEBEB" width="118.898" height="0.315"/>
		<rect id="Rectangle_27035" x="188.602" y="411.599" fill="#E0E0E0" width="68.714" height="3.936"/>
		<path id="Path_7761" fill="#E0E0E0" d="M216.778,325.662l-19.038,85.937h50.323l-19.038-85.937
			c-0.919-3.382-4.406-5.379-7.788-4.46C219.064,321.792,217.367,323.489,216.778,325.662L216.778,325.662z"/>
		<path id="Path_7762" fill="#F5F5F5" d="M232.909,342.72h-19.9l-4.81,21.779h29.521L232.909,342.72z"/>
		<path id="Path_7763" fill="#F5F5F5" d="M238.561,368.332h-31.2l-2.45,11.029h36.083L238.561,368.332z"/>
		<path id="Path_7764" fill="#E0E0E0" d="M92.042,415.533h10.2l30.059-168.041h-10.217L92.042,415.533z"/>
		<path id="Path_7765" fill="#E0E0E0" d="M359.372,415.533h10.217l30.054-168.041h-10.221L359.372,415.533z"/>
		<rect id="Rectangle_27036" x="92.042" y="255.679" fill="#EBEBEB" width="337.656" height="61.074"/>
		<path id="Path_7766" fill="#FAFAFA" d="M128.645,314.048h-35l19.416-55.679h35L128.645,314.048z"/>
		<path id="Path_7767" fill="#FAFAFA" d="M198.654,314.048h-35l19.419-55.679h34.987L198.654,314.048z"/>
		<path id="Path_7768" fill="#FAFAFA" d="M268.658,314.048h-35l19.406-55.679h35L268.658,314.048z"/>
		<path id="Path_7769" fill="#FAFAFA" d="M338.658,314.048h-35l19.419-55.679h35L338.658,314.048z"/>
		<path id="Path_7770" fill="#FAFAFA" d="M408.667,314.048h-35l19.419-55.679h35L408.667,314.048z"/>
		<path id="Path_7771" fill="#E0E0E0" d="M162.355,415.533h-10.217l-30.054-168.041h10.217L162.355,415.533z"/>
		<path id="Path_7772" fill="#E0E0E0" d="M429.685,415.533h-10.198l-30.061-168.041h10.217L429.685,415.533z"/>
		<rect id="Rectangle_27037" x="477.216" y="410.368" fill="#E0E0E0" width="90.113" height="5.166"/>
		<path id="Path_7773" fill="#E0E0E0" d="M513.573,300.354l-24.3,110.013h66l-24.309-110.013
			C528.91,291.051,515.634,291.051,513.573,300.354z"/>
		<path id="Path_7774" fill="#F5F5F5" d="M535.319,320.052h-26.096l-6.308,28.559h38.71L535.319,320.052z"/>
		<path id="Path_7775" fill="#F5F5F5" d="M542.732,353.635h-40.92l-3.199,14.456h47.313L542.732,353.635z"/>
		<path id="Path_7776" fill="#EBEBEB" d="M587.636,237.212v37.188c-0.004,2.039-1.66,3.689-3.7,3.687
			c-0.373-0.001-0.742-0.06-1.1-0.17L45.97,107.78c-1.514-0.495-2.539-1.907-2.538-3.5v-37.2c-0.006-2.026,1.631-3.673,3.657-3.679
			c0.388-0.001,0.774,0.059,1.143,0.179l536.866,170.066C586.636,234.148,587.665,235.595,587.636,237.212z"/>
		<path id="Path_7777" fill="#FAFAFA" d="M545.384,263.201l29.561,9.366l-16.4-44.435L529,218.77L545.384,263.201z"/>
		<path id="Path_7778" fill="#FAFAFA" d="M486.278,244.472l29.559,9.366l-16.399-44.434l-29.545-9.367L486.278,244.472z"/>
		<path id="Path_7779" fill="#FAFAFA" d="M427.172,225.754l29.561,9.354l-16.4-44.434l-29.557-9.37L427.172,225.754z"/>
		<path id="Path_7780" fill="#FAFAFA" d="M368.065,207.005l29.56,9.379l-16.399-44.447l-29.558-9.366L368.065,207.005z"/>
		<path id="Path_7781" fill="#FAFAFA" d="M308.959,188.285l29.547,9.367l-16.386-44.444l-29.56-9.367L308.959,188.285z"/>
		<path id="Path_7782" fill="#FAFAFA" d="M249.853,169.551l29.547,9.367l-16.385-44.447l-29.56-9.367L249.853,169.551z"/>
		<path id="Path_7783" fill="#FAFAFA" d="M190.734,150.818l29.559,9.367l-16.4-44.447l-29.544-9.367L190.734,150.818z"/>
		<path id="Path_7784" fill="#FAFAFA" d="M131.628,132.088l29.559,9.367l-16.4-44.447l-29.544-9.37L131.628,132.088z"/>
		<path id="Path_7785" fill="#FAFAFA" d="M72.521,113.351l29.56,9.363l-16.4-44.447l-29.545-9.363L72.521,113.351z"/>
	</g>
	<g id="freepik--Shadow--inject-36" transform="translate(71.214 499.116)">
		<ellipse id="freepik--path--inject-36" fill="#F5F5F5" cx="246.084" cy="14.367" rx="246.084" ry="14.367"/>
	</g>
	<g id="freepik--error-403-sign--inject-36" transform="translate(283.455 59.195)">
		<path id="Path_7786" fill="#263238" d="M130.898,443.284h-14.634V2.306c0-2.373,14.634-2.373,14.634,0V443.284z"/>
		<path id="Path_7787" d="M130.898,167.907l-14.634,2.945v-20.244h14.634V167.907z"/>
		<path id="Rectangle_27038" fill="#FFFFFF" d="M23.61,1.599L235.4,17.338c6.607,0.491,11.567,6.247,11.076,12.856l-9.048,121.761
			c-0.491,6.609-6.248,11.569-12.855,11.078L12.783,147.295c-6.609-0.491-11.569-6.247-11.078-12.856l9.048-121.761
			C11.245,6.068,17.001,1.108,23.61,1.599z"/>
		<path id="Path_7788" fill="#FA935B" d="M222.483,164.773h-1.269l-205.355-15.23c-9.42-0.73-16.484-8.928-15.814-18.353
			l8.58-115.319C9.348,6.446,17.548-0.626,26.978,0.044l205.354,15.231c9.42,0.73,16.483,8.928,15.813,18.353l-8.581,115.318
			c-0.682,8.931-8.112,15.838-17.069,15.865L222.483,164.773z M25.682,3.725c-6.981,0.028-12.766,5.424-13.276,12.387l-8.58,115.319
			c-0.51,7.299,4.954,13.647,12.248,14.228l205.355,15.23c7.332,0.524,13.711-4.971,14.278-12.3l8.58-115.319
			c0.538-7.337-4.965-13.725-12.3-14.278L26.634,3.763C26.355,3.738,26.012,3.725,25.682,3.725z"/>
		<path id="Path_7789" fill="#FA935B" d="M81.36,63.136l-25.789-1.925l0.863-11.638l28.073-28.752l12.351,0.914l-2.336,31.324
			l6.347,0.482l-0.812,10.979l-6.348-0.47L93,73.582l-12.337-0.927L81.36,63.136z M82.187,52.145l1.154-16.043l-14.79,15.027
			L82.187,52.145z"/>
		<path id="Path_7790" fill="#FA935B" d="M105.73,48.692c0.728-9.697,2.994-16.326,6.799-19.888
			c3.808-3.562,9.266-5.106,16.375-4.633c2.879,0.128,5.712,0.772,8.362,1.9c1.945,0.877,3.693,2.138,5.142,3.706
			c1.209,1.35,2.21,2.873,2.97,4.518c0.687,1.708,1.163,3.494,1.421,5.318c0.675,3.96,0.858,7.989,0.546,11.994
			c-0.702,9.256-2.771,15.907-6.206,19.952s-8.984,5.788-16.65,5.229c-3.589-0.117-7.1-1.083-10.242-2.818
			c-2.563-1.588-4.652-3.832-6.055-6.5c-1.244-2.478-2.023-5.162-2.299-7.92c-0.432-3.606-0.486-7.247-0.166-10.864L105.73,48.692z
			 M119.766,49.758c-0.48,6.498-0.235,10.978,0.736,13.441c0.965,2.45,2.538,3.808,4.721,3.934c1.389,0.098,2.757-0.359,3.81-1.269
			c1.318-1.244,2.25-2.845,2.678-4.607c0.851-3.324,1.355-6.727,1.51-10.154c0.5-6.769,0.263-11.359-0.711-13.771
			c-0.672-2.184-2.62-3.728-4.898-3.884c-2.285-0.215-4.447,1.073-5.345,3.186C121.08,38.967,120.247,43.342,119.766,49.758
			L119.766,49.758z"/>
		<path id="Path_7791" fill="#FA935B" d="M167.742,42.765l-13.212-3.389c1.183-3.868,3.72-7.18,7.146-9.329
			c3.333-2.047,7.898-2.851,13.695-2.411c6.649,0.5,11.367,2.099,14.149,4.8c2.711,2.458,4.119,6.039,3.81,9.684
			c-0.137,2.131-0.926,4.169-2.259,5.838c-1.563,1.874-3.553,3.345-5.802,4.29c1.558,0.46,3.037,1.149,4.393,2.043
			c1.58,1.127,2.837,2.651,3.643,4.417c0.843,1.954,1.171,4.09,0.952,6.206c-0.268,2.988-1.313,5.854-3.033,8.313
			c-1.758,2.603-4.255,4.619-7.171,5.787c-3.736,1.342-7.73,1.806-11.676,1.357c-3.737-0.141-7.416-0.972-10.852-2.45
			c-2.494-1.205-4.644-3.021-6.244-5.28c-1.678-2.475-2.833-5.265-3.4-8.2l14.291-0.825c0.088,2.209,0.84,4.341,2.158,6.117
			c2.511,2.554,6.593,2.667,9.24,0.254c1.438-1.447,2.266-3.392,2.31-5.432c0.286-1.988-0.225-4.009-1.421-5.622
			c-1.195-1.427-2.949-2.269-4.811-2.31c-1.563-0.044-3.125,0.118-4.646,0.482l1.485-10.065c0.602,0.146,1.212,0.252,1.828,0.317
			c1.718,0.178,3.436-0.338,4.771-1.434c1.276-0.977,2.067-2.458,2.17-4.061c0.165-1.366-0.231-2.74-1.1-3.808
			c-0.964-1.031-2.309-1.623-3.72-1.637c-1.507-0.156-3.012,0.301-4.177,1.269C168.907,39.07,168.025,40.848,167.742,42.765z"/>
		<path id="Path_7792" fill="#FA935B" d="M61.853,83.138l19.7,1.51l-0.381,5.077l-12.323-0.914l-0.293,3.808l11.424,0.863
			l-0.371,4.846l-11.422-0.85l-0.344,4.683l12.692,0.952l-0.394,5.381l-20.054-1.5L61.853,83.138z"/>
		<path id="Path_7793" fill="#FA935B" d="M84.191,108.763l1.777-23.785l12.248,0.9c1.762,0.07,3.502,0.399,5.166,0.977
			c1.155,0.467,2.121,1.307,2.742,2.386c1.199,2.307,1.094,5.077-0.279,7.285c-0.648,0.923-1.521,1.666-2.537,2.158
			c-0.84,0.388-1.734,0.64-2.654,0.749c0.664,0.248,1.289,0.589,1.854,1.015c0.414,0.402,0.774,0.854,1.079,1.345
			c0.355,0.486,0.667,1.004,0.926,1.548l3.047,7.158l-8.313-0.622l-3.39-7.615c-0.26-0.719-0.666-1.376-1.192-1.929
			c-0.498-0.406-1.109-0.646-1.751-0.685h-0.646l-0.724,9.659L84.191,108.763z M92.631,95.157l3.101,0.228
			c0.66,0.004,1.318-0.055,1.967-0.178c0.488-0.054,0.938-0.284,1.27-0.647c0.331-0.379,0.526-0.856,0.559-1.358
			c0.094-0.666-0.129-1.336-0.601-1.815c-0.784-0.558-1.729-0.847-2.69-0.825L93,90.321L92.631,95.157z"/>
		<path id="Path_7794" fill="#FA935B" d="M109.994,110.642l1.764-23.785l12.26,0.914c1.756,0.068,3.492,0.393,5.153,0.965
			c1.157,0.465,2.127,1.303,2.755,2.381c1.887,3.216,0.81,7.354-2.408,9.24c-0.121,0.071-0.245,0.139-0.372,0.203
			c-0.84,0.386-1.733,0.639-2.651,0.749c0.661,0.25,1.285,0.592,1.853,1.015c0.403,0.411,0.766,0.862,1.079,1.345
			c0.358,0.482,0.665,1.001,0.914,1.548l3.046,7.158l-8.3-0.609l-3.389-7.615c-0.262-0.718-0.667-1.375-1.193-1.929
			c-0.5-0.411-1.118-0.65-1.764-0.685h-0.646l-0.711,9.659L109.994,110.642z M118.434,97.049l3.102,0.228
			c0.659-0.003,1.316-0.063,1.967-0.178c0.492-0.048,0.947-0.285,1.269-0.66c0.341-0.369,0.541-0.844,0.571-1.345
			c0.088-0.669-0.133-1.341-0.6-1.828c-0.787-0.56-1.735-0.845-2.7-0.812l-3.16-0.19L118.434,97.049z"/>
		<path id="Path_7795" fill="#FA935B" d="M135.188,100.576c-0.155-6.239,4.773-11.424,11.014-11.581
			c0.731-0.018,1.465,0.035,2.188,0.158c3.96,0.288,6.922,1.578,8.884,3.871c2.063,2.584,2.98,5.899,2.538,9.176
			c-0.084,2.364-0.74,4.673-1.916,6.727c-1.05,1.67-2.567,2.995-4.364,3.808c-2.11,0.94-4.429,1.319-6.729,1.1
			c-2.297-0.089-4.545-0.696-6.574-1.777c-1.732-1.028-3.116-2.554-3.973-4.379c-0.989-2.229-1.357-4.685-1.066-7.107
			L135.188,100.576L135.188,100.576z M142.537,101.147c-0.297,1.817,0.039,3.681,0.952,5.28c1.774,2.17,4.975,2.489,7.145,0.713
			c0.056-0.046,0.111-0.094,0.166-0.143c0.939-0.965,1.51-2.767,1.7-5.432c0.29-1.756-0.063-3.558-0.99-5.077
			c-0.851-1.109-2.156-1.776-3.554-1.815c-1.36-0.168-2.724,0.3-3.693,1.269c-1.172,1.475-1.783,3.317-1.726,5.2V101.147z"/>
		<path id="Path_7796" fill="#FA935B" d="M163.008,114.588l1.764-23.8l12.248,0.914c1.762,0.07,3.502,0.4,5.166,0.977
			c1.138,0.468,2.084,1.304,2.691,2.373c0.679,1.193,0.968,2.569,0.825,3.935c-0.06,1.199-0.438,2.361-1.102,3.363
			c-0.647,0.92-1.521,1.659-2.538,2.145c-0.84,0.389-1.733,0.646-2.651,0.762c1.241,0.379,2.291,1.219,2.932,2.348
			c0.354,0.49,0.661,1.013,0.914,1.561l3.046,7.158l-8.3-0.622l-3.389-7.615c-0.266-0.717-0.67-1.373-1.193-1.929
			c-0.503-0.405-1.119-0.645-1.764-0.685h-0.647l-0.723,9.659L163.008,114.588z M171.435,100.982l3.102,0.228
			c0.664,0.005,1.327-0.055,1.979-0.178c0.492-0.048,0.947-0.285,1.271-0.66c0.341-0.368,0.543-0.844,0.569-1.345
			c0.082-0.665-0.138-1.331-0.6-1.815c-0.784-0.565-1.733-0.855-2.7-0.825l-3.224-0.241L171.435,100.982z"/>
		<path id="Path_7797" fill="#263238" d="M37.333,133.309l1.611-21.7L53.59,112.7l-0.188,2.538l-11.778-0.876l-0.495,6.714
			l10.154,0.762l-0.19,2.538l-10.153-0.762l-0.735,9.862L37.333,133.309z"/>
		<path id="Path_7798" fill="#263238" d="M55.622,123.993c0.051-3.106,1.316-6.068,3.527-8.25c2.09-1.913,4.899-2.836,7.717-2.538
			c1.908,0.115,3.748,0.752,5.318,1.84c1.521,1.062,2.695,2.55,3.377,4.277c0.731,1.884,1.02,3.913,0.838,5.927
			c-0.121,2.048-0.73,4.037-1.777,5.8c-0.948,1.613-2.371,2.894-4.074,3.668c-1.678,0.772-3.527,1.1-5.369,0.952
			c-1.932-0.114-3.792-0.77-5.369-1.891c-1.518-1.078-2.685-2.578-3.354-4.315C55.767,127.726,55.483,125.856,55.622,123.993z
			 M58.579,124.26c-0.295,2.25,0.297,4.525,1.65,6.346c2.596,3.138,7.242,3.578,10.381,0.982c0.082-0.068,0.162-0.137,0.242-0.208
			c1.625-1.714,2.531-3.984,2.536-6.346c0.158-1.588-0.028-3.19-0.546-4.7c-0.456-1.294-1.288-2.422-2.389-3.241
			c-1.111-0.815-2.434-1.295-3.809-1.383c-1.959-0.175-3.906,0.442-5.408,1.713c-1.521,1.345-2.424,3.63-2.664,6.892L58.579,124.26z
			"/>
		<path id="Path_7799" fill="#263238" d="M79.33,136.428l1.625-21.7l9.62,0.723c1.498,0.044,2.976,0.354,4.365,0.914
			c0.983,0.467,1.78,1.255,2.26,2.234c0.529,1.033,0.758,2.194,0.66,3.351c-0.066,1.457-0.711,2.827-1.791,3.808
			c-1.353,1.079-3.029,1.665-4.758,1.663c0.601,0.327,1.154,0.732,1.648,1.206c0.842,0.935,1.568,1.966,2.17,3.071l3.338,6.194
			l-3.615-0.279l-2.539-4.721c-0.735-1.371-1.357-2.411-1.854-3.148c-0.357-0.591-0.813-1.119-1.346-1.561
			c-0.383-0.292-0.813-0.52-1.27-0.673c-0.521-0.12-1.052-0.196-1.586-0.228l-3.338-0.241l-0.711,9.633L79.33,136.428z
			 M83.138,124.523l6.168,0.457c1.039,0.118,2.092,0.058,3.109-0.178c0.712-0.182,1.342-0.598,1.79-1.18
			c0.422-0.548,0.673-1.209,0.723-1.9c0.093-0.965-0.247-1.923-0.926-2.615c-0.964-0.827-2.194-1.278-3.465-1.269l-6.866-0.52
			L83.138,124.523z"/>
		<path id="Path_7800" fill="#263238" d="M101.11,138.056l1.61-21.7l8.148,0.6c1.362,0.051,2.702,0.379,3.935,0.965
			c0.944,0.49,1.715,1.258,2.208,2.2c0.484,0.898,0.704,1.915,0.635,2.932c-0.066,0.92-0.396,1.801-0.95,2.538
			c-0.617,0.825-1.459,1.456-2.426,1.815c1.176,0.4,2.188,1.173,2.883,2.2c0.637,1,0.923,2.183,0.812,3.363
			c-0.063,0.983-0.354,1.939-0.85,2.792c-0.428,0.762-1.026,1.413-1.751,1.9c-0.75,0.455-1.583,0.756-2.45,0.888
			c-1.167,0.179-2.353,0.213-3.528,0.1L101.11,138.056z M104.169,135.708l5.406,0.406c0.656,0.047,1.313,0.047,1.968,0
			c0.591-0.054,1.166-0.213,1.7-0.47c0.482-0.269,0.89-0.658,1.18-1.13c0.736-1.203,0.774-2.708,0.1-3.947
			c-0.371-0.638-0.948-1.131-1.637-1.4c-1.014-0.355-2.074-0.558-3.148-0.6l-5.012-0.368L104.169,135.708z M104.918,125.681
			l4.7,0.355c0.914,0.119,1.84,0.119,2.754,0c0.668-0.118,1.274-0.458,1.726-0.965c0.433-0.523,0.679-1.175,0.7-1.853
			c0.063-0.669-0.063-1.342-0.368-1.942c-0.3-0.58-0.801-1.031-1.409-1.269c-1.061-0.332-2.162-0.516-3.273-0.546l-4.342-0.33
			L104.918,125.681z"/>
		<path id="Path_7801" fill="#263238" d="M121.899,139.601l1.612-21.7l2.881,0.216l-1.625,21.7L121.899,139.601z"/>
		<path id="Path_7802" fill="#263238" d="M129.832,140.188l1.625-21.7l7.476,0.558c1.287,0.067,2.563,0.268,3.81,0.6
			c1.152,0.338,2.208,0.953,3.069,1.79c1.094,1.082,1.886,2.429,2.302,3.909c0.47,1.696,0.625,3.464,0.457,5.216
			c-0.081,1.484-0.386,2.947-0.9,4.341c-0.396,1.104-0.976,2.134-1.713,3.046c-0.591,0.732-1.31,1.352-2.12,1.828
			c-0.833,0.454-1.739,0.759-2.678,0.9c-1.164,0.171-2.346,0.205-3.518,0.1L129.832,140.188z M132.903,137.853l4.633,0.343
			c1.135,0.117,2.279,0.066,3.398-0.152c0.744-0.164,1.439-0.498,2.031-0.977c0.791-0.731,1.404-1.634,1.79-2.64
			c0.513-1.324,0.813-2.721,0.888-4.138c0.236-1.807-0.018-3.644-0.734-5.318c-0.529-1.141-1.422-2.074-2.538-2.653
			c-1.182-0.436-2.424-0.676-3.683-0.711l-4.556-0.343L132.903,137.853z"/>
		<path id="Path_7803" fill="#263238" d="M151.738,141.825l1.61-21.7l7.478,0.546c1.287,0.065,2.563,0.269,3.808,0.609
			c1.151,0.336,2.202,0.951,3.061,1.79c1.093,1.077,1.886,2.422,2.3,3.9c0.469,1.696,0.628,3.463,0.47,5.216
			c-0.093,1.482-0.396,2.944-0.9,4.341c-0.396,1.11-0.98,2.145-1.726,3.059c-0.591,0.728-1.31,1.343-2.12,1.815
			c-0.828,0.454-1.729,0.759-2.665,0.9c-1.164,0.169-2.343,0.208-3.516,0.114L151.738,141.825z M154.797,139.477l4.633,0.343
			c1.135,0.117,2.28,0.066,3.4-0.152c0.744-0.161,1.439-0.495,2.031-0.977c0.792-0.725,1.404-1.625,1.79-2.627
			c0.513-1.324,0.813-2.72,0.889-4.138c0.236-1.807-0.02-3.644-0.736-5.318c-0.522-1.145-1.418-2.079-2.538-2.653
			c-1.182-0.447-2.43-0.691-3.691-0.723l-4.558-0.343L154.797,139.477z"/>
		<path id="Path_7804" fill="#263238" d="M173.695,143.45l1.61-21.7l15.688,1.168l-0.19,2.538l-12.817-0.952l-0.495,6.651
			l12.007,0.888l-0.19,2.538l-12.007-0.9l-0.546,7.387l13.327,1l-0.19,2.538L173.695,143.45z"/>
		<path id="Path_7805" fill="#263238" d="M193.824,144.947l1.61-21.7l2.945,0.216l10.154,17.9l1.269-17.045l2.754,0.2l-1.625,21.716
			l-2.943-0.228l-10.154-17.9l-1.271,17.045L193.824,144.947z"/>
	</g>
	<g id="freepik--Barricade--inject-36" transform="translate(270.795 323.155)">
		<path id="Path_7806" fill="#FA935B" d="M36.197,191.876H2.97L27.123,0h33.24L36.197,191.876z"/>
		<path id="Path_7807" opacity="0.4" enable-background="new    " d="M36.197,191.876H2.97L27.123,0h33.24L36.197,191.876z"/>
		<path id="Path_7808" fill="#263238" d="M0,191.876h2.97L27.123,0h-2.97L0,191.876z"/>
		<path id="Path_7809" fill="#FA935B" d="M160.133,191.876h-33.227L151.056,0h33.24L160.133,191.876z"/>
		<path id="Path_7810" opacity="0.4" enable-background="new    " d="M160.133,191.876h-33.227L151.056,0h33.24L160.133,191.876z"/>
		<path id="Path_7811" fill="#263238" d="M123.925,191.876h2.982L151.059,0h-2.972L123.925,191.876z"/>
		<path id="Path_7812" fill="#FA935B" d="M66.962,169.044h120.523l-5.257-41.771H61.708L66.962,169.044z"/>
		<path id="Path_7813" fill="#263238" d="M66.962,169.044h-1.967l-5.268-41.771h1.979L66.962,169.044z"/>
		<path id="Path_7814" fill="#FFFFFF" d="M180.848,129.102l4.802,38.114h-7.12l-19.13-38.114H180.848z"/>
		<path id="Path_7815" fill="#FFFFFF" d="M147.251,129.102l19.127,38.114h-26.145l-19.127-38.114H147.251z"/>
		<path id="Path_7816" fill="#FFFFFF" d="M108.96,129.102l19.127,38.114h-26.158l-19.113-38.114H108.96z"/>
		<path id="Path_7817" fill="#FFFFFF" d="M70.681,129.102l19.114,38.114H68.347l-4.799-38.114H70.681z"/>
		<path id="Path_7818" fill="#FA935B" d="M175.948,191.876h33.24L185.022,0h-33.229L175.948,191.876z"/>
		<path id="Path_7819" opacity="0.2" enable-background="new    " d="M162.555,85.481l34.968,13.745l-10.036-79.68h-33.24
			L162.555,85.481z"/>
		<path id="Path_7820" fill="#263238" d="M175.948,191.876h-2.97L148.825,0h2.97L175.948,191.876z"/>
		<path id="Path_7821" fill="#FA935B" d="M52.013,191.876h33.236L61.099,0h-33.24L52.013,191.876z"/>
		<path id="Path_7822" opacity="0.2" enable-background="new    " d="M38.622,85.481l34.966,13.745L63.55,19.546H30.321
			L38.622,85.481z"/>
		<path id="Path_7823" fill="#263238" d="M52.013,191.876h-2.971L24.889,0h2.97L52.013,191.876z"/>
		<path id="Path_7824" fill="#FA935B" d="M25.346,76.635h181.481l-7.92-62.889H17.426L25.346,76.635z"/>
		<path id="Path_7825" fill="#263238" d="M25.346,76.635h-2.97l-7.92-62.889h2.97L25.346,76.635z"/>
		<path id="Path_7826" fill="#FFFFFF" d="M196.826,16.487l7.234,57.395h-10.724l-28.8-57.395H196.826z"/>
		<path id="Path_7827" fill="#FFFFFF" d="M146.249,16.487l28.8,57.395h-39.385l-28.785-57.395H146.249z"/>
		<path id="Path_7828" fill="#FFFFFF" d="M88.59,16.487l28.8,57.395H78.005l-28.8-57.395H88.59z"/>
		<path id="Path_7829" fill="#FFFFFF" d="M30.943,16.487L59.725,73.88H27.426l-7.22-57.394H30.943L30.943,16.487z"/>
	</g>
</g>
</svg>
