<svg xmlns="http://www.w3.org/2000/svg" width="668.017" height="472.85" viewBox="0 0 668.017 472.85">
  <g id="_404_Error-cuate" data-name="404 Error-cuate" transform="translate(-23.95 -95.518)">
    <g id="freepik--background-complete--inject-18" transform="translate(23.95 95.518)">
      <path id="Path_7620" data-name="Path 7620" d="M106.182,299.234c-20.213,19.785-23.641,50.4-19.356,77.219.118.606,1.064.443,1.064-.133,0-6.1-.192-12.146-.177-18.174.118-.281.207-.547.325-.813,5.275-3.842,10.166-8.156,13.121-14.067,3.384-6.649,4.714-14.126,7.285-21.07.251-.665-.458-.473-.931-.118-12.294,9.058-16.253,18.824-19.741,31.857a107.673,107.673,0,0,1,2.143-20.3c2.66-12.367,7.905-24.646,16.8-33.822a.392.392,0,0,0-.532-.576Z" transform="translate(5.302 2.106)" fill="#a6a6a6"/>
      <path id="Path_7621" data-name="Path 7621" d="M104.234,306.671c3.472.118,5.659,5.674,8.363,7.3a2.615,2.615,0,0,0,3.842-.606c2.689-3.753-1-8.378-4.433-10.964,2.482,1.02,4.536,2.807,7.211,3.325a2.527,2.527,0,0,0,3.251-1.95c1.167-5.112-5.231-7.388-9.634-7.491,2.128-1.478,8.245-5.511,4.994-7.491s-10.461,3.768-12.8,5.659c-3.443,2.793-7.536,6.959-7.7,11.318C97.068,310.867,101.515,307.735,104.234,306.671Z" transform="translate(11.092 -3.027)" fill="#dbdbdb"/>
      <path id="Path_7622" data-name="Path 7622" d="M103.287,306.016c4.433-2.024,12.988.887,13.712-.8,1.478-3.428-5.349-5.777-9.043-6.235,3.4-.916,9.9-2.379,9.708-5.644-.251-4-9.974-.561-14.909,3.206-6.191,4.758-6.162,9.353-5.127,10.269C99.032,308.07,102.548,306.341,103.287,306.016Z" transform="translate(10.99 -1.515)" fill="#ebebeb"/>
      <path id="Path_7623" data-name="Path 7623" d="M68.708,297.905c20.952,19,25.518,49.47,22.267,76.436,0,.606-1.034.488-1.049-.089-.236-6.1-.281-12.161-.532-18.174l-.34-.813c-5.408-3.62-10.432-7.772-13.653-13.594-3.635-6.5-5.245-13.934-8.082-20.775-.266-.65.443-.488.916-.163,12.633,8.6,16.933,18.2,20.952,31.1a108.781,108.781,0,0,0-2.955-20.213C83.1,319.36,77.366,307.3,68.146,298.467,67.851,298.1,68.353,297.565,68.708,297.905Z" transform="translate(-3.265 1.469)" fill="#a6a6a6"/>
      <path id="Path_7624" data-name="Path 7624" d="M71.7,305.309c-3.472.251-5.438,5.91-8.082,7.61a2.6,2.6,0,0,1-3.856-.458c-2.822-3.65.68-8.407,4.049-11.126-2.438,1.123-4.433,2.955-7.078,3.591a2.512,2.512,0,0,1-3.325-1.877c-1.374-5.068,4.95-7.58,9.338-7.861C60.563,293.8,54.3,290,57.475,287.9s10.594,3.369,13,5.172c3.546,2.66,7.8,6.664,8.112,11.023C78.989,309.239,74.423,306.269,71.7,305.309Z" transform="translate(-9.971 -3.482)" fill="#dbdbdb"/>
      <path id="Path_7625" data-name="Path 7625" d="M71.2,304.608c-4.507-1.847-12.944,1.389-13.727-.266-1.6-3.369,5.127-5.91,8.866-6.575-3.428-.783-9.974-2.009-9.9-5.275.089-4,9.944-.946,15.012,2.645,6.368,4.521,6.5,9.1,5.511,10.062C75.545,306.514,71.955,304.918,71.2,304.608Z" transform="translate(-8.433 -1.968)" fill="#ebebeb"/>
      <path id="Path_7626" data-name="Path 7626" d="M88.8,354.831a206.261,206.261,0,0,0,6.516,30.054.754.754,0,1,0,1.478-.3c-1.374-9.25-3.886-18.352-5.26-27.6a138.082,138.082,0,0,1-1.611-28.355c.872-15.6,5.112-32.211,15.293-44.416.236-.3-.251-.694-.473-.429C84.348,307.563,87.6,336.7,87.613,339.316c-2.955-9.841-5.91-21.129-16.785-31.148-.473-.429-.842-.222-.754.517,1.936,18.307,7,27.779,17.628,37.516C87.968,349.157,88.337,351.994,88.8,354.831Z" transform="translate(-1.928 -5.263)" fill="#a6a6a6"/>
      <path id="Path_7627" data-name="Path 7627" d="M96.71,294.139c3.664-1.625,8.733,3.044,12.353,3.354a2.955,2.955,0,0,0,3.679-2.556c.9-5.245-5.245-8.186-10.151-9.117,3.088-.192,6.117.621,9.146-.192a2.955,2.955,0,0,0,2.394-3.664c-1.345-5.91-9.146-5.024-13.756-2.955,1.478-2.615,5.777-9.87,1.478-10.343s-8.954,9.176-10.417,12.323c-2.172,4.625-4.329,11.023-2.29,15.618C91.39,302.089,94.419,296.592,96.71,294.139Z" transform="translate(6.795 -12.452)" fill="#dbdbdb"/>
      <path id="Path_7628" data-name="Path 7628" d="M95.988,293.768c3.605-4.329,13.934-5.615,13.83-7.728-.192-4.285-8.452-3.3-12.5-1.906,3.044-2.66,9.058-7.462,7.211-10.757-2.275-4.019-10.639,4.433-13.845,10.845-4.034,8.053-1.684,12.8-.163,13.224C92.62,298.053,95.4,294.492,95.988,293.768Z" transform="translate(6.852 -10.692)" fill="#ebebeb"/>
      <path id="Path_7629" data-name="Path 7629" d="M76.564,335.584,67.58,404.292h54.671c-1.123-6.088-11.3-68.782-11.3-68.782Z" transform="translate(-3.113 19.48)" fill="#dbdbdb"/>
      <rect id="Rectangle_27017" data-name="Rectangle 27017" width="39.127" height="16.534" transform="translate(646.193 154.216) rotate(180)" fill="#ebebeb"/>
      <rect id="Rectangle_27018" data-name="Rectangle 27018" width="39.127" height="16.534" transform="translate(668.017 133.367) rotate(180)" fill="#ebebeb"/>
      <rect id="Rectangle_27019" data-name="Rectangle 27019" width="39.127" height="16.534" transform="translate(624.355 133.367) rotate(180)" fill="#ebebeb"/>
      <rect id="Rectangle_27020" data-name="Rectangle 27020" width="39.127" height="16.534" transform="translate(60.95 367.461) rotate(180)" fill="#ebebeb"/>
      <rect id="Rectangle_27021" data-name="Rectangle 27021" width="39.127" height="16.534" transform="translate(39.127 346.613) rotate(180)" fill="#ebebeb"/>
      <rect id="Rectangle_27022" data-name="Rectangle 27022" width="39.127" height="16.534" transform="translate(668.017 367.447) rotate(180)" fill="#ebebeb"/>
      <rect id="Rectangle_27023" data-name="Rectangle 27023" width="39.127" height="16.534" transform="translate(130.737)" fill="#ebebeb"/>
      <rect id="Rectangle_27024" data-name="Rectangle 27024" width="39.127" height="16.534" transform="translate(108.898 20.849)" fill="#ebebeb"/>
    </g>
    <g id="freepik--Table--inject-18" transform="translate(74.188 518.492)">
      <path id="Path_7630" data-name="Path 7630" d="M57.95,382.259l70.939-.355,70.939-.133,141.893-.251,141.878.251,70.954.133,70.939.355-70.939.369-70.954.118L341.721,383l-141.893-.251-70.939-.133Z" transform="translate(-57.95 -381.52)" fill="#263238"/>
    </g>
    <path id="Path_7631" data-name="Path 7631" d="M232.674,293.308h0a13.547,13.547,0,0,0-1.212-1.226h0a15.8,15.8,0,0,0-1.226-1.212h0a15.815,15.815,0,0,0-1.212-1.226h0a13.55,13.55,0,0,0-1.226-1.212h0c-.384-.428-.8-.842-1.212-1.226h0a11.717,11.717,0,0,0-1.212-1.212h0a16.007,16.007,0,0,0-1.226-1.226h0a11.719,11.719,0,0,0-1.212-1.212h0a15.813,15.813,0,0,0-1.226-1.212h0a17.627,17.627,0,0,0-4.329-3.472V156.764c0-.65-.31-.975-.31-1.625a3.472,3.472,0,0,0-.325-1.936c0-.325-.31-.975-.31-1.3a15.385,15.385,0,0,0-.665-1.95,2.379,2.379,0,0,1-.635-1.3,9.277,9.277,0,0,0-1.3-1.611c-.34-.325-.65-.96-.975-1.3l-1.3-1.3c0-.192-.251-.4-.532-.517l-.635-.65h-.074c0-.207-.236-.4-.517-.532l-.65-.635h0c0-.192-.251-.4-.532-.532l-.635-.635h0c0-.207-.251-.4-.532-.532l-.635-.65h0c0-.192-.251-.4-.532-.532l-.65-.635v-.074c0-.192-.251-.384-.532-.517l-.635-.65h-.074c0-.192-.236-.4-.517-.532l-.65-.635v-.074c0-.192-.251-.384-.532-.517l-.635-.65h-.074c0-.207-.236-.4-.517-.532l-.65-.635h0c0-.192-.251-.4-.532-.517l-.709-.709c0-.325-.635-.65-.975-.65a.31.31,0,0,0-.31-.325c-.65-.31-.99-.65-1.625-.975a20,20,0,0,1-1.611-1.3c-.325,0-.975-.31-1.3-.31-.65-.325-1.625-.325-1.95-.665a3.1,3.1,0,0,1-1.625-.31h-5.5a2.024,2.024,0,0,1-1.3.31c-.975.34-1.611.34-1.95.665-.635,0-.96.31-1.3.975a3.517,3.517,0,0,0-1.936.635c-.31.325-.975.665-1.3.975a3.325,3.325,0,0,1-1.611.975,4.432,4.432,0,0,1-.975,1.3c-.325.325-.325.635-.635.635L53.3,283.142a17.3,17.3,0,0,0,1.611,23.833,10.934,10.934,0,0,0,1.241,1.241,9.621,9.621,0,0,0,1.226,1.226,10.935,10.935,0,0,0,1.241,1.241,10.8,10.8,0,0,0,1.226,1.241,10.806,10.806,0,0,0,1.241,1.226,10.8,10.8,0,0,0,1.226,1.241,10.8,10.8,0,0,0,1.241,1.226,10.8,10.8,0,0,0,1.226,1.241,10.8,10.8,0,0,0,1.241,1.226,16.815,16.815,0,0,0,2.541,2.349,15.884,15.884,0,0,0,11.008,3.886h89.719V336.6a17.731,17.731,0,0,0,5.792,13.3h0c.384.414.783.813,1.182,1.182h0a15.245,15.245,0,0,0,1.2,1.2h0c.384.414.783.813,1.2,1.182h0a15.24,15.24,0,0,0,1.2,1.2h0q.576.621,1.2,1.2h0a13.075,13.075,0,0,0,1.2,1.2h0c.369.414.768.813,1.182,1.2h0a15.248,15.248,0,0,0,1.2,1.2h0c.369.4.768.8,1.182,1.182h0a17.894,17.894,0,0,0,31.029-12.1V324.263h3.251a17.975,17.975,0,0,0,12.589-30.955Zm-63.418-69.447v52.366h-42.2Z" transform="translate(12.102 15.899)" fill="#fa935b"/>
    <path id="Path_7632" data-name="Path 7632" d="M232.674,293.308h0a13.547,13.547,0,0,0-1.212-1.226h0a15.8,15.8,0,0,0-1.226-1.212h0a15.815,15.815,0,0,0-1.212-1.226h0a13.55,13.55,0,0,0-1.226-1.212h0c-.384-.428-.8-.842-1.212-1.226h0a11.717,11.717,0,0,0-1.212-1.212h0a16.007,16.007,0,0,0-1.226-1.226h0a11.719,11.719,0,0,0-1.212-1.212h0a15.813,15.813,0,0,0-1.226-1.212h0a17.627,17.627,0,0,0-4.329-3.472V156.764c0-.65-.31-.975-.31-1.625a3.472,3.472,0,0,0-.325-1.936c0-.325-.31-.975-.31-1.3a15.385,15.385,0,0,0-.665-1.95,2.379,2.379,0,0,1-.635-1.3,9.277,9.277,0,0,0-1.3-1.611c-.34-.325-.65-.96-.975-1.3l-1.3-1.3c0-.192-.251-.4-.532-.517l-.635-.65h-.074c0-.207-.236-.4-.517-.532l-.65-.635h0c0-.192-.251-.4-.532-.532l-.635-.635h0c0-.207-.251-.4-.532-.532l-.635-.65h0c0-.192-.251-.4-.532-.532l-.65-.635v-.074c0-.192-.251-.384-.532-.517l-.635-.65h-.074c0-.192-.236-.4-.517-.532l-.65-.635v-.074c0-.192-.251-.384-.532-.517l-.635-.65h-.074c0-.207-.236-.4-.517-.532l-.65-.635h0c0-.192-.251-.4-.532-.517l-.709-.709c0-.325-.635-.65-.975-.65a.31.31,0,0,0-.31-.325c-.65-.31-.99-.65-1.625-.975a20,20,0,0,1-1.611-1.3c-.325,0-.975-.31-1.3-.31-.65-.325-1.625-.325-1.95-.665a3.1,3.1,0,0,1-1.625-.31h-5.5a2.024,2.024,0,0,1-1.3.31c-.975.34-1.611.34-1.95.665-.635,0-.96.31-1.3.975a3.517,3.517,0,0,0-1.936.635c-.31.325-.975.665-1.3.975a3.325,3.325,0,0,1-1.611.975,4.432,4.432,0,0,1-.975,1.3c-.325.325-.325.635-.635.635L53.3,283.142a17.3,17.3,0,0,0,1.611,23.833,10.934,10.934,0,0,0,1.241,1.241,9.621,9.621,0,0,0,1.226,1.226,10.935,10.935,0,0,0,1.241,1.241,10.8,10.8,0,0,0,1.226,1.241,10.806,10.806,0,0,0,1.241,1.226,10.8,10.8,0,0,0,1.226,1.241,10.8,10.8,0,0,0,1.241,1.226,10.8,10.8,0,0,0,1.226,1.241,10.8,10.8,0,0,0,1.241,1.226,16.815,16.815,0,0,0,2.541,2.349,15.884,15.884,0,0,0,11.008,3.886h89.719V336.6a17.731,17.731,0,0,0,5.792,13.3h0c.384.414.783.813,1.182,1.182h0a15.245,15.245,0,0,0,1.2,1.2h0c.384.414.783.813,1.2,1.182h0a15.24,15.24,0,0,0,1.2,1.2h0q.576.621,1.2,1.2h0a13.075,13.075,0,0,0,1.2,1.2h0c.369.414.768.813,1.182,1.2h0a15.248,15.248,0,0,0,1.2,1.2h0c.369.4.768.8,1.182,1.182h0a17.894,17.894,0,0,0,31.029-12.1V324.263h3.251a17.975,17.975,0,0,0,12.589-30.955Zm-63.418-69.447v52.366h-42.2Z" transform="translate(12.102 15.899)" opacity="0.1"/>
    <path id="Path_7633" data-name="Path 7633" d="M226.247,294.234a17.835,17.835,0,0,1-18.145,17.82h-3.236v24.631a17.82,17.82,0,1,1-35.639,0V312.054H67.17a15.825,15.825,0,0,1-10.934-3.886,17.332,17.332,0,0,1-2.955-24.883l119.832-149.1c.325,0,.325-.31.65-.635a4.433,4.433,0,0,0,.975-1.3,3.472,3.472,0,0,0,1.625-.975c.31-.325.96-.65,1.285-.975a3.487,3.487,0,0,1,1.95-.65c.325-.635.65-.96,1.3-.96.31-.325.96-.325,1.936-.65a1.95,1.95,0,0,0,1.3-.325h5.511a2.851,2.851,0,0,0,1.611.325c.325.325,1.3.325,1.95.65.325,0,.975.325,1.3.325.635.635,1.285.96,1.611,1.286.65.325.975.65,1.625.975a.325.325,0,0,1,.325.325c.325,0,.975.325.975.65l1.285,1.3c.325.325.65.96.975,1.285a8.866,8.866,0,0,1,1.3,1.625,2.467,2.467,0,0,0,.65,1.3,11.822,11.822,0,0,1,.635,1.936c0,.325.325.975.325,1.3a3.517,3.517,0,0,1,.325,1.95c0,.635.325.96.325,1.611v131.86H208.1a18.056,18.056,0,0,1,18.145,17.82Zm-57.02-97.846L104.76,276.414h64.467Z" transform="translate(12.115 15.756)" fill="#fa935b"/>
    <path id="Path_7634" data-name="Path 7634" d="M347.29,175.993a92.024,92.024,0,0,0-12.678-15.367,6.5,6.5,0,0,0-.561-.547l-.163-.163c-.148-.163-.3-.325-.458-.473-.414-.443-.857-.857-1.285-1.285l-.118-.1-.443-.443a1.683,1.683,0,0,0-.163-.163c-.148-.163-.3-.325-.458-.473-.414-.443-.857-.857-1.285-1.286l-.118-.1-.443-.443-.163-.163c-.148-.163-.3-.325-.458-.473-.414-.443-.857-.857-1.286-1.286l-.118-.1-.443-.443a1.6,1.6,0,0,0-.163-.163,4.755,4.755,0,0,0-.473-.473c-.4-.458-.842-.857-1.271-1.285l-.118-.1a4.187,4.187,0,0,0-.443-.443,1.6,1.6,0,0,0-.163-.163c-13.018-13.416-29.98-22.3-49.012-22.3-25.607,0-46.647,15.234-60.271,35.95-14.259,20.686-21.691,47.652-22.016,77.44.325,29.552,7.757,56.7,22.016,77.44a96.427,96.427,0,0,0,12.545,15.2l.65.635v.074l1.153,1.153c.192.222.4.414.591.606l.65.635.074.074,1.152,1.152.591.621.65.621a.178.178,0,0,1,.074.074l1.152,1.152.591.621.65.621a.148.148,0,0,1,.074.089l1.153,1.153.606.606.635.621.089.089,1.153,1.153c12.8,12.781,29.315,21.366,48.3,21.366,24.942,0,46.322-15.559,59.946-35.979,13.919-20.686,21.706-47.948,21.706-77.426C368.967,223.631,361.209,196.739,347.29,175.993ZM305.135,298.441c-9.4,13.919-20.1,20.08-30.128,20.08a29.774,29.774,0,0,1-17.1-5.91c-.458-.591-.9-1.212-1.345-1.862-9.072-13.609-15.559-34.339-15.559-57.345,0-23.331,6.487-43.737,15.559-57.626,9.737-13.609,20.686-20.08,30.778-19.77a27.114,27.114,0,0,1,16.253,5.319c.517.694,1.02,1.374,1.478,2.1,9.072,13.934,15.544,34.339,15.544,57.626C320.679,264.057,314.207,284.818,305.135,298.441Z" transform="translate(80.604 15.775)" fill="#fa935b"/>
    <path id="Path_7635" data-name="Path 7635" d="M347.29,175.993a92.024,92.024,0,0,0-12.678-15.367,6.5,6.5,0,0,0-.561-.547l-.163-.163c-.148-.163-.3-.325-.458-.473-.414-.443-.857-.857-1.285-1.285l-.118-.1-.443-.443a1.683,1.683,0,0,0-.163-.163c-.148-.163-.3-.325-.458-.473-.414-.443-.857-.857-1.285-1.286l-.118-.1-.443-.443-.163-.163c-.148-.163-.3-.325-.458-.473-.414-.443-.857-.857-1.286-1.286l-.118-.1-.443-.443a1.6,1.6,0,0,0-.163-.163,4.755,4.755,0,0,0-.473-.473c-.4-.458-.842-.857-1.271-1.285l-.118-.1a4.187,4.187,0,0,0-.443-.443,1.6,1.6,0,0,0-.163-.163c-13.018-13.416-29.98-22.3-49.012-22.3-25.607,0-46.647,15.234-60.271,35.95-14.259,20.686-21.691,47.652-22.016,77.44.325,29.552,7.757,56.7,22.016,77.44a96.427,96.427,0,0,0,12.545,15.2l.65.635v.074l1.153,1.153c.192.222.4.414.591.606l.65.635.074.074,1.152,1.152.591.621.65.621a.178.178,0,0,1,.074.074l1.152,1.152.591.621.65.621a.148.148,0,0,1,.074.089l1.153,1.153.606.606.635.621.089.089,1.153,1.153c12.8,12.781,29.315,21.366,48.3,21.366,24.942,0,46.322-15.559,59.946-35.979,13.919-20.686,21.706-47.948,21.706-77.426C368.967,223.631,361.209,196.739,347.29,175.993ZM305.135,298.441c-9.4,13.919-20.1,20.08-30.128,20.08a29.774,29.774,0,0,1-17.1-5.91c-.458-.591-.9-1.212-1.345-1.862-9.072-13.609-15.559-34.339-15.559-57.345,0-23.331,6.487-43.737,15.559-57.626,9.737-13.609,20.686-20.08,30.778-19.77a27.114,27.114,0,0,1,16.253,5.319c.517.694,1.02,1.374,1.478,2.1,9.072,13.934,15.544,34.339,15.544,57.626C320.679,264.057,314.207,284.818,305.135,298.441Z" transform="translate(80.604 15.775)" opacity="0.1"/>
    <path id="Path_7636" data-name="Path 7636" d="M192.71,241.1c.325-29.8,7.787-56.7,22.031-77.426,13.609-20.686,34.664-35.964,60.271-35.964,24.942,0,46.322,15.234,59.931,35.964,13.934,20.686,21.706,47.623,21.706,77.426,0,29.552-7.772,56.71-21.706,77.44-13.609,20.405-34.989,35.964-59.931,35.964-25.607,0-46.662-15.559-60.271-35.964C200.526,297.81,193.035,270.593,192.71,241.1Zm127.974,0c0-23.316-6.472-43.737-15.544-57.626-9.4-13.609-20.08-20.08-30.128-19.755-10.048-.325-21.07,6.147-30.778,19.755-9.072,13.934-15.559,34.354-15.559,57.626,0,23.006,6.487,43.751,15.559,57.345,9.708,13.934,20.686,20.1,30.778,20.1s20.686-6.162,30.128-20.1C314.212,284.851,320.684,264.077,320.684,241.1Z" transform="translate(80.598 15.756)" fill="#fa935b"/>
    <path id="Path_7637" data-name="Path 7637" d="M506,293.308h0c-.384-.428-.8-.842-1.212-1.226h0c-.4-.428-.813-.827-1.226-1.212h0c-.4-.428-.8-.842-1.212-1.226h0c-.4-.428-.813-.842-1.226-1.212h0c-.4-.428-.8-.842-1.212-1.226h0c-.4-.428-.813-.842-1.226-1.212h0c-.4-.428-.813-.842-1.212-1.226h0a15.619,15.619,0,0,0-1.212-1.212h0c-.4-.428-.813-.827-1.226-1.212h0a17.362,17.362,0,0,0-4.344-3.472V156.764c0-.65-.31-.975-.31-1.625a3.473,3.473,0,0,0-.325-1.936c0-.325-.31-.975-.31-1.3a15.39,15.39,0,0,0-.665-1.95,2.5,2.5,0,0,1-.635-1.3,8.614,8.614,0,0,0-1.3-1.611c-.34-.325-.65-.96-.975-1.3l-1.3-1.3c0-.192-.251-.4-.532-.517l-.635-.65h-.074c0-.207-.236-.4-.517-.532l-.65-.635h0c0-.192-.251-.4-.532-.532l-.635-.635h0c0-.207-.251-.4-.532-.532l-.635-.65h0c0-.192-.251-.4-.532-.532l-.65-.635v-.074c0-.192-.251-.384-.532-.517l-.635-.65H477.7c0-.192-.236-.4-.517-.532l-.65-.635v-.074c0-.192-.251-.384-.532-.517l-.635-.65h-.074c0-.207-.236-.4-.517-.532l-.65-.635h0c0-.192-.251-.4-.532-.517l-.709-.709c0-.325-.635-.65-.975-.65a.325.325,0,0,0-.325-.325c-.635-.31-.975-.65-1.611-.975a19.993,19.993,0,0,1-1.611-1.3c-.325,0-.975-.31-1.3-.31-.65-.325-1.611-.325-1.95-.665a3.073,3.073,0,0,1-1.625-.31h-5.5a2.024,2.024,0,0,1-1.3.31c-.975.34-1.611.34-1.95.665-.635,0-.96.31-1.3.975a3.546,3.546,0,0,0-1.936.635c-.31.325-.975.665-1.286.975a3.472,3.472,0,0,1-1.625.975,4.7,4.7,0,0,1-.975,1.3c-.325.325-.325.635-.635.635L326.575,283.142a17.3,17.3,0,0,0,1.611,23.833,10.945,10.945,0,0,0,1.241,1.241,9.616,9.616,0,0,0,1.226,1.226,10.941,10.941,0,0,0,1.241,1.241q1.858,1.843,3.694,3.709,1.249,1.219,2.467,2.468a10.792,10.792,0,0,0,1.241,1.226,16.815,16.815,0,0,0,2.541,2.349,15.884,15.884,0,0,0,11.008,3.886h89.719V336.6a17.731,17.731,0,0,0,5.792,13.3h0c.384.428.8.827,1.2,1.2h0c.369.414.768.8,1.182,1.182h0a15.387,15.387,0,0,0,1.212,1.2h0c.384.414.768.8,1.182,1.182h0c.384.429.8.827,1.212,1.212h0c.384.414.768.813,1.182,1.182h0c.384.429.8.827,1.212,1.212h0c.384.414.768.813,1.182,1.182h0a15.45,15.45,0,0,0,1.2,1.212h0a17.894,17.894,0,0,0,31.029-12.116V324.263h3.251A17.965,17.965,0,0,0,506,293.308Zm-63.433-69.447v52.366h-42.2Z" transform="translate(142.617 15.899)" fill="#fa935b"/>
    <path id="Path_7638" data-name="Path 7638" d="M506,293.308h0c-.384-.428-.8-.842-1.212-1.226h0c-.4-.428-.813-.827-1.226-1.212h0c-.4-.428-.8-.842-1.212-1.226h0c-.4-.428-.813-.842-1.226-1.212h0c-.4-.428-.8-.842-1.212-1.226h0c-.4-.428-.813-.842-1.226-1.212h0c-.4-.428-.813-.842-1.212-1.226h0a15.619,15.619,0,0,0-1.212-1.212h0c-.4-.428-.813-.827-1.226-1.212h0a17.362,17.362,0,0,0-4.344-3.472V156.764c0-.65-.31-.975-.31-1.625a3.473,3.473,0,0,0-.325-1.936c0-.325-.31-.975-.31-1.3a15.39,15.39,0,0,0-.665-1.95,2.5,2.5,0,0,1-.635-1.3,8.614,8.614,0,0,0-1.3-1.611c-.34-.325-.65-.96-.975-1.3l-1.3-1.3c0-.192-.251-.4-.532-.517l-.635-.65h-.074c0-.207-.236-.4-.517-.532l-.65-.635h0c0-.192-.251-.4-.532-.532l-.635-.635h0c0-.207-.251-.4-.532-.532l-.635-.65h0c0-.192-.251-.4-.532-.532l-.65-.635v-.074c0-.192-.251-.384-.532-.517l-.635-.65H477.7c0-.192-.236-.4-.517-.532l-.65-.635v-.074c0-.192-.251-.384-.532-.517l-.635-.65h-.074c0-.207-.236-.4-.517-.532l-.65-.635h0c0-.192-.251-.4-.532-.517l-.709-.709c0-.325-.635-.65-.975-.65a.325.325,0,0,0-.325-.325c-.635-.31-.975-.65-1.611-.975a19.993,19.993,0,0,1-1.611-1.3c-.325,0-.975-.31-1.3-.31-.65-.325-1.611-.325-1.95-.665a3.073,3.073,0,0,1-1.625-.31h-5.5a2.024,2.024,0,0,1-1.3.31c-.975.34-1.611.34-1.95.665-.635,0-.96.31-1.3.975a3.546,3.546,0,0,0-1.936.635c-.31.325-.975.665-1.286.975a3.472,3.472,0,0,1-1.625.975,4.7,4.7,0,0,1-.975,1.3c-.325.325-.325.635-.635.635L326.575,283.142a17.3,17.3,0,0,0,1.611,23.833,10.945,10.945,0,0,0,1.241,1.241,9.616,9.616,0,0,0,1.226,1.226,10.941,10.941,0,0,0,1.241,1.241q1.858,1.843,3.694,3.709,1.249,1.219,2.467,2.468a10.792,10.792,0,0,0,1.241,1.226,16.815,16.815,0,0,0,2.541,2.349,15.884,15.884,0,0,0,11.008,3.886h89.719V336.6a17.731,17.731,0,0,0,5.792,13.3h0c.384.428.8.827,1.2,1.2h0c.369.414.768.8,1.182,1.182h0a15.387,15.387,0,0,0,1.212,1.2h0c.384.414.768.8,1.182,1.182h0c.384.429.8.827,1.212,1.212h0c.384.414.768.813,1.182,1.182h0c.384.429.8.827,1.212,1.212h0c.384.414.768.813,1.182,1.182h0a15.45,15.45,0,0,0,1.2,1.212h0a17.894,17.894,0,0,0,31.029-12.116V324.263h3.251A17.965,17.965,0,0,0,506,293.308Zm-63.433-69.447v52.366h-42.2Z" transform="translate(142.617 15.899)" opacity="0.1"/>
    <path id="Path_7639" data-name="Path 7639" d="M499.581,294.234a17.834,17.834,0,0,1-18.145,17.82H478.2v24.631a17.82,17.82,0,0,1-35.639,0V312.054H340.5a15.825,15.825,0,0,1-11.008-3.886,17.332,17.332,0,0,1-2.955-24.942L446.447,134.182c.325,0,.325-.31.65-.635a4.433,4.433,0,0,0,.975-1.3,3.473,3.473,0,0,0,1.625-.975c.325-.325.975-.65,1.3-.975a3.4,3.4,0,0,1,1.936-.65c.325-.635.65-.96,1.285-.96.325-.325.975-.325,1.95-.65a1.95,1.95,0,0,0,1.3-.325h5.511a2.852,2.852,0,0,0,1.611.325c.325.325,1.3.325,1.95.65.325,0,.975.325,1.3.325.65.635,1.286.96,1.611,1.286.65.325.975.65,1.625.975a.325.325,0,0,1,.325.325c.325,0,.96.325.96.65l1.3,1.3c.325.325.65.96.975,1.285a8.86,8.86,0,0,1,1.3,1.625,2.468,2.468,0,0,0,.65,1.3,13.288,13.288,0,0,1,.65,1.936c0,.325.31.975.31,1.3a3.517,3.517,0,0,1,.325,1.95c0,.635.325.96.325,1.611v131.86h3.236A18.056,18.056,0,0,1,499.581,294.234Zm-57.02-97.846-64.467,80.026H442.56Z" transform="translate(142.607 15.756)" fill="#fa935b"/>
    <g id="freepik--Character--inject-18" transform="translate(264.874 166.763)">
      <path id="Path_7660" data-name="Path 7660" d="M280.275,297.333a1.478,1.478,0,0,0,.96,1.611c1.551.236,3.443.488,5.541.783,6.25-13.564,12.633-24.247,10.831-20.021a76.612,76.612,0,0,0-5.364,20.775c2.438.325,8.127,1.02,10.964,1.359,6.531-24.2,13.727-41.993,12.885-36.408-3.428,22.533-2.822,29.892-2.039,37.767,26.493,3.221,61.29,7.033,86.513,9.205,4.122-13.3,7.979-27.838,8.334-26.774,2.763,7.905,2.7,19.076,2.009,27.646,8.038.635,14.48.975,18.426.975,0,0,2.955-11.259,3.487-14.983a83.142,83.142,0,0,0-.266-28.754c-1.817-9.693-5.689-18.411-9.309-27.321a1.207,1.207,0,0,0-.044-.163h0a82.748,82.748,0,0,1-5.142-18.16.37.37,0,0,1,0-.148A81.772,81.772,0,0,1,417.189,211c.325-16.815-7.211-31.931-21.528-37.4-24.454-24.986-58.04-13.52-67.526,7.61h0c-3.709,9.471-7.388,21.839-10.594,31.369h0a.1.1,0,0,1,0,.1h0a96.979,96.979,0,0,1-4.3,10.964C304.449,240.668,287.516,249.445,280.275,297.333Z" transform="translate(-142.464 -135.873)" fill="#263238"/>
      <path id="Path_7661" data-name="Path 7661" d="M362.694,172.406c9.176,6.073,14.406,14.362,14.776,26.685.236,7.181,0,14.17,2.024,21.07,2.024,7.122,5.689,13.121,9.486,19.105,6.014,9.516,9.974,18.854,9.959,30.911s-1.832,26.6-6.693,37.664c0,.074-.118,0-.089,0,4.137-11.3,5.644-27.232,4.8-39.437-.931-13.417-7.2-22.252-13.49-32.847a56.813,56.813,0,0,1-8.141-27.808c-.177-6.088.473-12.367-1.3-18.219-2.1-6.974-7.122-11.688-12.146-15.9C361.217,173.026,362,171.948,362.694,172.406Z" transform="translate(-103.602 -129.714)" fill="#263238"/>
      <path id="Path_7662" data-name="Path 7662" d="M296.559,234.293c7.654-9,15.47-16.579,20.524-28.074,4.6-10.476,7.683-21.661,12.338-32.108,0-.177.31-.089.236.1-7.388,18.618-10.225,37.738-23.139,52.912-7.033,8.245-13.993,15.855-19.046,25.976a100.225,100.225,0,0,0-9.545,33.984.274.274,0,1,1-.547,0,82.169,82.169,0,0,1,19.179-52.794Z" transform="translate(-143.839 -128.893)" fill="#263238"/>
      <path id="Path_7663" data-name="Path 7663" d="M240.088,431.838s71.323,19.209,83.114,17.14,51.6-55.646,60.433-75.076,23.508-116.094,20.686-126.733-17.583-10.786-30.039,16.638-41.9,87.71-47.15,92.674S234.34,426.7,240.088,431.838Z" transform="translate(-161.779 -97.13)" fill="#dd6a57"/>
      <path id="Path_7664" data-name="Path 7664" d="M326.783,385.333c-10.934-5.718-24.247-19.593-33.32-21.041a10.535,10.535,0,0,0-11.333,5.408s-4.167-9.265-12.619-9.22c-4.329,0-8.112,6.974-8.112,6.974s-3.679-7.284-11.171-6.782c-5.984.4-8.866,7.314-8.866,7.314s-6.767-5.349-12.737-2.955c-12.087,4.773-14.1,56.148,4.521,64.837,8.673,4.049,8.481-8.526,8.481-8.526s4.64,18.027,15.219,18.706,9.353-15.633,9.353-15.633,4.654,17.421,15.692,17.022c11.5-.4,7.477-16.519,7.477-16.519s7.3,11.732,15.677,9.486c13.845-3.694-1.034-31.5,2.1-42.688h17.391Z" transform="translate(-171.551 -39.839)" fill="#dd6a57"/>
      <path id="Path_7665" data-name="Path 7665" d="M282.631,372.875c10.831,4.521,23.183-12.574,34.324-8.6,14.451,5.157,1.093,22.991-20.8,25.887H278.76Z" transform="translate(-143.18 -38.315)" fill="#dd6a57"/>
      <path id="Path_7666" data-name="Path 7666" d="M235.038,366.293a.133.133,0,1,0-.266,0c-4.773,16.741-4.906,36.6,1.079,53.06.192.532,1.167.458,1.064-.177C233.989,400.972,232.836,384.63,235.038,366.293Z" transform="translate(-165.86 -37.126)" fill="#263238"/>
      <path id="Path_7667" data-name="Path 7667" d="M248.848,365.056a.185.185,0,0,0-.369,0c-4.832,17.288-4.433,39.644,4.773,57.818.31.621,1.226.857.916.118C249.011,410.462,246.78,381.59,248.848,365.056Z" transform="translate(-159.103 -37.736)" fill="#263238"/>
      <path id="Path_7668" data-name="Path 7668" d="M271.1,422.853c-8.082-17.731-9.663-36.3-8.54-55.6,0-.251-.34-.251-.414,0-3.118,9.294-2.541,21.661-1.285,31.251a51.272,51.272,0,0,0,9.56,24.617C270.682,423.429,271.273,423.237,271.1,422.853Z" transform="translate(-152.212 -36.695)" fill="#263238"/>
      <path id="Path_7669" data-name="Path 7669" d="M333.75,364.648c-7.092-2.364-14.377,3.31-20.346,6.487a35.462,35.462,0,0,1-6.014,2.852c-4.728,1.478-8.23.532-10.343-.783-3.31-2.113-13.638-12.427-21.1-9a15.9,15.9,0,0,0-6.383,5.423c-2.275-4.137-5.186-8.644-10.225-9.471a7.979,7.979,0,0,0-6.324,1.64,12.974,12.974,0,0,0-2.482,2.527,11.713,11.713,0,0,0-1.714,2.822.943.943,0,0,1,0-.1l-.163-.31-.31-.635a6.635,6.635,0,0,0-1.758-2.2,1.478,1.478,0,0,0-1.079-.443.118.118,0,0,0,0,.237,1.714,1.714,0,0,1,.8.783c.236.355.458.724.709,1.064s.488.694.739,1.034l.369.547.163.281a1.908,1.908,0,0,0,.236.251.222.222,0,0,0,.355,0h0a14.779,14.779,0,0,0,2.054-2.246,17.733,17.733,0,0,1,2.468-2.364,7.668,7.668,0,0,1,6.073-1.478c4.521.886,7.388,4.906,9.8,8.5h.074c-.074.118.089.222.177.133,2.482-2.172,4.846-4.61,8.274-5.112,3.694-.547,7.2,1.226,10.254,3.088a47.281,47.281,0,0,1,4.433,2.955c1.256.975,2.453,2.069,3.8,2.955,5.748,3.62,12.042.813,13.609.148a78.833,78.833,0,0,0,8.969-4.758,25.3,25.3,0,0,1,9.6-3.886,9.442,9.442,0,0,1,8.54,3.192c1.079,1.389,2.453,3.99-.369,9.915,0,0,0,.118.089.074C338.2,377.223,342.9,367.707,333.75,364.648Z" transform="translate(-159.117 -40.047)" fill="#263238"/>
      <path id="Path_7670" data-name="Path 7670" d="M369.114,338.146l-67.3-10.757s32.152-63.669,51.464-82.139c19.061-18.233,28.34.443,25.533,28.606C375.7,305.077,369.114,338.146,369.114,338.146Z" transform="translate(-132.171 -98.329)" fill="#37474f"/>
      <path id="Path_7671" data-name="Path 7671" d="M364.688,299.951c-1.891-.443-3.827-.724-5.718-1.153s-3.709-.694-5.57-.975c-3.8-.591-7.61-1.123-11.407-1.64-7.506-1.034-15.012-2.172-22.548-2.955-4.285-.473-8.54-1.123-12.84-1.478-.133,0-.148.207,0,.236,7.462,1.744,15.057,2.955,22.622,4.27s15.012,2.379,22.548,3.192c2.113.236,4.241.5,6.354.606s4.359.31,6.531.34a.222.222,0,1,0,.03-.443Z" transform="translate(-129.932 -72.664)" fill="#263238"/>
      <path id="Path_7672" data-name="Path 7672" d="M326.495,451.937H504.736S430.65,268.066,392.986,241.2c-11.3-8.068-29.315-8.969-41.461,7.225-9.959,13.3-37.6,66.122-38.861,85.124s13.653,37.782,13.653,37.782Z" transform="translate(-127.023 -99.499)" fill="#455a64"/>
      <path id="Path_7673" data-name="Path 7673" d="M361.94,297.787c.458-.118.9-.177,1.345-.266a2.675,2.675,0,0,1,3.265,2.6,2.068,2.068,0,0,0,.946,1.8,2.6,2.6,0,0,0,1.108.384,13.538,13.538,0,0,1,1.345.266c-.443.118-.887.177-1.345.266a2.631,2.631,0,0,1-1.478-.133,2.748,2.748,0,0,1-1.669-2.556,2.113,2.113,0,0,0-1.02-1.758,2.867,2.867,0,0,0-1.138-.34C362.841,297.965,362.4,297.906,361.94,297.787Z" transform="translate(-103.454 -69.939)" fill="#fff"/>
      <path id="Path_7674" data-name="Path 7674" d="M315.8,297.787c.443-.118.887-.177,1.33-.266a2.675,2.675,0,0,1,3.265,2.6,2.083,2.083,0,0,0,.96,1.8,2.468,2.468,0,0,0,1.108.384c.443.089.887.133,1.33.266-.443.118-.887.177-1.33.266a2.673,2.673,0,0,1-1.478-.133,2.793,2.793,0,0,1-1.67-2.556,2.113,2.113,0,0,0-1.02-1.758,2.793,2.793,0,0,0-1.138-.34C316.687,297.965,316.243,297.906,315.8,297.787Z" transform="translate(-125.49 -69.939)" fill="#fff"/>
      <path id="Path_7675" data-name="Path 7675" d="M378.7,357.725c.443-.118.9-.177,1.345-.266a2.689,2.689,0,0,1,3.251,2.615,2.128,2.128,0,0,0,.96,1.8,2.586,2.586,0,0,0,1.108.369c.443.089.9.148,1.345.266-.443.133-.9.192-1.345.281a2.644,2.644,0,0,1-1.478-.148,2.778,2.778,0,0,1-1.685-2.556,2.024,2.024,0,0,0-1.02-1.744,2.511,2.511,0,0,0-1.123-.34A13.836,13.836,0,0,1,378.7,357.725Z" transform="translate(-95.45 -41.31)" fill="#fff"/>
      <path id="Path_7676" data-name="Path 7676" d="M399.56,301.027c.443-.133.9-.177,1.345-.266a2.66,2.66,0,0,1,3.251,2.6,2.113,2.113,0,0,0,.96,1.8,2.351,2.351,0,0,0,1.108.369c.443.1.9.148,1.345.281-.443.118-.9.177-1.345.266a2.616,2.616,0,0,1-1.478-.133,2.778,2.778,0,0,1-1.685-2.556,2.054,2.054,0,0,0-1.019-1.758,2.719,2.719,0,0,0-1.123-.34C400.461,301.146,400,301.146,399.56,301.027Z" transform="translate(-85.487 -68.392)" fill="#fff"/>
      <path id="Path_7677" data-name="Path 7677" d="M346.23,270.536c.458-.118.9-.177,1.345-.266a2.63,2.63,0,0,1,1.478.1,2.7,2.7,0,0,1,1.758,2.512,2.158,2.158,0,0,0,.961,1.8,2.807,2.807,0,0,0,1.108.369c.458.089.9.148,1.345.266-.443.133-.887.177-1.345.281a2.778,2.778,0,0,1-1.478-.148,2.748,2.748,0,0,1-1.67-2.6,2.069,2.069,0,0,0-1.02-1.744,2.645,2.645,0,0,0-1.138-.355A7.3,7.3,0,0,1,346.23,270.536Z" transform="translate(-110.957 -82.952)" fill="#fff"/>
      <path id="Path_7678" data-name="Path 7678" d="M379.06,269.845c.443-.118.887-.177,1.345-.266a2.7,2.7,0,0,1,1.478.1,2.748,2.748,0,0,1,1.773,2.512,2.1,2.1,0,0,0,.96,1.8,2.526,2.526,0,0,0,1.108.369c.443.089.887.148,1.345.266-.458.133-.9.192-1.345.281a2.63,2.63,0,0,1-1.478-.148,2.778,2.778,0,0,1-1.685-2.556,2.054,2.054,0,0,0-1.02-1.744,2.511,2.511,0,0,0-1.123-.34A13.589,13.589,0,0,1,379.06,269.845Z" transform="translate(-95.278 -83.28)" fill="#fff"/>
      <path id="Path_7679" data-name="Path 7679" d="M357.81,238.337c.443-.118.9-.177,1.345-.266a2.66,2.66,0,0,1,3.251,2.6,2.084,2.084,0,0,0,.961,1.8,2.526,2.526,0,0,0,1.108.384c.443.089.9.133,1.345.266-.443.118-.9.177-1.345.266a2.615,2.615,0,0,1-1.478-.133,2.778,2.778,0,0,1-1.685-2.556,2.054,2.054,0,0,0-1.019-1.758,2.719,2.719,0,0,0-1.123-.34C358.711,238.515,358.253,238.456,357.81,238.337Z" transform="translate(-105.426 -98.332)" fill="#fff"/>
      <path id="Path_7680" data-name="Path 7680" d="M338.18,322.866c.443-.118.887-.177,1.33-.266a2.616,2.616,0,0,1,1.478.1,2.7,2.7,0,0,1,1.773,2.5,2.083,2.083,0,0,0,.96,1.8,2.467,2.467,0,0,0,1.108.384c.443.089.887.148,1.33.266-.443.133-.887.177-1.33.266a2.675,2.675,0,0,1-1.478-.133,2.793,2.793,0,0,1-1.67-2.556,2.113,2.113,0,0,0-1.02-1.758,2.868,2.868,0,0,0-1.138-.34A13.524,13.524,0,0,1,338.18,322.866Z" transform="translate(-114.801 -57.96)" fill="#fff"/>
      <path id="Path_7681" data-name="Path 7681" d="M374,377.8c.443-.133.9-.192,1.345-.281a2.689,2.689,0,0,1,3.251,2.615,2.128,2.128,0,0,0,.96,1.8,2.409,2.409,0,0,0,1.108.369c.443.089.9.148,1.345.266-.443.133-.9.192-1.345.281a2.645,2.645,0,0,1-1.478-.148,2.763,2.763,0,0,1-1.685-2.556,2.024,2.024,0,0,0-1.019-1.743,2.512,2.512,0,0,0-1.123-.34A13.066,13.066,0,0,1,374,377.8Z" transform="translate(-97.694 -31.73)" fill="#fff"/>
      <path id="Path_7682" data-name="Path 7682" d="M356.35,348.274c.443-.118.887-.177,1.33-.266a2.748,2.748,0,0,1,1.478.1,2.719,2.719,0,0,1,1.773,2.512,2.1,2.1,0,0,0,.96,1.8A2.453,2.453,0,0,0,363,352.8c.443.089.887.148,1.345.266-.458.133-.9.177-1.345.281a2.822,2.822,0,0,1-1.478-.148,2.793,2.793,0,0,1-1.67-2.556,2.1,2.1,0,0,0-1.02-1.744,2.351,2.351,0,0,0-1.138-.34C357.31,348.452,356.793,348.407,356.35,348.274Z" transform="translate(-106.124 -45.823)" fill="#fff"/>
      <path id="Path_7683" data-name="Path 7683" d="M323.74,353.65c.458-.133.9-.192,1.345-.281a2.689,2.689,0,0,1,3.251,2.615,2.128,2.128,0,0,0,.96,1.8,2.408,2.408,0,0,0,1.108.369c.458.089.9.148,1.345.266a13.587,13.587,0,0,1-1.345.281,2.645,2.645,0,0,1-1.478-.148A2.763,2.763,0,0,1,327.242,356a2.039,2.039,0,0,0-1-1.744,2.645,2.645,0,0,0-1.138-.34C324.641,353.827,324.2,353.768,323.74,353.65Z" transform="translate(-121.698 -43.264)" fill="#fff"/>
      <path id="Path_7684" data-name="Path 7684" d="M371.36,323.585c.443-.118.887-.177,1.33-.266a2.7,2.7,0,0,1,3.265,2.615,2.1,2.1,0,0,0,.96,1.8,2.452,2.452,0,0,0,1.108.369c.443.089.887.148,1.33.266-.443.133-.887.177-1.33.281a2.69,2.69,0,0,1-1.478-.148,2.793,2.793,0,0,1-1.67-2.556,2.1,2.1,0,0,0-1.019-1.744,2.453,2.453,0,0,0-1.138-.34C372.306,323.762,371.8,323.718,371.36,323.585Z" transform="translate(-98.955 -57.615)" fill="#fff"/>
      <path id="Path_7685" data-name="Path 7685" d="M413.05,364c.443-.118.9-.177,1.345-.266a2.63,2.63,0,0,1,1.478.1,2.7,2.7,0,0,1,1.758,2.512,2.157,2.157,0,0,0,.96,1.8,2.808,2.808,0,0,0,1.108.369c.458.089.9.148,1.345.266-.443.133-.887.177-1.345.281a2.689,2.689,0,0,1-3.177-2.7,2.024,2.024,0,0,0-1.02-1.744,2.511,2.511,0,0,0-1.123-.355A11.162,11.162,0,0,1,413.05,364Z" transform="translate(-79.044 -38.316)" fill="#fff"/>
      <path id="Path_7686" data-name="Path 7686" d="M396.5,339.325c.443-.118.9-.177,1.345-.266a2.689,2.689,0,0,1,3.251,2.615,2.1,2.1,0,0,0,.96,1.8,2.35,2.35,0,0,0,1.108.369c.443.089.9.148,1.345.266-.443.133-.9.192-1.345.281a2.63,2.63,0,0,1-1.478-.148A2.763,2.763,0,0,1,400,341.689a2.024,2.024,0,0,0-1.019-1.744,2.511,2.511,0,0,0-1.123-.34A13.824,13.824,0,0,1,396.5,339.325Z" transform="translate(-86.948 -50.098)" fill="#fff"/>
      <path id="Path_7687" data-name="Path 7687" d="M431.68,375.275c.458-.118.9-.177,1.345-.266a2.689,2.689,0,0,1,3.251,2.615,2.128,2.128,0,0,0,.96,1.8,2.408,2.408,0,0,0,1.108.369c.458.089.9.148,1.345.266a13.565,13.565,0,0,1-1.345.281,2.645,2.645,0,0,1-1.477-.148,2.734,2.734,0,0,1-1.67-2.556,2.1,2.1,0,0,0-1.02-1.744,2.645,2.645,0,0,0-1.138-.34C432.581,375.467,432.153,375.408,431.68,375.275Z" transform="translate(-70.147 -32.929)" fill="#fff"/>
      <path id="Path_7688" data-name="Path 7688" d="M351.923,287.464c-.222.4-.5.754-.754,1.138a2.674,2.674,0,0,1-4.152.458,2.068,2.068,0,0,0-1.95-.591,2.481,2.481,0,0,0-1.049.517,12.671,12.671,0,0,1-1.138.754c.236-.4.5-.754.754-1.138a2.7,2.7,0,0,1,1.167-.96,2.749,2.749,0,0,1,2.955.621,2.083,2.083,0,0,0,1.965.517,2.571,2.571,0,0,0,1.034-.562A13.567,13.567,0,0,0,351.923,287.464Z" transform="translate(-112.557 -74.717)" fill="#fff"/>
      <path id="Path_7689" data-name="Path 7689" d="M339.853,267.214c-.222.4-.5.754-.754,1.138a2.674,2.674,0,0,1-4.152.458,2.054,2.054,0,0,0-1.95-.591,2.483,2.483,0,0,0-1.049.517,12.663,12.663,0,0,1-1.138.754c.236-.4.5-.754.754-1.138a2.7,2.7,0,0,1,1.167-.96,2.748,2.748,0,0,1,2.955.621,2.069,2.069,0,0,0,1.965.517,2.571,2.571,0,0,0,1.034-.561C339.1,267.717,339.454,267.436,339.853,267.214Z" transform="translate(-118.321 -84.388)" fill="#fff"/>
      <path id="Path_7690" data-name="Path 7690" d="M400.9,322.712c-.236.414-.5.768-.754,1.138a2.778,2.778,0,0,1-1.138.99,2.7,2.7,0,0,1-2.955-.532,2.113,2.113,0,0,0-1.95-.591,2.5,2.5,0,0,0-1.049.517c-.384.251-.739.532-1.138.754.222-.4.5-.754.754-1.138a2.66,2.66,0,0,1,1.153-.96,2.793,2.793,0,0,1,2.955.621,2.039,2.039,0,0,0,1.95.517,2.658,2.658,0,0,0,1.049-.547C400.194,323.229,400.549,322.948,400.9,322.712Z" transform="translate(-89.136 -57.88)" fill="#fff"/>
      <path id="Path_7691" data-name="Path 7691" d="M370.383,257.084c-.222.4-.5.754-.754,1.138a2.719,2.719,0,0,1-1.123.975,2.748,2.748,0,0,1-3.029-.517,2.113,2.113,0,0,0-1.951-.606,2.571,2.571,0,0,0-1.049.517c-.384.251-.739.532-1.138.768.222-.414.5-.768.754-1.152a2.571,2.571,0,0,1,1.167-.946,2.749,2.749,0,0,1,2.955.621,2.128,2.128,0,0,0,2.009.562,2.764,2.764,0,0,0,1.034-.561C369.7,257.587,369.984,257.306,370.383,257.084Z" transform="translate(-103.74 -89.226)" fill="#fff"/>
      <path id="Path_7692" data-name="Path 7692" d="M349.2,242.124c-.222.4-.5.754-.754,1.138a2.837,2.837,0,0,1-1.123.99,2.748,2.748,0,0,1-3.029-.532,2.069,2.069,0,0,0-1.951-.591,2.408,2.408,0,0,0-1.049.517c-.384.251-.739.532-1.138.754.222-.4.5-.754.754-1.138a2.615,2.615,0,0,1,1.167-.96,2.748,2.748,0,0,1,2.955.621,2.054,2.054,0,0,0,1.965.517,2.571,2.571,0,0,0,1.034-.561C348.449,242.627,348.789,242.346,349.2,242.124Z" transform="translate(-113.856 -96.371)" fill="#fff"/>
      <path id="Path_7693" data-name="Path 7693" d="M367.92,276.12c.133.443.177.9.281,1.345a2.955,2.955,0,0,1-.1,1.478,2.734,2.734,0,0,1-2.512,1.758,2.113,2.113,0,0,0-1.8.96,2.35,2.35,0,0,0-.369,1.108c-.1.443-.148.9-.281,1.345-.118-.443-.177-.9-.266-1.345a2.511,2.511,0,0,1,.148-1.478,2.748,2.748,0,0,1,2.556-1.684,2.039,2.039,0,0,0,1.744-1.02,2.719,2.719,0,0,0,.34-1.123C367.742,277.021,367.8,276.563,367.92,276.12Z" transform="translate(-103.036 -80.128)" fill="#fff"/>
      <path id="Path_7694" data-name="Path 7694" d="M360.713,329.39c.118.443.177.9.266,1.345a2.689,2.689,0,0,1-2.615,3.251,2.1,2.1,0,0,0-1.8.961,2.526,2.526,0,0,0-.369,1.108c-.089.443-.148.9-.266,1.345-.133-.443-.192-.9-.281-1.345a2.629,2.629,0,0,1,.148-1.478,2.778,2.778,0,0,1,2.556-1.685,2.024,2.024,0,0,0,1.744-1.019,2.512,2.512,0,0,0,.34-1.123C360.521,330.291,360.624,329.833,360.713,329.39Z" transform="translate(-106.482 -54.687)" fill="#fff"/>
      <path id="Path_7695" data-name="Path 7695" d="M430.647,354.07c.133.443.192.887.281,1.33a2.7,2.7,0,0,1-2.615,3.265,2.1,2.1,0,0,0-1.8.96,2.291,2.291,0,0,0-.369,1.108c-.089.443-.148.887-.266,1.33-.133-.443-.192-.887-.281-1.33a2.69,2.69,0,0,1,.148-1.478,2.778,2.778,0,0,1,2.556-1.67,2.1,2.1,0,0,0,1.744-1.019,2.644,2.644,0,0,0,.34-1.138C430.485,354.957,430.544,354.513,430.647,354.07Z" transform="translate(-73.074 -42.901)" fill="#fff"/>
      <path id="Path_7696" data-name="Path 7696" d="M398.253,283.5c.118.443.177.887.266,1.345a2.7,2.7,0,0,1-.1,1.478A2.748,2.748,0,0,1,395.9,288.1a2.1,2.1,0,0,0-1.8.96,2.526,2.526,0,0,0-.369,1.108c-.089.443-.148.887-.266,1.345-.133-.458-.177-.9-.281-1.345a2.689,2.689,0,0,1,2.7-3.177,2.054,2.054,0,0,0,1.744-1.019,2.35,2.35,0,0,0,.34-1.123C398.075,284.387,398.12,283.943,398.253,283.5Z" transform="translate(-88.553 -76.604)" fill="#fff"/>
      <path id="Path_7697" data-name="Path 7697" d="M398.251,369c.118.443.177.887.266,1.33A2.7,2.7,0,0,1,395.9,373.6a2.1,2.1,0,0,0-1.8.96,2.453,2.453,0,0,0-.369,1.108c-.089.443-.148.887-.266,1.33-.133-.443-.177-.887-.281-1.33a2.822,2.822,0,0,1,.148-1.478,2.793,2.793,0,0,1,2.556-1.67,2.1,2.1,0,0,0,1.743-1.02,2.349,2.349,0,0,0,.34-1.138C398.073,369.931,398.118,369.488,398.251,369Z" transform="translate(-88.552 -35.77)" fill="#fff"/>
      <path id="Path_7698" data-name="Path 7698" d="M414.7,320.05c.133.443.177.9.266,1.345a2.66,2.66,0,0,1-2.6,3.251,2.113,2.113,0,0,0-1.8.96,2.35,2.35,0,0,0-.369,1.108c-.1.443-.148.9-.281,1.345-.118-.443-.177-.9-.266-1.345a2.512,2.512,0,0,1,.148-1.478,2.748,2.748,0,0,1,2.542-1.684,2.054,2.054,0,0,0,1.758-1.02,2.718,2.718,0,0,0,.34-1.123C414.522,320.951,414.626,320.493,414.7,320.05Z" transform="translate(-80.694 -59.148)" fill="#fff"/>
      <path id="Path_7699" data-name="Path 7699" d="M331.339,331.3c.133.443.177.887.266,1.33A2.674,2.674,0,0,1,329,335.9a2.083,2.083,0,0,0-1.8.96,2.291,2.291,0,0,0-.369,1.108c-.1.443-.148.887-.281,1.33-.118-.443-.177-.887-.266-1.33a2.571,2.571,0,0,1,.148-1.478,2.748,2.748,0,0,1,2.542-1.67,2.113,2.113,0,0,0,1.758-1.02,2.721,2.721,0,0,0,.34-1.138C331.162,332.187,331.221,331.743,331.339,331.3Z" transform="translate(-120.505 -53.775)" fill="#fff"/>
      <path id="Path_7700" data-name="Path 7700" d="M332.96,283.5a13.52,13.52,0,0,1,.266,1.345,2.69,2.69,0,0,1-.089,1.478,2.748,2.748,0,0,1-2.512,1.773,2.083,2.083,0,0,0-1.8.96,2.35,2.35,0,0,0-.369,1.108c-.1.443-.148.887-.281,1.345-.118-.458-.177-.9-.266-1.345a2.615,2.615,0,0,1,.133-1.478A2.778,2.778,0,0,1,330.6,287a2.083,2.083,0,0,0,1.758-1.019,2.719,2.719,0,0,0,.34-1.123C332.783,284.387,332.842,283.943,332.96,283.5Z" transform="translate(-119.732 -76.604)" fill="#fff"/>
      <path id="Path_7701" data-name="Path 7701" d="M350.4,252.43c.118.443.177.887.266,1.345a2.7,2.7,0,0,1-.1,1.478,2.748,2.748,0,0,1-2.512,1.773,2.1,2.1,0,0,0-1.8.96,2.526,2.526,0,0,0-.369,1.108c-.089.443-.148.887-.266,1.345-.133-.458-.177-.9-.281-1.345a2.689,2.689,0,0,1,.148-1.478,2.793,2.793,0,0,1,2.556-1.67,2.054,2.054,0,0,0,1.744-1.02,2.349,2.349,0,0,0,.34-1.123A14.025,14.025,0,0,1,350.4,252.43Z" transform="translate(-111.405 -91.443)" fill="#fff"/>
      <path id="Path_7702" data-name="Path 7702" d="M345.722,300.46c.118.458.177.9.266,1.345a2.7,2.7,0,0,1-2.615,3.265,2.1,2.1,0,0,0-1.8.961,2.452,2.452,0,0,0-.369,1.108c-.089.443-.148.887-.266,1.33-.133-.443-.192-.887-.281-1.33a2.689,2.689,0,0,1,.148-1.478,2.793,2.793,0,0,1,2.556-1.67,2.1,2.1,0,0,0,1.744-1.02,2.645,2.645,0,0,0,.34-1.138C345.53,301.361,345.619,300.918,345.722,300.46Z" transform="translate(-113.641 -68.504)" fill="#fff"/>
      <path id="Path_7703" data-name="Path 7703" d="M387.753,306.92c.118.443.177.9.266,1.345a2.689,2.689,0,0,1-2.615,3.251,2.128,2.128,0,0,0-1.8.96,2.584,2.584,0,0,0-.369,1.108c-.089.443-.148.9-.266,1.345-.133-.443-.177-.9-.281-1.345a2.646,2.646,0,0,1,.148-1.478,2.778,2.778,0,0,1,2.556-1.685,2.024,2.024,0,0,0,1.744-1.02,2.35,2.35,0,0,0,.34-1.123C387.6,307.821,387.6,307.363,387.753,306.92Z" transform="translate(-93.568 -65.419)" fill="#fff"/>
      <path id="Path_7704" data-name="Path 7704" d="M348.9,360.86c.118.458.177.9.266,1.345a2.674,2.674,0,0,1-2.6,3.265,2.054,2.054,0,0,0-1.8.96,2.468,2.468,0,0,0-.384,1.093,13.509,13.509,0,0,1-.266,1.345c-.118-.443-.177-.887-.266-1.345a2.629,2.629,0,0,1,.133-1.478,2.748,2.748,0,0,1,2.556-1.67,2.113,2.113,0,0,0,1.758-1.02,2.867,2.867,0,0,0,.34-1.138C348.722,361.761,348.781,361.318,348.9,360.86Z" transform="translate(-112.119 -39.658)" fill="#fff"/>
      <path id="Path_7705" data-name="Path 7705" d="M378.89,292.426c.236-.4.517-.754.768-1.138a2.614,2.614,0,0,1,1.123-.975,2.719,2.719,0,0,1,2.955.517,2.142,2.142,0,0,0,1.965.606,2.527,2.527,0,0,0,1.034-.517c.384-.266.739-.532,1.153-.768-.236.414-.517.768-.768,1.153a2.631,2.631,0,0,1-1.153.946,2.778,2.778,0,0,1-2.955-.621,2.1,2.1,0,0,0-1.95-.517,2.762,2.762,0,0,0-1.034.561A12.656,12.656,0,0,1,378.89,292.426Z" transform="translate(-95.359 -73.458)" fill="#fff"/>
      <path id="Path_7706" data-name="Path 7706" d="M354.38,314.65c.222-.4.5-.754.754-1.138a2.674,2.674,0,0,1,4.152-.458,2.054,2.054,0,0,0,1.951.591,2.483,2.483,0,0,0,1.049-.517,12.637,12.637,0,0,1,1.138-.754c-.236.4-.5.754-.754,1.138a2.689,2.689,0,0,1-4.167.34,2.054,2.054,0,0,0-1.95-.517,2.762,2.762,0,0,0-1.034.561C355.134,314.147,354.779,314.428,354.38,314.65Z" transform="translate(-107.064 -62.864)" fill="#fff"/>
      <path id="Path_7707" data-name="Path 7707" d="M337.76,347.37c.236-.414.517-.768.768-1.138a2.674,2.674,0,0,1,4.152-.458,2.1,2.1,0,0,0,1.95.591,2.482,2.482,0,0,0,1.049-.517,12.645,12.645,0,0,1,1.138-.754c-.236.4-.5.754-.754,1.138a2.674,2.674,0,0,1-4.152.34,2.069,2.069,0,0,0-1.965-.517,2.526,2.526,0,0,0-1.034.547C338.528,346.867,338.115,347.133,337.76,347.37Z" transform="translate(-115.002 -47.238)" fill="#fff"/>
      <path id="Path_7708" data-name="Path 7708" d="M344.94,381.344c.236-.4.517-.754.768-1.138a2.615,2.615,0,0,1,1.123-.975,2.749,2.749,0,0,1,2.955.517,2.1,2.1,0,0,0,1.95.606,2.526,2.526,0,0,0,1.049-.532c.369-.251.724-.517,1.138-.754-.236.414-.5.768-.754,1.138a2.689,2.689,0,0,1-1.167.96,2.778,2.778,0,0,1-2.955-.621,2.1,2.1,0,0,0-1.951-.517,2.764,2.764,0,0,0-1.034.562A10.589,10.589,0,0,1,344.94,381.344Z" transform="translate(-111.573 -30.989)" fill="#fff"/>
      <path id="Path_7709" data-name="Path 7709" d="M377.09,343.992c.222-.4.5-.754.754-1.138a2.719,2.719,0,0,1,1.123-.975A2.748,2.748,0,0,1,382,342.4a2.1,2.1,0,0,0,1.95.606,2.676,2.676,0,0,0,1.049-.517c.369-.251.724-.532,1.138-.768-.236.414-.5.768-.754,1.153a2.571,2.571,0,0,1-1.167.946,2.748,2.748,0,0,1-2.955-.621,2.128,2.128,0,0,0-1.965-.517,2.763,2.763,0,0,0-1.034.561C377.844,343.489,377.489,343.77,377.09,343.992Z" transform="translate(-96.218 -48.839)" fill="#fff"/>
      <path id="Path_7710" data-name="Path 7710" d="M399.21,357.525c.222-.4.5-.754.754-1.138a2.807,2.807,0,0,1,1.123-.975,2.749,2.749,0,0,1,2.955.517,2.113,2.113,0,0,0,1.95.606,2.571,2.571,0,0,0,1.049-.517c.384-.251.739-.532,1.138-.768-.222.414-.5.768-.754,1.153a2.5,2.5,0,0,1-1.167.946,2.748,2.748,0,0,1-2.955-.621,2.128,2.128,0,0,0-1.965-.517,2.762,2.762,0,0,0-1.034.561A10.161,10.161,0,0,1,399.21,357.525Z" transform="translate(-85.654 -42.366)" fill="#fff"/>
      <path id="Path_7711" data-name="Path 7711" d="M362,367.812c.222-.4.5-.754.754-1.138a2.615,2.615,0,0,1,1.123-.975,2.749,2.749,0,0,1,3.029.517,2.1,2.1,0,0,0,1.95.606,2.526,2.526,0,0,0,1.049-.532c.369-.251.724-.517,1.138-.754-.236.414-.5.768-.754,1.138a2.6,2.6,0,0,1-1.167.96,2.748,2.748,0,0,1-2.955-.621,2.128,2.128,0,0,0-1.965-.517,2.765,2.765,0,0,0-1.034.562C362.754,367.309,362.4,367.59,362,367.812Z" transform="translate(-103.425 -37.463)" fill="#fff"/>
      <path id="Path_7712" data-name="Path 7712" d="M410,381.352c.236-.4.5-.754.754-1.138a2.7,2.7,0,0,1,1.123-.975,2.748,2.748,0,0,1,3.029.517,2.113,2.113,0,0,0,1.95.606,2.57,2.57,0,0,0,1.049-.517c.384-.266.739-.532,1.138-.768-.222.414-.5.768-.754,1.153a2.631,2.631,0,0,1-1.153.946,2.763,2.763,0,0,1-2.955-.621,2.113,2.113,0,0,0-1.95-.517,2.7,2.7,0,0,0-1.049.561C410.739,380.849,410.384,381.13,410,381.352Z" transform="translate(-80.501 -30.997)" fill="#fff"/>
      <path id="Path_7713" data-name="Path 7713" d="M415.41,344.766c.222-.414.5-.768.754-1.152a2.808,2.808,0,0,1,1.123-.975,2.748,2.748,0,0,1,3.029.517,2.113,2.113,0,0,0,1.95.606,2.572,2.572,0,0,0,1.049-.517c.384-.251.739-.532,1.138-.768-.222.414-.5.768-.754,1.152a2.5,2.5,0,0,1-1.167.946,2.748,2.748,0,0,1-2.955-.621,2.113,2.113,0,0,0-1.95-.517,2.7,2.7,0,0,0-1.049.561C416.164,344.264,415.809,344.545,415.41,344.766Z" transform="translate(-77.917 -48.476)" fill="#fff"/>
      <path id="Path_7714" data-name="Path 7714" d="M327.75,372.506c.236-.414.5-.768.754-1.153a2.808,2.808,0,0,1,1.123-.975,2.748,2.748,0,0,1,3.029.517,2.113,2.113,0,0,0,1.95.606,2.57,2.57,0,0,0,1.049-.517c.384-.251.739-.532,1.138-.768-.222.414-.5.768-.754,1.152a2.542,2.542,0,0,1-1.153.946,2.763,2.763,0,0,1-2.955-.621,2.069,2.069,0,0,0-1.95-.5,2.482,2.482,0,0,0-1.049.547C328.5,371.989,328.119,372.27,327.75,372.506Z" transform="translate(-119.783 -35.228)" fill="#fff"/>
      <path id="Path_7715" data-name="Path 7715" d="M325,315.415c.222-.4.5-.754.754-1.138a2.838,2.838,0,0,1,1.123-.99,2.748,2.748,0,0,1,3.029.532,2.069,2.069,0,0,0,1.95.591,2.245,2.245,0,0,0,1.049-.517c.384-.251.739-.532,1.138-.754a12.642,12.642,0,0,1-.754,1.138,2.66,2.66,0,0,1-1.152.961,2.763,2.763,0,0,1-2.955-.621,2.069,2.069,0,0,0-1.95-.517,2.7,2.7,0,0,0-1.049.561C325.768,314.913,325.414,315.193,325,315.415Z" transform="translate(-121.096 -62.492)" fill="#fff"/>
      <path id="Path_7716" data-name="Path 7716" d="M369.465,253.6c-.547,2.763-13.018,20.952-25.547,20.79-4.078-.074-4.728-22.356-4.728-22.356l-.429-1.625-5.91-22.873,26.493-18.278,3.842-2.423s1.2,6.368,2.63,14.3a8.315,8.315,0,0,0,.192,1.138c.059.4.192.857.251,1.285.236,1.182.458,2.394.665,3.605.163.916.31,1.8.443,2.778s.281,1.921.443,2.955a152.2,152.2,0,0,1,1.655,20.7Z" transform="translate(-117.347 -113.221)" fill="#dd6a57"/>
      <path id="Path_7717" data-name="Path 7717" d="M365.815,221.133A47.445,47.445,0,0,1,338.76,250.4l-5.91-22.873,26.493-18.278,3.842-2.423S364.382,213.2,365.815,221.133Z" transform="translate(-117.347 -113.221)" fill="#263238"/>
      <path id="Path_7718" data-name="Path 7718" d="M310.881,214.174c-1.093,41.461,23.641,46.8,32.507,47.017,8.112.207,35.772-.118,41.151-41.239s-13.564-54.671-32.093-56.148S311.975,172.713,310.881,214.174Z" transform="translate(-127.856 -133.833)" fill="#dd6a57"/>
      <path id="Path_7719" data-name="Path 7719" d="M315.711,190.876c.975-.163,1.832-.458,2.778-.709a4.729,4.729,0,0,0,2.689-1.271,1.478,1.478,0,0,0-.074-1.8,3.679,3.679,0,0,0-3.65-.694,5.349,5.349,0,0,0-3.28,2.039,1.581,1.581,0,0,0,1.537,2.438Z" transform="translate(-126.391 -123.08)" fill="#263238"/>
      <path id="Path_7720" data-name="Path 7720" d="M335.819,194.892a25.832,25.832,0,0,1-2.837-.473,4.64,4.64,0,0,1-2.778-1.02,1.478,1.478,0,0,1-.089-1.8,3.679,3.679,0,0,1,3.576-1.02,5.349,5.349,0,0,1,3.443,1.758,1.566,1.566,0,0,1-1.315,2.556Z" transform="translate(-118.779 -121.038)" fill="#263238"/>
      <path id="Path_7721" data-name="Path 7721" d="M320.109,198.5c0-.1-.207.148-.207.266.281,2.807.133,6.073-2.349,7.181-.089,0,0,.177,0,.163C320.656,205.457,320.818,201.113,320.109,198.5Z" transform="translate(-124.672 -117.212)" fill="#263238"/>
      <path id="Path_7722" data-name="Path 7722" d="M318.506,196.61c-4.551,0-4.3,9.072-.074,9.117S322.3,196.654,318.506,196.61Z" transform="translate(-125.787 -118.101)" fill="#263238"/>
      <path id="Path_7723" data-name="Path 7723" d="M317.717,197.177c-.709.5-1.389,1.389-2.261,1.478s-1.758-.872-2.423-1.8c0-.089-.133,0-.133.1,0,1.744.635,3.546,2.3,3.827s2.615-1.256,2.955-2.955C318.264,197.458,318,196.97,317.717,197.177Z" transform="translate(-126.875 -118.003)" fill="#263238"/>
      <path id="Path_7724" data-name="Path 7724" d="M333.611,214.833a4.578,4.578,0,0,1-2.438,1.581,7.477,7.477,0,0,1-2.955-.827.1.1,0,0,0-.133.148,3.8,3.8,0,0,0,3.546,1.655,2.955,2.955,0,0,0,2.305-2.423C333.877,214.8,333.715,214.745,333.611,214.833Z" transform="translate(-119.63 -109.418)" fill="#263238"/>
      <path id="Path_7725" data-name="Path 7725" d="M323.765,216.01s-.325,4.226-.222,6.206a40.927,40.927,0,0,1,11.525,1c.887.236.827-.488-.177-1.02a16.9,16.9,0,0,0-9.737-1.8c-.177-.547.635-6.5.325-6.5a17.332,17.332,0,0,0-4.433,1.271c.443-8.866,2.3-17.495,2.615-26.286a.266.266,0,0,0-.517-.1c-2.6,8.969-3.339,19.105-4.034,28.207C319.022,218.108,323,216.394,323.765,216.01Z" transform="translate(-123.909 -121.928)" fill="#263238"/>
      <path id="Path_7726" data-name="Path 7726" d="M339.044,198.791a9.013,9.013,0,0,0-5.216-.414,7.389,7.389,0,0,0-2.6,1.153,6.709,6.709,0,0,0-1.936,2.275l-.872,1.611,1.788-.192a17.95,17.95,0,0,1,3.783,0,7.742,7.742,0,0,1,3.664,1.3,5.659,5.659,0,0,0-3.339-2.7,10.58,10.58,0,0,0-4.315-.488l.916,1.478a6.59,6.59,0,0,1,3.339-2.793A19.917,19.917,0,0,1,339.044,198.791Z" transform="translate(-119.463 -117.357)" fill="#263238"/>
      <path id="Path_7727" data-name="Path 7727" d="M333.926,205.074A14.923,14.923,0,0,1,330.1,203.6c-.281-.177-1.359-.99-1.3-1.226a8.4,8.4,0,0,1,.709-1.98,5.467,5.467,0,0,0-1.108,1.921,2.734,2.734,0,0,0,1.389,1.847A7.935,7.935,0,0,0,333.926,205.074Z" transform="translate(-119.472 -116.296)" fill="#263238"/>
      <path id="Path_7728" data-name="Path 7728" d="M325.5,211.312s2.571,3.694,5.526,4.137c3.4.532,3.8-2.527,0-4.27C329.105,210.278,325.5,211.312,325.5,211.312Z" transform="translate(-120.857 -111.32)" fill="#263238"/>
      <path id="Path_7729" data-name="Path 7729" d="M330.333,215.012a6.885,6.885,0,0,1-3.413-1.817c.709-1.049,2.335-2.216,5.984-.251C333.436,214.185,332.491,215.278,330.333,215.012Z" transform="translate(-120.179 -110.808)" fill="#ff99ba"/>
      <path id="Path_7730" data-name="Path 7730" d="M383.723,221.633c-6.826.857-9.1-13.431-9.1-13.431s-13.919.709-19.489-19.09a30.9,30.9,0,0,0,6.974,16.253s-24.69-1.478-36.024-21.469c0,0,4.64,10.269,8.688,13.8,0,0-10.447-2.364-15.869-10.491,0,0-3.724,12.072-6.871,15.515,0,0-1.079-43.013,38.949-40.382,0,0,25,.443,34.915,19.741S383.723,221.633,383.723,221.633Z" transform="translate(-127.291 -134.525)" fill="#263238"/>
      <path id="Path_7731" data-name="Path 7731" d="M356.755,207.344s8.26-13.461,14.318-10.594.384,22.016-6.339,24.986a7,7,0,0,1-9.6-3.192Z" transform="translate(-106.706 -118.226)" fill="#dd6a57"/>
      <path id="Path_7732" data-name="Path 7732" d="M368.106,200.31c.1,0,.133.133,0,.177-4.714,2.246-6.974,6.871-8.481,11.629,1.33-1.877,3.221-2.955,5.718-1.478.133.074,0,.281-.118.266a4.285,4.285,0,0,0-4.64,1.788,19.679,19.679,0,0,0-2.039,3.96c-.207.443-.99.266-.857-.236a.281.281,0,0,1,0-.118C357.275,210.2,361.531,201.33,368.106,200.31Z" transform="translate(-105.497 -116.334)" fill="#263238"/>
      <path id="Path_7733" data-name="Path 7733" d="M359,212.73a1.921,1.921,0,1,0,.483-1.4,1.936,1.936,0,0,0-.483,1.4Z" transform="translate(-104.859 -111.378)" fill="#fff"/>
      <path id="Path_7734" data-name="Path 7734" d="M362.141,210.321a1.241,1.241,0,1,0,1.167-1.3,1.226,1.226,0,0,0-1.167,1.3Z" transform="translate(-103.359 -112.175)" fill="#fff"/>
      <rect id="Rectangle_27026" data-name="Rectangle 27026" width="22.031" height="68.205" transform="matrix(0.974, -0.226, 0.226, 0.974, 102.865, 183.773)" fill="#ebebeb"/>
      <path id="Path_7735" data-name="Path 7735" d="M259.017,145.919A93.088,93.088,0,1,0,370.8,215.573a93.088,93.088,0,0,0-111.78-69.654Zm37.708,162.343a73.525,73.525,0,1,1,54.966-88.227,73.525,73.525,0,0,1-54.966,88.227Z" transform="translate(-187.002 -143.477)" fill="#a6a6a6"/>
      <rect id="Rectangle_27027" data-name="Rectangle 27027" width="33.305" height="99.87" rx="6.27" transform="matrix(0.974, -0.226, 0.226, 0.974, 108.231, 231.864)" fill="#263238"/>
      <g id="Group_15222" data-name="Group 15222" transform="translate(19.553 19.607)" opacity="0.3">
        <path id="Path_7736" data-name="Path 7736" d="M345.371,213.668a73.51,73.51,0,1,1-88.242-55A73.51,73.51,0,0,1,345.371,213.668Z" transform="translate(-200.235 -156.747)" fill="#fff"/>
        <path id="Path_7737" data-name="Path 7737" d="M324.515,209.29a73.554,73.554,0,0,1-76.835,69.358Z" transform="translate(-177.576 -131.653)" fill="#ebebeb"/>
        <path id="Path_7738" data-name="Path 7738" d="M313.337,168.306,208.089,263.3a73.1,73.1,0,0,1-5.91-16.416,72.123,72.123,0,0,1-1.832-19.9l77.706-70.141A73.421,73.421,0,0,1,313.337,168.306Z" transform="translate(-200.221 -156.702)" fill="#ebebeb"/>
        <path id="Path_7739" data-name="Path 7739" d="M333.52,194.751,233.266,285.223a73.423,73.423,0,0,1-12.456-7.284L327.566,181.6A71.117,71.117,0,0,1,333.52,194.751Z" transform="translate(-190.409 -144.877)" fill="#ebebeb"/>
        <path id="Path_7740" data-name="Path 7740" d="M317.726,169.2,209.478,266.873c-.5-.739-1-1.478-1.478-2.231L315.628,167.52A23.257,23.257,0,0,1,317.726,169.2Z" transform="translate(-196.527 -151.602)" fill="#ebebeb"/>
        <path id="Path_7741" data-name="Path 7741" d="M251.842,158.68,203.82,202c.813-2.054,1.729-4.063,2.734-6.014l39.053-35.255C247.63,159.98,249.714,159.286,251.842,158.68Z" transform="translate(-198.523 -155.823)" fill="#ebebeb"/>
      </g>
      <path id="Path_7742" data-name="Path 7742" d="M218.5,238.9a2.09,2.09,0,0,1,0-.3c-.266-1.478.192,1.4,0,.443a32.048,32.048,0,0,1-.384-3.413,71.431,71.431,0,0,1,0-12.057c0-.576.1-1.138.148-1.7,0-.177-.163,1.33,0,.133l.133-1.034c.177-1.33.4-2.66.665-3.975a65.684,65.684,0,0,1,2.261-8.555c.222-.665.473-1.33.709-1.995.31-.9-.414.99.074-.192l.488-1.167c.635-1.478,1.33-2.955,2.069-4.433s1.7-3.059,2.63-4.521c.443-.68.887-1.345,1.345-2.01.783-1.138-.369.458.236-.34l.872-1.153a67.734,67.734,0,0,1,8.984-9.309s.68-.547.177-.133.266-.222.355-.3l1.478-1.167c.99-.739,1.995-1.478,3.029-2.128a76.528,76.528,0,0,1,6.708-4,5.551,5.551,0,1,0-5.91-9.4c-14.6,7.787-26.6,20.08-32.625,35.58a76.377,76.377,0,0,0-5.1,32.788,54.877,54.877,0,0,0,.946,7.388,5.556,5.556,0,0,0,6.886,3.738,5.718,5.718,0,0,0,3.738-6.9Z" transform="translate(-177.603 -133.029)" fill="#fff"/>
      <path id="Path_7743" data-name="Path 7743" d="M221.443,227.029a5.423,5.423,0,1,1-2.621-3.241,5.438,5.438,0,0,1,2.621,3.241Z" transform="translate(-175.641 -105.434)" fill="#fff"/>
      <path id="Path_7744" data-name="Path 7744" d="M416.663,265.537c13.3,48.081,19.681,96.353,12.323,121.251-4.7,15.869-16.032,26.6-23.242,30.143-16.859,8.334-72.786-3.487-109.223-10.816-8.954-1.8,12.161-73.953,21.159-70.126,13.3,5.63,54.006,13.224,55.129,13.594,2.408.827,7.388-51.346,10.9-81.932C388.574,225.036,408.994,237.773,416.663,265.537Z" transform="translate(-135.732 -97.353)" fill="#dd6a57"/>
      <path id="Path_7745" data-name="Path 7745" d="M250.675,298.67c-3.96,6.457,1.182,12.367,1.182,12.367A16.136,16.136,0,0,0,244.292,319c-2.379,6.206,6.309,12.663,6.309,12.663a19.815,19.815,0,0,0-6.634,9.663c-1.684,6.176,6.162,13.934,6.162,13.934a17.45,17.45,0,0,0-.488,12.175c3.916,10.506,20.686,13.948,31.325,16.253s42.968-1.182,49.2-1.212l15.293-68.161s-44.786-23.863-57.626-24.779C276.917,288.8,255.122,291.43,250.675,298.67Z" transform="translate(-159.91 -73.777)" fill="#dd6a57"/>
      <path id="Path_7746" data-name="Path 7746" d="M249.777,303.673c11.821-1.936,23.435-.31,35.181.65a.207.207,0,1,1,0,.414c-11.688-1.093-23.435.133-35.122-.488a.3.3,0,0,1-.059-.576Z" transform="translate(-157.121 -67.402)" fill="#263238"/>
      <path id="Path_7747" data-name="Path 7747" d="M248.768,317.464a30.511,30.511,0,0,1,8.1.517q4.27.561,8.526,1.271,8.526,1.478,16.963,3.265c.251,0,.236.443,0,.4-5.674-.931-11.348-1.773-17.037-2.468-2.852-.355-5.7-.665-8.57-.975a36.59,36.59,0,0,1-8.023-1.226.414.414,0,0,1,.044-.783Z" transform="translate(-157.649 -60.418)" fill="#263238"/>
      <path id="Path_7748" data-name="Path 7748" d="M248.249,334.034c2.305-.4,4.994.429,7.27.857,2.586.488,5.157.946,7.743,1.4,5.172.916,10.343,1.817,15.544,2.556.251,0,.222.443,0,.4-5.29-.709-10.58-1.359-15.855-2.113-2.586-.369-5.186-.768-7.772-1.167-2.2-.34-4.979-.517-6.945-1.67a.148.148,0,0,1,.015-.266Z" transform="translate(-157.795 -52.52)" fill="#263238"/>
      <path id="Path_7749" data-name="Path 7749" d="M265.507,290.9c-5.364.694-11.51,1.877-14.983,6.442a9.693,9.693,0,0,0-2.2,6.93,9.324,9.324,0,0,0,3.31,5.984h0a11.968,11.968,0,0,0-8.186,9.752,8.156,8.156,0,0,0,2.113,6.162c.739.872,1.581,1.64,2.394,2.438s1.714,1.478,2.556,2.172a22.477,22.477,0,0,0-2.556,2.335,17.979,17.979,0,0,0-2.379,2.807,12.545,12.545,0,0,0-2.335,6.871,12.323,12.323,0,0,0,2.453,6.782,14.052,14.052,0,0,0,4.92,4.935.118.118,0,0,0,.133-.192,20.273,20.273,0,0,1-4-5.039,12.959,12.959,0,0,1-2.024-6.708,13.446,13.446,0,0,1,2.216-6.309,33.142,33.142,0,0,1,2.039-2.955,25.823,25.823,0,0,0,2.039-2.453s-1.758-1.862-2.379-2.66-1.226-1.655-1.788-2.527a8.156,8.156,0,0,1-1.478-5.718,10.535,10.535,0,0,1,2.482-5.083c1.241-1.478,2.852-2.645,4.152-4.093a.665.665,0,0,0,.074-.517c-2.955-4.61-2.586-8.984.576-12.4a20.066,20.066,0,0,1,5.57-4.034,49.549,49.549,0,0,1,7.388-2.674C265.714,291.137,265.67,290.885,265.507,290.9Z" transform="translate(-160.144 -73.07)" fill="#263238"/>
      <path id="Path_7750" data-name="Path 7750" d="M356.277,361.662c-3.147-.975-6.472-1.478-9.693-2.187s-6.472-1.374-9.723-2.024-6.634-1.3-9.944-1.921-6.4-1.315-9.619-1.7a39.495,39.495,0,0,0-9.338.207q-4.684.532-9.4.754a135.729,135.729,0,0,1-18.987-.414,128.362,128.362,0,0,1-21.144-3.768c-.148,0-.192.177,0,.222a114.928,114.928,0,0,0,37.28,5.91c3.132,0,6.28-.192,9.4-.5a83.694,83.694,0,0,1,9.4-.8,60.455,60.455,0,0,1,9.87,1.478c3.265.606,6.516,1.226,9.782,1.8,3.694.65,7.388,1.315,11.1,1.891s7.388,1.4,11.023,1.67A.337.337,0,0,0,356.277,361.662Z" transform="translate(-152.949 -44.553)" fill="#263238"/>
      <path id="Path_7751" data-name="Path 7751" d="M378.915,322.315c-4.728-1.611-9.722-2.615-14.584-3.783s-9.782-2.29-14.672-3.4c-9.338-2.113-18.795-3.9-28.074-6.487-2.438-.68-4.846-1.478-7.225-2.276a33.1,33.1,0,0,1-3.531-1.478c-1.167-.576-2.512-.931-3.664-1.478-.133-.089-.236.118-.1.207.931.576,1.788,1.271,2.748,1.832s2.128,1.123,3.221,1.625a60.572,60.572,0,0,0,6.132,2.408c4.344,1.478,8.866,2.5,13.3,3.531q14.628,3.347,29.3,6.546c2.748.591,5.511,1.182,8.275,1.729s5.777,1.226,8.7,1.551a.281.281,0,0,0,.177-.532Z" transform="translate(-129.693 -67.102)" fill="#263238"/>
      <path id="Path_7752" data-name="Path 7752" d="M345.26,334.98l67.585,9.191s-12.353-70.259-25.488-93.531c-12.958-22.962-27.262-7.787-32.714,19.992C348.526,301.424,345.26,334.98,345.26,334.98Z" transform="translate(-111.42 -97.646)" fill="#37474f"/>
      <path id="Path_7753" data-name="Path 7753" d="M406.382,306.081c-1.891-.443-3.827-.724-5.718-1.138s-3.709-.694-5.57-.99c-3.8-.591-7.61-1.123-11.422-1.64-7.506-1.034-15-2.172-22.533-2.955-4.285-.473-8.555-1.108-12.84-1.478a.118.118,0,1,0,0,.236c7.462,1.744,15.071,3.044,22.637,4.27s15.012,2.379,22.548,3.206c2.113.222,4.226.5,6.354.606s4.359.3,6.531.34a.229.229,0,0,0,.015-.458Z" transform="translate(-110.026 -69.736)" fill="#263238"/>
    </g>
    <g id="freepik--speech-bubble--inject-18" transform="translate(498.788 97.96)">
      <path id="Path_7754" data-name="Path 7754" d="M444.285,147.018a45.1,45.1,0,0,1-75.357,28.532l-22.578,3.325,11.3-19.519a45.126,45.126,0,1,1,86.66-12.338Z" transform="translate(-344.813 -96.784)" fill="#fff"/>
      <path id="Path_7755" data-name="Path 7755" d="M444.781,147.147a45.3,45.3,0,0,1-9.1,22.873,41.372,41.372,0,0,1-8.865,8.733,45.806,45.806,0,0,1-23.036,8.954,42.2,42.2,0,0,1-6.265.118,38.3,38.3,0,0,1-6.235-.65,45.524,45.524,0,0,1-22.326-11.008l.532.163-22.533,3.458-1.64.251.827-1.478,11.23-19.548v.768A45.672,45.672,0,0,1,413.944,99.2a46.188,46.188,0,0,1,17.391,10.668,45.3,45.3,0,0,1,13.446,37.28Zm0,0a44.677,44.677,0,0,0-69.8-41.372,46.4,46.4,0,0,0-13.49,14.776,44.564,44.564,0,0,0-5.733,19.09,45.348,45.348,0,0,0,3.177,19.652l.162.414-.207.369L347.526,179.55l-.813-1.2,22.592-3.162h.31l.222.207a44.565,44.565,0,0,0,21.617,11.126,38.668,38.668,0,0,0,6.117.754,45.342,45.342,0,0,0,6.176,0,44.326,44.326,0,0,0,12.042-2.66,41.933,41.933,0,0,0,10.89-5.91,48.758,48.758,0,0,0,4.758-3.975,51.13,51.13,0,0,0,4.108-4.654A45.333,45.333,0,0,0,444.781,147.147Z" transform="translate(-345.31 -96.913)" fill="#263238"/>
      <path id="Path_7756" data-name="Path 7756" d="M367.332,157.068a4.433,4.433,0,0,1,4.433-4.64,4.64,4.64,0,1,1,0,9.279,4.433,4.433,0,0,1-4.433-4.64Zm1.877-10.7-1.049-35.92h7.181l-1.108,35.876Z" transform="translate(-334.795 -90.447)" fill="#fa935b"/>
      <path id="Path_7757" data-name="Path 7757" d="M379,157.068a4.433,4.433,0,0,1,4.433-4.64,4.64,4.64,0,1,1,0,9.279,4.433,4.433,0,0,1-4.433-4.64Zm1.877-10.7-1.049-35.92h7.181l-1.049,35.92Z" transform="translate(-329.222 -90.447)" fill="#fa935b"/>
      <path id="Path_7758" data-name="Path 7758" d="M390.632,157.068a4.433,4.433,0,0,1,4.433-4.64,4.64,4.64,0,0,1,0,9.279,4.433,4.433,0,0,1-4.433-4.64Zm1.877-10.7-1.049-35.92h7.181l-1.049,35.92Z" transform="translate(-323.667 -90.447)" fill="#fa935b"/>
    </g>
  </g>
</svg>
