<svg xmlns="http://www.w3.org/2000/svg" width="116.389" height="102.138" viewBox="0 0 116.389 102.138">
  <g id="Group_15280" data-name="Group 15280" transform="translate(-157.806 -335.743)">
    <g id="Group_15278" data-name="Group 15278" transform="translate(0 30.77)" opacity="0.57">
      <g id="Group_15277" data-name="Group 15277" transform="translate(77.119 67.676)">
        <g id="Group_15275" data-name="Group 15275" transform="translate(80.686 237.298)">
          <path id="Path_7628" data-name="Path 7628" d="M387.158,452.838H333.485c-3.007,0-4.434-1.425-4.436-4.419q0-1.246,0-2.493.007-4.265,4.315-4.282c3.048-.009,6.1-.029,9.143.016.8.012,1.08-.159,1.078-1.026q-.046-15.554-.008-31.109c0-.693-.126-.99-.911-1.158a15.03,15.03,0,0,1-11.89-13.664,3.445,3.445,0,0,1,.538-2.239q12.8-20.244,25.539-40.519a2.3,2.3,0,0,1,2.2-1.232q28.2.045,56.4,0a2.218,2.218,0,0,1,2.12,1.16q12.777,20.325,25.613,40.613c.863,1.361.526,2.714.237,4.01-1.417,6.343-5.334,10.334-11.659,11.877-.7.17-.874.4-.873,1.07q.028,15.614,0,31.228c0,.789.225,1,1,.986,3.166-.04,6.333-.03,9.5-.011a3.737,3.737,0,0,1,4.038,4.08c.006,1.148.03,2.3-.007,3.443a3.741,3.741,0,0,1-3.637,3.659c-1.067.04-2.137.009-3.206.009Z" transform="translate(-329.048 -350.712)" fill="#131a45"/>
          <path id="Path_7629" data-name="Path 7629" d="M395.836,505.032a15.15,15.15,0,0,0,27.659.043c2.944,5.643,7.427,8.942,13.85,8.927,6.4-.015,10.868-3.278,13.815-8.972.178.336.322.617.475.893a14.8,14.8,0,0,0,12.329,8.066c.682.058.847.26.846.908q-.026,15.61,0,31.221c0,.672-.194.958-.871.863a3.475,3.475,0,0,0-.475,0q-39.949,0-79.9.021c-1.03,0-1.4-.182-1.391-1.327q.077-15.194.009-30.39c0-.921.153-1.242,1.18-1.32C387.316,513.661,392.618,511.636,395.836,505.032Z" transform="translate(-365.312 -456.048)" fill="#fefefe"/>
          <path id="Path_7630" data-name="Path 7630" d="M455.626,378c0,6.172-.025,12.343.025,18.514.008.968-.29,1.142-1.18,1.138q-11.275-.051-22.551,0c-.961,0-1.1-.168-.8-1.1q5.928-18.668,11.766-37.364a1.2,1.2,0,0,1,1.409-1q5.162.073,10.326,0c.851-.013,1.033.238,1.029,1.053C455.61,365.5,455.626,371.747,455.626,378Z" transform="translate(-398.624 -355.818)" fill="#fefefe"/>
          <path id="Path_7631" data-name="Path 7631" d="M540.794,397.629h-.981c-7.557,0-15.114-.017-22.67.023-.891,0-1.1-.216-1.1-1.1q.048-18.634,0-37.267c0-.9.238-1.105,1.112-1.092,3.481.053,6.963.041,10.445.005a.993.993,0,0,1,1.15.846q5.954,18.97,11.955,37.926A4.314,4.314,0,0,1,540.794,397.629Z" transform="translate(-456.69 -355.817)" fill="#fefefe"/>
          <path id="Path_7632" data-name="Path 7632" d="M600.336,397.627h-1c-7.478,0-14.955-.016-22.432.023-.832,0-1.122-.258-1.364-1.028q-5.857-18.689-11.8-37.353c-.287-.9-.14-1.1.81-1.08,3.4.058,6.8.032,10.207.013a1.273,1.273,0,0,1,1.276.608q12.1,19.264,24.237,38.509A1.816,1.816,0,0,1,600.336,397.627Z" transform="translate(-489.164 -355.815)" fill="#fefefe"/>
          <path id="Path_7633" data-name="Path 7633" d="M382.451,358.225l-4.562,14.465q-3.793,12.019-7.576,24.041c-.179.572-.319.934-1.072.931-7.754-.035-15.508-.022-23.263-.025a2.122,2.122,0,0,1-.326-.049c-.144-.344.129-.532.264-.746q11.906-18.9,23.81-37.8a1.536,1.536,0,0,1,1.507-.834C374.91,358.245,378.588,358.225,382.451,358.225Z" transform="translate(-340.354 -355.829)" fill="#fefefe"/>
          <path id="Path_7634" data-name="Path 7634" d="M392.438,644.721h53.319c2.207,0,2.4.19,2.4,2.346,0,.752.009,1.5,0,2.256-.02,1.356-.492,1.811-1.883,1.833-.2,0-.4,0-.594,0H339.042c-2.287,0-2.51-.222-2.51-2.5,0-.792,0-1.583,0-2.375a1.378,1.378,0,0,1,1.519-1.56c.4-.006.792,0,1.187,0Z" transform="translate(-334.156 -551.401)" fill="#fa935b"/>
          <path id="Path_7635" data-name="Path 7635" d="M441.985,489.888c3.838,0,7.676.016,11.514-.014.766-.006.978.123.852.979-1.333,9.088-12.549,13.592-19.958,7.989a13.02,13.02,0,0,1-4.929-7.855c-.183-.824-.017-1.125.889-1.116C434.23,489.911,438.107,489.888,441.985,489.888Z" transform="translate(-397.546 -445.701)" fill="#fa935b"/>
          <path id="Path_7636" data-name="Path 7636" d="M354.975,489.874c3.8,0,7.592.031,11.387-.022.956-.013,1.156.317,1,1.17a12.667,12.667,0,0,1-24.867.028c-.14-.8-.028-1.214.975-1.2C347.3,489.908,351.14,489.874,354.975,489.874Z" transform="translate(-338.193 -445.687)" fill="#fa935b"/>
          <path id="Path_7637" data-name="Path 7637" d="M529,489.893c3.837,0,7.675.018,11.513-.015.83-.007,1.123.178.945,1.073a12.929,12.929,0,0,1-11.59,10.366,12.755,12.755,0,0,1-13.153-9.726c-.017-.077-.055-.149-.072-.226-.316-1.472-.315-1.473,1.2-1.473Z" transform="translate(-456.987 -445.706)" fill="#fa935b"/>
          <path id="Path_7638" data-name="Path 7638" d="M616.144,489.871c3.8,0,7.592.037,11.386-.024,1.053-.017,1.189.394,1.022,1.259a12.668,12.668,0,0,1-24.846-.029c-.186-.927.055-1.241,1.052-1.227C608.553,489.9,612.349,489.871,616.144,489.871Z" transform="translate(-516.489 -445.684)" fill="#fa935b"/>
          <path id="Path_7639" data-name="Path 7639" d="M455.1,574.4q-9.262,0-18.524,0c-4.838-.007-7.912-3.095-7.925-7.947a19.136,19.136,0,0,1,.067-2.608,7.363,7.363,0,0,1,7.56-6.6q18.94-.022,37.879,0a7.409,7.409,0,0,1,7.626,7.543,21.264,21.264,0,0,1-.059,2.964,7.314,7.314,0,0,1-7.507,6.64C467.842,574.415,461.469,574.4,455.1,574.4Z" transform="translate(-397.026 -491.68)" fill="#0a456d"/>
          <path id="Path_7640" data-name="Path 7640" d="M460.214,577.136q-9.255,0-18.509,0c-3.558,0-5.563-2.024-5.575-5.595,0-.633-.022-1.267.009-1.9a5.018,5.018,0,0,1,5.075-4.908q19.1-.026,38.2,0a4.917,4.917,0,0,1,4.989,4.191,11.527,11.527,0,0,1,0,4.012,4.9,4.9,0,0,1-5.093,4.194C472.948,577.147,466.581,577.135,460.214,577.136Z" transform="translate(-402.135 -496.794)" fill="#fefefe"/>
        </g>
      </g>
    </g>
    <g id="Group_15279" data-name="Group 15279" transform="translate(183.994 335.744)">
      <path id="Path_7641" data-name="Path 7641" d="M42.277,400.635c1.162.009,2.326.06,3.485.014a2.438,2.438,0,0,1,2.64,1.612v17a1,1,0,0,1-.7.2c-.437.009-.875,0-1.312,0q-28.117,0-56.233,0a4.008,4.008,0,0,1-1.891-.3,3.17,3.17,0,0,1-1.95-3.009c.011-4.394,0-8.789.007-13.183a8.018,8.018,0,0,0-.2-2.228,15.087,15.087,0,0,1,2.6-.078c.6-.026,1.2-.02,1.806-.028a1.924,1.924,0,0,1,.965-.2c1.018.008,2.036-.017,3.053.01,2.768-.028,5.537-.014,8.305-.014q16.986,0,33.973,0c.479,0,.957.039,1.435.019,1.062-.03,2.124-.008,3.186-.009A1.71,1.71,0,0,1,42.277,400.635Z" transform="translate(15.608 -385.164)" fill="#fe646f"/>
      <path id="Path_7642" data-name="Path 7642" d="M-22.471,402.309c.452.268.4.721.4,1.139q.008,5.843,0,11.686c0,.937,0,1.875,0,2.812a3.086,3.086,0,0,0,2.827,2.882c.187.006.375,0,.563,0h58.5v.5a2.519,2.519,0,0,1-2.667,1.593q-29.342-.027-58.684-.013c-1.491,0-2.236-.444-2.572-1.5a2.4,2.4,0,0,1-.087-.74q0-8.093,0-16.186A2,2,0,0,1-22.471,402.309Z" transform="translate(24.193 -386.73)" fill="#fa4455"/>
      <path id="Path_7643" data-name="Path 7643" d="M16.475,329.359h-4a22.792,22.792,0,0,1,2.883-1.809q6.413-3.878,12.847-7.723,4.106-2.466,8.214-4.928a.633.633,0,0,1,.18-.044c.114.25-.04.476-.067.713a3.273,3.273,0,0,0,.238,1.606c-.113.28-.394.36-.618.494q-9.391,5.635-18.778,11.278A6.493,6.493,0,0,1,16.475,329.359Z" transform="translate(-6.349 -313.886)" fill="#ebe9eb"/>
      <path id="Path_7644" data-name="Path 7644" d="M201.153,329.359h-4c-1.777-.867-3.416-1.97-5.11-2.979-4.948-2.946-9.872-5.932-14.819-8.878-.141-.084-.306-.142-.365-.32a4.36,4.36,0,0,0,.17-2.328c1.6.826,3.109,1.818,4.656,2.738,3.866,2.3,7.716,4.629,11.575,6.943q3.841,2.3,7.686,4.6A1.114,1.114,0,0,1,201.153,329.359Z" transform="translate(-143.268 -313.888)" fill="#ebe9eb"/>
      <path id="Path_7645" data-name="Path 7645" d="M158.965,310.033a2.242,2.242,0,0,1-.121,2.383c-.193.635-.675.91-1.6.915-.976,0-1.467-.265-1.666-.914a2.245,2.245,0,0,1-.12-2.384A2.075,2.075,0,0,1,158.965,310.033Z" transform="translate(-125.204 -309.065)" fill="#c8c4c8"/>
      <path id="Path_7647" data-name="Path 7647" d="M210.938,451.84a2.2,2.2,0,0,1-2.261,2.235,2.26,2.26,0,0,1-2.257-2.267,2.287,2.287,0,0,1,2.289-2.246A2.232,2.232,0,0,1,210.938,451.84Z" transform="translate(-167.89 -426.089)" fill="#fe646f"/>
      <path id="Path_7648" data-name="Path 7648" d="M60.121,454.075A2.2,2.2,0,0,1,57.9,451.8a2.225,2.225,0,0,1,2.269-2.238,2.288,2.288,0,0,1,2.249,2.286A2.263,2.263,0,0,1,60.121,454.075Z" transform="translate(-44.184 -426.089)" fill="#fe646f"/>
      <path id="Path_7649" data-name="Path 7649" d="M151.494,452.275c0-.58.01-1.161,0-1.742-.007-.288.094-.389.391-.405a1.539,1.539,0,0,1,1.834,1.353,3.394,3.394,0,0,1-.073,1.842,1.554,1.554,0,0,1-1.837,1.118c-.3-.039-.309-.206-.307-.424,0-.29,0-.581,0-.871s0-.581,0-.871Z" transform="translate(-122.137 -426.555)" fill="#fe646f"/>
    </g>
    <text id="_124_9K" data-name="124,9K" transform="translate(188 352.77)" fill="#fff" font-size="11" font-family="Poppins-SemiBold, Poppins" font-weight="600"><tspan x="0" y="12">Not Active</tspan></text>
  </g>
</svg>
