<svg xmlns="http://www.w3.org/2000/svg" width="235.603" height="236.173" viewBox="0 0 235.603 236.173">
  <g id="Reset_password-pana" data-name="Reset password-pana" transform="translate(-42.41 -29.08)">
    <g id="freepik--background-simple--inject-22" transform="translate(59.443 43.024)">
      <path id="Path_7257" data-name="Path 7257" d="M244.44,79.614l-1.073-1.76c-9.005-14.844-25.288-23.791-42.456-22.7a44.542,44.542,0,0,0-6.569.9,48.815,48.815,0,0,0-34.814,30.263c-3.311,8.887-4.234,19.122-10.519,26.179-8.179,9.188-22.057,9.472-34.261,9.08s-26.1-.054-34.234,9.166c-5.1,5.775-6.714,13.986-6.306,21.719,1.073,20.474,15.354,38.78,33.5,47.882s39.5,9.912,59.361,5.9c27.816-5.608,54.268-21.005,70.17-44.791S257.164,105.283,244.44,79.614Z" transform="translate(-74.148 -55.063)" fill="#f0f7ff"/>
    </g>
    <g id="freepik--Floor--inject-22" transform="translate(50.583 264.973)">
      <path id="Path_7258" data-name="Path 7258" d="M285.069,468.77c0,.075-50.917.14-113.707.14s-113.722-.081-113.722-.14,50.907-.14,113.722-.14S285.069,468.694,285.069,468.77Z" transform="translate(-57.64 -468.63)" fill="#263238"/>
    </g>
    <g id="freepik--Characters--inject-22" transform="translate(42.41 29.08)">
      <path id="Path_7259" data-name="Path 7259" d="M52.094,413.6,42.45,426.695l16.24,12.086c1.073-1.61-5.029-10.991-5.029-10.991l6.526-8.136Z" transform="translate(-42.429 -207.239)" fill="#455a64"/>
      <path id="Path_7260" data-name="Path 7260" d="M54.07,431.737a.821.821,0,0,0-1.02.413.8.8,0,0,0,.4,1.02.869.869,0,0,0,1.073-.445.827.827,0,0,0-.537-1.014" transform="translate(-47.314 -215.62)" fill="#fff"/>
      <path id="Path_7261" data-name="Path 7261" d="M42.41,436.846l1.025-1.406,15.172,12.215s.483.859,0,1.3Z" transform="translate(-42.41 -217.358)" fill="#263238"/>
      <path id="Path_7262" data-name="Path 7262" d="M62.145,439.774c-.059.081-.483-.177-1.073-.215s-1.036.145-1.073.059.413-.456,1.111-.4S62.188,439.715,62.145,439.774Z" transform="translate(-50.558 -219.105)" fill="#263238"/>
      <path id="Path_7263" data-name="Path 7263" d="M64.461,443.7c-.043.091-.483-.032-1,.1s-.859.435-.939.37.209-.537.859-.7S64.515,443.625,64.461,443.7Z" transform="translate(-51.721 -221.057)" fill="#263238"/>
      <path id="Path_7264" data-name="Path 7264" d="M65.1,448.238c-.086-.038.1-.537.628-.8s1.025-.177,1.009-.086-.419.15-.843.392S65.189,448.286,65.1,448.238Z" transform="translate(-52.915 -222.836)" fill="#263238"/>
      <path id="Path_7265" data-name="Path 7265" d="M64.82,435.427c-.091.048-.37-.333-.843-.633s-.923-.424-.918-.537.537-.134,1.106.231S64.906,435.395,64.82,435.427Z" transform="translate(-51.978 -216.777)" fill="#263238"/>
      <path id="Path_7266" data-name="Path 7266" d="M96.175,299.636c.29,1.642.751,15.612,1.046,22.98s-.44,10.991-1.283,12.644S63.32,360.328,60.9,365.936l-8.05-6.488S64.657,338.255,69.691,334.4s14.721-7.39,14.721-7.39l-2.753-40.352,13.2-.719Z" transform="translate(-47.247 -148.091)" fill="#263238"/>
      <path id="Path_7267" data-name="Path 7267" d="M78.43,437.73l-.14,16.245,20.238.279c-.091-1.932-10.508-5.962-10.508-5.962l.537-10.417Z" transform="translate(-59.034 -218.42)" fill="#455a64"/>
      <path id="Path_7268" data-name="Path 7268" d="M84.265,455.649a.826.826,0,0,0-.585.934.8.8,0,0,0,.923.59.875.875,0,0,0,.612-.993.821.821,0,0,0-1.025-.5" transform="translate(-61.526 -226.716)" fill="#fff"/>
      <path id="Path_7269" data-name="Path 7269" d="M78.28,466.6V464.86l19.454,1.009s.891.413.778,1.047Z" transform="translate(-59.03 -230.99)" fill="#263238"/>
      <path id="Path_7270" data-name="Path 7270" d="M95.395,457.189c0,.1-.5.14-.987.451s-.757.719-.848.682.064-.612.665-.977S95.437,457.1,95.395,457.189Z" transform="translate(-66.098 -227.392)" fill="#263238"/>
      <path id="Path_7271" data-name="Path 7271" d="M99.831,458.957c0,.1-.413.258-.751.671s-.445.859-.537.848-.156-.564.279-1.073S99.831,458.844,99.831,458.957Z" transform="translate(-68.387 -228.231)" fill="#263238"/>
      <path id="Path_7272" data-name="Path 7272" d="M103.051,462.265c-.091,0-.22-.478.038-1.014s.73-.746.767-.665-.247.37-.456.816S103.148,462.255,103.051,462.265Z" transform="translate(-70.454 -229.001)" fill="#263238"/>
      <path id="Path_7273" data-name="Path 7273" d="M94.9,452.522c-.043.091-.494-.054-1.073,0s-1,.2-1.073.113.37-.429,1.03-.456S94.948,452.447,94.9,452.522Z" transform="translate(-65.732 -225.113)" fill="#263238"/>
      <path id="Path_7274" data-name="Path 7274" d="M107.983,272.053c0,.95,1.54,25-6.322,42.4,0,0-2.721,5.442-3.22,7.819s-10.669,41.812-10.669,41.812l-11.753-.429s-1.878-19.755,0-31.191,5.367-10.095,5.367-17.479-1.755-22.7-1.755-22.7S77.066,288.1,76.191,280c-.714-6.585,2.388-13.642,2.388-13.642l3.064-5.426,25.927-1.358Z" transform="translate(-57.595 -135.873)" fill="#263238"/>
      <path id="Path_7275" data-name="Path 7275" d="M107.875,271.983v-.821c0-.542-.032-1.347-.054-2.4-.048-2.12-.129-5.243-.225-9.279v-.059h-.064L81.6,260.74h-.054l-.032.048c-.95,1.685-2,3.526-3.07,5.426h0a34.729,34.729,0,0,0-1.862,5.957,26.527,26.527,0,0,0-.649,6.542,40.462,40.462,0,0,0,1.073,6.81A27.677,27.677,0,0,0,79.5,292.27v-.054c.445,4,.859,8.152,1.208,12.424.172,2.147.322,4.293.429,6.5.054,1.073.1,2.2.1,3.311,0,.537,0,1.111-.032,1.664a15.446,15.446,0,0,1-.2,1.653,10.862,10.862,0,0,1-1.154,3.145c-.537,1-1.073,2-1.61,3.043a28.621,28.621,0,0,0-2.109,6.655,76.27,76.27,0,0,0-1.175,14.249c0,6.381.3,12.649.826,18.708v.129H75.9l11.753.429h.113l.027-.113c3.408-13.207,6.585-25.551,9.386-36.649l1.014-4.106c.177-.682.29-1.358.5-2s.445-1.283.692-1.905c.5-1.245,1.073-2.453,1.61-3.628l.419-.875a8.644,8.644,0,0,0,.4-.88c.242-.6.483-1.181.725-1.766a71.21,71.21,0,0,0,3.708-13.379,116.361,116.361,0,0,0,1.771-19.717c.032-4.626-.156-7.138-.156-7.138v.461c0,.306,0,.773.032,1.374.032,1.207.054,2.989,0,5.3a119.383,119.383,0,0,1-1.787,19.7,71.163,71.163,0,0,1-3.757,13.331l-.719,1.755c-.118.3-.252.585-.4.875s-.284.585-.424.88c-.537,1.175-1.106,2.383-1.61,3.633-.252.628-.494,1.267-.7,1.921s-.333,1.347-.5,2.013c-.338,1.352-.676,2.716-1.025,4.106-2.85,11.088-6.021,23.431-9.419,36.638l.14-.1-11.753-.435.14.129c-.537-6.048-.848-12.311-.826-18.682a75.9,75.9,0,0,1,1.17-14.19,28.718,28.718,0,0,1,2.088-6.6c.483-1.036,1.073-2.018,1.61-3.038a11.222,11.222,0,0,0,1.138-3.22,14.991,14.991,0,0,0,.209-1.69c0-.537.054-1.127.032-1.68,0-1.116-.048-2.227-.1-3.327-.107-2.2-.263-4.368-.44-6.5q-.537-6.44-1.218-12.435h0v-.032a27.37,27.37,0,0,1-2.5-6.665,40.544,40.544,0,0,1-1.073-6.762,26.357,26.357,0,0,1,.633-6.483,35.234,35.234,0,0,1,1.819-5.9h0l3.059-5.431-.086.054,25.927-1.4-.07-.059c.129,4.03.225,7.154.29,9.274.038,1.073.064,1.857.086,2.4S107.875,271.983,107.875,271.983Z" transform="translate(-57.487 -135.803)" fill="#455a64"/>
      <path id="Path_7276" data-name="Path 7276" d="M115.09,191.02s-6.977-1.234-6.327,7.744c.408,5.367,1.986,14.576,2.86,20.453.3,2.034.966,5.673,3.655,7.809l19.266,13.331,6.08-7.272L123.42,216.7l-2.683-16.207Z" transform="translate(-73.134 -104.085)" fill="#455a64"/>
      <path id="Path_7277" data-name="Path 7277" d="M110.643,130.77a8.834,8.834,0,0,1,3.274,7.47c-.107,1.374-.488,2.936.408,3.982s2.614,1.009,3.462,2.072c.993,1.256.161,3.123.537,4.685a3.177,3.177,0,0,0,3.376,2.356,12.392,12.392,0,0,1-6.14,2.683l-1.76-2.195a2.273,2.273,0,0,1-.15,2.791,5.206,5.206,0,0,1-2.533,1.5,15.719,15.719,0,0,1-13.766-2.238" transform="translate(-67.865 -76.196)" fill="#263238"/>
      <path id="Path_7278" data-name="Path 7278" d="M73.919,136.312c.343-1.073.923-2.023,1.154-3.1.494-2.324-.639-4.943.488-7.036.805-1.487,2.512-2.216,4.132-2.716s3.349-.918,4.556-2.1c.88-.869,1.385-2.072,2.265-2.941a7.453,7.453,0,0,1,4.873-1.776,10.583,10.583,0,0,1,5.318.864A5.807,5.807,0,0,1,99.98,121.6a16.518,16.518,0,0,0,.311,2.63,17.712,17.712,0,0,0,1.476,2.506,4.658,4.658,0,0,1-1.165,5.581l-12.44,16.068c-2.614.987-8.946-.2-10.964-2.147S73.055,138.968,73.919,136.312Z" transform="translate(-56.917 -69.625)" fill="#263238"/>
      <path id="Path_7279" data-name="Path 7279" d="M107.088,135.734c-.537-3.649-3.29-7.959-6.912-7.293L88.991,132.2c-1.073.2-.311,2-.2,3.113l2.431,25.224s-1.513,1.073-2.05.869a.156.156,0,0,0-.182.231c1.358,1.959,7.685,10.476,14.238,7.862,1.46-.585-.156-5.184,0-6.885l-.193-4.352c-.145-2.222-.215-3.134-.215-3.113s4.626-1.138,5.125-7.326A65.151,65.151,0,0,0,107.088,135.734Z" transform="translate(-63.73 -75.085)" fill="#ffbf9d"/>
      <path id="Path_7280" data-name="Path 7280" d="M120.4,151.986a.789.789,0,0,1-.7.848.751.751,0,0,1-.864-.644.789.789,0,0,1,.7-.848.751.751,0,0,1,.864.644Z" transform="translate(-77.82 -85.723)" fill="#263238"/>
      <path id="Path_7281" data-name="Path 7281" d="M106.2,152.876a.784.784,0,0,1-.692.848.757.757,0,0,1-.864-.644.789.789,0,0,1,.7-.848.746.746,0,0,1,.859.644Z" transform="translate(-71.245 -86.135)" fill="#263238"/>
      <path id="Path_7282" data-name="Path 7282" d="M119.351,147.02c-.086.145-.816-.317-1.728-.182s-1.5.757-1.61.644,0-.3.263-.585a2.088,2.088,0,0,1,2.683-.37C119.259,146.735,119.393,146.955,119.351,147.02Z" transform="translate(-76.492 -83.344)" fill="#263238"/>
      <path id="Path_7283" data-name="Path 7283" d="M103.865,148.183c-.107.134-.821-.386-1.8-.343s-1.68.6-1.792.472.048-.29.354-.537a2.367,2.367,0,0,1,2.871-.1C103.8,147.893,103.913,148.119,103.865,148.183Z" transform="translate(-69.201 -83.825)" fill="#263238"/>
      <path id="Path_7284" data-name="Path 7284" d="M111.922,153.709a5.334,5.334,0,0,1,1.352-.354c.209-.038.413-.1.435-.247a1.073,1.073,0,0,0-.193-.628c-.242-.5-.494-1.036-.762-1.61a27.239,27.239,0,0,1-1.76-4.181,28.124,28.124,0,0,1,2.093,4.025c.258.564.5,1.073.735,1.61a1.235,1.235,0,0,1,.177.837.537.537,0,0,1-.327.343,1.485,1.485,0,0,1-.36.075A5.9,5.9,0,0,1,111.922,153.709Z" transform="translate(-74.183 -83.571)" fill="#263238"/>
      <path id="Path_7285" data-name="Path 7285" d="M108.031,176.936a15.6,15.6,0,0,1-8.351-1.556s2.388,4.132,8.458,3.091Z" transform="translate(-68.945 -96.865)" fill="#ff9a6c"/>
      <path id="Path_7286" data-name="Path 7286" d="M107.736,163.8a1.384,1.384,0,0,1,.429-.537,1.073,1.073,0,0,1,.73-.07,1.685,1.685,0,0,1,.955.483,1.025,1.025,0,0,1,.242,1.009h0c-.1.354-.623.537-.982.612a1.61,1.61,0,0,1-1.073-.22.939.939,0,0,1-.537-.7A1.154,1.154,0,0,1,107.736,163.8Z" transform="translate(-72.568 -91.201)" fill="#ff9a6c"/>
      <path id="Path_7287" data-name="Path 7287" d="M108.17,162.14c.134,0,.209.9,1.041,1.487s1.8.413,1.814.537-.2.193-.612.236a2.275,2.275,0,0,1-1.513-.4,1.97,1.97,0,0,1-.816-1.25C108.031,162.376,108.106,162.14,108.17,162.14Z" transform="translate(-72.83 -90.731)" fill="#263238"/>
      <path id="Path_7288" data-name="Path 7288" d="M103.56,142.409c-.07.231-.918.188-1.9.386s-1.76.537-1.905.327c-.064-.091.054-.317.36-.563a3.338,3.338,0,0,1,2.9-.537C103.389,142.13,103.587,142.3,103.56,142.409Z" transform="translate(-68.972 -81.352)" fill="#263238"/>
      <path id="Path_7289" data-name="Path 7289" d="M118.473,141.351c-.156.2-.832.059-1.61.113s-1.465.242-1.637.054c-.075-.091,0-.3.3-.5a2.512,2.512,0,0,1,1.3-.413,2.442,2.442,0,0,1,1.331.284C118.436,141.05,118.543,141.243,118.473,141.351Z" transform="translate(-76.135 -80.75)" fill="#263238"/>
      <path id="Path_7290" data-name="Path 7290" d="M84.425,132.836a4.872,4.872,0,0,1,2.544-1.685,56.292,56.292,0,0,1,12.955-3.3,2.3,2.3,0,0,1-.789,2.807,10.227,10.227,0,0,1-2.9,1.293,3.985,3.985,0,0,0-2.431,1.932c-.413.982-.064,2.275-.451,3.338-.66,1.835-3.22,2.426-3.859,4.256-.494,1.39.311,2.866.537,4.326a5.259,5.259,0,0,1-5.163,5.984q-.451-7.884-.907-15.757A5.051,5.051,0,0,1,84.425,132.836Z" transform="translate(-61.638 -74.843)" fill="#263238"/>
      <path id="Path_7291" data-name="Path 7291" d="M64.152,149.611c.832-.746,1.873-1.39,2.2-2.453.483-1.551-.762-3.37.043-4.782.73-1.288,2.882-1.218,3.563-2.533.537-1.03-.08-1.937.118-2.839a2.461,2.461,0,0,1,2.4-1.583l7.159,10.4c.665,3.488,1.336,5.367.59,7.385a16.293,16.293,0,0,0-1.111,3.392,3.4,3.4,0,0,0,1.106,3.22c-4.293.338-8.308-1.905-12.021-4.079l-3.912-2.3a2.807,2.807,0,0,1-1.073-.9C62.628,151.581,63.326,150.352,64.152,149.611Z" transform="translate(-51.948 -78.347)" fill="#263238"/>
      <path id="Path_7292" data-name="Path 7292" d="M72.52,147.954a2.037,2.037,0,0,0,.462.091,4.021,4.021,0,0,0,1.336-.1,4.127,4.127,0,0,0,1.862-1,4.063,4.063,0,0,0,1.224-2.506,4.149,4.149,0,0,0-.14-1.648,6.8,6.8,0,0,0-.794-1.61,6.177,6.177,0,0,1-.821-1.653,2.115,2.115,0,0,1,.231-1.819c.386-.537,1.111-.649,1.787-.918a1.949,1.949,0,0,0,.912-.682,1.927,1.927,0,0,0,.3-1.122,12.243,12.243,0,0,0-.488-2.233,2.362,2.362,0,0,1,0-1.073,1.54,1.54,0,0,1,.617-.875,4.337,4.337,0,0,1,2.147-.58,4.61,4.61,0,0,0,2.211-.649,4.138,4.138,0,0,0,1.53-1.648,6.789,6.789,0,0,0,.537-2.055,9.859,9.859,0,0,1,.419-1.932,4.379,4.379,0,0,1,1.009-1.519,4.959,4.959,0,0,1,2.968-1.342,4.905,4.905,0,0,1,2.683.537,5.9,5.9,0,0,1,1.653,1.256,7.8,7.8,0,0,1,1.02,1.465.291.291,0,0,0-.038-.113,2.991,2.991,0,0,0-.15-.311,5.565,5.565,0,0,0-.746-1.084,6,6,0,0,0-1.664-1.315,4.991,4.991,0,0,0-2.732-.606,5.1,5.1,0,0,0-3.118,1.368,4.54,4.54,0,0,0-1.073,1.61,9.993,9.993,0,0,0-.44,1.97,6.627,6.627,0,0,1-.537,1.986,3.928,3.928,0,0,1-1.428,1.54,4.428,4.428,0,0,1-2.1.606,4.513,4.513,0,0,0-2.3.623,1.755,1.755,0,0,0-.708,1,2.619,2.619,0,0,0,0,1.208,12.311,12.311,0,0,1,.483,2.19,1.658,1.658,0,0,1-.247.982,1.782,1.782,0,0,1-.81.6c-.317.134-.66.225-.993.365a2.093,2.093,0,0,0-.885.639,2.377,2.377,0,0,0-.258,2.018,6.527,6.527,0,0,0,.859,1.707,6.44,6.44,0,0,1,.778,1.535,4.052,4.052,0,0,1,.15,1.567,3.95,3.95,0,0,1-1.148,2.426,4.052,4.052,0,0,1-1.792,1.009A4.492,4.492,0,0,1,72.52,147.954Z" transform="translate(-56.361 -71.623)" fill="#455a64"/>
      <path id="Path_7293" data-name="Path 7293" d="M61.715,140.587a.912.912,0,0,0-.14.349,1.546,1.546,0,0,0,.182,1.073,1.68,1.68,0,0,0,.537.574,1.712,1.712,0,0,0,.918.247,2.147,2.147,0,0,0,1.878-1.2,2.85,2.85,0,0,0,.306-1.3,3.993,3.993,0,0,0-.3-1.417,8.838,8.838,0,0,1-.971-2.919,1.991,1.991,0,0,1,.5-1.476,2.147,2.147,0,0,1,1.556-.483,5.314,5.314,0,0,0,1.857-.193,1.61,1.61,0,0,0,.762-.644,2.318,2.318,0,0,0,.317-.945,7.422,7.422,0,0,0-.156-1.911,4.063,4.063,0,0,1,.1-1.766,4.444,4.444,0,0,1,1.991-2.619,6.317,6.317,0,0,1,2.989-.687,8.677,8.677,0,0,0,2.716-.429,5.694,5.694,0,0,0,1.921-1.181,5.624,5.624,0,0,0,1.073-1.352,3.977,3.977,0,0,0,.51-1.358,8.191,8.191,0,0,1-.6,1.309,5.769,5.769,0,0,1-2.952,2.447,8.844,8.844,0,0,1-2.683.386,6.44,6.44,0,0,0-3.08.687,4.658,4.658,0,0,0-2.114,2.71,4.352,4.352,0,0,0-.113,1.862,7.74,7.74,0,0,1,.156,1.846,1.61,1.61,0,0,1-.928,1.39,5.051,5.051,0,0,1-1.766.177,2.377,2.377,0,0,0-1.723.537,2.2,2.2,0,0,0-.537,1.648,4.251,4.251,0,0,0,.392,1.61c.209.483.44.934.617,1.385a3.869,3.869,0,0,1,.3,1.347,2.71,2.71,0,0,1-.268,1.224,1.991,1.991,0,0,1-1.723,1.138,1.61,1.61,0,0,1-.853-.209,1.492,1.492,0,0,1-.537-.537,1.513,1.513,0,0,1-.22-1C61.661,140.71,61.731,140.592,61.715,140.587Z" transform="translate(-51.277 -71.646)" fill="#263238"/>
      <path id="Path_7294" data-name="Path 7294" d="M135.077,147.5a1.691,1.691,0,0,1,0,1.122,1.465,1.465,0,0,1-.891.907,1.551,1.551,0,0,1-1.572-.429,1.428,1.428,0,0,1-.37-.9,3,3,0,0,1,.166-1.073,6.355,6.355,0,0,0,.623-2.463,3.472,3.472,0,0,0-1.309-2.479,3.983,3.983,0,0,0-1.336-.7,6.079,6.079,0,0,0-1.524-.22,7.792,7.792,0,0,1-1.487-.156,1.975,1.975,0,0,1-1.154-.714,2.4,2.4,0,0,1-.413-1.272,4.921,4.921,0,0,1,.107-1.32,9.955,9.955,0,0,0,.386-2.512,3.805,3.805,0,0,0-.767-2.082,4.874,4.874,0,0,0-1.4-1.181,9.89,9.89,0,0,1-1.122-.773,2.812,2.812,0,0,1-.7-.9s0,0,0,.075a1.071,1.071,0,0,0,.086.209,2.319,2.319,0,0,0,.537.687,8.668,8.668,0,0,0,1.111.821,4.831,4.831,0,0,1,1.331,1.17,3.6,3.6,0,0,1,.7,1.986,10.019,10.019,0,0,1-.4,2.453,5.126,5.126,0,0,0-.123,1.385,2.683,2.683,0,0,0,.462,1.4,2.211,2.211,0,0,0,1.288.81,8.183,8.183,0,0,0,1.529.166,5.968,5.968,0,0,1,1.47.2,3.908,3.908,0,0,1,1.256.66,3.252,3.252,0,0,1,1.229,2.3,6.31,6.31,0,0,1-.59,2.388,3.221,3.221,0,0,0-.161,1.159,1.61,1.61,0,0,0,.435,1,1.7,1.7,0,0,0,1.75.445,1.567,1.567,0,0,0,.934-1.009,1.546,1.546,0,0,0,.043-.869A.906.906,0,0,0,135.077,147.5Z" transform="translate(-79.435 -76.001)" fill="#263238"/>
      <path id="Path_7295" data-name="Path 7295" d="M108.137,214.286V208.35a16.535,16.535,0,0,0-1.2-10.326,55.571,55.571,0,0,0-3.724-5.662l-5.9-7.669c-3.252,2.367-8.345.655-12.714-.934a30.96,30.96,0,0,0-6.322,4.631c-2.109,2.361,5.1,31.905,5.1,31.905-3.268,6.537-7.487,12.343-8.125,18.3l34.132,1.315-1.449-15.649Z" transform="translate(-57.626 -100.748)" fill="#455a64"/>
      <path id="Path_7296" data-name="Path 7296" d="M135.62,244.89a3.011,3.011,0,0,1-.027-.671V242.4c.027-1.61.059-3.687.1-6s.107-4.465.182-6c.038-.767.075-1.39.107-1.819a2.961,2.961,0,0,1,.086-.66,3.41,3.41,0,0,1,0,.665V230.4c-.027,1.61-.064,3.687-.1,6s-.1,4.465-.177,6c-.038.767-.075,1.39-.113,1.819A2.834,2.834,0,0,1,135.62,244.89Z" transform="translate(-85.581 -121.208)" fill="#263238"/>
      <path id="Path_7297" data-name="Path 7297" d="M161.378,269.6a13.416,13.416,0,0,1,5.367,1.47c2.039,1.288,5.367,3.3,6.735,5.78.628,1.143-1.159,1.385-2.045.724s-2.233-1.916-2.9-2.066l-.671-.156a44.752,44.752,0,0,0,2.045,4.057c.692,1.073,1.293,2.855-.789,2.936,0,0-1.4,1.825-2.818.472,0,0-1.106,1.658-2.887-.639,0,0-1.041,1.315-1.47.81s-1.852-1.3-2.265-2.941a59.5,59.5,0,0,0-2.147-5.63Z" transform="translate(-95.748 -140.52)" fill="#ffbf9d"/>
      <path id="Path_7298" data-name="Path 7298" d="M297.927,162.629c.37,0,15.606-1.61,15.606-1.61a63.908,63.908,0,0,0,1.224-7.8c-.07-1.61-1.154-12.263-1.154-12.263l5.7-2.683s7.626,25.717,5.962,27.853a16.685,16.685,0,0,1-5.061,4.063c-.268.011-14.764,6.44-24.848,3.1S297.927,162.629,297.927,162.629Z" transform="translate(-157.802 -79.671)" fill="#ffbf9d"/>
      <path id="Path_7299" data-name="Path 7299" d="M278.63,190.423c2.243,2.227,6.107,4.079,12.558,2.469,12.751-3.188,22.309-5.9,26.109-7.943s2.318-11.152,2.64-11.565c.961-1.245-.1-3.918-1.465-4.336-3.9-1.181-10.69-.714-11.034-.36-2,2.1-.177,4.658-.177,4.658l-16.814,2.206a28.143,28.143,0,0,0-6.177.392" transform="translate(-151.858 -93.581)" fill="#455a64"/>
      <path id="Path_7300" data-name="Path 7300" d="M284.266,175.828l.4-.086c.268-.048.665-.118,1.191-.182a27.644,27.644,0,0,1,4.589-.193h0l16.809-2.254-.081.188a4.5,4.5,0,0,1-.773-2.764,3.221,3.221,0,0,1,.483-1.428,4.573,4.573,0,0,1,.462-.612.87.87,0,0,1,.22-.118l.193-.048c.129-.032.252-.043.376-.07a33.33,33.33,0,0,1,6.274-.129,21.571,21.571,0,0,1,3.263.451c.268.059.537.14.816.209a2.018,2.018,0,0,1,.767.451,3.757,3.757,0,0,1,.95,1.46,3.687,3.687,0,0,1,.22,1.744,2.147,2.147,0,0,1-.338.859c-.048.054-.043.2-.048.338v.429c.038,1.154.091,2.329.059,3.51a14.92,14.92,0,0,1-.81,4.927,4.878,4.878,0,0,1-1.4,2.055,4.793,4.793,0,0,1-1.073.633c-.354.188-.73.333-1.073.5-1.47.628-2.946,1.143-4.4,1.61s-2.882.918-4.293,1.331c-5.614,1.61-10.733,2.914-14.995,3.982a28.856,28.856,0,0,1-3.091.639,16.585,16.585,0,0,1-2.818.15,11.748,11.748,0,0,1-4.4-.955,10.117,10.117,0,0,1-2.415-1.5,6.284,6.284,0,0,1-.719-.682s.247.236.757.639a10.512,10.512,0,0,0,2.426,1.449,11.866,11.866,0,0,0,4.352.9,16.325,16.325,0,0,0,2.785-.172,29.272,29.272,0,0,0,3.07-.655c4.293-1.073,9.37-2.394,14.968-4.036,1.4-.413,2.828-.853,4.293-1.336s2.919-.993,4.374-1.61c.354-.166.724-.311,1.073-.5a4.7,4.7,0,0,0,1-.6,4.567,4.567,0,0,0,1.315-1.937,14.784,14.784,0,0,0,.778-4.857c.032-1.175,0-2.34-.059-3.5v-.671a.644.644,0,0,1,0-.129.764.764,0,0,1,.043-.1l.027-.043a1.765,1.765,0,0,0,.29-.735,3.359,3.359,0,0,0-.209-1.61,3.478,3.478,0,0,0-.869-1.352,1.761,1.761,0,0,0-.665-.392c-.268-.07-.537-.145-.8-.209a21.4,21.4,0,0,0-3.22-.445,32.629,32.629,0,0,0-6.209.118,1.408,1.408,0,0,0-.365.064l-.172.038a.665.665,0,0,0-.107.054,4,4,0,0,0-.435.569,2.877,2.877,0,0,0-.451,1.315,4.293,4.293,0,0,0,.719,2.6l.107.166h-.188l-16.819,2.147h0a28.979,28.979,0,0,0-4.567.129c-.537.054-.928.113-1.2.15A1.5,1.5,0,0,0,284.266,175.828Z" transform="translate(-151.853 -93.465)" fill="#263238"/>
      <path id="Path_7301" data-name="Path 7301" d="M.005,0H14.088V148.25a6.44,6.44,0,0,1-6.44,6.44H6.44A6.44,6.44,0,0,1,0,148.25V0Z" transform="translate(86.89 99.846) rotate(-119.1)" fill="#fa935b"/>
      <path id="Path_7302" data-name="Path 7302" d="M0,0H32.613a1.2,1.2,0,0,1,1.2,1.2V9.531a1.2,1.2,0,0,1-1.2,1.2H0V0Z" transform="translate(195.51 34.767) rotate(-119.1)" fill="#fa935b"/>
      <rect id="Rectangle_26829" data-name="Rectangle 26829" width="27.247" height="10.733" rx="3.24" transform="translate(176.713 43.786) rotate(-119.1)" fill="#fa935b"/>
      <rect id="Rectangle_26830" data-name="Rectangle 26830" width="14.716" height="16.669" transform="translate(181.671 33.143) rotate(-119.1)" fill="#fa935b"/>
      <path id="Path_7303" data-name="Path 7303" d="M331.266,59.86c.038.064-25.384,14.286-56.769,31.76s-56.887,31.588-56.887,31.519,25.379-14.286,56.774-31.766S331.229,59.79,331.266,59.86Z" transform="translate(-123.585 -43.341)" fill="#263238"/>
      <path id="Path_7304" data-name="Path 7304" d="M102.28,216.156c9.553,17.173,29.694,24.15,44.989,15.644s19.964-29.329,10.411-46.481-29.689-24.15-44.989-15.644S92.733,199,102.28,216.156Zm47.114-26.222c6.692,12.021,3.424,26.6-7.3,32.565s-24.832,1.073-31.524-10.959-3.424-26.6,7.293-32.571S142.7,177.913,149.395,189.935Z" transform="translate(-67.853 -92.545)" fill="#fa935b"/>
      <rect id="Rectangle_26831" data-name="Rectangle 26831" width="21.531" height="7.653" rx="3.826" transform="translate(110.614 91.007) rotate(-119.1)" fill="#fa935b"/>
      <rect id="Rectangle_26832" data-name="Rectangle 26832" width="21.531" height="7.653" rx="3.826" transform="translate(124.188 83.452) rotate(-119.1)" fill="#fa935b"/>
      <path id="Path_7305" data-name="Path 7305" d="M244.358,162c.07-.038,1.707,2.844,3.665,6.44s3.488,6.526,3.419,6.563-1.707-2.839-3.665-6.44S244.288,162,244.358,162Z" transform="translate(-135.977 -90.665)" fill="#263238"/>
      <path id="Path_7306" data-name="Path 7306" d="M232.748,170.25c.07-.038,1.669,2.716,3.58,6.14s3.4,6.241,3.333,6.279-1.669-2.716-3.558-6.113S232.684,170.287,232.748,170.25Z" transform="translate(-130.598 -94.488)" fill="#263238"/>
      <path id="Path_7307" data-name="Path 7307" d="M269.808,148.07c.07-.038,1.739,2.828,3.73,6.4s3.547,6.51,3.478,6.547-1.733-2.834-3.724-6.408S269.744,148.107,269.808,148.07Z" transform="translate(-147.769 -84.211)" fill="#263238"/>
      <path id="Path_7308" data-name="Path 7308" d="M257.6,155.44c.064-.038,1.7,2.812,3.644,6.365s3.472,6.44,3.4,6.5-1.7-2.812-3.644-6.365S257.528,155.477,257.6,155.44Z" transform="translate(-142.112 -87.626)" fill="#263238"/>
      <path id="Path_7309" data-name="Path 7309" d="M318.605,108.336a2.533,2.533,0,0,0,1.073-4.927,2.64,2.64,0,0,0-2.292-4.454,3.161,3.161,0,0,0-4.755-2.6,3.553,3.553,0,0,0-4.374-.1,2.528,2.528,0,0,0-2.238,4.293" transform="translate(-164.195 -59.88)" fill="#263238"/>
      <path id="Path_7310" data-name="Path 7310" d="M302.378,101.53h.537a10.766,10.766,0,0,1,10.723,9.912c.4,5.2.778,10.948.735,13.739-.1,5.8-5.866,6.655-5.866,6.655l.467,6.945-14.023-.456-1.165-25.17C293.292,107.149,296.367,101.863,302.378,101.53Z" transform="translate(-158.856 -62.648)" fill="#ffbf9d"/>
      <path id="Path_7311" data-name="Path 7311" d="M314.822,156.068a14.023,14.023,0,0,1-7.562-2.238s1.857,4.374,7.621,3.869Z" transform="translate(-165.123 -86.88)" fill="#ff9a6c"/>
      <path id="Path_7312" data-name="Path 7312" d="M323.488,129.5a.821.821,0,0,1-.8.826.794.794,0,0,1-.848-.746.832.832,0,0,1,.8-.832.794.794,0,0,1,.848.751Z" transform="translate(-171.878 -75.258)" fill="#263238"/>
      <path id="Path_7313" data-name="Path 7313" d="M325.662,124.539c-.1.107-.73-.354-1.61-.354s-1.54.44-1.637.333.059-.242.344-.451a2.259,2.259,0,0,1,1.309-.4,2.147,2.147,0,0,1,1.283.419C325.619,124.3,325.71,124.5,325.662,124.539Z" transform="translate(-172.131 -72.906)" fill="#263238"/>
      <path id="Path_7314" data-name="Path 7314" d="M308.573,128.793a.826.826,0,0,1-.8.843.794.794,0,0,1-.848-.746.826.826,0,0,1,.8-.832.794.794,0,0,1,.853.735Z" transform="translate(-164.965 -74.938)" fill="#263238"/>
      <path id="Path_7315" data-name="Path 7315" d="M309.4,124.8c-.1.107-.73-.354-1.61-.354s-1.54.44-1.637.333.059-.242.344-.451a2.259,2.259,0,0,1,1.31-.4,2.147,2.147,0,0,1,1.283.419C309.359,124.558,309.45,124.751,309.4,124.8Z" transform="translate(-164.598 -73.027)" fill="#263238"/>
      <path id="Path_7316" data-name="Path 7316" d="M317.85,131.455a5.741,5.741,0,0,1,1.444-.258c.225,0,.44-.064.483-.22a1.159,1.159,0,0,0-.15-.671l-.666-1.728a27.641,27.641,0,0,1-1.492-4.519,27.7,27.7,0,0,1,1.852,4.385c.22.606.435,1.186.639,1.739a1.336,1.336,0,0,1,.113.891.569.569,0,0,1-.376.327,1.3,1.3,0,0,1-.381.054A5.9,5.9,0,0,1,317.85,131.455Z" transform="translate(-169.847 -73.087)" fill="#263238"/>
      <path id="Path_7317" data-name="Path 7317" d="M310.548,118.367c-.118.225-.875,0-1.814-.054s-1.723.123-1.809-.113c-.038-.113.129-.311.467-.494a2.839,2.839,0,0,1,1.406-.29,2.726,2.726,0,0,1,1.358.419C310.462,118.045,310.6,118.265,310.548,118.367Z" transform="translate(-164.965 -70.007)" fill="#263238"/>
      <path id="Path_7318" data-name="Path 7318" d="M325.462,117.7c-.188.2-.923,0-1.8,0s-1.61.134-1.8-.08c-.075-.1.043-.306.37-.494a2.887,2.887,0,0,1,1.465-.327,2.823,2.823,0,0,1,1.433.413C325.441,117.393,325.543,117.6,325.462,117.7Z" transform="translate(-171.878 -69.721)" fill="#263238"/>
      <path id="Path_7319" data-name="Path 7319" d="M311.906,108.227s-1.513-3.623-3.258-4.47c-2.109-1.03-3.021,1.283-5.034.714s-4.025-1.551-6.086,0c-2.254,1.7-1.2,2.893-1.352,5.458-.59,10.39-2.5,13.32-3.021,8.426-.059-.537-1.546-.966-1.76-3.22-.279-2.936-.381-6.5.284-8.587a8.085,8.085,0,0,1,3.36-4.293c2.844-2.1,6.741-2.147,9.386-1.862S312.158,103.7,311.906,108.227Z" transform="translate(-157.672 -62.063)" fill="#263238"/>
      <path id="Path_7320" data-name="Path 7320" d="M292.169,132.355a1.567,1.567,0,0,0-1.685-1.519c-1.073.1-2.281.708-2.216,2.936.113,3.95,4.057,3.021,4.063,2.9S292.234,134.008,292.169,132.355Z" transform="translate(-156.322 -76.224)" fill="#ffbf9d"/>
      <path id="Path_7321" data-name="Path 7321" d="M292.59,136.325a.872.872,0,0,1-.182.107.692.692,0,0,1-.51.027,1.7,1.7,0,0,1-.832-1.508,2.265,2.265,0,0,1,.161-.987.789.789,0,0,1,.5-.537.349.349,0,0,1,.413.177c.054.107.032.188.054.193s.08-.07.043-.231a.4.4,0,0,0-.161-.242.5.5,0,0,0-.381-.091.966.966,0,0,0-.7.633,2.319,2.319,0,0,0-.209,1.106,1.779,1.779,0,0,0,1.073,1.68.725.725,0,0,0,.623-.123C292.59,136.422,292.606,136.325,292.59,136.325Z" transform="translate(-157.488 -77.334)" fill="#ff9a6c"/>
      <path id="Path_7322" data-name="Path 7322" d="M292.445,109.352a3.757,3.757,0,0,0,1.669.778,1.288,1.288,0,0,0,1.433-.9c.048-.274,0-.6.161-.805s.617-.172.945-.134c1.148.123,2.5-1.143,2.791-2.259a1.025,1.025,0,0,0,1.374.29,3.672,3.672,0,0,0,.955-.843,1.637,1.637,0,0,1,1.358-.671,3.756,3.756,0,0,0,.859.188c.537-.043.773-.649.853-1.165s.145-1.111.585-1.39a2.077,2.077,0,0,1,1.411-.038c.478.075,1.073-.038,1.218-.5a.944.944,0,0,0-.177-.714,2.555,2.555,0,0,0-3.016-.977,3.461,3.461,0,0,0-6.37-.692,3.515,3.515,0,0,0-5.63,1.267,2.549,2.549,0,0,0-2.887,3.7,2.42,2.42,0,0,0-1.336,1.927,1.4,1.4,0,0,0,1.567,1.417,1.411,1.411,0,0,0,2.436,1.417" transform="translate(-156.496 -60.875)" fill="#263238"/>
      <path id="Path_7323" data-name="Path 7323" d="M305.464,104.53v.075a.607.607,0,0,1-.027.209,2.573,2.573,0,0,1-.29.762,2.86,2.86,0,0,1-.875.928,2.64,2.64,0,0,1-1.61.456l.064-.086a1.412,1.412,0,0,1-.081,1.073,4.074,4.074,0,0,1-.676.966,2.965,2.965,0,0,1-.445.456,1.476,1.476,0,0,1-1.894-.231l.145-.043a2.957,2.957,0,0,1-1.261,2.045,2.147,2.147,0,0,1-1.3.424,3.993,3.993,0,0,1-1.277-.284l.107-.048a3.129,3.129,0,0,1-.939,1.218,1.653,1.653,0,0,1-1.374.37,2.179,2.179,0,0,1-1.674-1.707l.091.043a2.077,2.077,0,0,1-1.358.193,2.238,2.238,0,0,1-.945-.424,1.969,1.969,0,0,1-.44-.483.709.709,0,0,1-.1-.209,2.319,2.319,0,0,0,.574.639,2.147,2.147,0,0,0,.923.381,1.921,1.921,0,0,0,1.283-.2l.075-.043v.086a2.039,2.039,0,0,0,1.578,1.578,1.508,1.508,0,0,0,1.25-.349,2.962,2.962,0,0,0,.88-1.154l.032-.07h.075a3.783,3.783,0,0,0,1.218.268,1.991,1.991,0,0,0,1.2-.392,2.807,2.807,0,0,0,1.191-1.927v-.188l.123.145a1.277,1.277,0,0,0,1.122.408,1.256,1.256,0,0,0,.537-.2,2.61,2.61,0,0,0,.419-.424,3.934,3.934,0,0,0,.665-.923,1.283,1.283,0,0,0,.086-.987l-.032-.1h.1a2.533,2.533,0,0,0,1.551-.413,2.813,2.813,0,0,0,.869-.886A2.963,2.963,0,0,0,305.464,104.53Z" transform="translate(-156.806 -64.038)" fill="#455a64"/>
      <path id="Path_7324" data-name="Path 7324" d="M315.442,141.393c-.032-.145-.993.091-1.884-.564s-1.036-1.707-1.17-1.68-.134.279-.038.714a2.463,2.463,0,0,0,.928,1.417,2.146,2.146,0,0,0,1.556.408C315.249,141.624,315.464,141.457,315.442,141.393Z" transform="translate(-167.45 -80.078)" fill="#263238"/>
      <path id="Path_7325" data-name="Path 7325" d="M362.858,423.12l3.81,12.982s14.49.483,15.419,2.818l-24.934,8.286-6.773-19.991Z" transform="translate(-185.102 -211.65)" fill="#455a64"/>
      <path id="Path_7326" data-name="Path 7326" d="M365.32,449.946a1.073,1.073,0,0,0-.317,1.4,1.03,1.03,0,0,0,1.379.327,1.132,1.132,0,0,0,.327-1.481,1.073,1.073,0,0,0-1.476-.182" transform="translate(-191.815 -224.008)" fill="#e0e0e0"/>
      <path id="Path_7327" data-name="Path 7327" d="M386.009,450.8s1.272.113,1.406.939l-24.934,8.286-.6-2.045,24.107-7.191" transform="translate(-190.43 -224.471)" fill="#263238"/>
      <path id="Path_7328" data-name="Path 7328" d="M379.8,446.784c.038.123-.537.381-1.02.971s-.617,1.207-.746,1.2-.177-.773.4-1.476S379.794,446.666,379.8,446.784Z" transform="translate(-197.879 -222.596)" fill="#fff"/>
      <path id="Path_7329" data-name="Path 7329" d="M385.916,447.19c.07.113-.386.494-.633,1.143s-.177,1.24-.3,1.272-.429-.628-.113-1.433S385.879,447.077,385.916,447.19Z" transform="translate(-201.017 -222.792)" fill="#fff"/>
      <path id="Path_7330" data-name="Path 7330" d="M391.309,450.04c-.1.064-.472-.488-.381-1.256s.569-1.229.655-1.143-.15.537-.215,1.191S391.427,449.976,391.309,450.04Z" transform="translate(-203.882 -223.007)" fill="#fff"/>
      <path id="Path_7331" data-name="Path 7331" d="M376.97,441.346c0,.129-.628.145-1.3.419s-1.138.671-1.234.59.274-.687,1.073-1S377,441.227,376.97,441.346Z" transform="translate(-196.241 -220.017)" fill="#fff"/>
      <path id="Path_7332" data-name="Path 7332" d="M248.161,419.132l-5.426,12.4s10.782,9.66,10,12.064l-24.419-9.66,7.658-19.664Z" transform="translate(-128.548 -207.55)" fill="#455a64"/>
      <path id="Path_7333" data-name="Path 7333" d="M240.9,438.9a1.073,1.073,0,0,0-1.138.864,1.036,1.036,0,0,0,.848,1.138,1.138,1.138,0,0,0,1.2-.923c0-.537-.488-1.148-1.014-1.073" transform="translate(-133.847 -218.959)" fill="#e0e0e0"/>
      <path id="Path_7334" data-name="Path 7334" d="M252.261,457.258s.9.907.478,1.61l-24.419-9.66.853-1.948,23.077,9.982" transform="translate(-128.548 -222.835)" fill="#263238"/>
      <path id="Path_7335" data-name="Path 7335" d="M253.618,446.155c-.048.118-.665-.064-1.406.086s-1.25.537-1.342.44.36-.708,1.256-.875S253.693,446.053,253.618,446.155Z" transform="translate(-138.99 -222.143)" fill="#fff"/>
      <path id="Path_7336" data-name="Path 7336" d="M257.985,450.212c0,.123-.612.123-1.218.467s-.928.832-1.073.784.075-.757.832-1.17S258.028,450.1,257.985,450.212Z" transform="translate(-141.211 -224.128)" fill="#fff"/>
      <path id="Path_7337" data-name="Path 7337" d="M260.418,455.647c-.118,0-.048-.676.537-1.208s1.224-.574,1.234-.456-.472.333-.928.778S260.542,455.685,260.418,455.647Z" transform="translate(-143.397 -225.925)" fill="#fff"/>
      <path id="Path_7338" data-name="Path 7338" d="M255.5,440.063c-.091.086-.574-.29-1.267-.537s-1.3-.215-1.32-.338.649-.354,1.46-.086S255.593,439.977,255.5,440.063Z" transform="translate(-139.94 -218.998)" fill="#fff"/>
      <path id="Path_7339" data-name="Path 7339" d="M259.357,296.43l-8.555,34.7S235.374,357.106,232.76,370.1l14.114,5.549s10.267-25.036,13.277-29.63A36.991,36.991,0,0,1,264.8,340.3a8.936,8.936,0,0,0,2.345-4.057l6.478-24.757Z" transform="translate(-130.605 -152.951)" fill="#263238"/>
      <path id="Path_7340" data-name="Path 7340" d="M275.53,276.365s1.191,9.3,10.138,13.417l18.848,30.7a125.537,125.537,0,0,0,4.293,18.392c2.818,8.41,8.512,24.617,8.512,24.617l15.5-5.8-9.88-33.778-1.61-11.715-15.381-39.177L292.741,265.1Z" transform="translate(-150.421 -138.435)" fill="#263238"/>
      <path id="Path_7341" data-name="Path 7341" d="M275.53,276.3l.284-.193.853-.569,3.349-2.211,12.7-8.345.043-.027.043.027,13.224,7.905h0v.032l15.413,39.139v.027c.51,3.7,1.073,7.669,1.61,11.716h0c2.683,9.123,5.528,18.885,8.469,28.943q.714,2.431,1.417,4.83l.038.123-.123.043-15.5,5.8-.134.048-.043-.134c-2.683-7.787-5.281-15.284-7.733-22.4-.617-1.776-1.224-3.537-1.728-5.3s-.961-3.51-1.374-5.238c-.816-3.456-1.47-6.832-1.986-10.105v.043L285.6,289.744l.032.027a17.5,17.5,0,0,1-5.9-4.5,18.6,18.6,0,0,1-2.9-4.648,19.125,19.125,0,0,1-1.073-3.22c-.091-.365-.145-.649-.177-.843s-.038-.29-.038-.29a1.072,1.072,0,0,0,.059.284c.059.188.091.472.193.843a19.642,19.642,0,0,0,1.106,3.177,18.726,18.726,0,0,0,2.909,4.6,17.523,17.523,0,0,0,5.9,4.444h0L304.6,320.3h0v.027c.537,3.263,1.181,6.633,2,10.084.413,1.723.864,3.467,1.374,5.222s1.111,3.5,1.728,5.281c2.463,7.111,5.055,14.608,7.75,22.39l-.177-.081,15.5-5.8-.086.166q-.7-2.4-1.417-4.83l-8.458-28.948h0c-.537-4.047-1.106-8.012-1.61-11.716v.032l-15.354-39.177.043.048-13.2-7.937h.081l-12.7,8.308-3.381,2.179-.869.563Z" transform="translate(-150.421 -138.365)" fill="#455a64"/>
      <path id="Path_7342" data-name="Path 7342" d="M281.65,159.457s-4.519,3.478-6.714,7.363c-2.63,4.653-2.914,11.549-2.995,22.261-.081,9.907,1.4,12.66.832,16.4-1.122,7.293-1.953,31.771-1.953,31.771s14.49-5.565,17.3-8.05l2.828-2.458,18.134,5.995-3.66-22.283-2.512-27.773-3.22-14.732-.537-5.78-15.574-6.258Z" transform="translate(-148.239 -87.844)" fill="#455a64"/>
      <path id="Path_7343" data-name="Path 7343" d="M308.009,164.716c.188.038-.445,1.309-1.562,3.177l-.048.075-.086-.032c-1.572-.612-3.655-1.379-5.93-2.211-2.565-.934-4.884-1.8-6.542-2.479-.832-.338-1.5-.623-1.953-.832a4.407,4.407,0,0,1-.7-.343,3.823,3.823,0,0,1,.741.247l1.98.746,6.569,2.4c2.275.832,4.352,1.61,5.9,2.275l-.129.043A15.369,15.369,0,0,0,308.009,164.716Z" transform="translate(-157.677 -90.698)" fill="#263238"/>
      <path id="Path_7344" data-name="Path 7344" d="M351.027,129.01s-1.148-1.787-2.233-3.435-2.726-2.458-2.989-3.317-1.707-4.685-1.937-5.635a12.235,12.235,0,0,1-.279-2.8s1.186-.5,1.755,1.191a43.136,43.136,0,0,0,1.674,4.653c.236.172.537-.081.537-.081a40.693,40.693,0,0,1-1.261-3.955c-.054-.628.166-4.792.166-4.792a1.256,1.256,0,0,1,1.427.8,11.753,11.753,0,0,1,.585,3.757l.853,2.995-.3-2.962.429-5.447a2.05,2.05,0,0,1,1.717,1.61c.36,1.47-.118,3.521.123,3.955a18.96,18.96,0,0,1,.5,3.064s.3-6.386.977-6.569,1.24.494,1.143,1.782a20.094,20.094,0,0,0,.231,5.216c.354,1.2,3.987,5.9,3.692,7.964a34.573,34.573,0,0,0-.338,3.757h-6.225Z" transform="translate(-181.954 -66.563)" fill="#ffbf9d"/>
      <path id="Path_7345" data-name="Path 7345" d="M309.308,161.922c.349.134,15.22,3.816,15.22,3.816s3.322-5.367,3.81-6.923,3.1-11.925,3.1-11.925l6.284-.59s-1.61,26.775-3.885,28.218a16.645,16.645,0,0,1-6.14,2.093c-.236-.081-16.073,1.02-24.419-5.555S309.308,161.922,309.308,161.922Z" transform="translate(-162.072 -83.391)" fill="#ffbf9d"/>
      <g id="Group_14178" data-name="Group 14178" transform="translate(136.347 92.613)" opacity="0.3">
        <path id="Path_7346" data-name="Path 7346" d="M296.7,201.741a11.355,11.355,0,0,0,6.08,3.574c3.945.869,12.343,2.41,12.343,2.41l-.408-4.122L296.47,201.65" transform="translate(-296.47 -201.65)"/>
      </g>
      <path id="Path_7347" data-name="Path 7347" d="M284.56,181.169c1.352,2.855,4.358,5.9,10.964,6.6,13.079,1.352,22.98,2.072,27.258,1.428s5.979-9.7,6.44-9.977c1.331-.837,1.245-3.714.1-4.572-3.263-2.442-9.8-4.293-10.245-4.095-2.6,1.293-1.755,4.32-1.755,4.32l-16.583-3.66a27.907,27.907,0,0,0-5.941-1.728" transform="translate(-154.605 -94.131)" fill="#455a64"/>
      <path id="Path_7348" data-name="Path 7348" d="M294.827,169.48a2.338,2.338,0,0,1,.408.054c.268.054.671.118,1.186.231a27.64,27.64,0,0,1,4.379,1.385h0l16.572,3.606-.14.15a4.46,4.46,0,0,1,.215-2.86,3.172,3.172,0,0,1,.934-1.181,4.327,4.327,0,0,1,.649-.419.907.907,0,0,1,.242-.038h.2a2.265,2.265,0,0,1,.381.064,33.277,33.277,0,0,1,5.941,2.013,22.291,22.291,0,0,1,2.914,1.535c.231.15.461.317.692.478a1.986,1.986,0,0,1,.569.682,3.8,3.8,0,0,1,.4,1.7,3.638,3.638,0,0,1-.386,1.717,2.039,2.039,0,0,1-.612.692c-.064.032-.107.172-.161.3l-.14.4c-.354,1.073-.708,2.222-1.138,3.327a15.087,15.087,0,0,1-2.436,4.379,4.294,4.294,0,0,1-3.22,1.685c-.4.059-.8.07-1.2.1-1.61.1-3.156.075-4.685.032s-3.027-.123-4.481-.215c-5.834-.376-11.066-.907-15.456-1.363a28.2,28.2,0,0,1-3.123-.451,16.637,16.637,0,0,1-2.683-.816,11.838,11.838,0,0,1-3.8-2.394,10.143,10.143,0,0,1-1.76-2.238,6.333,6.333,0,0,1-.445-.885s.15.306.494.859a10.621,10.621,0,0,0,1.787,2.184,11.72,11.72,0,0,0,3.789,2.329,17.025,17.025,0,0,0,2.683.789,29.078,29.078,0,0,0,3.113.424c4.39.435,9.622.945,15.445,1.309,1.46.086,2.952.161,4.476.2s3.086.059,4.664-.032c.392-.038.794-.048,1.186-.107a4.294,4.294,0,0,0,1.148-.22,4.594,4.594,0,0,0,1.9-1.374,14.786,14.786,0,0,0,2.383-4.293c.429-1.073.778-2.206,1.132-3.311l.15-.419a.666.666,0,0,1,.086-.209.743.743,0,0,1,.07-.118.428.428,0,0,1,.07-.07l.038-.032a1.744,1.744,0,0,0,.537-.6,3.338,3.338,0,0,0,.354-1.61,3.552,3.552,0,0,0-.36-1.567,1.75,1.75,0,0,0-.488-.59c-.231-.156-.451-.322-.682-.467a21.384,21.384,0,0,0-2.877-1.519,32.942,32.942,0,0,0-5.877-2.007c-.123,0-.247-.054-.365-.064h-.3a4.125,4.125,0,0,0-.6.392,2.9,2.9,0,0,0-.875,1.073,4.294,4.294,0,0,0-.209,2.683l.048.188-.188-.043-16.546-3.7h0a29.332,29.332,0,0,0-4.336-1.438c-.537-.123-.907-.209-1.175-.263A2.425,2.425,0,0,0,294.827,169.48Z" transform="translate(-154.638 -94.131)" fill="#263238"/>
      <path id="Path_7349" data-name="Path 7349" d="M350.947,184.486a3.517,3.517,0,0,1-1.073-.467,10.6,10.6,0,0,1-2.254-1.685,11.271,11.271,0,0,1-1.76-2.2,3.889,3.889,0,0,1-.51-1.073,23.778,23.778,0,0,0,2.463,3.054A21.971,21.971,0,0,0,350.947,184.486Z" transform="translate(-182.771 -98.57)" fill="#263238"/>
      <path id="Path_7350" data-name="Path 7350" d="M134.9,271.53a13.318,13.318,0,0,1,5.367,1.47c2.039,1.293,5.367,3.29,6.735,5.78.628,1.143-1.159,1.385-2.039.719a14.329,14.329,0,0,0-2.909-2.066l-.671-.15a44.137,44.137,0,0,0,2.045,4.052c.692,1.073,1.293,2.855-.784,2.941,0,0-1.406,1.825-2.823.472,0,0-1.106,1.653-2.887-.639,0,0-1.036,1.309-1.47.81s-1.852-1.3-2.265-2.941a57.454,57.454,0,0,0-2.147-5.63Z" transform="translate(-83.48 -141.414)" fill="#ffbf9d"/>
      <path id="Path_7351" data-name="Path 7351" d="M80.612,190a8.007,8.007,0,0,0-4.181,3.139c-1.277,1.964-1.669,5.367-1.3,7.9.773,5.34,3.22,14.351,4.6,20.136.472,2,1.444,5.571,4.293,7.465l20.334,12.193,5.436-8.05L91.255,217.676l-3.665-20.7Z" transform="translate(-57.509 -103.639)" fill="#455a64"/>
      <path id="Path_7352" data-name="Path 7352" d="M78.91,219.816a1.187,1.187,0,0,1,.064.209l.172.628c.145.569.349,1.385.617,2.431.537,2.147,1.3,5.195,2.249,8.989a10.524,10.524,0,0,0,3.349,5.3,20.143,20.143,0,0,0,2.973,1.975l3.268,1.975,14.646,8.844-.188.043,1.959-2.9,3.478-5.168.027.188L93.153,227.2h-.032v-.038c-1.213-5.1-2.093-9.284-2.651-12.193-.274-1.454-.467-2.587-.59-3.36-.054-.376-.1-.671-.129-.88s-.038-.3-.038-.3a2.527,2.527,0,0,1,.07.3c.038.209.091.5.156.875.145.767.354,1.9.655,3.349.585,2.9,1.5,7.068,2.737,12.166l-.038-.059,18.4,15.059.1.081-.07.1-3.478,5.168-1.959,2.9-.07.107-.118-.064-14.624-8.871-3.263-1.98a20.542,20.542,0,0,1-2.995-1.991,10.664,10.664,0,0,1-3.386-5.426c-.918-3.805-1.653-6.88-2.147-9.011-.242-1.073-.435-1.873-.569-2.442l-.156-.66a1.568,1.568,0,0,1-.048-.215Z" transform="translate(-59.322 -113.105)" fill="#263238"/>
      <path id="Path_7353" data-name="Path 7353" d="M79.53,194.874a1.284,1.284,0,0,1,.413-.177,7.825,7.825,0,0,1,1.191-.268,7.057,7.057,0,0,1,3.966.537,7.91,7.91,0,0,1,2.962,2.683,4.83,4.83,0,0,1,.537,1.1,1.266,1.266,0,0,1,.1.435,11.3,11.3,0,0,0-.8-1.422,8.409,8.409,0,0,0-2.919-2.528,7.411,7.411,0,0,0-3.821-.59C80.153,194.724,79.546,194.923,79.53,194.874Z" transform="translate(-59.609 -105.653)" fill="#263238"/>
    </g>
  </g>
</svg>
