<svg id="Group_13147" data-name="Group 13147" xmlns="http://www.w3.org/2000/svg" width="48.658" height="48.654" viewBox="0 0 48.658 48.654">
  <path id="Path_7136" data-name="Path 7136" d="M648.262,69.474l-1.837,1.854,2.134,2.43c-.451.283-.914.533-1.332.844-1.611,1.2-1.606,2.75.012,3.948a10.26,10.26,0,0,0,4.779,1.743,17.965,17.965,0,0,0,8.374-.613,6.732,6.732,0,0,0,2.678-1.522,2.014,2.014,0,0,0-.011-3.168,17.807,17.807,0,0,0-1.734-1.267c.7-.793,1.41-1.616,2.143-2.421a.5.5,0,0,1,.424-.12,14.793,14.793,0,0,1,5.9,2.979,4.738,4.738,0,0,1,1.752,3.008,4.193,4.193,0,0,1-1.389,3.5,12.638,12.638,0,0,1-5.076,2.964,31.627,31.627,0,0,1-12.311,1.515,27.977,27.977,0,0,1-8.278-1.632,19.831,19.831,0,0,1-2.609-1.206,7.909,7.909,0,0,1-3.314-3.206l-3.6,3.6c-.666.667-1.328,1.338-2,2a1.3,1.3,0,0,1-1.986.1,1.271,1.271,0,0,1,.139-1.938q6.113-6.123,12.234-12.239l33.268-33.271a6.181,6.181,0,0,1,.535-.5,1.293,1.293,0,0,1,1.828,1.792,4.956,4.956,0,0,1-.46.5q-4.176,4.181-8.346,8.369a.92.92,0,0,0-.28.7c1.068,3.894.264,7.535-1.439,11.062a48.536,48.536,0,0,1-7.516,10.9c-1.581,1.794-3.268,3.5-4.932,5.216a1.3,1.3,0,0,1-2.186-.016c-1.8-1.879-3.565-3.786-5.345-5.681Z" transform="translate(-630.595 -36.572)" fill="#91a7c0"/>
  <path id="Path_7137" data-name="Path 7137" d="M695.1,65.244a38.541,38.541,0,0,1-3.4-5.594,17.825,17.825,0,0,1-2.01-6.429A15.4,15.4,0,0,1,717.211,42.6c.09.117.171.242.21.3l-7.429,7.433c-1.457-2.687-3.325-3.791-5.8-3.389a5.22,5.22,0,0,0-4.269,4.334c-.421,2.354.674,4.18,3.4,5.735Z" transform="translate(-680.738 -36.619)" fill="#515c6f"/>
</svg>
