<?xml version="1.0" encoding="utf-8"?>
<!-- Generator: Adobe Illustrator 16.0.0, SVG Export Plug-In . SVG Version: 6.00 Build 0)  -->
<!DOCTYPE svg PUBLIC "-//W3C//DTD SVG 1.1//EN" "http://www.w3.org/Graphics/SVG/1.1/DTD/svg11.dtd">
<svg version="1.1" id="Layer_1" xmlns="http://www.w3.org/2000/svg" xmlns:xlink="http://www.w3.org/1999/xlink" x="0px" y="0px"
	 width="62px" height="41.834px" viewBox="0 0 62 41.834" enable-background="new 0 0 62 41.834" xml:space="preserve">
<g id="Group_53" transform="translate(9.332 5.561)">
	<g id="Group_35" transform="translate(8.749 6.494)">
		<path id="Rectangle_19" fill="#FF4D4D" d="M2.592-10.645L2.592-10.645c10.773,0,19.507,8.733,19.507,19.507l0,0
			c0,10.772-8.733,19.507-19.507,19.507l0,0c-10.773,0-19.507-8.734-19.507-19.507l0,0C-16.915-1.912-8.181-10.645,2.592-10.645z"/>
		<path id="Rectangle_20" opacity="0.7" fill="#FF9F21" enable-background="new    " d="M23.246-10.645L23.246-10.645
			c10.773,0,19.507,8.733,19.507,19.507l0,0c0,10.772-8.733,19.507-19.507,19.507l0,0c-10.773,0-19.507-8.734-19.507-19.507l0,0
			C3.739-1.912,12.473-10.645,23.246-10.645z"/>
	</g>
</g>
</svg>
