<svg xmlns="http://www.w3.org/2000/svg" width="260" height="260" viewBox="0 0 260 260">
  <g id="Group_15315" data-name="Group 15315" transform="translate(-851 -358)">
    <circle id="Ellipse_1279" data-name="Ellipse 1279" cx="130" cy="130" r="130" transform="translate(851 358)" fill="#f0f7ff"/>
    <g id="Group_15313" data-name="Group 15313" transform="translate(-455.049 417.045)">
      <path id="Path_7975" data-name="Path 7975" d="M1435.989,120.352q-20.194,0-40.389,0c-3.3,0-4.856-1.568-4.856-4.892q0-24.819.021-49.638a2.054,2.054,0,0,0-1.022-1.957,15.983,15.983,0,0,1-7.182-12.852,5.975,5.975,0,0,1,.608-2.826c3.936-7.986,7.953-15.931,11.912-23.906a4.487,4.487,0,0,1,4.394-2.723q36.595.024,73.189,0a4.414,4.414,0,0,1,4.293,2.677q5.947,11.959,11.957,23.886c.937,1.848.655,3.681.268,5.518a15.871,15.871,0,0,1-6.937,10.267,1.912,1.912,0,0,0-.943,1.87q.03,24.755.015,49.51c0,3.605-1.463,5.067-5.069,5.067Q1456.119,120.355,1435.989,120.352Zm.005-59.116a16.579,16.579,0,0,1-24.686-.036,16.917,16.917,0,0,1-12.27,5.576V112.05h73.954v-45.3a16.79,16.79,0,0,1-12.221-5.5A16.763,16.763,0,0,1,1435.995,61.236Zm37.163-2.628a8.11,8.11,0,0,0,7.917-6.287,3.11,3.11,0,0,0-.219-1.924c-3.246-6.559-6.557-13.085-9.818-19.636a1.494,1.494,0,0,0-1.552-.982q-33.436.036-66.872,0a1.5,1.5,0,0,0-1.573.951c-3.278,6.591-6.6,13.16-9.888,19.747a2.778,2.778,0,0,0-.328,1.451,8.227,8.227,0,0,0,16.376-1.162,4.168,4.168,0,0,1,2.474-4.142c2.765-1.261,5.626.713,5.777,3.941a8.226,8.226,0,0,0,16.447.029,4.17,4.17,0,0,1,2.288-3.876c2.768-1.417,5.809.514,5.965,3.763a8.225,8.225,0,0,0,16.444.2,4.222,4.222,0,0,1,2.333-3.98c2.776-1.388,5.773.563,5.926,3.829A8.238,8.238,0,0,0,1473.158,58.608Z" transform="translate(0 0)" fill="#91a7c0"/>
      <path id="Path_7976" data-name="Path 7976" d="M1518.77,289.861a33.062,33.062,0,0,1,23.324,9.433,4.124,4.124,0,1,1-5.618,6.012c-10.485-9.664-24.652-9.675-35.1-.026a4.117,4.117,0,0,1-5.389.6,4.026,4.026,0,0,1-1.465-4.888,5.606,5.606,0,0,1,1.272-1.74A32.893,32.893,0,0,1,1518.77,289.861Z" transform="translate(-82.875 -199.165)" fill="#91a7c0"/>
      <path id="Path_7977" data-name="Path 7977" d="M1500.375,233.608a6.171,6.171,0,1,1,6.2-6.083A6.191,6.191,0,0,1,1500.375,233.608Z" transform="translate(-82.895 -148.246)" fill="#91a7c0"/>
      <path id="Path_7978" data-name="Path 7978" d="M1650.36,227.432a6.172,6.172,0,1,1-6.111-6.167A6.194,6.194,0,0,1,1650.36,227.432Z" transform="translate(-189.631 -148.245)" fill="#91a7c0"/>
    </g>
  </g>
</svg>
