<svg xmlns="http://www.w3.org/2000/svg" width="397.819" height="292.978" viewBox="0 0 397.819 292.978">
  <g id="No_data-pana" data-name="No data-pana" transform="translate(-86.33)">
    <g id="freepik--background-complete--inject-5" transform="translate(100.451)">
      <rect id="Rectangle_27072" data-name="Rectangle 27072" width="89.271" height="131.45" transform="translate(0 130.488) rotate(-33.78)" fill="#f5f5f5"/>
      <path id="Path_7983" data-name="Path 7983" d="M253.1,276.937l-.84,5.211-36.888-5.317.84-5.211Z" transform="translate(-144.155 -91.993)" fill="#e0e0e0"/>
      <path id="Path_7984" data-name="Path 7984" d="M241.322,251.55l5.291.761-5.866,36.319-5.3-.767Z" transform="translate(-150.956 -85.196)" fill="#e0e0e0"/>
      <path id="Path_7985" data-name="Path 7985" d="M175.893,181.75c.053.073-7.38,5.145-16.606,11.309s-16.745,11.11-16.8,11.031,7.38-5.145,16.606-11.315S175.807,181.67,175.893,181.75Z" transform="translate(-119.472 -61.555)" fill="#e0e0e0"/>
      <path id="Path_7986" data-name="Path 7986" d="M205.832,171.39c.053.079-12.314,8.438-27.617,18.676s-27.775,18.471-27.815,18.4,12.3-8.445,27.623-18.682S205.779,171.31,205.832,171.39Z" transform="translate(-122.151 -58.047)" fill="#e0e0e0"/>
      <path id="Path_7987" data-name="Path 7987" d="M214.1,183.75c.053.079-12.314,8.445-27.617,18.682S158.71,220.9,158.67,220.823s12.314-8.438,27.623-18.682S214.049,183.67,214.1,183.75Z" transform="translate(-124.951 -62.233)" fill="#e0e0e0"/>
      <path id="Path_7988" data-name="Path 7988" d="M222.392,196.12c.053.079-12.314,8.445-27.617,18.676S167,233.272,167,233.193s12.307-8.445,27.617-18.682S222.339,196.04,222.392,196.12Z" transform="translate(-127.773 -66.422)" fill="#e0e0e0"/>
      <path id="Path_7989" data-name="Path 7989" d="M230.615,208.49c.053.079-12.314,8.438-27.617,18.676s-27.775,18.471-27.808,18.391,12.327-8.438,27.65-18.676S230.615,208.41,230.615,208.49Z" transform="translate(-130.547 -70.612)" fill="#e0e0e0"/>
      <rect id="Rectangle_27073" data-name="Rectangle 27073" width="74.973" height="110.394" transform="translate(260.001 195.748) rotate(-33.78)" fill="#f5f5f5"/>
      <path id="Path_7990" data-name="Path 7990" d="M622.97,362.894l-.708,4.378-30.983-4.464.714-4.378Z" transform="translate(-271.469 -121.394)" fill="#e0e0e0"/>
      <path id="Path_7991" data-name="Path 7991" d="M613.083,341.57l4.444.641-4.927,30.5-4.451-.641Z" transform="translate(-277.183 -115.684)" fill="#e0e0e0"/>
      <path id="Path_7992" data-name="Path 7992" d="M558.09,283c.053.079-6.183,4.345-13.934,9.523s-14.073,9.318-14.126,9.258,6.19-4.338,13.934-9.523S558.037,282.886,558.09,283Z" transform="translate(-250.725 -95.846)" fill="#e0e0e0"/>
      <path id="Path_7993" data-name="Path 7993" d="M583.287,274.25c.053.079-10.323,7.116-23.146,15.706s-23.318,15.508-23.371,15.428,10.323-7.116,23.146-15.713S583.214,274.17,583.287,274.25Z" transform="translate(-253.008 -92.884)" fill="#e0e0e0"/>
      <path id="Path_7994" data-name="Path 7994" d="M590.237,284.63c.053.079-10.323,7.116-23.146,15.713s-23.318,15.5-23.371,15.422,10.29-7.083,23.146-15.68S590.2,284.557,590.237,284.63Z" transform="translate(-255.361 -96.399)" fill="#e0e0e0"/>
      <path id="Path_7995" data-name="Path 7995" d="M597.177,295c.053.079-10.33,7.116-23.146,15.713s-23.318,15.5-23.371,15.422,10.323-7.109,23.146-15.713S597.131,294.934,597.177,295Z" transform="translate(-257.712 -99.911)" fill="#e0e0e0"/>
      <path id="Path_7996" data-name="Path 7996" d="M604.177,305.41c.053.079-10.323,7.109-23.146,15.706s-23.318,15.5-23.371,15.429,10.323-7.116,23.146-15.713S604.091,305.33,604.177,305.41Z" transform="translate(-260.083 -103.437)" fill="#e0e0e0"/>
      <rect id="Rectangle_27074" data-name="Rectangle 27074" width="77.11" height="113.541" transform="translate(155.734 48.507) rotate(28.14)" fill="#f5f5f5"/>
      <path id="Path_7997" data-name="Path 7997" d="M339.6,216.865l-4.312,1.475L324.34,188.071l4.318-1.481Z" transform="translate(-181.061 -63.195)" fill="#e0e0e0"/>
      <path id="Path_7998" data-name="Path 7998" d="M342.023,199.53l1.574,4.345-30.063,10.3-1.574-4.345Z" transform="translate(-176.868 -67.578)" fill="#e0e0e0"/>
      <path id="Path_7999" data-name="Path 7999" d="M374.042,123.617c-.053.1-6.944-3.485-15.4-8s-15.263-8.266-15.21-8.366,6.95,3.485,15.409,8S374.1,123.511,374.042,123.617Z" transform="translate(-187.527 -36.323)" fill="#e0e0e0"/>
      <path id="Path_8000" data-name="Path 8000" d="M388.389,145.316c-.053.1-11.467-5.906-25.494-13.4s-25.348-13.663-25.3-13.762,11.461,5.9,25.487,13.4S388.442,145.217,388.389,145.316Z" transform="translate(-185.552 -40.015)" fill="#e0e0e0"/>
      <path id="Path_8001" data-name="Path 8001" d="M382.329,156.646c-.053.1-11.467-5.9-25.494-13.4s-25.348-13.663-25.3-13.762,11.461,5.906,25.487,13.4S382.382,156.547,382.329,156.646Z" transform="translate(-183.5 -43.852)" fill="#e0e0e0"/>
      <path id="Path_8002" data-name="Path 8002" d="M376.269,167.979c-.053.1-11.467-5.9-25.494-13.4s-25.348-13.643-25.3-13.762,11.461,5.9,25.487,13.4S376.322,167.88,376.269,167.979Z" transform="translate(-181.447 -47.693)" fill="#e0e0e0"/>
      <path id="Path_8003" data-name="Path 8003" d="M370.209,179.31c-.053.1-11.467-5.9-25.494-13.4s-25.355-13.663-25.3-13.762,11.461,5.9,25.487,13.4S370.262,179.21,370.209,179.31Z" transform="translate(-179.395 -51.53)" fill="#e0e0e0"/>
      <rect id="Rectangle_27075" data-name="Rectangle 27075" width="1.706" height="29.085" transform="translate(189.459)" opacity="0.2"/>
    </g>
    <g id="freepik--Lamp--inject-5" transform="translate(250.932)">
      <path id="Path_8004" data-name="Path 8004" d="M335.23,79.175h79.662S407.538,44,374.459,44C345.037,44,335.23,79.175,335.23,79.175Z" transform="translate(-335.23 -14.902)" fill="#fa935b"/>
      <rect id="Rectangle_27076" data-name="Rectangle 27076" width="1.706" height="29.085" transform="translate(38.978)" fill="#fa935b"/>
    </g>
    <g id="freepik--Floor--inject-5" transform="translate(86.33 290.695)">
      <path id="Path_8005" data-name="Path 8005" d="M468.135,439.742c0,.093-85.475.172-190.9.172s-190.909-.06-190.909-.172,85.462-.172,190.909-.172S468.135,439.643,468.135,439.742Z" transform="translate(-86.33 -439.57)" fill="#263238"/>
    </g>
    <g id="freepik--Plant--inject-5" transform="translate(100.448 249.442)">
      <path id="Path_8006" data-name="Path 8006" d="M117.03,377.2a8.346,8.346,0,0,1,5.806,2.976,14.648,14.648,0,0,1,2.956,5.952c1.118,4.18.43,9.12-.761,13.279-4.523-1.62-7.321-6.448-8.6-8.987-1.984-4.008-3.168-12.472.575-13.226" transform="translate(-110.012 -377.19)" fill="#fa935b"/>
      <path id="Path_8007" data-name="Path 8007" d="M139.66,412.31a7.1,7.1,0,0,1-.331-7.129,9.43,9.43,0,0,1,5.687-4.57,3.958,3.958,0,0,1,3.346.159,3.029,3.029,0,0,1,1.171,2.85,6.13,6.13,0,0,1-1.323,2.923c-2.2,2.983-4.874,5.462-8.6,5.767" transform="translate(-118.126 -385.024)" fill="#fa935b"/>
      <path id="Path_8008" data-name="Path 8008" d="M140.34,428.871a4.3,4.3,0,0,1-.2-.866c-.119-.622-.278-1.422-.47-2.381a24.978,24.978,0,0,1-.489-8.009,15.21,15.21,0,0,1,2.969-7.413,10.129,10.129,0,0,1,1.713-1.739,6.071,6.071,0,0,1,.542-.384.76.76,0,0,1,.2-.119,16.776,16.776,0,0,0-2.282,2.374,15.773,15.773,0,0,0-2.83,7.327,26.889,26.889,0,0,0,.4,7.936c.159,1.012.291,1.832.364,2.4A5.44,5.44,0,0,1,140.34,428.871Z" transform="translate(-118.303 -387.611)" fill="#263238"/>
      <path id="Path_8009" data-name="Path 8009" d="M120.49,386.83a1.548,1.548,0,0,1,.185.337c.119.265.278.6.463,1.012.4.88.966,2.156,1.647,3.736,1.362,3.168,3.188,7.572,5.092,12.479s3.525,9.384,4.629,12.644c.569,1.627,1.012,2.949,1.323,3.869.139.437.245.787.331,1.058a1.728,1.728,0,0,1,.1.377,1.627,1.627,0,0,1-.159-.357c-.1-.265-.225-.608-.39-1.038l-1.4-3.836c-1.184-3.234-2.837-7.7-4.735-12.6s-3.7-9.318-5.006-12.505c-.661-1.567-1.171-2.844-1.547-3.776-.172-.423-.311-.76-.417-1.032A2.308,2.308,0,0,1,120.49,386.83Z" transform="translate(-112.017 -380.455)" fill="#263238"/>
      <path id="Path_8010" data-name="Path 8010" d="M124.338,421.482a16.652,16.652,0,0,0-12.909-8.022c-1.323-.093-2.949.132-3.545,1.323s.2,2.645,1.111,3.611a14.212,14.212,0,0,0,15.389,3.439" transform="translate(-107.678 -389.468)" fill="#fa935b"/>
      <path id="Path_8011" data-name="Path 8011" d="M116.43,418.887a4.723,4.723,0,0,1,.84.033,7.994,7.994,0,0,1,.972.112c.377.073.82.112,1.283.245a12.827,12.827,0,0,1,1.528.423,15.148,15.148,0,0,1,1.7.661,18.384,18.384,0,0,1,3.584,2.123,18.06,18.06,0,0,1,2.963,2.936,14.866,14.866,0,0,1,1.038,1.488,14.5,14.5,0,0,1,.78,1.382,11.513,11.513,0,0,1,.529,1.19,7.5,7.5,0,0,1,.337.926,4.511,4.511,0,0,1,.218.813c-.073,0-.39-1.137-1.283-2.83a14.539,14.539,0,0,0-.8-1.323,16.746,16.746,0,0,0-1.045-1.448,17.624,17.624,0,0,0-6.441-4.973c-.575-.251-1.124-.489-1.66-.661a14.457,14.457,0,0,0-1.5-.456C117.62,419.019,116.423,418.96,116.43,418.887Z" transform="translate(-110.642 -391.31)" fill="#263238"/>
    </g>
    <g id="freepik--Character--inject-5" transform="translate(353.475 44.97)">
      <path id="Path_8012" data-name="Path 8012" d="M565.286,104.776c-1.944.443-2.89,2.685-3.075,4.669s.066,4.087-.767,5.9c-.939,2.037-3.181,3.545-3.254,5.787-.046,1.369.767,2.645.727,4.027-.066,2.248-2.354,3.968-2.48,6.19-.086,1.62.992,3.168.734,4.768-.2,1.243-1.171,2.222-1.581,3.412-.813,2.381.82,4.993,2.943,6.329a9.649,9.649,0,0,0,14.053-4.484c1.177-2.857.919-6.077.661-9.153q-1.19-14.39-1.772-28.82" transform="translate(-512.334 -79.989)" fill="#263238"/>
      <path id="Path_8013" data-name="Path 8013" d="M561.82,139.7a2.255,2.255,0,0,0,.893-1.051,3.829,3.829,0,0,0,.225-1.62,8.9,8.9,0,0,0-.483-2.136,6.157,6.157,0,0,1-.344-2.711,6.23,6.23,0,0,1,1.574-2.711,5.8,5.8,0,0,0,.893-1.356,2.189,2.189,0,0,0,.106-1.587c-.344-1.078-1.4-1.872-1.885-3.121a3.307,3.307,0,0,1-.106-1.931,7.663,7.663,0,0,1,.661-1.726,14.816,14.816,0,0,0,1.323-3.115c.463-2.1.245-4.1.562-5.747a6.362,6.362,0,0,1,1.673-3.518,3.843,3.843,0,0,1,.873-.661,1.369,1.369,0,0,1,.351-.126,5.086,5.086,0,0,0-1.131.846,6.468,6.468,0,0,0-1.528,3.472,21.542,21.542,0,0,0-.185,2.645,16.285,16.285,0,0,1-.3,3.1,14.861,14.861,0,0,1-1.323,3.188,4.365,4.365,0,0,0-.516,3.393c.436,1.137,1.488,1.924,1.891,3.141a2.566,2.566,0,0,1-.126,1.819,6.256,6.256,0,0,1-.992,1.488,6.275,6.275,0,0,0-1.541,2.553,5.952,5.952,0,0,0,.3,2.6,9.009,9.009,0,0,1,.436,2.2,3.71,3.71,0,0,1-.3,1.68,2.024,2.024,0,0,1-.661.833A1.046,1.046,0,0,1,561.82,139.7Z" transform="translate(-514.516 -81.066)" fill="#455a64"/>
      <path id="Path_8014" data-name="Path 8014" d="M536.077,180.37l-5.952,17.194-24.892,1.323-4.153,9.258,25.99,2.645a9.821,9.821,0,0,0,12.975-5.773l6.937-19.363Z" transform="translate(-493.944 -106.058)" fill="#b78876"/>
      <path id="Path_8015" data-name="Path 8015" d="M608.122,367.291s-18.239-57.945-18.629-59.823c-.35-1.706,6.613-43.4,7.5-54.228l-24.647.919v.245l-10.475.582,9.377,118.455h11.342l-1.124-39.315a383.448,383.448,0,0,0,17.022,37.913Z" transform="translate(-514.533 -130.738)" fill="#b78876"/>
      <path id="Path_8016" data-name="Path 8016" d="M589.954,384.065c0-.357-.139-13.173-.139-13.173-.139.767-4.345-11.123-4.246-11.844C585.622,358.671,589.954,384.065,589.954,384.065Z" transform="translate(-522.559 -166.572)" fill="#a36957"/>
      <path id="Path_8017" data-name="Path 8017" d="M584.8,350.53a2.564,2.564,0,0,0-.073.721,17.928,17.928,0,0,0,0,1.984,13.186,13.186,0,0,0,.112,1.356c.053.489.126,1.005.238,1.541a27.355,27.355,0,0,0,.932,3.452c.82,2.4,1.733,4.5,2.374,6.018.3.661.569,1.29.794,1.792a2.859,2.859,0,0,0,.331.661,2.508,2.508,0,0,0-.2-.661c-.152-.436-.384-1.065-.661-1.838-.582-1.547-1.455-3.664-2.268-6.038a28.677,28.677,0,0,1-.946-3.4c-.119-.529-.2-1.038-.271-1.514s-.126-.926-.159-1.323c-.079-.82-.112-1.481-.132-1.944a2.992,2.992,0,0,0-.073-.807Z" transform="translate(-522.265 -163.688)" fill="#a36957"/>
      <path id="Path_8018" data-name="Path 8018" d="M571.735,435.1v-1.065l11.619-.509.033,4.4-.714.046c-3.194.185-16.235.727-18.365.086C561.921,437.346,571.735,435.1,571.735,435.1Z" transform="translate(-515.232 -191.799)" fill="#455a64"/>
      <path id="Path_8019" data-name="Path 8019" d="M583.535,439.78a1.515,1.515,0,0,1-.2,0l-.569.04-2.1.093c-1.772.073-4.226.139-6.931.152s-5.165-.033-6.944-.086l-2.1-.086h-.774a1.224,1.224,0,0,1,.2,0h.575l2.1.04c1.772,0,4.226.053,6.931.04s5.165-.06,6.937-.106l2.1-.053h.767Z" transform="translate(-515.227 -193.916)" fill="#263238"/>
      <path id="Path_8020" data-name="Path 8020" d="M569.428,439.419a5.071,5.071,0,0,0-.4-1,4.761,4.761,0,0,0-.721-.8,1.534,1.534,0,0,1,.84.727A1.58,1.58,0,0,1,569.428,439.419Z" transform="translate(-516.714 -193.184)" fill="#263238"/>
      <path id="Path_8021" data-name="Path 8021" d="M574.865,437.218a2.617,2.617,0,0,1-.364-.443c-.172-.265-.278-.5-.245-.516s.192.172.364.436S574.9,437.2,574.865,437.218Z" transform="translate(-518.726 -192.723)" fill="#263238"/>
      <path id="Path_8022" data-name="Path 8022" d="M576.226,436.67c0,.033-.212-.093-.41-.271s-.344-.344-.317-.37.212.093.41.271S576.252,436.61,576.226,436.67Z" transform="translate(-519.148 -192.644)" fill="#263238"/>
      <path id="Path_8023" data-name="Path 8023" d="M576.87,435.263a1.4,1.4,0,0,1-.608.079,1.323,1.323,0,0,1-.6-.06,1.376,1.376,0,0,1,.6-.079,1.323,1.323,0,0,1,.608.059Z" transform="translate(-519.203 -192.362)" fill="#263238"/>
      <path id="Path_8024" data-name="Path 8024" d="M577.113,434.14a1.23,1.23,0,0,1-.661.2,1.25,1.25,0,0,1-.661-.093,3.811,3.811,0,0,1,.661-.053A3.431,3.431,0,0,1,577.113,434.14Z" transform="translate(-519.247 -192.005)" fill="#263238"/>
      <path id="Path_8025" data-name="Path 8025" d="M573.472,435.656a2.029,2.029,0,0,1-.747,0,4.271,4.271,0,0,1-.787-.172,2.136,2.136,0,0,1-.456-.185.416.416,0,0,1-.185-.231.291.291,0,0,1,.112-.3,1.375,1.375,0,0,1,1.931.893.5.5,0,0,1,0,.2A2.131,2.131,0,0,0,573,435.2a1.362,1.362,0,0,0-.661-.41,1.177,1.177,0,0,0-.886.066c-.112.086-.066.225.06.3a2.388,2.388,0,0,0,.423.179,5.562,5.562,0,0,0,.761.192C573.188,435.636,573.472,435.636,573.472,435.656Z" transform="translate(-517.723 -192.172)" fill="#263238"/>
      <path id="Path_8026" data-name="Path 8026" d="M574.245,435.5a.7.7,0,0,1-.093-.516,1.23,1.23,0,0,1,.2-.542.754.754,0,0,1,.615-.384.3.3,0,0,1,.231.344.786.786,0,0,1-.126.331,2.733,2.733,0,0,1-.351.456,1.084,1.084,0,0,1-.423.3,4.675,4.675,0,0,0,.35-.37,2.569,2.569,0,0,0,.311-.443c.1-.159.172-.443,0-.476s-.37.172-.483.317a1.21,1.21,0,0,0-.212.483,2.329,2.329,0,0,0-.026.5Z" transform="translate(-518.688 -191.978)" fill="#263238"/>
      <path id="Path_8027" data-name="Path 8027" d="M591.111,434.959s-.331,0-.853.033a3.664,3.664,0,0,0-3.022,2.427c-.172.5-.185.833-.212.827s0-.086,0-.231a2.97,2.97,0,0,1,.119-.628,3.617,3.617,0,0,1,1.164-1.726,3.564,3.564,0,0,1,1.938-.761,2.768,2.768,0,0,1,.661,0A.836.836,0,0,1,591.111,434.959Z" transform="translate(-523.048 -192.256)" fill="#263238"/>
      <path id="Path_8028" data-name="Path 8028" d="M583.069,438.373a6.489,6.489,0,0,1-1.693.165,6.237,6.237,0,0,1-1.686-.146c0-.04.754,0,1.686,0S583.063,438.333,583.069,438.373Z" transform="translate(-520.568 -193.435)" fill="#263238"/>
      <path id="Path_8029" data-name="Path 8029" d="M588.051,438.347s-.06.159-.139.331-.119.331-.159.324-.06-.179.033-.384S588.024,438.314,588.051,438.347Z" transform="translate(-523.288 -193.428)" fill="#263238"/>
      <path id="Path_8030" data-name="Path 8030" d="M589.283,436.736a.734.734,0,0,1-.165.265c-.119.119-.238.2-.271.172s.046-.145.165-.271S589.25,436.7,589.283,436.736Z" transform="translate(-523.667 -192.882)" fill="#263238"/>
      <path id="Path_8031" data-name="Path 8031" d="M591.011,435.966c0,.04-.159.04-.331.1s-.291.152-.324.126.066-.185.278-.258S591.025,435.927,591.011,435.966Z" transform="translate(-524.179 -192.602)" fill="#263238"/>
      <path id="Path_8032" data-name="Path 8032" d="M592.483,435.627c0,.04-.046.1-.145.132s-.185.04-.2,0,.053-.1.145-.132S592.47,435.594,592.483,435.627Z" transform="translate(-524.784 -192.501)" fill="#263238"/>
      <path id="Path_8033" data-name="Path 8033" d="M613.788,431.19l-.436-.972L623.741,425l1.832,3.968-.661.337c-2.837,1.475-14.509,7.308-16.718,7.6C605.753,437.254,613.788,431.19,613.788,431.19Z" transform="translate(-530.066 -188.91)" fill="#455a64"/>
      <path id="Path_8034" data-name="Path 8034" d="M625.622,430.57l-.172.106-.509.264-1.878.952c-1.587.787-3.8,1.852-6.263,2.976s-4.728,2.083-6.368,2.764l-1.951.787-.529.205a.754.754,0,0,1-.192.06l.179-.086.522-.232,1.931-.827c1.633-.7,3.882-1.68,6.349-2.8s4.682-2.169,6.283-2.936l1.891-.906.522-.245Z" transform="translate(-530.075 -190.796)" fill="#263238"/>
      <path id="Path_8035" data-name="Path 8035" d="M612.619,440.13a4.879,4.879,0,0,0-.774-.754,4.589,4.589,0,0,0-.985-.436,1.858,1.858,0,0,1,1.759,1.19Z" transform="translate(-531.125 -193.631)" fill="#263238"/>
      <path id="Path_8036" data-name="Path 8036" d="M616.642,435.9a2.369,2.369,0,0,1-.516-.251c-.265-.172-.456-.337-.436-.37s.251.079.516.251S616.661,435.866,616.642,435.9Z" transform="translate(-532.76 -192.389)" fill="#263238"/>
      <path id="Path_8037" data-name="Path 8037" d="M617.636,434.845c0,.033-.225,0-.483-.079s-.45-.179-.443-.218a.985.985,0,0,1,.489.079C617.451,434.687,617.649,434.779,617.636,434.845Z" transform="translate(-533.106 -192.142)" fill="#263238"/>
      <path id="Path_8038" data-name="Path 8038" d="M617.688,433.08a1.544,1.544,0,0,1-.522.324,1.4,1.4,0,0,1-.575.192,1.559,1.559,0,0,1,.516-.324A1.441,1.441,0,0,1,617.688,433.08Z" transform="translate(-533.066 -191.647)" fill="#263238"/>
      <path id="Path_8039" data-name="Path 8039" d="M617.437,431.9a1.8,1.8,0,0,1-.536.456,1.151,1.151,0,0,1-.661.2,3.5,3.5,0,0,1,.6-.324C617.166,432.05,617.4,431.865,617.437,431.9Z" transform="translate(-532.947 -191.245)" fill="#263238"/>
      <path id="Path_8040" data-name="Path 8040" d="M614.845,434.837a2.143,2.143,0,0,1-.661.3,5.191,5.191,0,0,1-.794.165,1.983,1.983,0,0,1-.489,0,.39.39,0,0,1-.265-.132.291.291,0,0,1,0-.317,1.362,1.362,0,0,1,1.7-.331,1.323,1.323,0,0,1,.423.35c.079.106.112.172.106.179a1.982,1.982,0,0,0-.575-.443,1.322,1.322,0,0,0-.747-.112,1.157,1.157,0,0,0-.78.423c-.073.126,0,.231.179.251a2.649,2.649,0,0,0,.456,0,5.228,5.228,0,0,0,.78-.139C614.554,434.929,614.845,434.817,614.845,434.837Z" transform="translate(-531.711 -192.08)" fill="#263238"/>
      <path id="Path_8041" data-name="Path 8041" d="M615.542,434.421a.734.734,0,0,1-.291-.436,1.244,1.244,0,0,1-.04-.575.747.747,0,0,1,.41-.6c.165-.053.549.284.575.41s-.192.06-.205.165a2.306,2.306,0,0,1-.132.549,1.032,1.032,0,0,1-.265.45,4.813,4.813,0,0,0,.172-.476,3.39,3.39,0,0,0,.1-.536c0-.185,0-.47-.212-.423s-.271.3-.317.489a1.144,1.144,0,0,0,0,.522A2.893,2.893,0,0,0,615.542,434.421Z" transform="translate(-532.593 -191.552)" fill="#263238"/>
      <path id="Path_8042" data-name="Path 8042" d="M631.109,426.36a4.694,4.694,0,0,0-.767.384,3.6,3.6,0,0,0-1.759,3.452c.04.529.165.833.139.846a.839.839,0,0,1-.1-.212,3.423,3.423,0,0,1-.139-.622,3.5,3.5,0,0,1,1.805-3.545,3.138,3.138,0,0,1,.589-.251A.814.814,0,0,1,631.109,426.36Z" transform="translate(-537.083 -189.371)" fill="#263238"/>
      <path id="Path_8043" data-name="Path 8043" d="M624.605,432.9a9.443,9.443,0,0,1-3.075,1.4c0-.04.694-.3,1.541-.661S624.585,432.866,624.605,432.9Z" transform="translate(-534.739 -191.585)" fill="#263238"/>
      <path id="Path_8044" data-name="Path 8044" d="M629.222,431.469c.033,0,0,.165,0,.357v.364a.54.54,0,0,1-.132-.364C629.09,431.608,629.189,431.449,629.222,431.469Z" transform="translate(-537.299 -191.1)" fill="#263238"/>
      <path id="Path_8045" data-name="Path 8045" d="M629.685,429.469c.033,0,0,.152-.04.311s-.139.278-.172.265,0-.152.04-.311S629.645,429.456,629.685,429.469Z" transform="translate(-537.424 -190.423)" fill="#263238"/>
      <path id="Path_8046" data-name="Path 8046" d="M630.917,428c0,.04-.132.1-.265.225s-.205.258-.238.245,0-.2.145-.35A.434.434,0,0,1,630.917,428Z" transform="translate(-537.744 -189.924)" fill="#263238"/>
      <path id="Path_8047" data-name="Path 8047" d="M632.093,427.176a.264.264,0,0,1-.079.179c-.079.073-.152.112-.179.086s0-.106.079-.179S632.066,427.149,632.093,427.176Z" transform="translate(-538.226 -189.644)" fill="#263238"/>
      <path id="Path_8048" data-name="Path 8048" d="M589.651,199.915l-1.931-23.609,9.92.179s.456-3.485-1.005-11.117a12.882,12.882,0,0,0-7.513-9.258v-.066l-.3-.079a28.323,28.323,0,0,0-9.1-2.374l-12.2.139s-9.318-1.19-14.456,5.482c-1.984,2.559-8.141,20.078-8.141,20.078l14.648,7.05-1.369-9.715s.278,7.043,1.177,9.258c.5,1.243,1.984,5.105,1.984,5.105l-.192,11.652Z" transform="translate(-508.792 -96.988)" fill="#fa935b"/>
      <path id="Path_8049" data-name="Path 8049" d="M601.462,180.084,599.65,187.8h17.082l-1.124-12.935Z" transform="translate(-527.328 -104.192)" fill="#fa935b"/>
      <path id="Path_8050" data-name="Path 8050" d="M617.555,194.233a13.691,13.691,0,0,0-2.262-.225c-1.4-.079-3.307-.152-5.476-.139s-4.08.106-5.482.212a12.962,12.962,0,0,0-2.255.278,14.322,14.322,0,0,0,2.275,0c1.4-.046,3.307-.1,5.462-.106s4.067,0,5.469.033a14.315,14.315,0,0,0,2.268-.053Z" transform="translate(-528.151 -110.629)" fill="#263238"/>
      <path id="Path_8051" data-name="Path 8051" d="M601.23,174.77a10.308,10.308,0,0,0-.053,1.984c0,1.21.053,2.877.126,4.722s.159,3.518.238,4.722a9.848,9.848,0,0,0,.212,1.984,10.343,10.343,0,0,0,.053-1.984c0-1.21-.053-2.883-.126-4.728s-.159-3.512-.238-4.722A9.725,9.725,0,0,0,601.23,174.77Z" transform="translate(-527.837 -104.161)" fill="#263238"/>
      <g id="Group_15326" data-name="Group 15326" transform="translate(57.852 77.288)" opacity="0.3">
        <path id="Path_8052" data-name="Path 8052" d="M577.77,184.87s3.8,28.152,14.47,27.4c0,0,4.808-.053,6.349-3.247v-1.257Z" transform="translate(-577.77 -184.87)"/>
      </g>
      <g id="Group_15327" data-name="Group 15327" transform="translate(71.349 72.269)" opacity="0.3">
        <path id="Path_8053" data-name="Path 8053" d="M600.223,177.28l-2.043,13.8,1.323,2.42,2.182-4.735-.926-.026Z" transform="translate(-598.18 -177.28)"/>
      </g>
      <path id="Path_8054" data-name="Path 8054" d="M567.929,201.012a2.643,2.643,0,0,1-.291-.661c-.165-.43-.384-1.058-.661-1.845a56.939,56.939,0,0,1-1.633-6.249,44.3,44.3,0,0,1-.807-6.408c-.04-.827-.053-1.495-.04-1.984a2.646,2.646,0,0,1,.046-.714c.053,0,.093,1.018.231,2.645a58.863,58.863,0,0,0,.906,6.355c.489,2.46,1.078,4.662,1.528,6.243.212.734.39,1.362.536,1.878a3.235,3.235,0,0,1,.185.741Z" transform="translate(-515.42 -106.999)" fill="#263238"/>
      <path id="Path_8055" data-name="Path 8055" d="M575.774,220.968a3.412,3.412,0,0,1-.589-1.323,3.173,3.173,0,0,1-.258-1.455,3.452,3.452,0,0,1,.589,1.356A3.308,3.308,0,0,1,575.774,220.968Z" transform="translate(-518.953 -118.867)" fill="#263238"/>
      <path id="Path_8056" data-name="Path 8056" d="M578.24,220.117a6.084,6.084,0,0,1-.059-4.127,13.76,13.76,0,0,1,0,2.063A13.59,13.59,0,0,1,578.24,220.117Z" transform="translate(-519.945 -118.122)" fill="#263238"/>
      <path id="Path_8057" data-name="Path 8057" d="M559.8,199.741c-.046.079-3.452-1.534-7.612-3.611s-7.5-3.836-7.46-3.922,3.452,1.534,7.612,3.611S559.841,199.655,559.8,199.741Z" transform="translate(-508.728 -110.066)" fill="#263238"/>
      <path id="Path_8058" data-name="Path 8058" d="M573.988,140.7c.073-3.346.093-6.864.093-6.864s-4.292-.827-5.039-6.474c-.714-5.383,1.283-18.021,1.283-18.021h0c6.269-2.368,12.783-.218,17.075,4.861h0l-1.065,27.16a5.834,5.834,0,0,1-6.309,5.4h0A6.164,6.164,0,0,1,573.988,140.7Z" transform="translate(-516.909 -81.675)" fill="#b78876"/>
      <path id="Path_8059" data-name="Path 8059" d="M570.56,124.761a.727.727,0,0,0,.661.747.694.694,0,0,0,.76-.661.721.721,0,0,0-.661-.741.661.661,0,0,0-.76.655Z" transform="translate(-517.476 -87)" fill="#263238"/>
      <path id="Path_8060" data-name="Path 8060" d="M570.154,123.3c.086.093.661-.3,1.422-.271s1.323.423,1.415.331-.04-.212-.284-.4a1.984,1.984,0,0,0-1.137-.377,1.858,1.858,0,0,0-1.131.331C570.193,123.089,570.108,123.254,570.154,123.3Z" transform="translate(-517.334 -86.485)" fill="#263238"/>
      <path id="Path_8061" data-name="Path 8061" d="M582.47,125.5a.721.721,0,0,0,.661.747.661.661,0,0,0,.761-.661.714.714,0,0,0-.661-.741.661.661,0,0,0-.761.655Z" transform="translate(-521.51 -87.25)" fill="#263238"/>
      <path id="Path_8062" data-name="Path 8062" d="M582.385,124.04c.086.1.661-.291,1.422-.271s1.323.423,1.422.331-.046-.212-.291-.4a1.9,1.9,0,0,0-1.131-.384,1.924,1.924,0,0,0-1.137.331C582.432,123.829,582.346,123.994,582.385,124.04Z" transform="translate(-521.478 -86.736)" fill="#263238"/>
      <path id="Path_8063" data-name="Path 8063" d="M576.91,129.694a5,5,0,0,0-1.257-.258c-.2,0-.384-.073-.41-.205a.966.966,0,0,1,.146-.589l.622-1.488a25.857,25.857,0,0,0,1.422-3.915,26.2,26.2,0,0,0-1.733,3.789c-.205.522-.41,1.025-.6,1.5a1.157,1.157,0,0,0-.119.774.5.5,0,0,0,.318.3,1.356,1.356,0,0,0,.337.053A5.044,5.044,0,0,0,576.91,129.694Z" transform="translate(-518.965 -86.709)" fill="#263238"/>
      <path id="Path_8064" data-name="Path 8064" d="M576.74,145.939a14.324,14.324,0,0,0,7.579-1.819s-1.924,3.816-7.539,3.148Z" transform="translate(-519.569 -93.781)" fill="#a36957"/>
      <path id="Path_8065" data-name="Path 8065" d="M584.745,120.455c-.159.245-.754.139-1.415,0s-1.243-.251-1.323-.536.615-.661,1.5-.483S584.9,120.243,584.745,120.455Z" transform="translate(-521.351 -85.405)" fill="#263238"/>
      <path id="Path_8066" data-name="Path 8066" d="M573,118.987c-.06.284-.694.39-1.422.423s-1.369,0-1.455-.291.529-.7,1.409-.741S573.062,118.716,573,118.987Z" transform="translate(-517.326 -85.061)" fill="#263238"/>
      <path id="Path_8067" data-name="Path 8067" d="M577.681,135.792a.383.383,0,0,0-.43.2.435.435,0,1,0,.264-.218" transform="translate(-519.723 -90.948)" fill="#a36957"/>
      <path id="Path_8068" data-name="Path 8068" d="M577.734,135.844c0-.033-.126-.225-.463-.152a.6.6,0,0,0-.423.417.634.634,0,0,0,.979.7.556.556,0,0,0,.238-.549c-.066-.35-.324-.4-.337-.357s.093.165.073.37a.311.311,0,0,1-.159.245.337.337,0,0,1-.337,0,.35.35,0,0,1-.119-.324.324.324,0,0,1,.179-.245C577.548,135.837,577.714,135.89,577.734,135.844Z" transform="translate(-519.597 -90.921)" fill="#263238"/>
      <path id="Path_8069" data-name="Path 8069" d="M585.42,118.584c-.661,1.547-2.3,2.744-2.077,4.418.145,1.078.84,2.083.708,3.168-.172,1.323-1.581,2.3-1.786,3.657-.245,1.66,1.375,2.949,2.017,4.5.946,2.262-.258,4.8-.291,7.274a7.764,7.764,0,0,0,6.878,7.552,4.131,4.131,0,0,0,3.968-1.627c.661-1.071.516-2.434.9-3.617.582-1.772,2.268-3.069,2.645-4.894.661-3.307-3.373-6.084-3.108-9.47.112-1.448,1.005-2.7,1.382-4.107a6.031,6.031,0,0,0-1.177-5.35c-1-1.184-2.44-1.984-3.307-3.254-.959-1.462-.992-3.307-1.323-5.033a12.684,12.684,0,0,0-20.144-7.427s-.959,4.358,3.518,5.092,6.547-.112,7.05,1.68a4.735,4.735,0,0,0,1.323,4.094C584.422,117.209,586.161,116.785,585.42,118.584Z" transform="translate(-517.496 -79.428)" fill="#263238"/>
      <path id="Path_8070" data-name="Path 8070" d="M599.953,155.044a1.58,1.58,0,0,1-.41-.04,6.466,6.466,0,0,1-1.137-.311,8.074,8.074,0,0,1-3.465-2.559,9.166,9.166,0,0,1-1.468-2.645,10.482,10.482,0,0,1-.6-3.393,14.011,14.011,0,0,1,.476-3.776,16.167,16.167,0,0,1,.661-1.911,19.536,19.536,0,0,0,.721-1.9,3.531,3.531,0,0,0,0-1.944,10.775,10.775,0,0,0-.747-1.812,11.908,11.908,0,0,1-.774-1.792,3.869,3.869,0,0,1-.139-1.9,13.459,13.459,0,0,1,1.468-3.115,5.893,5.893,0,0,0,.6-2.817,6.646,6.646,0,0,0-1.475-3.9,11.624,11.624,0,0,0-1.118-1.091,4.524,4.524,0,0,1,1.223,1.005,6.613,6.613,0,0,1,1.614,3.968,6.112,6.112,0,0,1-.582,2.949,13.657,13.657,0,0,0-1.415,3.049,5.642,5.642,0,0,0,.9,3.485,10.3,10.3,0,0,1,.78,1.872,3.9,3.9,0,0,1,0,2.116,20.739,20.739,0,0,1-.761,1.964,15.562,15.562,0,0,0-.661,1.872,13.632,13.632,0,0,0-.483,3.684,9.563,9.563,0,0,0,1.944,5.872,8.121,8.121,0,0,0,3.307,2.586C599.391,154.945,599.96,155,599.953,155.044Z" transform="translate(-524.92 -85.659)" fill="#455a64"/>
      <path id="Path_8071" data-name="Path 8071" d="M592.671,116.462a4.673,4.673,0,0,1-.985.145,10.256,10.256,0,0,1-2.725-.073,5.191,5.191,0,0,1-3.439-2.083,11.235,11.235,0,0,1-.9-2.222,3.69,3.69,0,0,0-1.508-1.858,10.656,10.656,0,0,0-4.629-1.21,8.075,8.075,0,0,1-3.855-1.2,3.815,3.815,0,0,1-1.581-2.2,2.214,2.214,0,0,1-.046-.747c0-.172.04-.258.053-.258a4.688,4.688,0,0,0,.126.972,3.783,3.783,0,0,0,1.587,2.037,8,8,0,0,0,3.75,1.085,10.786,10.786,0,0,1,4.788,1.237,4.021,4.021,0,0,1,1.64,2.03,11.066,11.066,0,0,0,.853,2.169,4.993,4.993,0,0,0,3.214,1.984,11.415,11.415,0,0,0,2.645.179,6.687,6.687,0,0,1,1.012.02Z" transform="translate(-518.299 -80.447)" fill="#455a64"/>
      <path id="Path_8072" data-name="Path 8072" d="M591.642,110.659a2.2,2.2,0,0,1-.774.112,4.715,4.715,0,0,1-3.307-1.323,6.073,6.073,0,0,1-1.025-1.369c-.6-1.005-1.171-2.242-2.407-2.758a7.936,7.936,0,0,0-3.7-.324,11.361,11.361,0,0,1-3.161,0,3.968,3.968,0,0,1-1.984-.873,2.2,2.2,0,0,1-.384-.436q-.119-.172-.1-.179a4.413,4.413,0,0,0,.569.509,4.166,4.166,0,0,0,1.911.741,12,12,0,0,0,3.095-.053,7.936,7.936,0,0,1,3.869.331,3.8,3.8,0,0,1,1.581,1.323,17.036,17.036,0,0,1,.959,1.6,6.294,6.294,0,0,0,.959,1.323,4.629,4.629,0,0,0,1.131.84,4.907,4.907,0,0,0,1.984.549A5.1,5.1,0,0,1,591.642,110.659Z" transform="translate(-518.911 -80.027)" fill="#455a64"/>
      <path id="Path_8073" data-name="Path 8073" d="M604.339,154.571c-.033,0,.179-.436.423-1.257a11.377,11.377,0,0,0,.436-3.545,10.794,10.794,0,0,0-1.409-5.046c-.483-.866-1.217-1.64-1.819-2.592a4.629,4.629,0,0,1-.661-1.594,3.564,3.564,0,0,1,.145-1.786,21.2,21.2,0,0,0,1.177-3.154,4.571,4.571,0,0,0-.86-2.863,14.067,14.067,0,0,1-.708-1.323,4.842,4.842,0,0,1-.377-1.382,11.982,11.982,0,0,1,.079-2.52,6.686,6.686,0,0,0-.317-3.518,3.2,3.2,0,0,0-.78-1.032.138.138,0,0,1,.079.04.807.807,0,0,1,.212.152,2.362,2.362,0,0,1,.615.787,6.534,6.534,0,0,1,.43,3.591,12.681,12.681,0,0,0-.033,2.467,6.349,6.349,0,0,0,1.071,2.566,8.789,8.789,0,0,1,.721,1.409,3.306,3.306,0,0,1,.2,1.667,19.479,19.479,0,0,1-1.184,3.214,3.307,3.307,0,0,0-.139,1.62,4.4,4.4,0,0,0,.622,1.475c.562.919,1.323,1.706,1.805,2.612a10.911,10.911,0,0,1,1.376,5.2,10.7,10.7,0,0,1-.556,3.591,6.9,6.9,0,0,1-.384.913,1.217,1.217,0,0,1-.165.3Z" transform="translate(-527.335 -86.614)" fill="#455a64"/>
      <path id="Path_8074" data-name="Path 8074" d="M563.582,311s-4.457-42.218-4.715-57.819,7.017-31,7.017-31L594.373,221s5.634,15.825,5.734,22.485c.2,12.922-3.432,25.679-3.016,35.929l.952,31.611" transform="translate(-513.513 -119.819)" fill="#263238"/>
      <path id="Path_8075" data-name="Path 8075" d="M600.915,278.6a4.536,4.536,0,0,1-.47.357l-.258.179-.278.271a4.575,4.575,0,0,0-.661.708c-.919,1.124-1.587,3.141-2.229,5.648a18.979,18.979,0,0,1-1.442,4.021,7.042,7.042,0,0,1-.661,1c-.119.159-.231.331-.37.483l-.436.436a7.082,7.082,0,0,1-2.143,1.376c-1.594.7-3.4,1.032-5.039,1.858a7.936,7.936,0,0,0-3.657,4.166c-.807,1.792-1.323,3.67-1.984,5.429a9.788,9.788,0,0,1-2.976,4.51,8.174,8.174,0,0,1-4.629,1.462c-1.534.093-2.956.046-4.232.238a6.686,6.686,0,0,0-3.188,1.2,4.471,4.471,0,0,0-1.481,2.09,3.174,3.174,0,0,0-.112,1.62c.079.37.179.549.159.555a1.665,1.665,0,0,1-.225-.542,3.035,3.035,0,0,1,.053-1.673,4.5,4.5,0,0,1,1.488-2.2,6.779,6.779,0,0,1,3.307-1.323c1.323-.212,2.731-.185,4.246-.284a7.936,7.936,0,0,0,4.49-1.428,9.6,9.6,0,0,0,2.85-4.378c.661-1.739,1.144-3.624,1.984-5.449a8.267,8.267,0,0,1,3.822-4.332c1.706-.846,3.512-1.171,5.066-1.845a6.937,6.937,0,0,0,2.063-1.323l.417-.417c.132-.146.245-.311.364-.463a6.381,6.381,0,0,0,.615-.959,18.968,18.968,0,0,0,1.462-3.968c.661-2.5,1.382-4.543,2.354-5.674a4.3,4.3,0,0,1,.661-.7c.106-.093.2-.185.291-.258l.271-.172A4.573,4.573,0,0,1,600.915,278.6Z" transform="translate(-515.427 -139.327)" fill="#fafafa"/>
      <path id="Path_8076" data-name="Path 8076" d="M599.712,249.06a3.1,3.1,0,0,1,.04.562,6.932,6.932,0,0,1-.2,1.62,10.415,10.415,0,0,1-3.221,4.973,19.131,19.131,0,0,1-3.307,2.44c-1.276.754-2.685,1.475-4.133,2.295a21.351,21.351,0,0,0-4.219,2.969,16.294,16.294,0,0,0-3.2,4.49A41.075,41.075,0,0,1,578.7,273.3a11.679,11.679,0,0,1-1.812,1.984,10.938,10.938,0,0,1-2.189,1.448,26.391,26.391,0,0,1-4.424,1.7,39.687,39.687,0,0,0-3.889,1.323,14.885,14.885,0,0,0-2.963,1.587,9.173,9.173,0,0,0-1.858,1.713,8.5,8.5,0,0,0-1.118,1.852,3.49,3.49,0,0,1,.185-.536,6.615,6.615,0,0,1,.827-1.4,8.909,8.909,0,0,1,1.852-1.786,15.1,15.1,0,0,1,2.983-1.653,39.684,39.684,0,0,1,3.9-1.356,27.367,27.367,0,0,0,4.365-1.706,11.277,11.277,0,0,0,2.083-1.4,11.73,11.73,0,0,0,1.746-1.944,42.53,42.53,0,0,0,2.745-4.854,16.42,16.42,0,0,1,3.307-4.576,21.313,21.313,0,0,1,4.3-3c1.455-.813,2.863-1.521,4.14-2.268a19.093,19.093,0,0,0,3.307-2.367,10.489,10.489,0,0,0,3.254-4.834A10.105,10.105,0,0,0,599.712,249.06Z" transform="translate(-514.052 -129.322)" fill="#fafafa"/>
      <path id="Path_8077" data-name="Path 8077" d="M558.959,255.263a.5.5,0,0,1-.06-.132,3.431,3.431,0,0,1-.126-.39,3.162,3.162,0,0,1,.066-1.587,6.552,6.552,0,0,1,4.186-3.862c1.177-.4,2.506-.661,3.9-1.005a7.334,7.334,0,0,0,5.39-4.014,21.271,21.271,0,0,0,.985-2.374,25.877,25.877,0,0,1,2.1-5.072,8.082,8.082,0,0,1,4.312-3.353,39.157,39.157,0,0,1,4.953-1.257,16.421,16.421,0,0,0,4.305-1.468,9.06,9.06,0,0,0,2.91-2.645,9.84,9.84,0,0,0,1.852-5.357,15.2,15.2,0,0,0-.139-2.116,6.885,6.885,0,0,1,.271,2.116,9.741,9.741,0,0,1-1.786,5.5,9.152,9.152,0,0,1-2.969,2.731,16.488,16.488,0,0,1-4.371,1.528,39.405,39.405,0,0,0-4.907,1.263,7.764,7.764,0,0,0-4.14,3.221,25.919,25.919,0,0,0-2.07,5A20.594,20.594,0,0,1,572.6,244.4a8.735,8.735,0,0,1-1.481,2.05,8.6,8.6,0,0,1-4.133,2.083c-1.4.357-2.725.582-3.882.966a6.407,6.407,0,0,0-4.14,3.67,3.353,3.353,0,0,0-.126,1.534A3.31,3.31,0,0,1,558.959,255.263Z" transform="translate(-513.46 -119.693)" fill="#fafafa"/>
      <path id="Path_8078" data-name="Path 8078" d="M599.149,327a2.528,2.528,0,0,1,.046.417,4.392,4.392,0,0,1-.126,1.19,6.752,6.752,0,0,1-2.5,3.571,11.027,11.027,0,0,1-2.645,1.561c-1.012.43-2.129.774-3.307,1.137a27.326,27.326,0,0,0-3.578,1.323,10.219,10.219,0,0,0-3.181,2.374c-.966,1.005-1.8,2.11-2.725,3.088a12.412,12.412,0,0,1-3.049,2.381,13.432,13.432,0,0,1-6.289,1.64,12.525,12.525,0,0,1-4.325-.721,8.259,8.259,0,0,1-1.1-.47,1.739,1.739,0,0,1-.364-.2,2.81,2.81,0,0,1,.39.139,11.717,11.717,0,0,0,1.111.41,13.225,13.225,0,0,0,4.285.6,13.366,13.366,0,0,0,6.137-1.673,12.354,12.354,0,0,0,2.956-2.334c.906-.966,1.733-2.063,2.718-3.095a10.62,10.62,0,0,1,3.359-2.447,27.372,27.372,0,0,1,3.631-1.323,34.6,34.6,0,0,0,3.307-1.1,11.091,11.091,0,0,0,2.579-1.488,6.745,6.745,0,0,0,2.52-3.412,8.4,8.4,0,0,0,.145-1.567Z" transform="translate(-515.935 -155.719)" fill="#fafafa"/>
      <path id="Path_8079" data-name="Path 8079" d="M596.653,177.475l-5.515.132a8.922,8.922,0,0,1-1.243,3.128,94.266,94.266,0,0,1-9.067-23.02c.132-.43.284-.906.476-1.435a6.111,6.111,0,0,0-.073-2.42c-.159-.959-.423-2.248-.5-2.844-.245-1.825-.542-2.11-1.177-1.9-.86.284.357,5.112-.351,5.218-.384.053-.846-1.6-.979-2.956s-.754-5.535-1.2-5.813c-.661-.41-1.237.238-1.065,1.587s.377,5.449-.337,5.509-1.323-6.871-1.323-6.871.112-1.508-.721-1.475c-1.495.066-.324,7.367-.2,8.061.093.476-.661.569-.754.046s-.436-6.924-1.984-6.871c-1.177,0,.906,6.011.245,7.4s-1.111-4.709-2.229-4.629c-.417.033-.727.112.04,3.558a78.155,78.155,0,0,0,2.645,8.075c1.772,9.556,9.549,40.129,21.737,34.534,6.825-3.135,9.589-17.009,9.589-17.009Z" transform="translate(-516.687 -93.845)" fill="#b78876"/>
      <path id="Path_8080" data-name="Path 8080" d="M575.579,152.818a.324.324,0,0,0,.159,0,.35.35,0,0,0,.245-.384c0-.41-.079-1.005-.172-1.779a24.847,24.847,0,0,1-.3-2.817c0-.555,0-1.151.033-1.779a6.544,6.544,0,0,1,.1-.952c.053-.3.251-.661.483-.6h.04a.528.528,0,0,1,.489.45,2.592,2.592,0,0,1,.093.886h0a51.585,51.585,0,0,0,.708,5.522c.053.245.106.5.185.747a2.84,2.84,0,0,0,.132.377,2.094,2.094,0,0,0,.112.2.364.364,0,0,0,.278.172.489.489,0,0,0,.417-.35,1.893,1.893,0,0,0,.126-.4,6.733,6.733,0,0,0,.106-.807,24.108,24.108,0,0,0-.046-3.307,7.475,7.475,0,0,1-.066-1.66.926.926,0,0,1,.324-.615.35.35,0,0,1,.284-.033.542.542,0,0,1,.159.066.212.212,0,0,1,.073.1,8.431,8.431,0,0,1,.456,1.66c.119.582.218,1.184.311,1.786s.179,1.21.251,1.825a13.477,13.477,0,0,0,.3,1.885,7.293,7.293,0,0,0,.3.932,1.754,1.754,0,0,0,.278.47.39.39,0,0,0,.39.145.41.41,0,0,0,.271-.3,3.309,3.309,0,0,0,.073-1.032,9.458,9.458,0,0,0-.073-.979c-.046-.555-.1-1.1-.119-1.647a6.4,6.4,0,0,1,0-.8,1.324,1.324,0,0,1,.086-.344.323.323,0,0,1,.06-.1h.086c.436-.179.582.43.7.919s.165,1.045.271,1.567c.172,1.038.4,2.077.509,3.069a3.656,3.656,0,0,1-.053,1.428c-.159.476-.317.946-.47,1.415v.086a76.169,76.169,0,0,0,2.956,9.563c1.045,2.824,2.1,5.291,3.016,7.274s1.753,3.538,2.321,4.583l.661,1.184a2.225,2.225,0,0,0,.258.4,2.65,2.65,0,0,0-.2-.423l-.661-1.21c-.542-1.065-1.323-2.645-2.222-4.629s-1.918-4.451-2.936-7.274a78.963,78.963,0,0,1-2.9-9.536v.093c.152-.463.3-.932.463-1.4a3.782,3.782,0,0,0,.079-1.581c-.119-1.038-.337-2.043-.509-3.088-.1-.516-.165-1.045-.271-1.587a2.916,2.916,0,0,0-.139-.82.781.781,0,0,0-.364-.37.84.84,0,0,0-.522,0h-.106a.43.43,0,0,0-.152.086.582.582,0,0,0-.165.232,1.493,1.493,0,0,0-.112.45,6.256,6.256,0,0,0,0,.86c0,.556.079,1.111.126,1.667,0,.324.053.661.066.959a3.211,3.211,0,0,1-.046.893c0,.066-.053.053,0,.086h0l-.04-.04a1.325,1.325,0,0,1-.2-.357,6.509,6.509,0,0,1-.284-.88,12.3,12.3,0,0,1-.3-1.832q-.106-.932-.258-1.845c-.093-.608-.2-1.2-.317-1.8a8.052,8.052,0,0,0-.5-1.766.562.562,0,0,0-.205-.231,1.142,1.142,0,0,0-.245-.106.734.734,0,0,0-.562.079,1.237,1.237,0,0,0-.489.86,3.2,3.2,0,0,0,0,.906c0,.284.066.562.086.84a24.467,24.467,0,0,1,.06,3.254,5.643,5.643,0,0,1-.1.767,1.479,1.479,0,0,1-.1.344.4.4,0,0,1-.073.119c0,.06-.046,0-.04.079v-.086a1.331,1.331,0,0,1-.079-.139c-.046-.106-.086-.225-.126-.337-.073-.238-.126-.483-.179-.721a52.552,52.552,0,0,1-.747-5.476h0a2.879,2.879,0,0,0-.112-.985.926.926,0,0,0-.258-.436.661.661,0,0,0-.489-.185h.04a.575.575,0,0,0-.575.271,1.462,1.462,0,0,0-.2.516,6.673,6.673,0,0,0-.093.992v1.8a23.057,23.057,0,0,0,.364,2.83c.112.767.2,1.362.238,1.766a.311.311,0,0,1-.192.344A1,1,0,0,0,575.579,152.818Z" transform="translate(-519.122 -93.828)" fill="#a36957"/>
      <path id="Path_8081" data-name="Path 8081" d="M503.675,208.228a14.16,14.16,0,0,0-3.829.443c-3.419.9-9.311,4.47-9.556,8.881h4.285s-2.4,5.105-1.7,4.629a55.053,55.053,0,0,0,5.469-4.927Z" transform="translate(-490.29 -115.492)" fill="#b78876"/>
      <path id="Path_8082" data-name="Path 8082" d="M598.135,83.872c-.1,0-.483-3.531-.866-7.936S596.647,68,596.74,68s.483,3.531.866,7.936S598.228,83.872,598.135,83.872Z" transform="translate(-526.336 -68)" fill="#263238"/>
      <path id="Path_8083" data-name="Path 8083" d="M620.506,68.41c.073.053-2.817,4.252-6.461,9.377s-6.666,9.258-6.745,9.179,2.817-4.252,6.461-9.377S620.426,68.357,620.506,68.41Z" transform="translate(-529.919 -68.139)" fill="#263238"/>
      <path id="Path_8084" data-name="Path 8084" d="M631.311,97.185c0,.093-3.359.866-7.539,1.726s-7.592,1.481-7.612,1.389,3.353-.866,7.539-1.726S631.264,97.093,631.311,97.185Z" transform="translate(-532.92 -77.882)" fill="#263238"/>
    </g>
    <g id="freepik--Folder--inject-5" transform="translate(143.396 124.466)">
      <path id="Path_8085" data-name="Path 8085" d="M285.453,230.391,262.042,350.618,259,366.358l156.071-.754c7.01-.033,13.226-6.256,15.468-15.5l27.683-113.5c1.713-7.017-2.043-14.317-7.36-14.311l-158,.165C289.421,222.449,286.339,225.7,285.453,230.391Z" transform="translate(-201.877 -199.752)" fill="#fa935b"/>
      <g id="Group_15328" data-name="Group 15328" transform="translate(57.123 22.538)" opacity="0.5">
        <path id="Path_8086" data-name="Path 8086" d="M285.453,230.391,262.042,350.618,259,366.358l156.071-.754c7.01-.033,13.226-6.256,15.468-15.5l27.683-113.5c1.713-7.017-2.043-14.317-7.36-14.311l-158,.165C289.421,222.449,286.339,225.7,285.453,230.391Z" transform="translate(-259 -222.29)"/>
      </g>
      <path id="Path_8087" data-name="Path 8087" d="M370.864,330.915l-16.533-133.2a10.464,10.464,0,0,0-10.158-9.51l-36.24.112a9.92,9.92,0,0,0-7.162,3.174l-17.194,18.3-100.785.542c-6.157.033-10.892,5.866-10.078,12.413l15.349,123.1a10.478,10.478,0,0,0,10.145,9.51l175.679-.35c19.562.4,21.433-5.37,21.433-5.37C372.861,354.61,370.864,330.949,370.864,330.915Z" transform="translate(-172.622 -188.21)" fill="#fa935b"/>
      <g id="Group_15329" data-name="Group 15329" transform="translate(70.931 73.605)" opacity="0.5">
        <path id="Path_8088" data-name="Path 8088" d="M331.436,342.695l-5.925,6.362L279.88,308l5.925-6.362Z" transform="translate(-279.88 -300.231)" fill="#fff"/>
        <path id="Path_8089" data-name="Path 8089" d="M323.983,299.51l6.547,5.892-41.286,44.341-6.554-5.892Z" transform="translate(-280.832 -299.51)" fill="#fff"/>
      </g>
    </g>
    <g id="freepik--speech-bubble--inject-5" transform="translate(345.381 38.454)">
      <path id="Path_8090" data-name="Path 8090" d="M507.543,94.538a1.223,1.223,0,0,1-.747-1.078l-.265-6.137a1.23,1.23,0,0,1,1.514-1.257,3.849,3.849,0,0,0,2.989-.589,3.445,3.445,0,0,0,1.541-2.262,3.525,3.525,0,0,0-.741-2.645A3.968,3.968,0,0,0,509.23,79a4.629,4.629,0,0,0-4.7,3.307,1.237,1.237,0,0,1-2.381-.661,7.116,7.116,0,0,1,7.36-5.138,6.388,6.388,0,0,1,4.292,2.533,6.038,6.038,0,0,1,1.21,4.543,5.952,5.952,0,0,1-2.645,3.915,6.428,6.428,0,0,1-3.346,1.091l.2,4.735a1.237,1.237,0,0,1-1.719,1.184Z" transform="translate(-486.203 -64.36)" fill="#fa935b"/>
      <path id="Path_8091" data-name="Path 8091" d="M512.025,107.1a1.005,1.005,0,1,1-.343-.695,1.012,1.012,0,0,1,.343.695Z" transform="translate(-488.872 -74.407)" fill="#fa935b"/>
      <path id="Path_8092" data-name="Path 8092" d="M478.143,79.669a3.108,3.108,0,0,0,.059-.4c0-.291.073-.661.126-1.184a14.329,14.329,0,0,1,.324-1.9c.086-.37.132-.78.264-1.2s.265-.866.41-1.323a22.809,22.809,0,0,1,3.307-6.3,22.154,22.154,0,0,1,6.95-6.044,21.824,21.824,0,0,1,4.9-2.024,22.187,22.187,0,0,1,5.654-.741,21.927,21.927,0,0,1,3.009.159c.509.053,1.012.185,1.521.271a11.32,11.32,0,0,1,1.521.37,21.162,21.162,0,0,1,5.879,2.665A22.114,22.114,0,0,1,520.811,73a21.651,21.651,0,0,1,1.323,7.546,21.268,21.268,0,0,1-1.382,7.764l-.3.754-.04.1.04.1c1.66,3.816,3.307,7.565,4.861,11.2l.278-.317-9.92-3.8-.119-.046-.1.093a21.806,21.806,0,0,1-27.207,2.625,22.6,22.6,0,0,1-5.575-5.191A21.963,21.963,0,0,1,478.44,83.67c-.079-.661-.145-1.217-.2-1.719s0-.913-.033-1.263a5.907,5.907,0,0,1,0-.774.132.132,0,1,0-.04,0v2.05c0,.5.112,1.078.179,1.733a23.658,23.658,0,0,0,1.131,4.669,24.211,24.211,0,0,0,3.029,5.621,22.8,22.8,0,0,0,5.615,5.291,22.022,22.022,0,0,0,27.6-2.553l-.218.046,9.92,3.822.5.192-.218-.509c-1.574-3.631-3.2-7.374-4.854-11.2v.192l.3-.774a21.627,21.627,0,0,0,1.415-7.936,22.12,22.12,0,0,0-1.323-7.711A22.485,22.485,0,0,0,512.3,61.668a21.36,21.36,0,0,0-6.031-2.711,10.51,10.51,0,0,0-1.547-.364c-.516-.093-1.025-.225-1.541-.271a22.744,22.744,0,0,0-3.049-.172,22.194,22.194,0,0,0-5.74.78,22.61,22.61,0,0,0-4.966,2.077,22.2,22.2,0,0,0-6.99,6.183,22.618,22.618,0,0,0-3.26,6.4c-.139.476-.271.932-.39,1.323a11.629,11.629,0,0,0-.251,1.21,12.563,12.563,0,0,0-.278,1.918c-.04.509-.066.9-.086,1.19A1.68,1.68,0,0,0,478.143,79.669Z" transform="translate(-478.05 -58.148)" fill="#263238"/>
    </g>
  </g>
</svg>
