<svg xmlns="http://www.w3.org/2000/svg" width="260" height="260" viewBox="0 0 260 260">
  <g id="Group_15315" data-name="Group 15315" transform="translate(-851 -358)">
    <circle id="Ellipse_1279" data-name="Ellipse 1279" cx="130" cy="130" r="130" transform="translate(851 358)" fill="#f0f7ff"/>
    <g id="Group_15314" data-name="Group 15314" transform="translate(-1989.903 525.567)">
      <path id="Path_7979" data-name="Path 7979" d="M2929.3,18.645a29.32,29.32,0,0,1-4.739-1.745,12.635,12.635,0,0,1-6.773-12.158c.268-6.554.723-13.1,1.151-19.646.515-7.873,1.084-15.742,1.635-23.612.725-10.355,1.392-20.715,2.211-31.063a8.141,8.141,0,0,1,8.32-7.5c3.9-.027,7.809-.006,11.713-.006h1.5c0-1.749-.011-3.395,0-5.04a26.319,26.319,0,0,1,7.645-18.893,25.928,25.928,0,0,1,15.641-7.757,6.375,6.375,0,0,0,.833-.22h4.986a62.764,62.764,0,0,1,7.418,1.966,26.438,26.438,0,0,1,16.7,24.771c.019,1.659,0,3.319,0,5.175h1.367c3.862,0,7.724-.014,11.586,0,4.736.02,8.215,3.055,8.6,7.754.645,7.944,1.144,15.9,1.7,23.85.717,10.27,1.452,20.539,2.133,30.811.426,6.419.912,12.84,1.108,19.268.221,7.271-4,12.348-11.156,13.863a1.14,1.14,0,0,0-.311.185ZM2992.182-71.7h-42.507c0,.538,0,.99,0,1.441,0,3.822.013,7.645-.009,11.467a2.745,2.745,0,0,1-1.933,2.872,2.535,2.535,0,0,1-2.924-1.114,4.629,4.629,0,0,1-.473-2.017c-.044-3.78-.019-7.562-.025-11.342,0-.436-.048-.872-.078-1.378-4.534,0-8.933-.049-13.329.025a2.908,2.908,0,0,0-2.886,3q-.973,13.609-1.924,27.22-1.481,21.381-2.924,42.764a27.922,27.922,0,0,0-.016,5.225c.512,4.175,3.958,6.881,8.55,6.883q24.617.011,49.234,0,14.646,0,29.291,0c4.592-.005,8.008-2.826,8.478-7.114a27.172,27.172,0,0,0-.026-4.729c-.592-8.91-1.223-17.818-1.84-26.727q-1.494-21.567-2.988-43.134c-.168-2.413-1.238-3.422-3.649-3.428-3.531-.009-7.063,0-10.595,0h-2c-.03.489-.066.815-.067,1.142-.005,3.989.021,7.977-.019,11.966a2.623,2.623,0,0,1-2.661,2.835,2.653,2.653,0,0,1-2.676-2.826c-.04-1.037-.009-2.077-.009-3.116Zm-.022-5.456c0-2.077.092-4.07-.016-6.052-.446-8.241-4.336-14.439-11.654-18.143s-14.7-3.214-21.506,1.4c-8.064,5.462-10.118,13.535-9.16,22.8Z" transform="translate(0)" fill="#91a7c0" stroke="#91a7c0" stroke-width="5"/>
      <path id="Path_7980" data-name="Path 7980" d="M3063.147,253.653c9.135.266,16.447,4.015,21.8,11.481a2.708,2.708,0,0,1,.194,3.348,2.61,2.61,0,0,1-4.409-.146,22.228,22.228,0,0,0-7.175-6.605,21.3,21.3,0,0,0-27.68,5.987,5.9,5.9,0,0,1-1.651,1.628,2.459,2.459,0,0,1-3.042-.655,2.619,2.619,0,0,1-.117-3.333,26.618,26.618,0,0,1,22.08-11.7Z" transform="translate(-92.154 -272.241)" fill="#91a7c0" stroke="#91a7c0" stroke-width="5"/>
      <path id="Path_7981" data-name="Path 7981" d="M3032.28,193.754a3.969,3.969,0,0,1-3.933,3.977,4.051,4.051,0,0,1-4.006-3.942,3.976,3.976,0,0,1,4.028-4.008A3.908,3.908,0,0,1,3032.28,193.754Z" transform="translate(-80.002 -224.293)" fill="#91a7c0" stroke="#91a7c0" stroke-width="5"/>
      <path id="Path_7982" data-name="Path 7982" d="M3205.814,193.75a3.908,3.908,0,0,1,3.912-3.969,3.978,3.978,0,0,1,4.027,4.012,4.057,4.057,0,0,1-4.008,3.939A3.971,3.971,0,0,1,3205.814,193.75Z" transform="translate(-216.233 -224.293)" fill="#91a7c0" stroke="#91a7c0" stroke-width="5"/>
    </g>
  </g>
</svg>
