<svg xmlns="http://www.w3.org/2000/svg" width="232.292" height="175.078" viewBox="0 0 232.292 175.078">
  <g id="Group_15281" data-name="Group 15281" transform="translate(-32.106 -150.773)">
    <path id="Path_7650" data-name="Path 7650" d="M272.489,177.193c1.169-1.416,2.168-2.959,3.328-4.385a59.128,59.128,0,0,1,23.536-17.565,59.43,59.43,0,0,1,48.692,1.562c.259.127.535.217.8.324A13.132,13.132,0,0,1,352,158.717a60.905,60.905,0,0,1,10.606,7.93A59.522,59.522,0,0,1,380.6,199.774c.259,1.424.414,2.869.6,4.306.041.31.078.641-.294.814a14.359,14.359,0,0,1-3.586-.8c-2.971-.755-5.926-1.576-8.88-2.4a1.7,1.7,0,0,0-1.711.471,24.249,24.249,0,0,1-2.809,2.275c-.684.381-1.116-.014-1.57-.468q-10.514-10.531-21.041-21.049-5.492-5.492-10.985-10.984a1.9,1.9,0,0,0-.793-.61c-.461-.431-.811-.959-1.264-1.4a8.674,8.674,0,0,0-9.031-2.219,8.781,8.781,0,0,0-6.27,6.806,10.1,10.1,0,0,0-.146,3.53c.135,1.175.139,2.366.166,3.545.063,2.778.231,5.552.362,8.325.166,3.5.235,7,.522,10.49.1,1.178.074,2.365.125,3.547.069,1.615.145,3.235.216,4.85.119,2.725.2,5.453.376,8.175.073,1.108.118,2.221.153,3.329.071,2.318.152,4.636.336,6.947a6.4,6.4,0,0,0,2.164,4.226,4.063,4.063,0,0,1,.617.609,1.069,1.069,0,0,0,.286.489c3.805,3.5,7.359,7.265,11.03,10.905,4.788,4.748,9.541,9.531,14.309,14.3a9.614,9.614,0,0,1,2,2.367,1.392,1.392,0,0,1,.327.761.707.707,0,0,1,.023.143c0,.313.4.718.015.907-.317.156-.564-.289-.8-.519q-7.369-7.352-14.731-14.712a11.4,11.4,0,0,0-1.7-1.547c-.6-.486-1.016-1.144-1.614-1.651a7.927,7.927,0,0,0-10.51.395,8.027,8.027,0,0,0-.989,10.146,11.07,11.07,0,0,0,1.774,1.807,2.885,2.885,0,0,1,.64.583,10.32,10.32,0,0,0,2.224,2.452c1.314,1.337,2.629,2.682,4,3.963,1.659,1.547,3.177,3.237,4.829,4.791a5.741,5.741,0,0,1,.506.518c.376.455.346.58-.232.776-.157.053-.207.191-.333.256a23.336,23.336,0,0,1-3.451.353,74.319,74.319,0,0,1-8.611-.124,70.343,70.343,0,0,1-8.575-1.358c-.661-.146-1.3-.364-1.954-.531a1.675,1.675,0,0,1-.773-.373c-2.95-2.255-5.952-4.441-8.9-6.7a1.846,1.846,0,0,1-.63-.685,1.308,1.308,0,0,1,.254-.883c1.15-2.311,2.3-4.624,3.509-6.9.277-.521.15-.753-.333-1.014-.555-.3-1.272-.383-1.577-1.06.147-.694-.364-.947-.841-1.162-1.953-.881-3.849-1.882-5.814-2.736a2.288,2.288,0,0,1-1.143-.716c-.161-.408.1-.7.3-.991,2.835-4.238,5.549-8.556,8.416-12.773q.347-.51.663-1.039c.393-.657.391-.677-.372-.906-.417-.125-.831-.255-1.24-.4a.531.531,0,0,1-.409-.661c.34-.723.33-.792-.4-.988-1.2-.323-2.382-.737-3.595-1.032-3.842-1.149-7.687-2.279-11.53-3.423-1.045-.311-1.125-.418-.965-1.464a1.191,1.191,0,0,1,.184-.539,20.029,20.029,0,0,0,1.2-3.143c2.006-5.658,4.074-11.295,6.084-17.019a11.543,11.543,0,0,0-1.8.361c-.347.06-.746.181-.888-.337a6.755,6.755,0,0,1,.456-1.445c.165-.611.149-.651-.457-.525-1.255.26-2.479.645-3.715.977-3.455.928-6.915,1.834-10.368,2.772-2.426.658-4.856,1.3-7.283,1.956a5.518,5.518,0,0,1-1.209.227c-.586-.127-.5-.588-.449-.984a69.136,69.136,0,0,1,1.8-9.47,58.525,58.525,0,0,1,6.271-14.785A10.25,10.25,0,0,1,272.489,177.193Z" transform="translate(-174.731)" fill="#fd4d3b"/>
    <path id="Path_7651" data-name="Path 7651" d="M138.7,496.358l10.091,7.581a17.174,17.174,0,0,1,3.172,2.232.777.777,0,0,1,.19.925c-1.248,3.7-2.274,7.477-3.433,11.209q-1.158,3.732-2.264,7.48c-.278.942-.281.964.556,1.53.38.257.75.526,1.148.756,1.088.869,2.29,1.579,3.4,2.424.6.46.575.594-.121.988-3.533.824-7.02,1.82-10.519,2.77-3.546.963-7.105,1.876-10.651,2.84-7.442,2.023-14.9,3.994-22.343,6q-5.322,1.435-10.65,2.848c-4.158,1.106-8.307,2.246-12.466,3.348a23.638,23.638,0,0,1-5.443,1.177,8.083,8.083,0,0,1-4.822-1.276c-.4-.378-.8-.767-1.213-1.134-1.787-1.578-2.39-3.729-2.973-5.925Q66.4,527.21,62.373,512.3q-3.657-13.654-7.307-27.31a2.633,2.633,0,0,1-.046-.357,1.237,1.237,0,0,1,.825-.407c4.441-1.08,8.835-2.337,13.252-3.508q6.521-1.729,13.037-3.477c5.138-1.377,10.269-2.781,15.413-4.138,4.559-1.2,9.1-2.473,13.664-3.658,3.792-.985,7.558-2.064,11.347-3.058,4.163-1.093,8.314-2.23,12.472-3.339a2.715,2.715,0,0,1,1.07-.091c1.45.264,2.825.8,4.241,1.184.344.094.342.3.191.545-.125.205-.276.4-.415.593a2.615,2.615,0,0,1-.575,1.234c-2.917,4.362-5.754,8.776-8.649,13.153-.523.791-.5.814.378,1.253a3.611,3.611,0,0,1,1.475.881c1.164.716,2.457,1.166,3.668,1.786,1.238.635,2.488,1.253,3.764,1.8.646.279.741.629.434,1.191a2.027,2.027,0,0,1-.263.818c-1.141,2.123-2.134,4.321-3.29,6.436a.891.891,0,0,0,.3,1.339A4.264,4.264,0,0,1,138.7,496.358Z" transform="translate(-17.365 -236.571)" fill="#fa935b"/>
    <path id="Path_7652" data-name="Path 7652" d="M355.5,624.184a.951.951,0,0,0-.453-.876c-.965-.692-1.892-1.437-2.833-2.162,1.5.332,3,.7,4.51.989a57.9,57.9,0,0,0,16.71.813,4.811,4.811,0,0,0,1.7-.214c4.253-.851,8.545-1.538,12.631-3.083,1.717-.649,3.408-1.361,5.109-2.051.414.059.5.422.63.72,1.306,2.988,2.512,6.019,3.848,8.993a1.226,1.226,0,0,1-.312,1.6c-3.024,2.879-6.081,5.724-9.131,8.576-1.2,1.121-2.441,2.2-3.571,3.391-.5.528-1.093.95-1.612,1.456a.806.806,0,0,0-.209,1.032c.843,1.845,1.757,3.657,2.594,5.505a.987.987,0,0,0,.68.594,1.521,1.521,0,0,1,.959.6,2.7,2.7,0,0,0,2.246,1.758c7.224,1.88,14.421,3.866,21.64,5.77.387.1.893.057,1.1.555a99.74,99.74,0,0,1-18.974,7.739,102.5,102.5,0,0,1-14.337,2.986c-1.667.237-3.355.323-5.033.477-.472.033-.587-.378-.763-.662-2.214-3.567-4.565-7.045-6.882-10.675a16.339,16.339,0,0,0,.177,1.836c.242,2.544.366,5.1.666,7.638a3.1,3.1,0,0,1-.151,1.915c-.118.315-.394.229-.618.223a82.72,82.72,0,0,1-8.614-.537c-.309-.041-.625-.033-.937-.047a.628.628,0,0,1-.167-.666c.279-1.518.461-3.05.706-4.573.188-1.165.4-2.328.545-3.612-.518.6-.923,1.171-1.334,1.736-1.435,1.97-2.871,3.94-4.331,5.892-.138.185-.224.518-.588.38a31.6,31.6,0,0,1-5.256-.943,97.981,97.981,0,0,1-13.555-4.091c-2.663-1-5.266-2.147-7.823-3.4a2.365,2.365,0,0,0-1.025-.314c.085-.38.437-.328.69-.4,4.978-1.406,9.994-2.672,14.984-4.035,5.806-1.586,11.636-3.084,17.438-4.684a.455.455,0,0,0,.292-.166,4.918,4.918,0,0,0-1.151-.9c-.274-.219-.669-.318-.746-.737.209-.2.5-.339.023-.637-.951-.6-1.855-1.27-2.773-1.919-.228-.162-.522-.263-.608-.578-.159-.235-.054-.467.014-.7,1.692-5.65,3.421-11.289,5.113-16.94a5.067,5.067,0,0,0,.464-1.811c-.066-.676-.874-.826-1.307-1.26C355.719,624.543,355.534,624.419,355.5,624.184Z" transform="translate(-220.782 -353.779)" fill="#d3deeb"/>
    <path id="Path_7653" data-name="Path 7653" d="M650.7,222.866a30.832,30.832,0,0,0-.614-5.1,58.219,58.219,0,0,0-4.267-13.892,59.511,59.511,0,0,0-10.587-16.014,60.131,60.131,0,0,0-16.407-12.517,2.507,2.507,0,0,1-.286-.2,9.223,9.223,0,0,1,2.638-.379,68.492,68.492,0,0,1,8.771-.15A54.369,54.369,0,0,1,643.33,176.8a48.707,48.707,0,0,1,14.98,7.4,55.352,55.352,0,0,1,8.882,8.163,69.886,69.886,0,0,1,9.177,13.674,81.619,81.619,0,0,1,6.683,17.081,62.805,62.805,0,0,1,1.694,8.133,4.468,4.468,0,0,0,.271.821c-.331.234-.66.055-.972-.03-4.687-1.287-9.393-2.5-14.083-3.777-5.109-1.391-10.236-2.719-15.343-4.117-1.073-.294-2.146-.586-3.226-.851C651.124,223.231,650.8,223.211,650.7,222.866Z" transform="translate(-444.418 -18.007)" fill="#d3deeb"/>
    <path id="Path_7654" data-name="Path 7654" d="M124.306,425.9c-3.19.87-6.378,1.749-9.571,2.608-3.8,1.022-7.6,2.026-11.4,3.042q-6.856,1.833-13.71,3.674-6.785,1.822-13.569,3.649c-4.945,1.321-9.9,2.62-14.84,3.941-3.755,1-7.5,2.041-11.257,3.036-2.239.593-4.459,1.259-6.73,1.727l-3.769-14.015c.07-.477.484-.494.818-.586,2.612-.716,5.235-1.388,7.846-2.11,4.709-1.3,9.438-2.53,14.158-3.793,6.027-1.614,12.047-3.255,18.084-4.833,4.095-1.071,8.165-2.237,12.26-3.305,4.587-1.2,9.151-2.477,13.739-3.671,1.661-.432,3.307-.928,5-1.227.663.092.5.524.354.916-.642,1.738-1.243,3.492-1.895,5.226-.145.386-.461.808.067,1.152a1.342,1.342,0,0,0,1.8-.048c.084-.087.16-.183.3-.123-.16,1.011-.153.988.9,1.3q5.6,1.637,11.181,3.3A1.117,1.117,0,0,1,124.306,425.9Z" transform="translate(-5.571 -199.507)" fill="#131a45"/>
    <path id="Path_7655" data-name="Path 7655" d="M105.842,364.249q-1.878.5-3.756,1l-11.474,3.059q-7.452,1.988-14.9,3.98c-4.5,1.207-9,2.432-13.5,3.637-4.548,1.218-9.1,2.412-13.649,3.632-3.753,1.007-7.5,2.038-11.249,3.055-.884.24-1.773.463-2.658.7a1.221,1.221,0,0,0-.769.356,54.147,54.147,0,0,1-1.661-6.3,8.364,8.364,0,0,1,6.058-9.475c5.892-1.623,11.8-3.183,17.7-4.77.21-.056.418-.119.627-.179a3.01,3.01,0,0,1,1.176-.526c4.816-1.262,9.615-2.591,14.429-3.859,4.978-1.311,9.935-2.7,14.921-3.979a1.787,1.787,0,0,1,1.135-.09q3.1-.841,6.207-1.682,4.149-1.121,8.3-2.236,3.42-.917,6.843-1.823c.581-.155,1.164-.307,1.744-.466.16-.044.326-.161.468,0s.021.313-.036.47c-.237.656-.467,1.315-.7,1.974a2.17,2.17,0,0,1-.234,1.26c-1.461,3.826-2.755,7.713-4.179,11.552C106.528,363.967,106.341,364.27,105.842,364.249Z" transform="translate(0 -149.617)" fill="#fa935b"/>
    <path id="Path_7656" data-name="Path 7656" d="M669,363.337c3.584.975,7.165,1.961,10.752,2.923q11.746,3.152,23.5,6.285a.244.244,0,0,0,.072,0q6.752,1.819,13.5,3.641a24.821,24.821,0,0,1,3.191.955,9.888,9.888,0,0,1,3.756,3.1,7.712,7.712,0,0,1,1.272,6.585c-.348,1.528-.778,3.035-1.171,4.552-.261,1.007-.334,1.051-1.4.962-4.081-1.025-8.124-2.193-12.2-3.247-5.408-1.4-10.78-2.93-16.188-4.33-3.768-.976-7.519-2.017-11.278-3.032-7.588-2.049-15.182-4.07-22.771-6.114-5.533-1.491-11.077-2.943-16.606-4.449-.3-.082-.629-.125-.747-.487.007-.39.31-.587.559-.8q3.711-3.161,7.434-6.309c.333-.284.734-.46,1.062-.745a25.7,25.7,0,0,0,3-2.477,1.7,1.7,0,0,1,1.776-.359Q662.762,361.679,669,363.337Z" transform="translate(-462.726 -158.478)" fill="#fa935b"/>
    <path id="Path_7657" data-name="Path 7657" d="M164.967,287.515q-7.514,2.008-15.028,4.016l-16.633,4.439c.952-1.98,1.89-3.965,3-5.867a54.919,54.919,0,0,1,4.493-6.468,58.65,58.65,0,0,1,5.833-6.245,76.466,76.466,0,0,1,6.738-5.594A112.721,112.721,0,0,1,169.9,261.83c1.25-.63,2.517-1.224,3.784-1.818a1.287,1.287,0,0,1,.767-.176c-.8,1.373-1.631,2.734-2.409,4.122a58.037,58.037,0,0,0-6.385,17.558c-.319,1.663-.53,3.339-.772,5.012A1.429,1.429,0,0,0,164.967,287.515Z" transform="translate(-76.693 -82.642)" fill="#d3deeb"/>
    <path id="Path_7658" data-name="Path 7658" d="M678.01,455.854c.869.269,1.05-.252,1.21-.953.331-1.454.745-2.888,1.121-4.332a8.273,8.273,0,0,0-.776-6.013c-.1-.2-.338-.355-.278-.631a8.275,8.275,0,0,1,3.091,8.7c-1.826,6.942-3.7,13.871-5.561,20.8q-7.751,28.932-15.5,57.865a8.523,8.523,0,0,1-10.933,6.246Q630,532.051,609.617,526.6a3.611,3.611,0,0,0-.429-.063c-2.979-.813-5.956-1.636-8.938-2.438-4.781-1.285-9.553-2.61-14.359-3.8a2.6,2.6,0,0,1-1.9-1.893c.327-.486.761-.191,1.107-.093,1.955.555,3.918,1.081,5.882,1.6,7.041,1.851,14.067,3.762,21.1,5.646q10.583,2.835,21.165,5.675c5.279,1.418,10.544,2.89,15.847,4.215a8.2,8.2,0,0,0,9.821-5.722c1.334-4.826,2.587-9.675,3.9-14.506,1.851-6.791,3.62-13.6,5.483-20.391.871-3.172,1.685-6.359,2.558-9.531,1.252-4.547,2.384-9.127,3.655-13.668a1.606,1.606,0,0,0-.167-1.553,1.634,1.634,0,0,0,.911-1.255c.839-2.992,1.562-6.015,2.43-9,.269-.924.4-1.89.744-2.789C678.648,456.462,678.169,456.237,678.01,455.854Z" transform="translate(-418.238 -222.161)" fill="#004972"/>
    <path id="Path_7659" data-name="Path 7659" d="M212.616,745.249,215.169,747c-2.248.611-4.339,1.187-6.434,1.748q-13.4,3.591-26.8,7.176c-.277.074-.549.165-.823.247q-6.476,1.725-12.952,3.451c-7.912,2.114-15.813,4.269-23.739,6.332a8.182,8.182,0,0,1-8.79-2.84c.244-.179.409.04.584.133a8.32,8.32,0,0,0,6.189.673c4.951-1.29,9.89-2.626,14.83-3.955q11.117-2.988,22.231-5.99c4.848-1.3,9.7-2.581,14.55-3.881,3.845-1.031,7.684-2.086,11.529-3.119,2.213-.595,4.432-1.169,6.651-1.744A1.439,1.439,0,0,1,212.616,745.249Z" transform="translate(-78.453 -450.491)" fill="#004972"/>
    <path id="Path_7660" data-name="Path 7660" d="M498.177,794.73c-.009-2.346-.343-4.667-.522-7-.119-1.558-.246-3.115-.377-4.756.427.177.54.5.713.771q3.443,5.341,6.886,10.682a1.652,1.652,0,0,0,.252.252c1.008,1.815,2.207,3.51,3.316,5.261.749,1.184,1.5,2.368,2.275,3.536.283.427.294.613-.3.656q-5.387.388-10.77.819c-.527.042-.585-.218-.617-.638-.237-3.06-.491-6.12-.746-9.179A2.161,2.161,0,0,0,498.177,794.73Z" transform="translate(-352.525 -479.104)" fill="#fe9a38"/>
    <path id="Path_7661" data-name="Path 7661" d="M426.421,800.366c1.256-1.43,2.274-3.04,3.421-4.552.815-1.074,1.59-2.179,2.4-3.258A1.109,1.109,0,0,1,432.9,792c-.08.671-.135,1.3-.233,1.925-.347,2.212-.71,4.422-1.059,6.635a4.7,4.7,0,0,0-.015.649c-.433,1.757-.572,3.563-.892,5.338a5.8,5.8,0,0,0-.106.64c-.027.41-.233.456-.587.364q-3.357-.873-6.721-1.717c-.576-.144-.542-.374-.232-.785,1.014-1.347,2-2.713,3-4.074A1.416,1.416,0,0,0,426.421,800.366Z" transform="translate(-296.106 -485.944)" fill="#fe9b38"/>
    <path id="Path_7662" data-name="Path 7662" d="M660.647,492.307c.6.177.649.521.491,1.1-1.584,5.821-3.133,11.652-4.694,17.48q-2.858,10.666-5.721,21.331-2.647,9.862-5.3,19.722a8.433,8.433,0,0,1-10.123,5.929c-4.16-1.069-8.3-2.213-12.45-3.323q-5.035-1.347-10.069-2.691-11.258-3.019-22.516-6.04-8.915-2.388-17.835-4.756a4.663,4.663,0,0,0-2.153-.43c-.094-.075-.185-.211-.281-.216-1.054-.046-1.327-.861-1.681-1.633q-1.117-2.437-2.291-4.847a.679.679,0,0,1,.134-.945q5.2-4.836,10.374-9.7c1.463-1.372,2.911-2.759,4.371-4.133a.57.57,0,0,0,.191-.747c-1.416-3.281-2.81-6.571-4.213-9.857a1.275,1.275,0,0,0-.166-.23,5.143,5.143,0,0,1-.883-1.962,3.682,3.682,0,0,0-.391-1,.94.94,0,0,0-.312-.741c-.454-1.01-1-1.975-1.4-3.013-.271-.708-.276-.987.342-1.354,2.019-1.2,3.883-2.635,5.918-3.8,1.766-1.012,1.767-.974.657-2.681-1.635-2.514-3.439-4.913-5.061-7.435-.6-.928-.565-1.09.429-1.584,5.132-2.55,10.244-5.142,15.36-7.725.808-.408.831-.5.214-1.181-.5-.557-1.061-1.059-1.576-1.6-.208-.219-.5-.412-.394-.795.259-.288.568-.2.875-.116,5.845,1.554,11.679,3.147,17.523,4.7q12.134,3.228,24.259,6.488c5.259,1.4,10.513,2.83,15.771,4.237,3.879,1.038,7.749,2.113,11.644,3.091A1.472,1.472,0,0,1,660.647,492.307Z" transform="translate(-404.524 -244.384)" fill="#fa935b"/>
    <path id="Path_7663" data-name="Path 7663" d="M532.642,293.484c.821.886,1.631,1.783,2.467,2.654.38.4.334.582-.168.833q-7.992,3.991-15.964,8.02c-.779.392-.789.393-.28,1.14q2.893,4.239,5.793,8.473c.511.748.51.754-.273,1.263-2.322,1.508-4.639,3.024-6.974,4.513-.468.3-.592.534-.352,1.1a18.7,18.7,0,0,1,1.263,3.133,11.221,11.221,0,0,0-2.21-2.557q-12.085-12.088-24.159-24.188c-.363-.364-.991-.5-1.071-1.128a1.63,1.63,0,0,1,1.027.283,6.857,6.857,0,0,0,9.808-6.166c.165-3.644.348-7.289.525-10.933.127-2.63.234-5.263.348-7.895.11-2.534.171-5.071.382-7.6.1-1.18.088-2.367.138-3.549.111-2.632.212-5.265.348-7.895.193-3.716.286-7.436.541-11.149a9.52,9.52,0,0,0-.95-5.074c-.16-.314-.4-.62-.272-1.018.348-.1.436.235.6.4q16.111,16.088,32.2,32.2c.337.337.64.661,1.164.393a36.462,36.462,0,0,1-2.979,2.609c-2.009,1.735-4.048,3.435-6.075,5.15-.3.712-.994,1.043-1.53,1.51-1.257,1.095-2.539,2.163-3.817,3.233-.476.4-.413.658-.024,1.042,2.341,2.31,4.511,4.782,6.814,7.129.98,1,1.939,2.024,2.911,3.034A3.862,3.862,0,0,1,532.642,293.484Z" transform="translate(-347.55 -64.381)" fill="#ca3e30"/>
    <path id="Path_7664" data-name="Path 7664" d="M485.854,222.376a11.4,11.4,0,0,1,1.394,6.833c-.332,5.767-.543,11.541-.807,17.312q-.622,13.581-1.25,27.162a38.5,38.5,0,0,1-.314,5.133,7.048,7.048,0,0,1-9.776,5.132c-.389-.172-.762-.383-1.142-.576a7.338,7.338,0,0,1-2.93-4.432,15.815,15.815,0,0,1-.213-2.234q-.567-12.652-1.118-25.3-.521-11.49-1.078-22.978c-.243-5.083,2.6-9.085,7.4-10.1a8.981,8.981,0,0,1,9.3,3.379C485.5,221.923,485.674,222.151,485.854,222.376Z" transform="translate(-330.794 -51.012)" fill="#fefefe"/>
    <path id="Path_7665" data-name="Path 7665" d="M518.271,556.327a13.421,13.421,0,0,1,1.274,2.966A57.027,57.027,0,0,1,505,563.882a20.714,20.714,0,0,1-3.3.428c.631-.294.644-.308.089-.835-1.932-1.835-3.773-3.761-5.687-5.616-1.4-1.36-2.83-2.708-4.132-4.178-.44-.5-1-.894-1.4-1.435-.069-.093-.189-.171-.047-.294.285-.163.512.033.747.131a7.716,7.716,0,0,0,8.539-1.261,7.807,7.807,0,0,0,1.852-9.392c-.139-.287-.453-.537-.266-.922.622.093.866.676,1.24,1.044,4.167,4.107,8.294,8.256,12.432,12.393l3.369,3.371C518.533,556.9,518.232,556.642,518.271,556.327Z" transform="translate(-347.355 -295.354)" fill="#ca3e30"/>
    <path id="Path_7666" data-name="Path 7666" d="M489.1,529.092a9.327,9.327,0,0,1,1.212,3.521,8.09,8.09,0,0,1-11.559,8.166c-.176-.078-.349-.161-.524-.241a8.5,8.5,0,0,1-3.714-4.911,8.068,8.068,0,0,1,14.176-7.033C488.823,528.763,488.964,528.926,489.1,529.092Z" transform="translate(-335.062 -283.94)" fill="#fefefe"/>
    <path id="Path_7667" data-name="Path 7667" d="M330.112,370.633a1.149,1.149,0,0,0,.654-.76c1.37-3.855,2.782-7.7,4.18-11.541.148-.406.283-.817.424-1.224.722.258,1.33-.257,2.009-.3.271-.017.575-.339.793-.095.184.205-.094.488-.181.729q-2.944,8.231-5.9,16.458a.556.556,0,0,1-.081.118c-.453,1.021-.771,2.091-1.139,3.144-.173.119-.148.313-.185.484-.34.163-.141.8-.615.785a4.009,4.009,0,0,1-1.829-.519c-.341-.2-.18-.682-.037-1.057q1.09-2.859,2.154-5.728A.331.331,0,0,0,330.112,370.633Z" transform="translate(-224.271 -156.001)" fill="#014972"/>
    <path id="Path_7668" data-name="Path 7668" d="M368.3,489.124c-.657-.3-1.312-.6-1.97-.9-.511-.23-.64-.469-.274-1.017,2.558-3.828,5.076-7.683,7.606-11.53q1.01-1.535,2.01-3.075c.3.506.858.472,1.317.6,1.417.411,1.431.4.616,1.636q-4.407,6.7-8.823,13.4A2.659,2.659,0,0,0,368.3,489.124Z" transform="translate(-252.924 -243.894)" fill="#014972"/>
    <path id="Path_7669" data-name="Path 7669" d="M393.856,570.346a18.813,18.813,0,0,1-1.9-1.414.465.465,0,0,1-.185-.63q1.995-3.869,4-7.732a7.788,7.788,0,0,0,1.726.9c.538.23.643.471.353,1.023-1.235,2.343-2.421,4.712-3.622,7.073C394.092,569.818,393.978,570.084,393.856,570.346Z" transform="translate(-272.52 -310.56)" fill="#024971"/>
    <path id="Path_7670" data-name="Path 7670" d="M339.734,431.6a10.064,10.064,0,0,1,1.139-3.144A16.864,16.864,0,0,1,339.734,431.6Z" transform="translate(-233.132 -210.442)" fill="#333"/>
    <path id="Path_7671" data-name="Path 7671" d="M153.914,652.216a2.939,2.939,0,0,1-2.4-5,3.658,3.658,0,0,1,1.871-.985c3.288-.842,6.56-1.745,9.84-2.621,2.532-.676,5.067-1.336,7.6-2.015,3.115-.836,6.225-1.688,9.34-2.526,3.509-.944,7.022-1.874,10.53-2.822,2.553-.69,5.113-1.353,7.649-2.106,1.612-.478,3.262-.828,4.892-1.245.535-.137,1.059-.317,1.595-.448a3.04,3.04,0,0,1,3.707,2.066,2.982,2.982,0,0,1-2.161,3.706c-3.437.936-6.882,1.845-10.323,2.768q-5.3,1.42-10.589,2.846c-2.9.784-5.8,1.592-8.7,2.365-2.7.717-5.417,1.35-8.1,2.112-3.983,1.131-8,2.111-11.994,3.209A17.749,17.749,0,0,1,153.914,652.216Z" transform="translate(-89.836 -364.957)" fill="#fff"/>
    <path id="Path_7672" data-name="Path 7672" d="M208.379,695.647a3.24,3.24,0,0,1-2.418,3.059c-3.7.971-7.4,1.926-11.1,2.917-4.159,1.116-8.306,2.278-12.465,3.4q-7.256,1.95-14.525,3.853a5,5,0,0,1-2.537.329,2.841,2.841,0,0,1-2.182-1.991,2.949,2.949,0,0,1,.564-2.842,4.3,4.3,0,0,1,2.54-1.262c2.806-.782,5.621-1.536,8.437-2.282,4.538-1.2,9.083-2.382,13.62-3.588,1.907-.507,3.8-1.072,5.7-1.587,2-.539,4-1.047,6-1.572,1.6-.421,3.2-.885,4.814-1.26A3.011,3.011,0,0,1,208.379,695.647Z" transform="translate(-99.198 -410.728)" fill="#fff"/>
    <path id="Path_7673" data-name="Path 7673" d="M436.832,644.784c.523.388,1.029.8,1.574,1.155a.713.713,0,0,1,.309.961q-2.911,9.547-5.79,19.1a7.335,7.335,0,0,1-2-1.248c-.276-.184-.137-.471-.059-.728q1.926-6.371,3.847-12.743c.6-1.985,1.219-3.964,1.823-5.948C436.6,645.13,436.606,644.9,436.832,644.784Z" transform="translate(-302.119 -374.379)" fill="#004972"/>
    <path id="Path_7674" data-name="Path 7674" d="M523.806,764.147a9.551,9.551,0,0,1,2.22.691c4.335,1.614,8.664,3.246,13,4.86.99.369,1.007.417.273,1.213-1.423,1.546-2.849,3.091-4.244,4.662-.407.459-.646.461-1.06-.007-2.768-3.13-5.564-6.235-8.351-9.348C525.073,765.579,524.506,764.935,523.806,764.147Z" transform="translate(-372.628 -464.837)" fill="#fe9b39"/>
    <path id="Path_7675" data-name="Path 7675" d="M629.072,421.047C628.046,420,627.01,418.962,626,417.9c-1.249-1.309-2.473-2.642-3.718-3.956q-1.993-2.1-4.007-4.184c-.273-.283-.509-.52-.076-.88,1.925-1.6,3.838-3.22,5.754-4.831.415.495,1.053.459,1.588.607,3.42.948,6.856,1.836,10.285,2.752q7.418,1.982,14.832,3.977c4.175,1.123,8.345,2.26,12.521,3.378,3.475.93,6.957,1.831,10.432,2.76,4.1,1.1,8.2,2.219,12.306,3.32q7.344,1.969,14.693,3.923c1.05.281,2.1.578,3.144.867.894.437.9.549.525,1.669-.315.937-.554,1.9-.813,2.855q-.664,2.446-1.311,4.9c-.346,1.306-.712,2.609-1.013,3.925-.137.6-.349.987-1.036.885-2.754-.725-5.51-1.443-8.261-2.177q-6.824-1.818-13.644-3.653-6.266-1.68-12.531-3.365-7.836-2.1-15.674-4.19-6.262-1.677-12.521-3.364-3.881-1.045-7.759-2.1A.9.9,0,0,0,629.072,421.047Z" transform="translate(-443.98 -191.944)" fill="#131a45"/>
  </g>
</svg>
