<svg xmlns="http://www.w3.org/2000/svg" width="500" height="372.56" viewBox="0 0 500 372.56">
  <g id="Computer_troubleshooting-rafiki" data-name="Computer troubleshooting-rafiki" transform="translate(0 -55)">
    <g id="freepik--background-complete--inject-2">
      <rect id="Rectangle_27137" data-name="Rectangle 27137" width="500" height="0.25" transform="translate(0 382.4)" fill="#ebebeb"/>
      <rect id="Rectangle_27138" data-name="Rectangle 27138" width="33.12" height="0.25" transform="translate(416.78 398.49)" fill="#ebebeb"/>
      <rect id="Rectangle_27139" data-name="Rectangle 27139" width="8.69" height="0.25" transform="translate(322.53 401.21)" fill="#ebebeb"/>
      <rect id="Rectangle_27140" data-name="Rectangle 27140" width="19.19" height="0.25" transform="translate(396.59 389.21)" fill="#ebebeb"/>
      <rect id="Rectangle_27141" data-name="Rectangle 27141" width="43.19" height="0.25" transform="translate(52.46 390.89)" fill="#ebebeb"/>
      <rect id="Rectangle_27142" data-name="Rectangle 27142" width="6.33" height="0.25" transform="translate(104.56 390.89)" fill="#ebebeb"/>
      <rect id="Rectangle_27143" data-name="Rectangle 27143" width="93.68" height="0.25" transform="translate(131.47 395.11)" fill="#ebebeb"/>
      <path id="Path_14694" data-name="Path 14694" d="M237,337.8H43.91a5.71,5.71,0,0,1-5.7-5.71V60.66A5.71,5.71,0,0,1,43.91,55H237a5.71,5.71,0,0,1,5.71,5.71V332.09A5.71,5.71,0,0,1,237,337.8ZM43.91,55.2a5.46,5.46,0,0,0-5.45,5.46V332.09a5.46,5.46,0,0,0,5.45,5.46H237a5.47,5.47,0,0,0,5.46-5.46V60.66A5.47,5.47,0,0,0,237,55.2Z" fill="#ebebeb"/>
      <path id="Path_14695" data-name="Path 14695" d="M453.31,337.8H260.21a5.72,5.72,0,0,1-5.71-5.71V60.66A5.72,5.72,0,0,1,260.21,55h193.1A5.71,5.71,0,0,1,459,60.66V332.09A5.71,5.71,0,0,1,453.31,337.8ZM260.21,55.2a5.47,5.47,0,0,0-5.46,5.46V332.09a5.47,5.47,0,0,0,5.46,5.46h193.1a5.47,5.47,0,0,0,5.46-5.46V60.66a5.47,5.47,0,0,0-5.46-5.46Z" fill="#ebebeb"/>
      <path id="Path_14696" data-name="Path 14696" d="M227.33,158.82v22.77l11.72,1.1a60.89,60.89,0,0,0,8.75,21l-7.53,9.1,16.09,16.1,9.1-7.54a60.7,60.7,0,0,0,21,8.75l1.1,11.72h22.77l1.11-11.72a61,61,0,0,0,21-8.75l9.09,7.54,16.1-16.1-7.53-9.1a60.68,60.68,0,0,0,8.74-21l11.73-1.1V158.82l-11.73-1.11a60.631,60.631,0,0,0-8.74-21l7.53-9.1-16.1-16.1L332.5,119a60.76,60.76,0,0,0-21-8.74l-1.11-11.73h-22.8l-1.1,11.73a60.68,60.68,0,0,0-21,8.74l-9.1-7.53-16.09,16.1,7.53,9.09a61,61,0,0,0-8.75,21ZM299,139.38a30.82,30.82,0,1,1-30.82,30.82A30.82,30.82,0,0,1,299,139.38Z" fill="#e0e0e0"/>
      <path id="Path_14697" data-name="Path 14697" d="M188.86,260.7l6.54,5.41L207,254.54,201.56,248a43.82,43.82,0,0,0,6.28-15.11l8.42-.79V215.75l-8.42-.8a43.69,43.69,0,0,0-6.28-15.1l5.41-6.54L195.4,181.74l-6.54,5.41a43.66,43.66,0,0,0-15.11-6.28l-.79-8.42H156.6l-.79,8.42a43.82,43.82,0,0,0-15.11,6.28l-6.54-5.41L122.6,193.31l5.41,6.54a43.5,43.5,0,0,0-6.28,15.1l-8.43.8v16.36l8.43.79A43.63,43.63,0,0,0,128,248l-5.41,6.53,11.56,11.57,6.54-5.41A43.63,43.63,0,0,0,155.81,267l.79,8.43H173l.79-8.43a43.47,43.47,0,0,0,15.07-6.3Zm-46.22-36.77a22.15,22.15,0,1,1,22.143,22.14,22.15,22.15,0,0,1-22.143-22.14Z" fill="#e0e0e0"/>
      <path id="Path_14698" data-name="Path 14698" d="M261.57,371.51a52.44,52.44,0,0,0,18-7.48l7.78,6.44,13.77-13.77-6.44-7.78a52.07,52.07,0,0,0,7.47-18l10-.95V310.51l-10-.95a52.07,52.07,0,0,0-7.47-18l6.44-7.78L287.34,270l-7.78,6.44a52.44,52.44,0,0,0-18-7.48l-.95-10H241.15l-1,10a52.28,52.28,0,0,0-18,7.48L214.43,270l-13.77,13.77,6.44,7.78a52.09,52.09,0,0,0-7.48,18l-10,.95V330l10,.95a52.09,52.09,0,0,0,7.48,18l-6.44,7.78,13.77,13.77,7.78-6.44a52.28,52.28,0,0,0,18,7.48l1,10h19.47Zm-37-51.27a10.93,10.93,0,1,1-.05,0Z" fill="#e0e0e0"/>
      <path id="Path_14699" data-name="Path 14699" d="M401.55,211.23h21.51a2.7,2.7,0,0,0,2.34-4L414.64,188.6a2.69,2.69,0,0,0-4.67,0l-10.75,18.63a2.7,2.7,0,0,0,2.33,4Zm12.2-17.6-.47,9.28h-2l-.49-9.28Zm-3,12.47a1.51,1.51,0,0,1,1.57-1.52,1.539,1.539,0,1,1-1.6,1.52Z" fill="#f0f0f0"/>
      <path id="Path_14700" data-name="Path 14700" d="M87,127.23h21.5a2.7,2.7,0,0,0,2.34-4L100,104.55a2.7,2.7,0,0,0-4.68,0L84.61,123.18A2.7,2.7,0,0,0,87,127.23Zm12.2-17.59-.48,9.27h-2l-.5-9.27Zm-3,12.47a1.51,1.51,0,0,1,1.56-1.53,1.54,1.54,0,1,1,0,3.07,1.52,1.52,0,0,1-1.64-1.54Z" fill="#f0f0f0"/>
      <path id="Path_14701" data-name="Path 14701" d="M144.65,356.39h21.5a2.7,2.7,0,0,0,2.34-4.05l-10.75-18.63a2.7,2.7,0,0,0-4.68,0l-10.75,18.63a2.7,2.7,0,0,0,2.34,4.05Zm12.2-17.6-.48,9.28h-2l-.5-9.28Zm-3,12.47a1.51,1.51,0,0,1,1.57-1.52,1.54,1.54,0,1,1-1.61,1.52Z" fill="#f0f0f0"/>
      <path id="Path_14702" data-name="Path 14702" d="M346,329.44h21.51a2.7,2.7,0,0,0,2.33-4.05L359.1,306.76a2.7,2.7,0,0,0-4.68,0l-10.75,18.63a2.7,2.7,0,0,0,2.33,4.05Zm12.2-17.6-.48,9.28h-2l-.5-9.28Zm-3,12.47a1.5,1.5,0,0,1,1.56-1.52,1.536,1.536,0,1,1,0,3.07,1.52,1.52,0,0,1-1.58-1.55Z" fill="#f0f0f0"/>
      <path id="Path_14703" data-name="Path 14703" d="M361.47,93.79h11.91a1.5,1.5,0,0,0,1.3-2.24l-6-10.31a1.49,1.49,0,0,0-2.59,0l-5.95,10.31a1.49,1.49,0,0,0,1.33,2.24Zm6.76-9.74L368,89.19h-1.09l-.28-5.14ZM366.55,91a.84.84,0,0,1,.87-.85.85.85,0,1,1,0,1.7.84.84,0,0,1-.87-.85Z" fill="#f0f0f0"/>
      <path id="Path_14704" data-name="Path 14704" d="M64.44,251.5H76.35a1.49,1.49,0,0,0,1.3-2.24l-6-10.31a1.48,1.48,0,0,0-2.58,0l-6,10.31a1.49,1.49,0,0,0,1.37,2.24Zm6.76-9.74-.26,5.14H69.85l-.27-5.14Zm-1.68,6.91a.84.84,0,0,1,.87-.85.85.85,0,1,1,0,1.7.84.84,0,0,1-.87-.85Z" fill="#f0f0f0"/>
      <path id="Path_14705" data-name="Path 14705" d="M292.48,175.29h11.91a1.5,1.5,0,0,0,1.29-2.25l-5.95-10.31a1.49,1.49,0,0,0-2.59,0l-6,10.31a1.5,1.5,0,0,0,1.34,2.25Zm6.75-9.75-.26,5.14h-1.09l-.27-5.14Zm-1.67,6.91a.84.84,0,0,1,.86-.85.86.86,0,1,1-.86.85Z" fill="#f0f0f0"/>
      <rect id="Rectangle_27144" data-name="Rectangle 27144" width="30.94" height="20.45" transform="translate(164.11 88.33)" fill="#e0e0e0"/>
      <rect id="Rectangle_27145" data-name="Rectangle 27145" width="31" height="3.36" transform="translate(164.11 88.33)" fill="#f0f0f0"/>
      <rect id="Rectangle_27146" data-name="Rectangle 27146" width="30.94" height="20.45" transform="translate(96.5 164.16)" fill="#e0e0e0"/>
      <rect id="Rectangle_27147" data-name="Rectangle 27147" width="31" height="3.36" transform="translate(96.5 164.16)" fill="#f0f0f0"/>
      <rect id="Rectangle_27148" data-name="Rectangle 27148" width="30.94" height="20.45" transform="translate(92.22 309.72)" fill="#e0e0e0"/>
      <rect id="Rectangle_27149" data-name="Rectangle 27149" width="31" height="3.36" transform="translate(92.22 309.72)" fill="#f0f0f0"/>
      <rect id="Rectangle_27150" data-name="Rectangle 27150" width="30.94" height="20.45" transform="translate(330.44 257.02)" fill="#e0e0e0"/>
      <rect id="Rectangle_27151" data-name="Rectangle 27151" width="31" height="3.36" transform="translate(330.44 257.02)" fill="#f0f0f0"/>
      <rect id="Rectangle_27152" data-name="Rectangle 27152" width="30.94" height="20.45" transform="translate(398.25 283.55)" fill="#e0e0e0"/>
      <rect id="Rectangle_27153" data-name="Rectangle 27153" width="31" height="3.36" transform="translate(398.25 283.55)" fill="#f0f0f0"/>
      <rect id="Rectangle_27154" data-name="Rectangle 27154" width="30.94" height="20.45" transform="translate(386.87 130.76)" fill="#e0e0e0"/>
      <rect id="Rectangle_27155" data-name="Rectangle 27155" width="31" height="3.36" transform="translate(386.87 130.76)" fill="#f0f0f0"/>
    </g>
    <g id="freepik--Shadow--inject-2">
      <ellipse id="freepik--path--inject-2" cx="193.89" cy="11.32" rx="193.89" ry="11.32" transform="translate(56.11 404.92)" fill="#f5f5f5"/>
    </g>
    <g id="freepik--speech-bubble--inject-2">
      <path id="Path_14706" data-name="Path 14706" d="M213.48,119.42H184.76a8.85,8.85,0,0,0-8.85,8.85v25a8.84,8.84,0,0,0,8.85,8.84h5.38l-2,7.9,8-7.9h17.4a8.84,8.84,0,0,0,8.84-8.84v-25a8.85,8.85,0,0,0-8.9-8.85Z" fill="#fa935b"/>
      <path id="Path_14707" data-name="Path 14707" d="M213.48,119.42H184.76a8.85,8.85,0,0,0-8.85,8.85v25a8.84,8.84,0,0,0,8.85,8.84h5.38l-2,7.9,8-7.9h17.4a8.84,8.84,0,0,0,8.84-8.84v-25a8.85,8.85,0,0,0-8.9-8.85Z" fill="#fff" opacity="0.7"/>
      <path id="Path_14708" data-name="Path 14708" d="M199.12,155.79a14.8,14.8,0,1,1,14.8-14.8A14.8,14.8,0,0,1,199.12,155.79Zm0-27.6a12.8,12.8,0,1,0,12.8,12.8,12.8,12.8,0,0,0-12.8-12.8Z" fill="#fa935b"/>
      <path id="Path_14709" data-name="Path 14709" d="M196.85,146.71h0a1,1,0,0,1-.73-.32l-4.36-4.72a1,1,0,1,1,1.47-1.36l3.63,3.94L205,135.6a1,1,0,1,1,1.41,1.42l-8.89,9.42a1,1,0,0,1-.67.27Z" fill="#fa935b"/>
    </g>
    <g id="freepik--Character--inject-2">
      <path id="Path_14710" data-name="Path 14710" d="M163.3,411.28l6.96-.12,1.73-16.08-6.96.12Z" fill="#e4897b"/>
      <path id="Path_14711" data-name="Path 14711" d="M171.99,395.09l-.89,8.28-6.96.12.89-8.29Z" opacity="0.2"/>
      <path id="Path_14712" data-name="Path 14712" d="M179.62,337.05c0,22-6.19,63.89-6.19,63.89l-11.64,1.81s-1.13-39.06-1.57-60.68c-.07-3.18-8.94-18.56-18.08-33.58-4.71-7.74-9.49-15.4-13.19-21.25-3.95-6.26-6.65-10.46-6.65-10.46l27.63-10.34S179.6,315.87,179.62,337.05Z" fill="#fa935b"/>
      <path id="Path_14713" data-name="Path 14713" d="M175.06,401.62l-14.02.89L160.8,398l15.39-1.21Z" fill="#263238"/>
      <path id="Path_14714" data-name="Path 14714" d="M170.6,410.19a.18.18,0,0,1,.1-.17c.32-.15,3.17-1.48,4-1a.5.5,0,0,1,.25.45.93.93,0,0,1-.34.79c-.79.64-2.77.31-3.88.05h0a.16.16,0,0,1-.13-.12Zm.69-.08c1.52.31,2.67.28,3.11-.09a.57.57,0,0,0,.22-.52.18.18,0,0,0-.09-.17h-.06c-.47-.23-2.06.3-3.18.78Z" fill="#fa935b"/>
      <path id="Path_14715" data-name="Path 14715" d="M170.66,410.3a.17.17,0,0,1-.06-.15,4.72,4.72,0,0,1,1.19-2.63,1.22,1.22,0,0,1,.93-.26c.45.07.57.3.59.48.1.79-1.63,2.23-2.48,2.58a.13.13,0,0,1-.12,0Zm2-2.71a.89.89,0,0,0-.68.19,3.83,3.83,0,0,0-1,2.1c.87-.48,2-1.62,2-2.1a.22.22,0,0,0-.15-.15.611.611,0,0,0-.16-.04Z" fill="#fa935b"/>
      <path id="Path_14716" data-name="Path 14716" d="M170.06,409.34l-7.6-.24a.62.62,0,0,0-.61.45l-1.63,6.11a1,1,0,0,0,.95,1.27c2.75,0,6.71,0,10.16.12,4,.13,6.59-.06,11.31.1,2.85.09,3.77-2.76,2.58-3.06-5.39-1.36-8.92-1.11-13.51-4.15a3.19,3.19,0,0,0-1.65-.6Z" fill="#263238"/>
      <path id="Path_14717" data-name="Path 14717" d="M142.14,308.49c-4.71-7.74-9.49-15.4-13.19-21.25a27.79,27.79,0,0,1,5.09-5S142.11,296.28,142.14,308.49Z" opacity="0.2"/>
      <path id="Path_14718" data-name="Path 14718" d="M84.8,410.44l6.72,1.82,6.14-14.96-6.72-1.82Z" fill="#e4897b"/>
      <path id="Path_14719" data-name="Path 14719" d="M97.65,397.31l-3.16,7.71-6.72-1.83,3.16-7.71Z" opacity="0.2"/>
      <path id="Path_14720" data-name="Path 14720" d="M150.63,260.47l-.56,9.67-16.76,13.37s-1.15,45-5.92,54.86-27.71,61.5-27.71,61.5L87.14,396s19.93-60.7,21.94-64.29-8.55-55.93,5.59-80.68Z" fill="#fa935b"/>
      <path id="Path_14721" data-name="Path 14721" d="M171.3,217.32c.71,4.51,1.3,9,1.82,13.53s1,9.06,1.28,13.69l.18,3a8.541,8.541,0,0,0,.53,2.15,16,16,0,0,0,2.79,4.53,34.219,34.219,0,0,0,4.33,4.25c.81.66,1.64,1.34,2.5,2s1.78,1.25,2.57,1.79l-2,4.79a32.612,32.612,0,0,1-3.5-1.26c-1.11-.48-2.23-1-3.31-1.56a33.73,33.73,0,0,1-6.26-4.25,22.43,22.43,0,0,1-5.22-6.38,16.481,16.481,0,0,1-1.61-4.28c-.1-.37-.15-.77-.22-1.16l-.14-1-.23-1.63-2-13.32c-.67-4.46-1.3-8.94-1.86-13.41Z" fill="#dc897c"/>
      <path id="Path_14722" data-name="Path 14722" d="M156.75,205c-3.89,5.4,2.79,26,2.79,26L175,227.27a83.821,83.821,0,0,0-3.5-17.71C168.62,201.25,161,199.06,156.75,205Z" fill="#fa935b"/>
      <path id="Path_14723" data-name="Path 14723" d="M156.75,205c-3.89,5.4,2.79,26,2.79,26L175,227.27a83.821,83.821,0,0,0-3.5-17.71C168.62,201.25,161,199.06,156.75,205Z" fill="#fff" opacity="0.7"/>
      <path id="Path_14724" data-name="Path 14724" d="M162,216c2.68,2.56,4.23,9.16,3.25,13.61L159.54,231A104.939,104.939,0,0,1,156,215.78C157.45,214.58,158.92,213.09,162,216Z" opacity="0.2"/>
      <path id="Path_14725" data-name="Path 14725" d="M128.4,192.3a155.388,155.388,0,0,1-3.33,23c-1.15,5.29-2.47,10.26-3.77,14.74-3,10.49-6,18.27-6.63,21l36,9.41c17.78-35.69,15.35-58,15.35-58a73.373,73.373,0,0,0-8-3.87c-.58-.24-1.18-.46-1.79-.68a136,136,0,0,0-15.29-4c-1-.21-2-.39-3-.56C132.94,192.55,128.4,192.3,128.4,192.3Z" fill="#fa935b"/>
      <path id="Path_14726" data-name="Path 14726" d="M128.4,192.3a155.388,155.388,0,0,1-3.33,23c-1.15,5.29-2.47,10.26-3.77,14.74-3,10.49-6,18.27-6.63,21l36,9.41c17.78-35.69,15.35-58,15.35-58a73.373,73.373,0,0,0-8-3.87c-.58-.24-1.18-.46-1.79-.68a136,136,0,0,0-15.29-4c-1-.21-2-.39-3-.56C132.94,192.55,128.4,192.3,128.4,192.3Z" fill="#fff" opacity="0.7"/>
      <path id="Path_14727" data-name="Path 14727" d="M153.79,200.28c-1.85-3.3.2-6.14,2.67-8.51l-3.85-12.08c-1.86,4.82-6,13.21-10.8,14.21a15.58,15.58,0,0,0,3,6.38Z" fill="#e4897b"/>
      <path id="Path_14728" data-name="Path 14728" d="M154.18,184.62l2.28,7.14a16.309,16.309,0,0,0-1.9,2.12c-1.68-1.4-2.95-5-1.94-7A7.39,7.39,0,0,1,154.18,184.62Z" opacity="0.2"/>
      <path id="Path_14729" data-name="Path 14729" d="M177.5,180.29c-.19.92-8.38-1-9.65-2.82s2.87-2.76,5.45-1.42a11.86,11.86,0,0,1,4.2,4.24Z" fill="#fa935b"/>
      <path id="Path_14730" data-name="Path 14730" d="M177.5,180.29c-.19.92-8.38-1-9.65-2.82s2.87-2.76,5.45-1.42a11.86,11.86,0,0,1,4.2,4.24Z" opacity="0.3"/>
      <path id="Path_14731" data-name="Path 14731" d="M173.68,175.65c0,2.8-2.17,7.88-5.17,5S173.73,170.84,173.68,175.65Z" fill="#263238"/>
      <path id="Path_14732" data-name="Path 14732" d="M169.22,187.47a20.341,20.341,0,0,1-1.65,2.41c-4.12,5.19-12.36,4.93-15.43-.9a8.9,8.9,0,0,1-.55-1.21c-1.67-4.63.14-8.25,2.66-14.65A9.48,9.48,0,0,1,170,170C174.28,174.5,172.35,182.22,169.22,187.47Z" fill="#e4897b"/>
      <path id="Path_14733" data-name="Path 14733" d="M158.9,162a9.44,9.44,0,0,0-3.79,2.26c-3.72,3.42-6.43,8.54-1.72,13.71,3.41-1.28,5.09-6,5.51-7.35Z" fill="#263238"/>
      <path id="Path_14734" data-name="Path 14734" d="M149.42,177.18a6.45,6.45,0,0,0,1.33,4.8c1.43,1.79,3.5.84,4.23-1.2.67-1.84.73-5-1.25-6a3,3,0,0,0-4.31,2.4Z" fill="#e4897b"/>
      <path id="Path_14735" data-name="Path 14735" d="M162.94,179.18c-.24.5-.16,1,.18,1.19s.79-.14,1-.65.16-1-.18-1.19S163.18,178.67,162.94,179.18Z" fill="#263238"/>
      <path id="Path_14736" data-name="Path 14736" d="M168.71,181.8a.894.894,0,0,0,.17,1.19c.33.19.8-.14,1-.64s.15-1-.18-1.2S168.94,181.29,168.71,181.8Z" fill="#263238"/>
      <path id="Path_14737" data-name="Path 14737" d="M166.76,181.22a19.249,19.249,0,0,0,.52,5.31,3.33,3.33,0,0,1-2.61-.7Z" fill="#de5753"/>
      <path id="Path_14738" data-name="Path 14738" d="M161,186.53a6.341,6.341,0,0,0,.64.35.18.18,0,0,0,.22-.08.16.16,0,0,0-.08-.22,4.37,4.37,0,0,1-2.56-3.07.17.17,0,0,0-.33.05,4.56,4.56,0,0,0,2.11,2.97Z" fill="#263238"/>
      <path id="Path_14739" data-name="Path 14739" d="M162,176.52a.34.34,0,0,0,.34,0,2.65,2.65,0,0,1,2.38-.13.33.33,0,0,0,.45-.13.32.32,0,0,0-.13-.44,3.3,3.3,0,0,0-3,.12.32.32,0,0,0-.14.44.36.36,0,0,0,.1.14Z" fill="#263238"/>
      <path id="Path_14740" data-name="Path 14740" d="M172.11,181a.26.26,0,0,0,.19.05.32.32,0,0,0,.32-.33,3.26,3.26,0,0,0-1.37-2.66.35.35,0,0,0-.46.11.33.33,0,0,0,.11.45,2.55,2.55,0,0,1,1.06,2.11.3.3,0,0,0,.15.27Z" fill="#263238"/>
      <path id="Path_14741" data-name="Path 14741" d="M173.42,177.47c-4.6-3.57-10.47-5.19-15.06-5.93a43.719,43.719,0,0,0-7.47-.61c.2-2.58,3.5-8.48,5.57-8.91a34.55,34.55,0,0,1,10.44.35c2.42.9,7.23,4.39,7.59,5.86C175.24,171.3,173.42,177.47,173.42,177.47Z" fill="#fa935b"/>
      <path id="Path_14742" data-name="Path 14742" d="M158.35,171.53s6.1-1.36,11.44.71,7.71,8,7.71,8-.47-1.23-4.88-2.82C167.73,175.71,163.59,175.68,158.35,171.53Z" fill="#fa935b"/>
      <path id="Path_14743" data-name="Path 14743" d="M166.9,162.37s-5.45,2.35-5.83,2.73-2.71,6.44-2.71,6.44a43.72,43.72,0,0,0-7.47-.61c.2-2.58,3.5-8.48,5.57-8.91a34.55,34.55,0,0,1,10.44.35Z" opacity="0.1"/>
      <path id="Path_14744" data-name="Path 14744" d="M158.35,171.53s6.1-1.36,11.44.71,7.71,8,7.71,8-.47-1.23-4.88-2.82C167.73,175.71,163.59,175.68,158.35,171.53Z" opacity="0.1"/>
      <path id="Path_14745" data-name="Path 14745" d="M169.22,187.47a20.341,20.341,0,0,1-1.65,2.41c-4.12,5.19-12.36,4.93-15.43-.9a21.74,21.74,0,0,1,3.26-12.41l1.06-1.14s-1.32,5.09-.93,6.09,3.22-.28,4.53.55a5,5,0,0,1,1.82,2.55l-.81.51s-1.59-2.54-2.17-2.61-3.35,2.46-3.1,3.33-.17,1.31.66,1.7,2.85-.94,2.85-.94l1.1,1s-1.76,1.88-1.49,2.26a3.67,3.67,0,0,0,3.28.56c1.26-.51,1.21-3.26,1.45-3.54s-1.94-1.23-1.94-1.23l.67-1s2.75,1.75,2.85,2.27-.44,2.1,0,2.1A10.41,10.41,0,0,0,169.22,187.47Z" opacity="0.3"/>
      <path id="Path_14746" data-name="Path 14746" d="M171.65,171.18l-.15-.59.43-.42,1,.26a1.13,1.13,0,0,0-.8-.84,1.09,1.09,0,0,0-1.07.28.35.35,0,0,0-.14-.06l-2.64-.75h-.14a1.12,1.12,0,0,0-1.9-.47l1,.27.15.58-.43.42-1-.26a1.14,1.14,0,0,0,.8.84,1.11,1.11,0,0,0,1.07-.27h.14l2.64.75a.34.34,0,0,0,.14,0,1.12,1.12,0,0,0,1.9.47Z" fill="#fff"/>
      <path id="Path_14747" data-name="Path 14747" d="M186.06,261.64l6.74,2.15-5.37,5.72s-5.9-2.28-4.6-5.27Z" fill="#e4897b"/>
      <path id="Path_14748" data-name="Path 14748" d="M196.21,271.23l-2.02,3.65-6.76-5.37,5.37-5.72Z" fill="#e4897b"/>
      <path id="Path_14749" data-name="Path 14749" d="M128,206.7c-3.09,3.54-6.24,7.2-9.23,10.84-1.52,1.81-3,3.66-4.35,5.48a47,47,0,0,0-3.58,5.35,9.273,9.273,0,0,0-.48,1c0,.1-.07.18-.06.09s0,0,0-.09v-.45a4.25,4.25,0,0,0-.38-1.37,5.58,5.58,0,0,0-.32-.56c-.12-.17-.27-.34-.35-.44a3.325,3.325,0,0,0-.33-.31l-.26-.2a2.529,2.529,0,0,0-.39-.22l-.22-.1h-.11c-.08,0,0,0,.15.06a7.121,7.121,0,0,0,1.22.18c1,.08,2.11.1,3.24.08s2.3,0,3.48-.09c4.7-.22,9.54-.58,14.35-.87l1,5.11A113.355,113.355,0,0,1,116.94,234a52.557,52.557,0,0,1-7.82,1,18.512,18.512,0,0,1-2.41-.07,9.4,9.4,0,0,1-1.63-.32,4.254,4.254,0,0,1-.54-.18c-.2-.08-.38-.14-.64-.27a5.178,5.178,0,0,1-.78-.47,3.549,3.549,0,0,1-.43-.33c-.18-.15-.34-.31-.5-.47a5.159,5.159,0,0,1-.49-.62,4.469,4.469,0,0,1-.43-.75,5.2,5.2,0,0,1-.49-1.81,3.55,3.55,0,0,1,0-.46v-.45a4.261,4.261,0,0,1,0-.54,10.118,10.118,0,0,1,.33-1.69,18.619,18.619,0,0,1,.88-2.4,48,48,0,0,1,4.07-7C107.5,215,109,213,110.52,211c3.08-4,6.24-7.69,9.65-11.38Z" fill="#dc897c"/>
      <path id="Path_14750" data-name="Path 14750" d="M126.28,192.38c-6.58,1-16.9,18-16.9,18l14.28,9.28A96.411,96.411,0,0,0,133.33,205C137.64,196.72,134.24,191.12,126.28,192.38Z" fill="#fa935b"/>
      <path id="Path_14751" data-name="Path 14751" d="M126.28,192.38c-6.58,1-16.9,18-16.9,18l14.28,9.28A96.411,96.411,0,0,0,133.33,205C137.64,196.72,134.24,191.12,126.28,192.38Z" fill="#fff" opacity="0.7"/>
      <path id="Path_14752" data-name="Path 14752" d="M140.86,193.93l3.52-2.56,6.56,8.78,2.53-4.39,2.68,2.17a8,8,0,0,1,0,8l-5.26-4.31-5.66,3.63S139.21,198.24,140.86,193.93Z" fill="#fa935b"/>
      <path id="Path_14753" data-name="Path 14753" d="M132.9,180.92a18.14,18.14,0,1,1-30.82,3.83l9.91,12.6,9.66-1.39,3.63-9.06-9.91-12.6a18.1,18.1,0,0,1,17.53,6.62Z" fill="#fa935b"/>
      <path id="Path_14754" data-name="Path 14754" d="M203,328.64a18.13,18.13,0,1,1,30.82-3.83l-9.91-12.6-9.66,1.39-3.63,9.07,9.91,12.59A18.1,18.1,0,0,1,203,328.64Z" fill="#fa935b"/>
      <g id="Group_15380" data-name="Group 15380" opacity="0.2">
        <path id="Path_14755" data-name="Path 14755" d="M132.9,180.92a18.14,18.14,0,1,1-30.82,3.83l9.91,12.6,9.66-1.39,3.63-9.06-9.91-12.6a18.1,18.1,0,0,1,17.53,6.62Z" fill="#fff"/>
        <path id="Path_14756" data-name="Path 14756" d="M203,328.64a18.13,18.13,0,1,1,30.82-3.83l-9.91-12.6-9.66,1.39-3.63,9.07,9.91,12.59A18.1,18.1,0,0,1,203,328.64Z" fill="#fff"/>
      </g>
      <path id="Path_14757" data-name="Path 14757" d="M212.09,310.93h0a9.57,9.57,0,0,1-13.44-1.61l-76.49-97.24a9.57,9.57,0,0,1,1.6-13.44h0a9.57,9.57,0,0,1,13.44,1.6l76.5,97.25A9.57,9.57,0,0,1,212.09,310.93Z" fill="#fa935b"/>
      <path id="Path_14758" data-name="Path 14758" d="M212.09,310.93h0a9.57,9.57,0,0,1-13.44-1.61l-76.49-97.24a9.57,9.57,0,0,1,1.6-13.44h0a9.57,9.57,0,0,1,13.44,1.6l76.5,97.25A9.57,9.57,0,0,1,212.09,310.93Z" fill="#fff" opacity="0.2"/>
      <path id="Path_14759" data-name="Path 14759" d="M207.61,305.23h0a4.91,4.91,0,0,1-6.9-.82l-73.29-93.17a4.93,4.93,0,0,1,.82-6.91h0a4.94,4.94,0,0,1,6.91.83l73.29,93.17a4.92,4.92,0,0,1-.83,6.9Z" opacity="0.2"/>
      <path id="Path_14760" data-name="Path 14760" d="M128.81,226.31l5.24-4.71,2.59,8.53s-5.34,3-7.24.32Z" fill="#e4897b"/>
      <path id="Path_14761" data-name="Path 14761" d="M139.8,221.2l1.82,7.14-4.98,1.79-2.6-8.53Z" fill="#e4897b"/>
      <path id="Path_14762" data-name="Path 14762" d="M98.66,403.45l-13.24-4.69,1.55-4.25,14.63,4.94Z" fill="#263238"/>
      <path id="Path_14763" data-name="Path 14763" d="M92.55,410.19a.18.18,0,0,1,.1-.17c.32-.15,3.17-1.48,4-1a.5.5,0,0,1,.25.45.93.93,0,0,1-.34.79c-.79.64-2.77.31-3.88.05h0a.16.16,0,0,1-.13-.12Zm.69-.08c1.52.31,2.67.28,3.11-.09a.57.57,0,0,0,.22-.52.18.18,0,0,0-.09-.17h-.06c-.52-.23-2.06.3-3.18.78Z" fill="#fa935b"/>
      <path id="Path_14764" data-name="Path 14764" d="M92.62,410.3a.18.18,0,0,1-.07-.15,4.72,4.72,0,0,1,1.19-2.63,1.22,1.22,0,0,1,.93-.26c.45.07.57.3.59.48.1.79-1.63,2.23-2.48,2.58a.13.13,0,0,1-.12,0Zm2-2.71a.89.89,0,0,0-.68.19,3.83,3.83,0,0,0-1,2.1c.87-.48,2-1.62,2-2.1a.22.22,0,0,0-.15-.15.613.613,0,0,0-.17-.04Z" fill="#fa935b"/>
      <path id="Path_14765" data-name="Path 14765" d="M92,409.34l-7.6-.24a.62.62,0,0,0-.61.45l-1.63,6.11a1,1,0,0,0,1,1.27c2.75,0,6.71,0,10.16.12,4,.13,6.59-.06,11.31.1,2.85.09,3.77-2.76,2.58-3.06-5.39-1.36-8.92-1.11-13.51-4.15a3.19,3.19,0,0,0-1.7-.6Z" fill="#263238"/>
      <path id="Path_14766" data-name="Path 14766" d="M113.47,251.55l9.85,2.66-.88,3.61L112,255.31Z" fill="#263238"/>
      <path id="Path_14767" data-name="Path 14767" d="M124.44,254.5l23.25,6.27-.54,3.02-23.71-5.72Z" fill="#263238"/>
      <path id="Path_14768" data-name="Path 14768" d="M150.96,261.65l-.33,2.97-2.7-.64.61-2.98Z" fill="#263238"/>
      <path id="Path_14769" data-name="Path 14769" d="M133.94,257.3l-.62,2.92a.47.47,0,0,0,.35.56l5.48,1.29a.48.48,0,0,0,.57-.37l.57-2.75a.47.47,0,0,0-.34-.55l-5.42-1.46a.48.48,0,0,0-.59.36Z" fill="#fff"/>
      <path id="Path_14770" data-name="Path 14770" d="M160.6,220.84l-.15-.58.43-.43,1,.27a1.13,1.13,0,0,0-1.88-.57l-.13-.06-2.64-.75h-.14a1.13,1.13,0,0,0-.79-.78,1.11,1.11,0,0,0-1.11.32l.95.26.16.58-.43.43-1-.27a1.11,1.11,0,0,0,1.87.57.749.749,0,0,0,.13.06l2.65.75h.14a1.12,1.12,0,0,0,1.9.47Z" fill="#fa935b"/>
    </g>
    <g id="freepik--Device--inject-2">
      <path id="Path_14771" data-name="Path 14771" d="M269.71,413.46v3a.68.68,0,0,0,.68.68h85.15a4.44,4.44,0,0,0,4.11-6.1l-27-66.82-43.6.3,1.49,8.67,9.62,56.12a3,3,0,0,1-2.92,3.47H270.39a.67.67,0,0,0-.68.68Z" fill="#fa935b"/>
      <path id="Path_14772" data-name="Path 14772" d="M269.71,413.46v3a.68.68,0,0,0,.68.68h85.15a4.44,4.44,0,0,0,4.11-6.1l-16.72-41.42-10.26-25.4-43.6.3,1.49,8.67,4.18,24.4,5.44,31.72a3,3,0,0,1-2.92,3.47H270.39a.67.67,0,0,0-.68.68Z" fill="#fff" opacity="0.6"/>
      <path id="Path_14773" data-name="Path 14773" d="M297.26,412.79h55.39a2,2,0,0,0,1.8-2.69l-23.66-56.9H290.56l9.62,56.12a3,3,0,0,1-2.92,3.47Z" opacity="0.2"/>
      <path id="Path_14774" data-name="Path 14774" d="M289.07,344.53l1.49,8.67,4.18,24.4,48.19-7.97-10.26-25.4Z" opacity="0.1"/>
      <path id="Path_14775" data-name="Path 14775" d="M204.29,220H406.15a5.16,5.16,0,0,1,5.16,5.17V361.78a5.17,5.17,0,0,1-5.16,5.17H204.29a5.17,5.17,0,0,1-5.17-5.17V225.13a5.16,5.16,0,0,1,5.17-5.13Z" fill="#fa935b"/>
      <path id="Path_14776" data-name="Path 14776" d="M204.29,220H406.15a5.16,5.16,0,0,1,5.16,5.17V361.78a5.17,5.17,0,0,1-5.16,5.17H204.29a5.17,5.17,0,0,1-5.17-5.17V225.13a5.16,5.16,0,0,1,5.17-5.13Z" fill="#fff" opacity="0.7"/>
      <path id="Path_14777" data-name="Path 14777" d="M401.87,366.94h4.28a5.16,5.16,0,0,0,5.16-5.16V225.13a5.16,5.16,0,0,0-5.16-5.17h-4.28a5.16,5.16,0,0,1,5.16,5.17V361.78A5.16,5.16,0,0,1,401.87,366.94Z" opacity="0.2"/>
      <rect id="Rectangle_27156" data-name="Rectangle 27156" width="198.6" height="131.77" transform="translate(203.77 225.02)" fill="#263238"/>
      <rect id="Rectangle_27157" data-name="Rectangle 27157" width="198.6" height="10.11" transform="translate(203.77 225.02)" fill="#fa935b"/>
      <path id="Path_14778" data-name="Path 14778" d="M397.73,230.44a2.47,2.47,0,1,1-2.47-2.47,2.47,2.47,0,0,1,2.47,2.47Z" opacity="0.2"/>
      <path id="Path_14779" data-name="Path 14779" d="M389.57,230.44A2.47,2.47,0,1,1,387.1,228a2.47,2.47,0,0,1,2.47,2.44Z" opacity="0.2"/>
      <path id="Path_14780" data-name="Path 14780" d="M381.42,230.44A2.47,2.47,0,1,1,379,228a2.47,2.47,0,0,1,2.42,2.44Z" opacity="0.2"/>
      <rect id="Rectangle_27158" data-name="Rectangle 27158" width="198.6" height="34.21" transform="translate(203.77 235.18)" fill="#fff" opacity="0.4"/>
      <path id="Path_14781" data-name="Path 14781" d="M208.32,236.7l-4.55,8.15V236.7Z" fill="#263238"/>
      <path id="Path_14782" data-name="Path 14782" d="M232.85,236.7l-17.43,31.28H203.77v-3.83l15.3-27.45Z" fill="#263238"/>
      <path id="Path_14783" data-name="Path 14783" d="M239.88,268.11H226.1l17.51-31.42h13.77Z" fill="#263238"/>
      <path id="Path_14784" data-name="Path 14784" d="M264.41,268.11H250.63l17.51-31.42h13.78Z" fill="#263238"/>
      <path id="Path_14785" data-name="Path 14785" d="M288.94,268.11H275.16l17.51-31.42h13.78Z" fill="#263238"/>
      <path id="Path_14786" data-name="Path 14786" d="M313.47,268.11H299.7l17.5-31.42h13.78Z" fill="#263238"/>
      <path id="Path_14787" data-name="Path 14787" d="M338.01,267.88H324.23l17.51-31.42h13.77Z" fill="#263238"/>
      <path id="Path_14788" data-name="Path 14788" d="M362.54,267.88H348.76l17.51-31.42h13.78Z" fill="#263238"/>
      <path id="Path_14789" data-name="Path 14789" d="M402.37,236.59v3.84l-15.3,27.45H373.29l17.44-31.29Z" fill="#263238"/>
      <path id="Path_14790" data-name="Path 14790" d="M402.37,259.96v8.02H397.9Z" fill="#263238"/>
      <rect id="Rectangle_27159" data-name="Rectangle 27159" width="198.6" height="34.21" transform="translate(203.77 322.45)" fill="#fff" opacity="0.4"/>
      <path id="Path_14791" data-name="Path 14791" d="M208.32,324.25l-4.55,8.08v-8.08Z" fill="#263238"/>
      <path id="Path_14792" data-name="Path 14792" d="M232.85,324.25l-17.43,31.02H203.77v-3.8l15.3-27.22Z" fill="#263238"/>
      <path id="Path_14793" data-name="Path 14793" d="M239.88,355.4H226.1l17.51-31.15h13.77Z" fill="#263238"/>
      <path id="Path_14794" data-name="Path 14794" d="M264.41,355.4H250.63l17.51-31.15h13.78Z" fill="#263238"/>
      <path id="Path_14795" data-name="Path 14795" d="M288.94,355.4H275.16l17.51-31.15h13.78Z" fill="#263238"/>
      <path id="Path_14796" data-name="Path 14796" d="M313.47,355.4H299.7l17.5-31.15h13.78Z" fill="#263238"/>
      <path id="Path_14797" data-name="Path 14797" d="M338.01,355.17H324.23l17.51-31.15h13.77Z" fill="#263238"/>
      <path id="Path_14798" data-name="Path 14798" d="M362.54,355.17H348.76l17.51-31.15h13.78Z" fill="#263238"/>
      <path id="Path_14799" data-name="Path 14799" d="M402.37,324.14v3.8l-15.3,27.22H373.29l17.44-31.02Z" fill="#263238"/>
      <path id="Path_14800" data-name="Path 14800" d="M402.37,347.31v7.96H397.9Z" fill="#263238"/>
      <path id="Path_14806" data-name="Path 14806" d="M365.61,306.73h21.51a2.7,2.7,0,0,0,2.34-4.05L378.7,284.05a2.69,2.69,0,0,0-4.67,0l-10.76,18.63a2.7,2.7,0,0,0,2.34,4.05Zm12.2-17.6-.47,9.28h-2l-.49-9.28Zm-3,12.47a1.5,1.5,0,0,1,1.56-1.52A1.53,1.53,0,0,1,378,301.6a1.55,1.55,0,0,1-1.61,1.55,1.52,1.52,0,0,1-1.61-1.55Z" fill="#fff" opacity="0.4"/>
      <path id="Path_14807" data-name="Path 14807" d="M219,306.73h21.51a2.7,2.7,0,0,0,2.33-4.05l-10.75-18.63a2.69,2.69,0,0,0-4.67,0l-10.76,18.63a2.7,2.7,0,0,0,2.34,4.05Zm12.2-17.6-.48,9.28h-2l-.49-9.28Zm-3,12.47a1.5,1.5,0,0,1,1.56-1.52,1.53,1.53,0,0,1,1.61,1.52,1.55,1.55,0,0,1-1.61,1.55,1.52,1.52,0,0,1-1.56-1.55Z" fill="#fff" opacity="0.4"/>
      <path id="Path_14808" data-name="Path 14808" d="M224.47,225c27.46,27.51,98,88.73,177.9,84.21V225Z" fill="#fff" opacity="0.1"/>
      <path id="Path_14809" data-name="Path 14809" d="M203.77,275.58V356.8H323.34c-4.59-16.41-13.75-38.87-31.53-54.92C259.82,273,222.7,273.08,203.77,275.58Z" fill="#fff" opacity="0.1"/>
    </g>
    <g id="freepik--tool-box--inject-2">
      <path id="Path_14810" data-name="Path 14810" d="M374,411l3.56,1.56a5.43,5.43,0,0,1-5.7,1.19,5,5,0,0,1-2.73-6,4.34,4.34,0,0,1,1.3-2.11l-9.68-24.73c-3.48.14-4.95-3.12-4.87-5.36l3.54,1.57a1.64,1.64,0,1,0,1.3-3l-3.56-1.56a5.42,5.42,0,0,1,5.7-1.19,5.06,5.06,0,0,1,2.87,5.95,3.88,3.88,0,0,1-1.16,2.05l9.68,24.74c2.71.15,4.81,3.17,4.73,5.41L375.37,408a1.68,1.68,0,0,0-2.2.86A1.65,1.65,0,0,0,374,411Z" fill="#fa935b"/>
      <path id="Path_14811" data-name="Path 14811" d="M374,411l3.56,1.56a5.43,5.43,0,0,1-5.7,1.19,5,5,0,0,1-2.73-6,4.34,4.34,0,0,1,1.3-2.11l-9.68-24.73c-3.48.14-4.95-3.12-4.87-5.36l3.54,1.57a1.64,1.64,0,1,0,1.3-3l-3.56-1.56a5.42,5.42,0,0,1,5.7-1.19,5.06,5.06,0,0,1,2.87,5.95,3.88,3.88,0,0,1-1.16,2.05l9.68,24.74c2.71.15,4.81,3.17,4.73,5.41L375.37,408a1.68,1.68,0,0,0-2.2.86A1.65,1.65,0,0,0,374,411Z" fill="#fff" opacity="0.2"/>
      <path id="Path_14812" data-name="Path 14812" d="M346.39,389.14l-3.77.94a5.4,5.4,0,0,1,3.79-4.42,5,5,0,0,1,5.83,3.09,4.32,4.32,0,0,1,.25,2.47l22.76,13.69c2.67-2.24,5.82-.55,7.13,1.27l-3.76.92a1.63,1.63,0,0,0-1.2,2,1.65,1.65,0,0,0,2,1.19l3.78-.94a5.4,5.4,0,0,1-3.79,4.42,5.06,5.06,0,0,1-5.91-3,4,4,0,0,1-.34-2.33l-22.75-13.7c-2.25,1.54-5.75.43-7.05-1.4l3.8-1a1.69,1.69,0,0,0,1.22-2,1.65,1.65,0,0,0-1.99-1.2Z" fill="#fa935b"/>
      <path id="Path_14813" data-name="Path 14813" d="M346.39,389.14l-3.77.94a5.4,5.4,0,0,1,3.79-4.42,5,5,0,0,1,5.83,3.09,4.32,4.32,0,0,1,.25,2.47l22.76,13.69c2.67-2.24,5.82-.55,7.13,1.27l-3.76.92a1.63,1.63,0,0,0-1.2,2,1.65,1.65,0,0,0,2,1.19l3.78-.94a5.4,5.4,0,0,1-3.79,4.42,5.06,5.06,0,0,1-5.91-3,4,4,0,0,1-.34-2.33l-22.75-13.7c-2.25,1.54-5.75.43-7.05-1.4l3.8-1a1.69,1.69,0,0,0,1.22-2,1.65,1.65,0,0,0-1.99-1.2Z" fill="#fff" opacity="0.2"/>
      <path id="Path_14814" data-name="Path 14814" d="M422.89,377.76h0l.06-.16H387.78l-8.25,21.79h35.02l-.02.06h2.89l7.42-19.43Z" fill="#263238"/>
      <path id="Path_14815" data-name="Path 14815" d="M422.89,377.76h0l.06-.16H387.78l-8.25,21.79h35.02l-.02.06h2.89l7.42-19.43Z" fill="#fff" opacity="0.2"/>
      <path id="Path_14816" data-name="Path 14816" d="M422.95,377.6l-8.25,21.79H379.53l8.25-21.79Z" opacity="0.4"/>
      <path id="Path_14817" data-name="Path 14817" d="M361.9,392.85l8.14,10.46,2.92-.44-8.59-10.02Z" fill="#263238"/>
      <path id="Path_14818" data-name="Path 14818" d="M361.9,392.85l8.14,10.46,2.92-.44-8.59-10.02Z" fill="#fff" opacity="0.1"/>
      <path id="Path_14819" data-name="Path 14819" d="M364.37,382.96l8.14,10.46,2.92-.44-8.59-10.02Z" fill="#263238"/>
      <path id="Path_14820" data-name="Path 14820" d="M364.37,382.96l8.14,10.46,2.92-.44-8.59-10.02Z" fill="#fff" opacity="0.1"/>
      <rect id="Rectangle_27160" data-name="Rectangle 27160" width="60.82" height="17.76" transform="translate(414.7 417.15) rotate(180)" fill="#263238"/>
      <rect id="Rectangle_27161" data-name="Rectangle 27161" width="60.82" height="17.76" transform="translate(414.7 417.15) rotate(180)" fill="#fff" opacity="0.2"/>
      <rect id="Rectangle_27162" data-name="Rectangle 27162" width="55.87" height="2.81" transform="translate(416.35 393.96) rotate(180)" fill="#263238"/>
      <rect id="Rectangle_27163" data-name="Rectangle 27163" width="55.87" height="2.81" transform="translate(416.35 393.96) rotate(180)" fill="#fff" opacity="0.2"/>
      <rect id="Rectangle_27164" data-name="Rectangle 27164" width="21.45" height="2.81" transform="translate(416.35 393.96) rotate(180)" opacity="0.2"/>
      <rect id="Rectangle_27165" data-name="Rectangle 27165" width="55.87" height="2.81" transform="translate(419.65 385.7) rotate(180)" fill="#263238"/>
      <rect id="Rectangle_27166" data-name="Rectangle 27166" width="55.87" height="2.81" transform="translate(419.65 385.7) rotate(180)" fill="#fff" opacity="0.2"/>
      <rect id="Rectangle_27167" data-name="Rectangle 27167" width="21.45" height="2.81" transform="translate(419.65 385.7) rotate(180)" opacity="0.2"/>
      <rect id="Rectangle_27168" data-name="Rectangle 27168" width="23.92" height="17.76" transform="translate(414.7 417.15) rotate(180)" opacity="0.2"/>
    </g>
  </g>
</svg>
