<svg xmlns="http://www.w3.org/2000/svg" xmlns:xlink="http://www.w3.org/1999/xlink" width="468.374" height="453.999" viewBox="0 0 468.374 453.999">
  <defs>
    <linearGradient id="linear-gradient" x1="0.5" x2="0.5" y2="1" gradientUnits="objectBoundingBox">
      <stop offset="0" stop-color="#131a45"/>
      <stop offset="1" stop-color="#32386f"/>
    </linearGradient>
  </defs>
  <g id="Influencer-amico" transform="translate(-63.137 -36.868)">
    <g id="freepik--Device--inject-5" transform="translate(63.137 36.868)">
      <g id="freepik--device--inject-5-2" data-name="freepik--device--inject-5">
        <path id="Path_7831" data-name="Path 7831" d="M235.4,46.683,84.049,134.054a12.228,12.228,0,0,0-5.5,9.548V484.917c0,3.48,2.471,4.942,5.5,3.179L235.4,400.725a12.216,12.216,0,0,0,5.5-9.536V49.862C240.9,46.359,238.43,44.932,235.4,46.683Zm-2.425,313.054c0,3-2.1,4.919-4.722,6.416L90.674,445.6c-2.6,1.508-4.722.29-4.722-2.726V175.506a10.441,10.441,0,0,1,4.722-8.191L228.255,87.88c2.622-1.508,4.722-.29,4.722,2.715Z" transform="translate(-61.217 -35.416)" fill="#91a7c0"/>
        <path id="Path_7832" data-name="Path 7832" d="M85.757,477.09a12.332,12.332,0,0,1-10.325-.336l-6.3-3.643a12.147,12.147,0,0,1-5.522-9.536v-341.3a10.441,10.441,0,0,1,.963-4.119,12.668,12.668,0,0,1,.65-1.323h0l17.321,10h0a13.921,13.921,0,0,0-.951,2.019,10.174,10.174,0,0,0-.673,3.411V473.575C80.943,476.8,83.042,478.273,85.757,477.09Z" transform="translate(-63.61 -24.062)" fill="#d3deeb"/>
        <path id="Path_7833" data-name="Path 7833" d="M150.849,363.714c4.8-2.773,8.689-.522,8.689,5.023a19.2,19.2,0,0,1-8.69,15.082c-4.8,2.773-8.689.522-8.689-5.023A19.2,19.2,0,0,1,150.849,363.714Z" transform="translate(-51.031 15.285)" fill="#263238"/>
        <path id="Path_7834" data-name="Path 7834" d="M149.029,90.648c2.042-1.16,3.689-.22,3.689,2.135a8.121,8.121,0,0,1-3.689,6.392c-2.042,1.16-3.689.22-3.689-2.135A8.121,8.121,0,0,1,149.029,90.648Z" transform="translate(-50.521 -28.335)"/>
        <path id="Path_7835" data-name="Path 7835" d="M136.664,112.262l28.493-16.451c1.694-.975,3.074-.278,3.074,1.555a6.625,6.625,0,0,1-3.074,5.116l-28.493,16.451c-1.694.975-3.074.278-3.074-1.566a6.6,6.6,0,0,1,3.074-5.1Z" transform="translate(-52.403 -27.499)"/>
        <path id="Path_7836" data-name="Path 7836" d="M231.955,353.8c0,2.993-2.1,4.907-4.722,6.416L89.652,439.659c-2.6,1.5-4.722.29-4.722-2.726V169.554a10.441,10.441,0,0,1,4.722-8.179L227.233,81.939c2.622-1.508,4.722-.29,4.722,2.715Z" transform="translate(-60.196 -29.754)" fill="url(#linear-gradient)"/>
        <path id="Path_7838" data-name="Path 7838" d="M243.013,50.444c-.394-2.866-2.68-3.9-5.429-2.32L86.219,135.506a11.288,11.288,0,0,0-3.886,4.119L65,129.624a11.207,11.207,0,0,1,3.9-4.084L220.251,38.181a12.193,12.193,0,0,1,11.01,0l6.323,3.631A12.309,12.309,0,0,1,243.013,50.444Z" transform="translate(-63.387 -36.868)" fill="#d3deeb"/>
      </g>
    </g>
    <g id="freepik--Character--inject-5" transform="translate(125.884 88.396)">
      <path id="Path_7839" data-name="Path 7839" d="M256.615,82.443,122.932,159.685a10.441,10.441,0,0,0-4.722,8.121V435.243c0,3.016,2.123,4.223,4.722,2.726L256.615,360.7c2.61-1.5,4.722-3.411,4.722-6.416V85.134C261.337,82.153,259.226,80.877,256.615,82.443ZM242.485,317a5.546,5.546,0,0,1-2.517,4.351L135.821,381.563c-1.381.8-2.506.151-2.506-1.45V244.457a5.569,5.569,0,0,1,2.506-4.351L239.967,179.9c1.392-.8,2.517-.151,2.517,1.45Z" transform="translate(-117.613 -81.206)" fill="#fafafa"/>
      <path id="Path_7840" data-name="Path 7840" d="M120.914,439.266a2.946,2.946,0,0,1-1.52-.394,3.84,3.84,0,0,1-1.682-3.55V167.966a10.987,10.987,0,0,1,4.977-8.7L256.408,82.022A3.48,3.48,0,0,1,262,85.236V354.389c0,3.631-2.866,5.685-5.012,6.961L123.3,438.546a4.907,4.907,0,0,1-2.39.719ZM258.809,82.451a3.7,3.7,0,0,0-1.821.568h0L123.3,160.262a9.884,9.884,0,0,0-4.432,7.68V435.321a2.784,2.784,0,0,0,1.16,2.552,2.75,2.75,0,0,0,2.75-.336l133.684-77.254c3.063-1.763,4.432-3.585,4.432-5.917V85.212a2.8,2.8,0,0,0-1.091-2.552A1.821,1.821,0,0,0,258.809,82.451ZM134.79,382.592a1.8,1.8,0,0,1-.951-.255,2.32,2.32,0,0,1-1.021-2.123V244.535a6.137,6.137,0,0,1,2.8-4.861l104.146-60.2a2.1,2.1,0,0,1,3.388,1.949V317.079a6.114,6.114,0,0,1-2.808,4.861l-104.146,60.2a2.877,2.877,0,0,1-1.4.452ZM241.175,180.217a1.659,1.659,0,0,0-.835.267l-104.146,60.2a5.023,5.023,0,0,0-2.216,3.852V380.272a.974.974,0,0,0,1.636.951L239.76,321.012a5,5,0,0,0,2.227-3.852V181.4a1.241,1.241,0,0,0-.452-1.16.685.685,0,0,0-.36-.046Z" transform="translate(-117.695 -81.283)" fill="#e6e6e6"/>
      <path id="Path_7841" data-name="Path 7841" d="M123.581,162.156v-2.007a1.241,1.241,0,0,1,.371-.986l.1-.058c.2-.128.371.116.371.545v1.961a1.276,1.276,0,0,1-.371.986h-.1C123.743,162.829,123.581,162.573,123.581,162.156Z" transform="translate(-116.753 -68.826)" fill="#455a64"/>
      <path id="Path_7842" data-name="Path 7842" d="M125,161.49v-3.341a1.241,1.241,0,0,1,.383-.986l.1-.058c.2-.128.371.128.371.545v3.388a1.276,1.276,0,0,1-.371.986h-.1C125.221,162.163,125,161.908,125,161.49Z" transform="translate(-116.526 -69.146)" fill="#455a64"/>
      <path id="Path_7843" data-name="Path 7843" d="M126.51,160.813V156a1.241,1.241,0,0,1,.383-.986l.093-.058c.209-.116.383.128.383.545v4.826a1.23,1.23,0,0,1-.383.975l-.093.07C126.684,161.52,126.51,161.277,126.51,160.813Z" transform="translate(-116.284 -69.49)" fill="#455a64"/>
      <path id="Path_7844" data-name="Path 7844" d="M128,160.478v-8.33a1.276,1.276,0,0,1,.371-.975l.1-.07c.209-.116.383.128.383.557v8.318a1.23,1.23,0,0,1-.371.975l-.1.07C128.151,161.151,128,160.907,128,160.478Z" transform="translate(-116.045 -70.107)" fill="#455a64"/>
      <path id="Path_7845" data-name="Path 7845" d="M132.294,158.408a.43.43,0,0,1-.058-.255v-1.16l-1.9,1.1c-.1.058-.162,0-.162-.174v-.429a1.231,1.231,0,0,1,0-.244v-.232l2.03-5.545a1.347,1.347,0,0,1,.1-.22.313.313,0,0,1,.128-.116l.267-.151c.081,0,.139-.058.174,0a.476.476,0,0,1,.058.267v4.269l.418-.244h.174a.639.639,0,0,1,0,.267v.29a1.057,1.057,0,0,1,0,.313.441.441,0,0,1-.174.186l-.418.244v1.218a.7.7,0,0,1-.058.3.464.464,0,0,1-.174.2l-.325.174C132.294,158.443,132.294,158.443,132.294,158.408Zm.07-2.587v-3.04l-1.381,3.84Z" transform="translate(-115.698 -70.125)" fill="#455a64"/>
      <path id="Path_7846" data-name="Path 7846" d="M133.99,156.693a4.037,4.037,0,0,1-.557-2.494,7.958,7.958,0,0,1,.557-3.132,3.805,3.805,0,0,1,1.589-1.9,2.066,2.066,0,0,1,.766-.3.894.894,0,0,1,.592.093.116.116,0,0,1,0,.1.348.348,0,0,1,0,.139l-.174.638q0,.128-.07.139h-.081a1.079,1.079,0,0,0-.975.151,2.749,2.749,0,0,0-1.079,1.311,6.09,6.09,0,0,0-.394,2.32,3.144,3.144,0,0,0,.383,1.879c.255.313.6.336,1.044.093a2.552,2.552,0,0,0,.464-.348,2.077,2.077,0,0,0,.383-.406v-1.984l-.8.452h-.162a.452.452,0,0,1-.058-.267V152.9a.719.719,0,0,1,.058-.313.337.337,0,0,1,.162-.174l1.276-.743h.186a.58.58,0,0,1,0,.313v2.842a1.229,1.229,0,0,1,0,.244.812.812,0,0,1-.07.2,4.118,4.118,0,0,1-1.508,1.485C134.895,157.146,134.361,157.146,133.99,156.693Z" transform="translate(-115.178 -70.464)" fill="#455a64"/>
      <path id="Path_7847" data-name="Path 7847" d="M236.378,91.324c-.22-.313-.487-.406-.766-.244l-5.72,3.295a2.935,2.935,0,0,0-.882,2.32v4.281a2.437,2.437,0,0,0,.336,1.369.836.836,0,0,0,.3.278.522.522,0,0,0,.452,0l5.719-3.306A2.877,2.877,0,0,0,236.7,97V92.682a2.529,2.529,0,0,0-.325-1.357Zm-6.822,10.441a1.16,1.16,0,0,1-.128-.626V96.882a2.32,2.32,0,0,1,.673-1.763l5.72-3.306a.267.267,0,0,1,.244,0,.324.324,0,0,1,.1.081,1.357,1.357,0,0,1,.116.626V96.8a2.32,2.32,0,0,1-.673,1.763l-5.72,3.295a.232.232,0,0,1-.336-.081Z" transform="translate(-99.87 -79.727)" fill="#455a64"/>
      <path id="Path_7848" data-name="Path 7848" d="M233.029,93.68v5.07l-3.074,1.775h-.1a.79.79,0,0,0,0-.174V96.546a1.763,1.763,0,0,1,.5-1.311Z" transform="translate(-99.734 -79.298)" fill="#455a64"/>
      <path id="Path_7849" data-name="Path 7849" d="M235.944,92.342c.209-.128.383.476.383,1.357v.8a3.074,3.074,0,0,1-.394,1.845l-.383.267V92.563Z" transform="translate(-98.821 -79.515)" fill="#455a64"/>
      <path id="Path_7850" data-name="Path 7850" d="M143.65,149.8a2.924,2.924,0,0,1-1.16,2.32c-.615.348-1.16-.128-1.16-1.067a2.912,2.912,0,0,1,1.16-2.32C143.163,148.388,143.65,148.863,143.65,149.8Z" transform="translate(-113.91 -70.5)" fill="#455a64"/>
      <path id="Path_7851" data-name="Path 7851" d="M142.742,146.364a6.671,6.671,0,0,0-2.587,3.863.826.826,0,0,0,.128.777h0c.209.139.522-.139.638-.568a4.71,4.71,0,0,1,1.821-2.738,1.16,1.16,0,0,1,1.81.638c.128.3.441.209.65-.162h0a1.16,1.16,0,0,0,.116-.9,1.659,1.659,0,0,0-2.576-.9Z" transform="translate(-114.104 -70.912)" fill="#455a64"/>
      <path id="Path_7852" data-name="Path 7852" d="M142.937,144.07a10.441,10.441,0,0,0-3.956,5.638c-.128.36-.093.731.081.847h0c.2.128.5-.116.626-.534a8.446,8.446,0,0,1,3.237-4.641,2.135,2.135,0,0,1,3.225.87c.139.255.429.174.638-.186h0a1.16,1.16,0,0,0,.093-.963,2.634,2.634,0,0,0-3.944-1.033Z" transform="translate(-114.299 -71.309)" fill="#455a64"/>
      <path id="Path_7853" data-name="Path 7853" d="M175.779,133.034a.6.6,0,0,1,0,.244c0,.07-.081.128-.139.151l-.278.162a.093.093,0,0,1-.128,0,.244.244,0,0,1-.058-.174v-5.8l-1.114,1.868a.267.267,0,0,1-.139.139.128.128,0,0,1-.128,0l-.162-.232a.267.267,0,0,1,0-.2.881.881,0,0,1,.07-.232l1.473-2.587a.685.685,0,0,1,.1-.128l.116-.081.278-.162a.116.116,0,0,1,.139,0,.232.232,0,0,1,0,.162Z" transform="translate(-108.74 -74.126)" fill="#455a64"/>
      <path id="Path_7854" data-name="Path 7854" d="M176.974,127.2a.093.093,0,0,1,.128,0,.244.244,0,0,1,0,.174v.754a.557.557,0,0,1,0,.232.464.464,0,0,1-.128.162l-.464.267h-.128a.2.2,0,0,1,0-.174v-.708a.406.406,0,0,1,0-.232.267.267,0,0,1,.128-.162Zm0,3.712a.093.093,0,0,1,.128,0,.256.256,0,0,1,0,.174v.719a.534.534,0,0,1,0,.22.313.313,0,0,1-.128.162l-.464.267h-.128a.186.186,0,0,1,0-.162v-.684a.476.476,0,0,1,0-.244.244.244,0,0,1,.128-.151Z" transform="translate(-108.3 -73.934)" fill="#455a64"/>
      <path id="Path_7855" data-name="Path 7855" d="M180.143,130.87a.1.1,0,0,1-.128,0,.244.244,0,0,1-.058-.174v-1.473l-2.158,1.253a.1.1,0,0,1-.128,0,.244.244,0,0,1,0-.174v-.383a1.482,1.482,0,0,1,0-.2l.07-.22,2.181-5.65a1.7,1.7,0,0,1,.116-.255.464.464,0,0,1,.151-.151l.278-.162a.1.1,0,0,1,.128,0,.244.244,0,0,1,.058.174v4.42l.592-.336a.1.1,0,0,1,.128,0,.232.232,0,0,1,0,.162v.383a.626.626,0,0,1,0,.244.336.336,0,0,1-.128.151l-.592.348v1.462a.615.615,0,0,1-.058.232.383.383,0,0,1-.128.162Zm-.186-2.6v-2.993l-1.5,3.84Z" transform="translate(-108.093 -74.561)" fill="#455a64"/>
      <path id="Path_7856" data-name="Path 7856" d="M181.953,128.057a1.16,1.16,0,0,0,.093.29.51.51,0,0,0,.186.2.568.568,0,0,0,.325,0,2.1,2.1,0,0,0,1.276-.986,2.553,2.553,0,0,0,.22-.545,1.961,1.961,0,0,0,.093-.65,1.3,1.3,0,0,0-.081-.522.418.418,0,0,0-.22-.255.476.476,0,0,0-.336,0,1.532,1.532,0,0,0-.418.174l-.58.336a.1.1,0,0,1-.128,0,.244.244,0,0,1-.058-.174v-.383a.683.683,0,0,1,0-.2l.07-.174,1.241-2.773-1.984,1.16a.093.093,0,0,1-.128,0,.186.186,0,0,1,0-.162v-.383a.406.406,0,0,1,0-.232.267.267,0,0,1,.128-.162L184.424,121a.1.1,0,0,1,.128,0,.244.244,0,0,1,0,.174v.371a.441.441,0,0,1,0,.209,1.7,1.7,0,0,1-.081.22l-1.16,2.726a1.462,1.462,0,0,1,.626-.186.7.7,0,0,1,.487.139,1.032,1.032,0,0,1,.313.5,2.46,2.46,0,0,1,.116.835,3.911,3.911,0,0,1-.139,1.044,3.865,3.865,0,0,1-.36.928,3.377,3.377,0,0,1-.545.766,2.588,2.588,0,0,1-.661.545,1.984,1.984,0,0,1-.8.29.754.754,0,0,1-.545-.116.812.812,0,0,1-.325-.406,1.776,1.776,0,0,1-.116-.626.372.372,0,0,1,0-.186.232.232,0,0,1,.1-.128l.313-.186a.1.1,0,0,1,.128,0,.267.267,0,0,1,.046.139Z" transform="translate(-107.501 -74.926)" fill="#455a64"/>
      <path id="Path_7857" data-name="Path 7857" d="M136.59,189.178c5.209-3,9.432-.568,9.432,5.441s-4.223,13.318-9.432,16.323-9.42.568-9.42-5.441S131.381,192.171,136.59,189.178Z" transform="translate(-116.178 -64.211)" fill="#fa935b"/>
      <path id="Path_7858" data-name="Path 7858" d="M135.538,192.127c1.4-.8,2.529-.151,2.529,1.462a5.546,5.546,0,0,1-2.529,4.374c-1.392.812-2.518.162-2.518-1.45A5.6,5.6,0,0,1,135.538,192.127Z" transform="translate(-115.241 -63.587)" fill="#fff"/>
      <path id="Path_7859" data-name="Path 7859" d="M140.835,200.421c0-2.645-1.868-3.828-4.153-2.506l-1.439.835a9.188,9.188,0,0,0-4.153,7.181v.719s.986,2.007,4.873-.29a10.905,10.905,0,0,0,4.873-5.325Z" transform="translate(-115.55 -62.693)" fill="#fff"/>
      <path id="Path_7860" data-name="Path 7860" d="M152.752,190.3l44.8-25.871c1.949-1.16,3.48-.22,3.48,2a7.761,7.761,0,0,1-3.48,6.068L152.74,198.456c-1.937,1.16-3.48.22-3.48-2.03h0A7.8,7.8,0,0,1,152.752,190.3Z" transform="translate(-112.64 -68.048)" fill="#455a64"/>
      <path id="Path_7861" data-name="Path 7861" d="M137.646,356.5l-2.077-.557c-1.984-.522-4.339-1.671-4.339-4.211a6.682,6.682,0,0,1,3.214-5.081,2.019,2.019,0,0,1,3.19,1.531,8.051,8.051,0,0,1,3.19-5.221c1.787-1.021,3.225-.406,3.225,1.369,0,2.541-2.32,6.416-4.327,9.223Z" transform="translate(-115.528 -39.456)" fill="#fa935b"/>
      <path id="Path_7862" data-name="Path 7862" d="M152.07,348.1a3.213,3.213,0,0,1-1.613-.418,4.13,4.13,0,0,1-1.775-3.794,12.089,12.089,0,0,1,5.453-9.444,3.666,3.666,0,0,1,5.952,3.48,8.921,8.921,0,0,1-.336,2.39l1.763,2.425a.522.522,0,0,1,0,.534.534.534,0,0,1-.452.278h-2.726a10.8,10.8,0,0,1-3.7,3.805,5.163,5.163,0,0,1-2.564.742Zm4.641-13.411a4.211,4.211,0,0,0-2.065.65,10.917,10.917,0,0,0-4.942,8.55,2.668,2.668,0,0,0,4.432,2.552,10.116,10.116,0,0,0,3.48-3.689.51.51,0,0,1,.441-.255H160.1l-1.265-1.729a.487.487,0,0,1-.139-.51,8.551,8.551,0,0,0,.371-2.32,3.167,3.167,0,0,0-1.265-2.923A2.182,2.182,0,0,0,156.711,334.691Z" transform="translate(-112.736 -40.876)" fill="#455a64"/>
      <path id="Path_7863" data-name="Path 7863" d="M167.777,339.949h0a.51.51,0,0,1-.441-.476l-.452-7.355-4.362-1.16a.5.5,0,0,1-.371-.418.51.51,0,0,1,.255-.51l10.383-6a.534.534,0,0,1,.58,0,.522.522,0,0,1,.151.568l-5.186,14.978A.511.511,0,0,1,167.777,339.949Zm-3.863-9.676,3.48.951a.51.51,0,0,1,.371.464l.325,5.163,3.9-11.265Z" transform="translate(-110.577 -42.422)" fill="#455a64"/>
      <path id="Path_7864" data-name="Path 7864" d="M166.68,332.235a.475.475,0,0,1-.313-.116.5.5,0,0,1-.081-.708l5.662-7.274a.522.522,0,0,1,.719-.093.51.51,0,0,1,.081.719l-5.615,7.274a.534.534,0,0,1-.452.2Z" transform="translate(-109.932 -42.423)" fill="#455a64"/>
      <path id="Path_7865" data-name="Path 7865" d="M218.42,314.206h-.1a.5.5,0,0,1-.406-.5V301.677a.5.5,0,0,1,.255-.441l7.587-4.4a.534.534,0,0,1,.51,0,.545.545,0,0,1,.255.452v11.984a.506.506,0,0,1-.87.36l-3.295-3.272-3.48,7.529A.5.5,0,0,1,218.42,314.206Zm.51-12.2v9.362l2.8-6.068a.476.476,0,0,1,.371-.29.5.5,0,0,1,.452.139l2.947,2.924V298.2Z" transform="translate(-101.646 -46.774)" fill="#455a64"/>
      <path id="Path_7866" data-name="Path 7866" d="M153.881,361.848a.638.638,0,0,1-.081.267.568.568,0,0,1-.2.209l-.754.429c-.081,0-.139.058-.2,0a.186.186,0,0,1-.081-.174v-7.611a.5.5,0,0,1,.081-.267.569.569,0,0,1,.2-.209l.754-.429c.081,0,.139-.058.2,0a.209.209,0,0,1,.081.174Z" transform="translate(-112.11 -37.603)" fill="#455a64"/>
      <path id="Path_7867" data-name="Path 7867" d="M155.987,352.713a.186.186,0,0,1,.186,0,.2.2,0,0,1,.081.186v.893a.6.6,0,0,1-.267.476l-.87.5a.162.162,0,0,1-.186,0,.283.283,0,0,1-.081-.162v-.917a.441.441,0,0,1,.081-.255.545.545,0,0,1,.186-.209Zm.22,7.8a.638.638,0,0,1-.081.267.568.568,0,0,1-.2.209l-.754.429c-.081,0-.139.058-.2,0a.209.209,0,0,1-.081-.174v-5.406a.637.637,0,0,1,.081-.267.464.464,0,0,1,.2-.2l.754-.452a.2.2,0,0,1,.2,0,.209.209,0,0,1,.081.174Z" transform="translate(-111.745 -37.819)" fill="#455a64"/>
      <path id="Path_7868" data-name="Path 7868" d="M158.521,357.169v2a.5.5,0,0,1-.081.267.568.568,0,0,1-.2.209l-.754.429c-.081,0-.139.058-.2,0a.209.209,0,0,1-.081-.174v-7.611a.637.637,0,0,1,.081-.267.464.464,0,0,1,.2-.2l.754-.441h.2a.186.186,0,0,1,.081.174v3.654l1.682-2.541a1.5,1.5,0,0,1,.151-.209.813.813,0,0,1,.232-.209l1.033-.592a.139.139,0,0,1,.162,0,.249.249,0,0,1,.07.151.393.393,0,0,1,0,.116.9.9,0,0,1-.093.186l-2.32,3.48L162,356.96a.255.255,0,0,1,.081.07.151.151,0,0,1,0,.093.475.475,0,0,1-.07.232.418.418,0,0,1-.174.174l-.975.568a.534.534,0,0,1-.255.081h-.162Z" transform="translate(-111.367 -38.029)" fill="#455a64"/>
      <path id="Path_7869" data-name="Path 7869" d="M146.009,363.967v2a.568.568,0,0,1-.07.267.684.684,0,0,1-.2.209l-.766.441a.185.185,0,0,1-.186,0c-.058,0-.081-.081-.081-.174v-7.576a.5.5,0,0,1,.081-.267.441.441,0,0,1,.186-.2l.766-.441a.174.174,0,0,1,.2,0,.209.209,0,0,1,.07.174v3.654l1.682-2.529a2.108,2.108,0,0,1,.162-.22.813.813,0,0,1,.232-.209l1.021-.592h.174a.162.162,0,0,1,.07.151v.116a.626.626,0,0,1-.1.186l-2.32,3.48,2.564,1.369.07.07v.093a.475.475,0,0,1-.07.232.533.533,0,0,1-.174.186l-.975.557a.5.5,0,0,1-.255.081.407.407,0,0,1-.151,0Z" transform="translate(-113.369 -36.938)" fill="#455a64"/>
      <path id="Path_7870" data-name="Path 7870" d="M161.56,354.583a5.314,5.314,0,0,1,.174-1.323,6.043,6.043,0,0,1,.487-1.276,5.88,5.88,0,0,1,.777-1.16A4.246,4.246,0,0,1,164.02,350a2.461,2.461,0,0,1,1.021-.36,1.218,1.218,0,0,1,.777.2,1.311,1.311,0,0,1,.5.65,2.726,2.726,0,0,1,.174,1.021v.534a.441.441,0,0,1-.081.255.546.546,0,0,1-.186.209l-3.353,1.938a.742.742,0,0,0,.093.418.476.476,0,0,0,.255.2.812.812,0,0,0,.371,0,1.673,1.673,0,0,0,.429-.174,2.542,2.542,0,0,0,.522-.383,2.482,2.482,0,0,0,.336-.383,1.68,1.68,0,0,1,.174-.232l.2-.151.8-.464a.2.2,0,0,1,.2,0c.058,0,.081.081.081.174a1.74,1.74,0,0,1-.162.51,4.156,4.156,0,0,1-.441.754,6.259,6.259,0,0,1-.708.824,4.64,4.64,0,0,1-1,.742,2.391,2.391,0,0,1-1.021.371,1.16,1.16,0,0,1-.777-.2,1.485,1.485,0,0,1-.487-.708A3.481,3.481,0,0,1,161.56,354.583Zm2.46-3.156a1.846,1.846,0,0,0-.5.383,2.087,2.087,0,0,0-.336.452,1.753,1.753,0,0,0-.22.476,2.108,2.108,0,0,0-.093.418l2.262-1.311a1.828,1.828,0,0,0-.07-.325.429.429,0,0,0-.186-.244.476.476,0,0,0-.325-.058A1.383,1.383,0,0,0,164.02,351.427Z" transform="translate(-110.671 -38.308)" fill="#455a64"/>
      <path id="Path_7871" data-name="Path 7871" d="M169.652,351.189q0-.139-.07-.174a.4.4,0,0,0-.244,0l-.476.128-.742.255a2.412,2.412,0,0,1-.731.128.719.719,0,0,1-.464-.139.661.661,0,0,1-.255-.383,2.318,2.318,0,0,1-.07-.6,2.181,2.181,0,0,1,.151-.766,3.48,3.48,0,0,1,.406-.835,5,5,0,0,1,.638-.789,3.863,3.863,0,0,1,.882-.673,3.688,3.688,0,0,1,.882-.383,1.623,1.623,0,0,1,.65,0,.754.754,0,0,1,.429.244.858.858,0,0,1,.162.453.406.406,0,0,1-.07.267.533.533,0,0,1-.2.2l-.777.452a.337.337,0,0,1-.22.07l-.162-.058h-.244a1.346,1.346,0,0,0-.452.2,2.132,2.132,0,0,0-.534.418.719.719,0,0,0-.232.5.267.267,0,0,0,0,.186.255.255,0,0,0,.209,0,2.458,2.458,0,0,0,.429-.1l.719-.244c.592-.186,1.021-.209,1.265,0a1.091,1.091,0,0,1,.36.951,2.32,2.32,0,0,1-.151.777,3.574,3.574,0,0,1-.429.835,5.14,5.14,0,0,1-.708.824,4.7,4.7,0,0,1-.94.7,3.275,3.275,0,0,1-.94.406,1.739,1.739,0,0,1-.684,0,.777.777,0,0,1-.592-.754.406.406,0,0,1,.07-.267.683.683,0,0,1,.2-.209l.777-.441a.244.244,0,0,1,.22,0l.174.081a.464.464,0,0,0,.267,0,1.39,1.39,0,0,0,.51-.22,1.551,1.551,0,0,0,.313-.2l.3-.244.22-.267a.568.568,0,0,0,.151-.313Z" transform="translate(-109.888 -38.743)" fill="#455a64"/>
      <path id="Path_7872" data-name="Path 7872" d="M131.4,369.2a.244.244,0,0,1,0-.209.591.591,0,0,1,.081-.267l1.671-2.993.128-.209a.371.371,0,0,1,.151-.151l.6-.348a.093.093,0,0,1,.139,0,.22.22,0,0,1,.058.186v7.68a.557.557,0,0,1-.058.267.441.441,0,0,1-.139.174l-.626.36a.116.116,0,0,1-.151,0,.255.255,0,0,1-.058-.2v-5.87l-1.1,2.019c0,.081-.093.139-.151.151a.1.1,0,0,1-.139,0Z" transform="translate(-115.504 -35.849)" fill="#455a64"/>
      <path id="Path_7873" data-name="Path 7873" d="M134.986,364.847a.568.568,0,0,1,.07-.267.313.313,0,0,1,.139-.174l2.912-1.682a.1.1,0,0,1,.139,0,.232.232,0,0,1,.07.186v.847a.568.568,0,0,1-.07.267.441.441,0,0,1-.139.174l-2.169,1.253-.093,1.578a1.869,1.869,0,0,1,.418-.394,3.992,3.992,0,0,1,.336-.22,2.112,2.112,0,0,1,.8-.29.916.916,0,0,1,.638.162,1.252,1.252,0,0,1,.429.615,3.2,3.2,0,0,1,.151,1.091,5.208,5.208,0,0,1-.162,1.392,4.721,4.721,0,0,1-.429,1.16,3.991,3.991,0,0,1-.638.893,4.272,4.272,0,0,1-.789.615,2.482,2.482,0,0,1-.917.336.952.952,0,0,1-.638-.151,1.16,1.16,0,0,1-.371-.534,2.4,2.4,0,0,1-.151-.8.685.685,0,0,1,0-.267.383.383,0,0,1,.151-.174l.626-.36a.128.128,0,0,1,.139,0,.278.278,0,0,1,.093.162.65.65,0,0,0,.139.36.383.383,0,0,0,.232.139.429.429,0,0,0,.29,0,2.249,2.249,0,0,0,.348-.151,1.822,1.822,0,0,0,.708-.789,2.552,2.552,0,0,0,.267-1.16.905.905,0,0,0-.267-.743.638.638,0,0,0-.708,0,1.706,1.706,0,0,0-.371.267,1.44,1.44,0,0,0-.22.255l-.151.209a.777.777,0,0,1-.174.162l-.719.406a.1.1,0,0,1-.139,0,.232.232,0,0,1-.07-.186Z" transform="translate(-115.003 -36.216)" fill="#455a64"/>
      <path id="Path_7874" data-name="Path 7874" d="M139.628,367.244a.116.116,0,0,1,.151,0,.29.29,0,0,1,.058.186v1.16a.789.789,0,0,1-.058.267.453.453,0,0,1-.151.174l-.719.418a.1.1,0,0,1-.139,0,.255.255,0,0,1-.07-.2v-1.16a.568.568,0,0,1,.07-.267.36.36,0,0,1,.139-.174Z" transform="translate(-114.332 -35.493)" fill="#455a64"/>
      <path id="Path_7875" data-name="Path 7875" d="M140.36,366.883a4.77,4.77,0,0,1,.162-1.265c.093-.371.22-.742.348-1.16l1.473-4.037a.892.892,0,0,1,.081-.2.278.278,0,0,1,.151-.174l.7-.406a.116.116,0,0,1,.151,0,.267.267,0,0,1,.058.186.255.255,0,0,1,0,.1.74.74,0,0,1,0,.081l-.963,2.668a1.833,1.833,0,0,1,.835-.267,1.009,1.009,0,0,1,.661.22,1.439,1.439,0,0,1,.429.673,3.69,3.69,0,0,1,.151,1.091A5.8,5.8,0,0,1,144,366.86a4.884,4.884,0,0,1-.661.986,3.387,3.387,0,0,1-.847.7,1.694,1.694,0,0,1-.859.278.94.94,0,0,1-.661-.209,1.485,1.485,0,0,1-.429-.685,3.481,3.481,0,0,1-.186-1.044Zm3.144-1.821a1.16,1.16,0,0,0-.278-.858c-.174-.162-.441-.151-.766,0a1.926,1.926,0,0,0-.777.858,2.68,2.68,0,0,0-.278,1.16,1.16,1.16,0,0,0,.278.87c.174.174.441.162.777,0a1.833,1.833,0,0,0,.766-.87A2.68,2.68,0,0,0,143.5,365.062Z" transform="translate(-114.066 -36.71)" fill="#455a64"/>
      <path id="Path_7876" data-name="Path 7876" d="M135.693,178.19a1.833,1.833,0,0,1-.951-.255,2.819,2.819,0,0,1-1.16-2.576,6.671,6.671,0,0,1,2.854-5.406h0a2.227,2.227,0,0,1,2.262-.139,2.819,2.819,0,0,1,1.16,2.576,6.694,6.694,0,0,1-2.866,5.418,2.611,2.611,0,0,1-1.3.383Zm1.3-7.239a5.638,5.638,0,0,0-2.32,4.409,1.787,1.787,0,0,0,.6,1.578,1.16,1.16,0,0,0,1.091-.139,5.58,5.58,0,0,0,2.32-4.409,1.74,1.74,0,0,0-.6-1.566,1.16,1.16,0,0,0-1.1.128Z" transform="translate(-115.153 -67.145)" fill="#455a64"/>
      <path id="Path_7877" data-name="Path 7877" d="M131.543,183.749a1.01,1.01,0,0,1-.476-.128,1.23,1.23,0,0,1-.557-1.16v-8.33a2.378,2.378,0,0,1,1.044-1.937l2.193-1.265A1.23,1.23,0,0,0,134.2,170a2.4,2.4,0,0,1,1.044-1.949l3.33-1.914a1.044,1.044,0,0,1,1.067,0,1.241,1.241,0,0,1,.557,1.1l2.065-1.16a1.044,1.044,0,0,1,1.067,0,1.23,1.23,0,0,1,.557,1.16v8.341a2.39,2.39,0,0,1-1.044,1.937L132.135,183.7a1.265,1.265,0,0,1-.592.046Zm7.495-16.5-3.214,1.845a1.265,1.265,0,0,0-.464.94,2.39,2.39,0,0,1-1.033,1.937l-2.193,1.265a1.241,1.241,0,0,0-.464.928v8.341l10.592-6.114a1.241,1.241,0,0,0,.464-.928v-8.3l-2.077,1.16a1.044,1.044,0,0,1-1.067,0,1.16,1.16,0,0,1-.545-1.079Z" transform="translate(-115.644 -67.727)" fill="#455a64"/>
      <path id="Path_7878" data-name="Path 7878" d="M245.3,173.76c5.418.093,9.1,1.578,13.643,8.225s15.917,21.683,15.917,21.683,14.7-9.884,16.613-12.077,7.877-5.743,7.877-5.743l2.042,8.98s-19.363,19.1-24.363,22.321c-3.678,2.39-5.557,2.564-10-2.019s-20.8-23.319-20.8-23.319Z" transform="translate(-97.26 -66.474)" fill="#ffa8a7"/>
      <path id="Path_7879" data-name="Path 7879" d="M294.28,176.051,299.535,173v29a3.063,3.063,0,0,0,1.056,1.821l-5.267,3.04a3.063,3.063,0,0,1-1.044-1.821Z" transform="translate(-89.416 -66.595)" fill="#37474f"/>
      <path id="Path_7880" data-name="Path 7880" d="M299.416,183.08s1.485.394,2.007,2.715.719,6.752-.65,8.191-3.19,2.019-4.385,1.473c-2.227-1.033-1.45-5.592.383-6.613,2.924-1.624,2.622-3.48,2.622-3.48Z" transform="translate(-89.296 -64.981)" fill="#ffa8a7"/>
      <path id="Path_7881" data-name="Path 7881" d="M288.784,175.58,291,178.411v19.722l-2.39,3.817,7.634,4.409a2.773,2.773,0,0,1-1.044-1.821V179.281Z" transform="translate(-90.324 -66.182)" fill="#455a64"/>
      <path id="Path_7882" data-name="Path 7882" d="M288.6,198.36v1.218l7.634,4.409v-1.218Z" transform="translate(-90.326 -62.534)" fill="#fa935b"/>
      <path id="Path_7883" data-name="Path 7883" d="M295.18,203.8l5.267-3.04V199.54l-5.267,3.04Z" transform="translate(-89.272 -62.345)" fill="#fa935b"/>
      <path id="Path_7884" data-name="Path 7884" d="M295.18,203.8l5.267-3.04V199.54l-5.267,3.04Z" transform="translate(-89.272 -62.345)" opacity="0.1"/>
      <path id="Path_7885" data-name="Path 7885" d="M295.234,164.654h0a3.481,3.481,0,0,0-3.48.325h0a10.894,10.894,0,0,0-4.931,8.539h0a3.388,3.388,0,0,0,1.543,3.237h0l3.979,2.32,6.648-12.356Z" transform="translate(-90.614 -67.983)" fill="#fa935b"/>
      <path id="Path_7886" data-name="Path 7886" d="M295.234,164.654h0a3.481,3.481,0,0,0-3.48.325h0a10.894,10.894,0,0,0-4.931,8.539h0a3.388,3.388,0,0,0,1.543,3.237h0l3.979,2.32,6.648-12.356Z" transform="translate(-90.614 -67.983)" fill="#fafafa" opacity="0.8"/>
      <path id="Path_7887" data-name="Path 7887" d="M288.3,175.928h0l3.979,2.32,2.2-4.1L287.206,170a8.748,8.748,0,0,0-.452,2.657h0A3.388,3.388,0,0,0,288.3,175.928Z" transform="translate(-90.625 -67.076)" fill="#fa935b" opacity="0.2"/>
      <path id="Path_7888" data-name="Path 7888" d="M303.533,167.6h0a4.119,4.119,0,0,0-3.887.174l-.476.255-.568.36q-.452.313-.9.7a12.764,12.764,0,0,0-1.508,1.555,14.837,14.837,0,0,0-2.784,5.3,10.339,10.339,0,0,0-.418,2.8,4.4,4.4,0,0,0,1.729,3.945l-3.805-2.193h0a4.919,4.919,0,0,1-2.251-4.246,10.36,10.36,0,0,1,.383-2.668,14.652,14.652,0,0,1,2.819-5.429,12.85,12.85,0,0,1,1.52-1.555,7.966,7.966,0,0,1,.893-.684,5.141,5.141,0,0,1,.568-.36l.487-.255a4.9,4.9,0,0,1,4.3.07h0l.1.058.128.081Z" transform="translate(-90.316 -67.904)" fill="#fa935b"/>
      <path id="Path_7889" data-name="Path 7889" d="M290.911,179.284h0a4.919,4.919,0,0,1-2.251-4.246,10.363,10.363,0,0,1,.383-2.668l4.351,2.32a10.336,10.336,0,0,0-.418,2.8,4.4,4.4,0,0,0,1.729,3.945Z" transform="translate(-90.316 -66.696)" opacity="0.1"/>
      <path id="Path_7890" data-name="Path 7890" d="M304.708,171.286a13.62,13.62,0,0,1-6.172,10.7,4.293,4.293,0,0,1-4.385.418h-.07a4.4,4.4,0,0,1-1.729-3.944,13.678,13.678,0,0,1,6.184-10.708,3.77,3.77,0,0,1,6.172,3.573Z" transform="translate(-89.728 -67.585)" fill="#fa935b"/>
      <path id="Path_7891" data-name="Path 7891" d="M304.708,171.286a13.62,13.62,0,0,1-6.172,10.7,4.293,4.293,0,0,1-4.385.418h-.07a4.4,4.4,0,0,1-1.729-3.944,13.678,13.678,0,0,1,6.184-10.708,3.77,3.77,0,0,1,6.172,3.573Z" transform="translate(-89.728 -67.585)" opacity="0.2"/>
      <path id="Path_7892" data-name="Path 7892" d="M323.647,170.2s-6.23,3.2-11.6,12.414a42.48,42.48,0,0,0-2.518,5.151,28.575,28.575,0,0,0-2.459,11.068c-1.856-4.548-4.165-9.281-8.017-12.866a59.483,59.483,0,0,0-4.745-3.956h0a3.991,3.991,0,0,1-1.624-3.643,10.835,10.835,0,0,1,.708-3.631,13.321,13.321,0,0,1,1.056-2.262,12.17,12.17,0,0,1,4.223-4.467,4,4,0,0,1,3.968-.429h0a59.9,59.9,0,0,0,5.8,2.123C313.542,171.22,318.786,170.86,323.647,170.2Z" transform="translate(-89.675 -67.518)" fill="#fa935b"/>
      <path id="Path_7893" data-name="Path 7893" d="M323.647,170.2s-6.23,3.2-11.6,12.414a42.48,42.48,0,0,0-2.518,5.151,28.575,28.575,0,0,0-2.459,11.068c-1.856-4.548-4.165-9.281-8.017-12.866a59.483,59.483,0,0,0-4.745-3.956h0a3.991,3.991,0,0,1-1.624-3.643,10.835,10.835,0,0,1,.708-3.631,13.321,13.321,0,0,1,1.056-2.262,12.17,12.17,0,0,1,4.223-4.467,4,4,0,0,1,3.968-.429h0a59.9,59.9,0,0,0,5.8,2.123C313.542,171.22,318.786,170.86,323.647,170.2Z" transform="translate(-89.675 -67.518)" fill="#fafafa" opacity="0.8"/>
      <path id="Path_7894" data-name="Path 7894" d="M309.568,186.728a28.575,28.575,0,0,0-2.459,11.068c-1.856-4.548-4.165-9.281-8.017-12.866a59.5,59.5,0,0,0-4.745-3.956h0a3.991,3.991,0,0,1-1.624-3.643,10.836,10.836,0,0,1,.708-3.631C298.164,176.055,305.809,180.417,309.568,186.728Z" transform="translate(-89.669 -66.483)" fill="#fa935b" opacity="0.2"/>
      <path id="Path_7895" data-name="Path 7895" d="M333.548,178.909a29,29,0,0,1-3.364,12.762h0a31.046,31.046,0,0,1-11.335,12.7c-8.121,4.641-14.7.882-14.7-8.492a24.529,24.529,0,0,1,.975-6.648,34.92,34.92,0,0,1,8.9-15.082q.87-.847,1.775-1.6l.766-.6h0a12.672,12.672,0,0,1,1.16-.789c.429-.255.777-.5,1.16-.731C326.97,165.73,333.548,169.523,333.548,178.909Z" transform="translate(-87.835 -67.33)" fill="#fa935b"/>
      <path id="Path_7896" data-name="Path 7896" d="M330.184,188.8a31.046,31.046,0,0,1-11.335,12.7c-8.121,4.641-14.7.882-14.7-8.492a24.529,24.529,0,0,1,.975-6.648h0c.545,1.16,2.518,2.947,3.4,1.729a22.809,22.809,0,0,0-.847,5.894,10.082,10.082,0,0,0,1.74,6.3,4.815,4.815,0,0,0,3.956,1.821,11.207,11.207,0,0,0,5.406-1.705,28.6,28.6,0,0,0,9.977-10.813S329.256,190.014,330.184,188.8Z" transform="translate(-87.835 -64.456)" opacity="0.1"/>
      <path id="Path_7897" data-name="Path 7897" d="M332.066,179.025a27.844,27.844,0,0,1-3.794,13.028,28.6,28.6,0,0,1-9.977,10.813,11.207,11.207,0,0,1-5.406,1.705,4.815,4.815,0,0,1-3.956-1.821,10.081,10.081,0,0,1-1.74-6.3,22.81,22.81,0,0,1,.847-5.894c.209-.754.452-1.52.731-2.32a32.742,32.742,0,0,1,1.74-3.933c.128-.267.278-.534.418-.789.232-.429.476-.859.731-1.276a34.9,34.9,0,0,1,2.9-4.084h0a28.269,28.269,0,0,1,2.193-2.32,20.929,20.929,0,0,1,1.671-1.462l.719-.557c.3-.22.592-.418.893-.615l.87-.545a11.253,11.253,0,0,1,5.418-1.705C329.931,170.9,332.066,173.943,332.066,179.025Z" transform="translate(-87.351 -66.924)" fill="#fa935b"/>
      <path id="Path_7898" data-name="Path 7898" d="M332.066,179.025a27.844,27.844,0,0,1-3.794,13.028,28.6,28.6,0,0,1-9.977,10.813,11.207,11.207,0,0,1-5.406,1.705,4.815,4.815,0,0,1-3.956-1.821,10.081,10.081,0,0,1-1.74-6.3,22.81,22.81,0,0,1,.847-5.894c.209-.754.452-1.52.731-2.32a32.742,32.742,0,0,1,1.74-3.933c.128-.267.278-.534.418-.789.232-.429.476-.859.731-1.276a34.9,34.9,0,0,1,2.9-4.084h0a28.269,28.269,0,0,1,2.193-2.32,20.929,20.929,0,0,1,1.671-1.462l.719-.557c.3-.22.592-.418.893-.615l.87-.545a11.253,11.253,0,0,1,5.418-1.705C329.931,170.9,332.066,173.943,332.066,179.025Z" transform="translate(-87.351 -66.924)" opacity="0.3"/>
      <path id="Path_7899" data-name="Path 7899" d="M319.386,180.4l-5.163,9.641c-1.45-.545-3.9-1.415-5.894-1.926.081-.255.162-.51.255-.766a32.741,32.741,0,0,1,1.74-3.933l.418-.789c.232-.429.476-.859.743-1.276a33.5,33.5,0,0,1,2.889-4.084h0l.464-.545a32.95,32.95,0,0,0,4.548,3.678Z" transform="translate(-87.166 -66)" fill="#fa935b"/>
      <g id="Group_15281" data-name="Group 15281" transform="translate(221.164 110.72)" opacity="0.6">
        <path id="Path_7900" data-name="Path 7900" d="M319.386,180.4l-5.163,9.641c-1.45-.545-3.9-1.415-5.894-1.926.081-.255.162-.51.255-.766a32.741,32.741,0,0,1,1.74-3.933l.418-.789c.232-.429.476-.859.743-1.276a33.5,33.5,0,0,1,2.889-4.084h0l.464-.545a32.95,32.95,0,0,0,4.548,3.678Z" transform="translate(-308.33 -176.72)" fill="#fafafa"/>
      </g>
      <path id="Path_7901" data-name="Path 7901" d="M314.036,189.518c-1.16,0-1.856-.94-1.856-2.518h0a8.585,8.585,0,0,1,3.886-6.74h0a3.3,3.3,0,0,1,1.624-.511c1.16,0,1.868.94,1.868,2.518h0a8.632,8.632,0,0,1-3.9,6.752h0A3.353,3.353,0,0,1,314.036,189.518Z" transform="translate(-86.549 -65.514)" fill="#fa935b"/>
      <g id="Group_15282" data-name="Group 15282" transform="translate(225.631 114.235)" opacity="0.8">
        <path id="Path_7902" data-name="Path 7902" d="M314.036,189.518c-1.16,0-1.856-.94-1.856-2.518h0a8.585,8.585,0,0,1,3.886-6.74h0a3.3,3.3,0,0,1,1.624-.511c1.16,0,1.868.94,1.868,2.518h0a8.632,8.632,0,0,1-3.9,6.752h0A3.353,3.353,0,0,1,314.036,189.518Z" transform="translate(-312.18 -179.75)" fill="#fafafa"/>
      </g>
      <path id="Path_7903" data-name="Path 7903" d="M318.74,166.659a1.16,1.16,0,0,1-1.16-1.16V154.28a1.16,1.16,0,1,1,2.32,0V165.5A1.16,1.16,0,0,1,318.74,166.659Z" transform="translate(-85.685 -69.779)" fill="#e0e0e0"/>
      <path id="Path_7904" data-name="Path 7904" d="M310.718,168.817a1.16,1.16,0,0,1-1.009-.58l-5.6-9.71a1.16,1.16,0,1,1,2.007-1.16l5.615,9.71a1.16,1.16,0,0,1-1.009,1.74Z" transform="translate(-87.871 -69.199)" fill="#e0e0e0"/>
      <path id="Path_7905" data-name="Path 7905" d="M300.791,215.411a1.16,1.16,0,0,1-1.009-1.74l5.615-9.722a1.159,1.159,0,0,1,2.007,1.16l-5.615,9.722A1.16,1.16,0,0,1,300.791,215.411Z" transform="translate(-88.56 -61.731)" fill="#e0e0e0"/>
      <path id="Path_7906" data-name="Path 7906" d="M318.74,216.869a1.16,1.16,0,0,1-1.16-1.16V204.49a1.16,1.16,0,1,1,2.32,0v11.219A1.16,1.16,0,0,1,318.74,216.869Z" transform="translate(-85.685 -61.738)" fill="#e0e0e0"/>
      <path id="Path_7907" data-name="Path 7907" d="M333.148,207.667a1.16,1.16,0,0,1-1-.58l-5.615-9.71a1.16,1.16,0,1,1,2.007-1.16l5.615,9.71a1.16,1.16,0,0,1-1.009,1.74Z" transform="translate(-84.279 -62.977)" fill="#e0e0e0"/>
      <path id="Path_7908" data-name="Path 7908" d="M343.691,197.095a1.16,1.16,0,0,1-.58-.151l-9.71-5.615a1.159,1.159,0,1,1,1.16-2.007l9.71,5.615a1.155,1.155,0,0,1-.58,2.158Z" transform="translate(-83.244 -64.007)" fill="#e0e0e0"/>
      <path id="Path_7909" data-name="Path 7909" d="M347.547,182.71H336.34a1.16,1.16,0,0,1,0-2.32h11.207a1.16,1.16,0,0,1,0,2.32Z" transform="translate(-82.866 -65.412)" fill="#e0e0e0"/>
      <path id="Path_7910" data-name="Path 7910" d="M333.981,174.688a1.16,1.16,0,0,1-.58-2.169l9.71-5.6a1.16,1.16,0,1,1,1.16,2.007l-9.71,5.615A1.16,1.16,0,0,1,333.981,174.688Z" transform="translate(-83.245 -67.599)" fill="#e0e0e0"/>
      <path id="Path_7911" data-name="Path 7911" d="M327.541,168.811a1.159,1.159,0,0,1-1.009-1.74l5.615-9.71a1.159,1.159,0,1,1,2.007,1.16l-5.615,9.71A1.16,1.16,0,0,1,327.541,168.811Z" transform="translate(-84.276 -69.193)" fill="#e0e0e0"/>
      <path id="Path_7912" data-name="Path 7912" d="M285.1,190.083c2.32-2.761,2.39-4.513,4.142-5.8s3.48-1.392,6.044-.592c1.926.592,4.2.36,4.977,1.16.209.151-.162,1.381-1.079,1.81a10.72,10.72,0,0,1-4.165.325c-2.97,0-.6,2.912-3.48,5.8C290.239,194.77,285.1,190.083,285.1,190.083Z" transform="translate(-90.886 -64.965)" fill="#ffa8a7"/>
      <g id="freepik--character--inject-5-2" data-name="freepik--character--inject-5" transform="translate(68.211 56.209)">
        <path id="Path_7913" data-name="Path 7913" d="M264.058,178.993l-23.829-.743a22.275,22.275,0,0,1-21.567-22.843l.128-4.571a21.718,21.718,0,0,1,22.391-21.045l2.529.07a21.741,21.741,0,0,1,21.045,22.4Z" transform="translate(-169.738 -129.726)" fill="#fa935b"/>
        <g id="Group_15283" data-name="Group 15283" transform="translate(48.916 0.054)" opacity="0.7">
          <path id="Path_7914" data-name="Path 7914" d="M264.058,178.993l-23.829-.743a22.275,22.275,0,0,1-21.567-22.843l.128-4.571a21.718,21.718,0,0,1,22.391-21.045l2.529.07a21.741,21.741,0,0,1,21.045,22.4Z" transform="translate(-218.653 -129.781)"/>
        </g>
        <path id="Path_7915" data-name="Path 7915" d="M254.987,138.64a14.664,14.664,0,0,1-3.167,10.8A20.755,20.755,0,0,1,231.9,156.3a139.461,139.461,0,0,0,13.585-9.188A63.677,63.677,0,0,0,254.987,138.64Z" transform="translate(-167.616 -128.307)" fill="#fa935b"/>
        <path id="Path_7916" data-name="Path 7916" d="M229.164,129.88a3.48,3.48,0,0,0-4.3,2.251,3.364,3.364,0,0,0-.07,1.694l-2.32-3.48a3.48,3.48,0,0,0,3.805,5.708v-.058a3.2,3.2,0,0,0,.87.429Z" transform="translate(-169.301 -129.734)" fill="#fa935b"/>
        <path id="Path_7917" data-name="Path 7917" d="M229.164,129.88a3.48,3.48,0,0,0-4.3,2.251,3.364,3.364,0,0,0-.07,1.694l-2.32-3.48a3.48,3.48,0,0,0,3.805,5.708v-.058a3.2,3.2,0,0,0,.87.429Z" transform="translate(-169.301 -129.734)" opacity="0.7"/>
        <path id="Path_7918" data-name="Path 7918" d="M257.275,342.811a.7.7,0,0,0-.476.673c-.081.858-.568,2.576-.754,4.049a19.806,19.806,0,0,0,0,6.3c.429,1.531,4.188,3.538,6.648,3.736s6.81,2.251,8.864,3.875c2.529,2,7.738,3.48,11.172,3.295,4.037-.162,7.147-1.288,7.912-4.246.325-1.253-.766-2.692-6.091-4.791,0,0-2.691-1.16-4.234-2.007-7.773-4.153-10.441-6.636-12.994-11.253Z" transform="translate(-163.79 -95.67)" fill="#263238"/>
        <path id="Path_7919" data-name="Path 7919" d="M270.365,347.446a9.084,9.084,0,0,1-2.425-6.52l-.5-6.416-11.671.058c.638,4.467,1.427,7.135,1.52,9.513l.1,1.381c.859,4.385,4.641,4.791,8.214,7.054,1.8,1.16,8.84,5.963,13.423,6.566,3.736.487,5.047-1.044,5.488-2.112A74.639,74.639,0,0,1,270.365,347.446Z" transform="translate(-163.794 -96.94)" fill="#ffa8a7"/>
        <path id="Path_7920" data-name="Path 7920" d="M236.74,251.3h0l13.052,44.086a68.612,68.612,0,0,0-.2,18.087c1.241,8.6,7.692,31.382,9.977,44.086.522,2.877,4.548,3.48,11.288.882,0,0-2.413-53.529-2.181-63.959.394-17.53-7.622-68.843-11.369-79.006" transform="translate(-166.841 -116.003)" fill="#ffa8a7"/>
        <path id="Path_7921" data-name="Path 7921" d="M269.1,224.67l-45.849,1.16h0c-4.142,10.847-4.571,15.813-6.346,28.818-1.694,12.379-5.8,28.331-5.8,28.331s-11.6,7.4-17.7,17.275c-4.919,7.982-16.915,29.642-16.915,29.642l33.83-19.525s12.994-10.441,19.189-17.576c8.573-9.838,16.138-34.016,16.138-34.016" transform="translate(-176.49 -114.53)" fill="#ffa8a7"/>
        <path id="Path_7922" data-name="Path 7922" d="M263.6,215.815c.151-2.576.244-4.78.22-6.056,5.917-7.042,6.961-13.3,4.536-18.133-4.838-9.7-12.437-18.145-16.706-17.936H235.673c-3.341.128-6.01.51-7.727,1.4-3.573,1.845-3.991,5.348-4.165,9.513-.186,4.571.847,8.121,2.007,15.7l5.221,9.908.186,5.116s-21.08,17.1-32.345,36.255c0,0,6.822,21.648,42.253,23.667,38.876,2.216,46.765-18.307,46.765-18.307S281.6,236.431,263.6,215.815Z" transform="translate(-172.909 -122.695)" fill="#37474f"/>
        <path id="Path_7923" data-name="Path 7923" d="M235.5,209.463c-1.671-1.671-3.643-7.7-3.643-7.7s.464-1.856,1.775-6.021,0-12.24,0-12.448l-4.061-6.16-5.418,2.924a28.87,28.87,0,0,0-.371,3.933c-.186,4.571.847,8.121,2.007,15.7l5.221,9.908.186,5.116s-21.08,17.1-32.345,36.255c0,0,5.8,18.319,34.329,22.82-1.056-.441-17.159-7.379-18.481-20.743-1.357-13.817,18.829-33.853,22.5-36.742S237.17,211.134,235.5,209.463Z" transform="translate(-172.909 -122.143)" fill="#263238"/>
        <path id="Path_7924" data-name="Path 7924" d="M256.184,138.64c2.32,1.52,5.2,7.715,4.5,20.511-.592,10.836-4.188,13.411-5.986,14.119s-5.174.151-8.469-.51l-.2,6.508s4.409,2.958,4.026,5.94-6.729,3.48-10.917.429a25.617,25.617,0,0,1-6.276-6.4V163.7s-2.239,2.32-5.8-.186a6.242,6.242,0,0,1-.928-9.386A4.339,4.339,0,0,1,233.1,156.3s5.279.36,12.425-3.283a19.722,19.722,0,0,0,10.662-14.374Z" transform="translate(-168.813 -128.307)" fill="#ffa8a7"/>
        <path id="Path_7925" data-name="Path 7925" d="M244.637,153.81a1.57,1.57,0,1,0,0,.046Z" transform="translate(-166.014 -126.11)" fill="#263238"/>
        <path id="Path_7926" data-name="Path 7926" d="M245.392,161.58l3.132,1.1a1.636,1.636,0,0,1-2.1,1.079,1.752,1.752,0,0,1-1.033-2.181Z" transform="translate(-165.47 -124.634)" fill="#f28f8f"/>
        <path id="Path_7927" data-name="Path 7927" d="M254.373,150.677l-2.7-2.007a1.613,1.613,0,0,1,2.32-.394A1.775,1.775,0,0,1,254.373,150.677Z" transform="translate(-164.45 -126.817)" fill="#263238"/>
        <path id="Path_7928" data-name="Path 7928" d="M253.757,153.192a1.369,1.369,0,0,1-1.334,1.439,1.417,1.417,0,1,1,1.334-1.439Z" transform="translate(-164.553 -126.2)" fill="#263238"/>
        <path id="Path_7929" data-name="Path 7929" d="M247.665,152.19l-.035,8.214,4.362-1.195Z" transform="translate(-165.097 -126.137)" fill="#f28f8f"/>
        <path id="Path_7930" data-name="Path 7930" d="M244.821,168.84c-3.48-.568-10.592-2.854-11.6-5.72a7.39,7.39,0,0,0,2.413,3.7c2.088,1.9,9.142,4.188,9.142,4.188Z" transform="translate(-167.405 -124.387)" fill="#f28f8f"/>
      </g>
      <path id="Path_7931" data-name="Path 7931" d="M203.906,219.833c2.216-8.655,11.021-27.843,13.69-34.8,3.051-7.924,7.367-10.917,13.04-11,2.088,2.692,4.5,14.386-1.937,24.444-2.726,5.8-10.94,21.88-10.94,21.88.22,1.555,5.952,22.646,8.388,27.925a4.211,4.211,0,0,0,2.158,2.065c2.529,1.1,4.49,3.306,6.508,4.873,1.578,1.23,2.8,1.415,2.68,1.891a2.32,2.32,0,0,1-2.726,1.45,15.765,15.765,0,0,1-3.55-1.288,20.883,20.883,0,0,0,4.235,5.279c3.84,3.48,3.643,6.427-2.912,7.46-4.107.65-7.761-1.392-12.216-9.989-1.276-2.471-2.924-6.091-4.211-9.386-3.051-7.773-6.323-12.4-8.446-17.541C204.335,224.937,203.047,223.162,203.906,219.833Z" transform="translate(-103.93 -66.431)" fill="#ffa8a7"/>
    </g>
    <g id="freepik--Icons--inject-5" transform="translate(378.673 54.271)">
      <g id="freepik--heart-icon--inject-5" transform="translate(48.842 137.635)">
        <path id="Path_7932" data-name="Path 7932" d="M475.848,178.749h0l-11.474-6.636h0c-4.246-2.518-10.557-2.03-17.6,2.03-9.757,5.638-18.1,19.3-21.509,30.767l-8.121-4.641h0c-4.188-2.808-9.931-3.237-16.242.429-.8.452-1.578.94-2.32,1.462-.406.278-.812.592-1.16.882s-.708.5-1.056.766c-.545.429-1.067.87-1.589,1.323l-.592.5c-.615.545-1.218,1.16-1.81,1.694l-.278.255c-.661.661-1.3,1.334-1.926,2.03h-.058a53.876,53.876,0,0,0-5.267,6.891h0c-4.478,6.775-7.146,14.154-7.146,20.7,0,12.123,7.483,19.862,16.683,24.8h0l9.049,5.221h0a63.561,63.561,0,0,0,17.263,7.1l14.919,3.945,14.919-21.184c14.212-20.187,31.15-48.088,31.15-66.372C481.684,184.828,479.468,180.744,475.848,178.749Z" transform="translate(-377.688 -170.494)" fill="#fa935b"/>
        <path id="Path_7933" data-name="Path 7933" d="M475.848,178.749h0l-11.474-6.636h0c-4.246-2.518-10.557-2.03-17.6,2.03-9.757,5.638-18.1,19.3-21.509,30.767l-8.121-4.641h0c-4.188-2.808-9.931-3.237-16.242.429-.8.452-1.578.94-2.32,1.462-.406.278-.812.592-1.16.882s-.708.5-1.056.766c-.545.429-1.067.87-1.589,1.323l-.592.5c-.615.545-1.218,1.16-1.81,1.694l-.278.255c-.661.661-1.3,1.334-1.926,2.03h-.058a53.876,53.876,0,0,0-5.267,6.891h0c-4.478,6.775-7.146,14.154-7.146,20.7,0,12.123,7.483,19.862,16.683,24.8h0l9.049,5.221h0a63.561,63.561,0,0,0,17.263,7.1l14.919,3.945,14.919-21.184c14.212-20.187,31.15-48.088,31.15-66.372C481.684,184.828,479.468,180.744,475.848,178.749Z" transform="translate(-377.688 -170.494)" fill="#fa935b" opacity="0.7"/>
        <path id="Path_7934" data-name="Path 7934" d="M403.294,260.764l-8.922-5.128c-9.177-4.954-16.683-12.68-16.683-24.815,0-6.5,2.7-13.922,7.042-20.651l11.764,6.764c-4.339,6.706-7.031,14.154-7.031,20.651C389.465,248.455,395.452,255.8,403.294,260.764Z" transform="translate(-377.69 -164.152)" fill="#fa935b"/>
        <g id="Group_15284" data-name="Group 15284" transform="translate(0 46.018)" opacity="0.1">
          <path id="Path_7935" data-name="Path 7935" d="M403.294,260.764l-8.922-5.128c-9.177-4.954-16.683-12.68-16.683-24.815,0-6.5,2.7-13.922,7.042-20.651l11.764,6.764c-4.339,6.706-7.031,14.154-7.031,20.651C389.465,248.455,395.452,255.8,403.294,260.764Z" transform="translate(-377.69 -210.17)"/>
        </g>
        <path id="Path_7936" data-name="Path 7936" d="M474.82,178.69c-4.235-2.32-10.441-1.705-17.263,2.251-11.764,6.787-21.486,25.268-22.959,37.484-1.473-10.511-11.184-17.773-22.948-10.975a49.376,49.376,0,0,0-16.126,15.836L383.76,216.5c.174-.278.36-.557.557-.847a8.43,8.43,0,0,1,.487-.7c.394-.58.812-1.16,1.16-1.717a54.621,54.621,0,0,1,3.829-4.513c.325-.371.673-.719,1.021-1.067l.743-.731a43.894,43.894,0,0,1,8.26-6.3,18.005,18.005,0,0,1,8.945-2.633,13.11,13.11,0,0,1,7.332,2.216l8.121,4.641c3.4-11.474,11.741-25.129,21.509-30.755,7.054-4.072,13.353-4.571,17.6-2.053h0Z" transform="translate(-376.718 -170.505)" fill="#fa935b"/>
        <path id="Path_7937" data-name="Path 7937" d="M474.82,178.69c-4.235-2.32-10.441-1.705-17.263,2.251-11.764,6.787-21.486,25.268-22.959,37.484-1.473-10.511-11.184-17.773-22.948-10.975a49.376,49.376,0,0,0-16.126,15.836L383.76,216.5c.174-.278.36-.557.557-.847a8.43,8.43,0,0,1,.487-.7c.394-.58.812-1.16,1.16-1.717a54.621,54.621,0,0,1,3.829-4.513c.325-.371.673-.719,1.021-1.067l.743-.731a43.894,43.894,0,0,1,8.26-6.3,18.005,18.005,0,0,1,8.945-2.633,13.11,13.11,0,0,1,7.332,2.216l8.121,4.641c3.4-11.474,11.741-25.129,21.509-30.755,7.054-4.072,13.353-4.571,17.6-2.053h0Z" transform="translate(-376.718 -170.505)" fill="#fff" opacity="0.4"/>
      </g>
      <g id="freepik--heart-icon--inject-5-2" data-name="freepik--heart-icon--inject-5" transform="translate(15.94 242.021)">
        <path id="Path_7938" data-name="Path 7938" d="M387.577,263.681h0l-4.467-2.6h0c-1.659-.974-4.118-.789-6.868.8-3.794,2.193-7.054,7.518-8.376,11.984l-3.179-1.821h0a5.8,5.8,0,0,0-6.334.162c-.313.186-.615.371-.917.58s-.313.22-.464.336l-.418.3-.615.51-.232.2c-.244.209-.476.429-.708.661l-.1.1c-.255.255-.51.51-.754.789h0a21.875,21.875,0,0,0-2.053,2.68h0a15.639,15.639,0,0,0-2.738,8.051c0,4.722,2.912,7.738,6.5,9.664h0l3.538,2.123h0a24.714,24.714,0,0,0,6.717,2.773l5.8,1.543,5.8-8.26c5.534-7.866,12.135-18.736,12.135-25.86a4.942,4.942,0,0,0-2.262-4.722Z" transform="translate(-349.327 -260.48)" fill="#fa935b"/>
        <path id="Path_7939" data-name="Path 7939" d="M387.577,263.681h0l-4.467-2.6h0c-1.659-.974-4.118-.789-6.868.8-3.794,2.193-7.054,7.518-8.376,11.984l-3.179-1.821h0a5.8,5.8,0,0,0-6.334.162c-.313.186-.615.371-.917.58s-.313.22-.464.336l-.418.3-.615.51-.232.2c-.244.209-.476.429-.708.661l-.1.1c-.255.255-.51.51-.754.789h0a21.875,21.875,0,0,0-2.053,2.68h0a15.639,15.639,0,0,0-2.738,8.051c0,4.722,2.912,7.738,6.5,9.664h0l3.538,2.123h0a24.714,24.714,0,0,0,6.717,2.773l5.8,1.543,5.8-8.26c5.534-7.866,12.135-18.736,12.135-25.86a4.942,4.942,0,0,0-2.262-4.722Z" transform="translate(-349.327 -260.48)" opacity="0.5"/>
        <path id="Path_7940" data-name="Path 7940" d="M359.307,295.642l-3.48-2.007c-3.573-1.926-6.5-4.931-6.5-9.664a15.534,15.534,0,0,1,2.738-8.051l4.583,2.645a15.639,15.639,0,0,0-2.738,8.051C353.913,290.839,356.244,293.705,359.307,295.642Z" transform="translate(-349.33 -258.009)" fill="#fa935b"/>
        <g id="Group_15285" data-name="Group 15285" transform="translate(0 17.911)" opacity="0.7">
          <path id="Path_7941" data-name="Path 7941" d="M359.307,295.642l-3.48-2.007c-3.573-1.926-6.5-4.931-6.5-9.664a15.534,15.534,0,0,1,2.738-8.051l4.583,2.645a15.639,15.639,0,0,0-2.738,8.051C353.913,290.839,356.244,293.705,359.307,295.642Z" transform="translate(-349.33 -275.92)"/>
        </g>
        <path id="Path_7942" data-name="Path 7942" d="M387.179,263.647c-1.647-.882-4.061-.661-6.729.882-4.641,2.645-8.365,9.85-8.945,14.606-.568-4.1-4.362-6.961-8.945-4.269a19.12,19.12,0,0,0-6.288,6.172l-4.583-2.645c.07-.1.139-.22.22-.325a2.168,2.168,0,0,1,.186-.267c.151-.232.313-.452.476-.673a19.707,19.707,0,0,1,1.5-1.763l.394-.418.29-.278a16.975,16.975,0,0,1,3.225-2.459,6.96,6.96,0,0,1,3.48-1.021,5.081,5.081,0,0,1,2.854.858l3.179,1.821c1.323-4.467,4.571-9.792,8.376-11.984,2.75-1.589,5.209-1.787,6.856-.8h0Z" transform="translate(-348.952 -260.481)" fill="#fa935b"/>
        <path id="Path_7943" data-name="Path 7943" d="M387.179,263.647c-1.647-.882-4.061-.661-6.729.882-4.641,2.645-8.365,9.85-8.945,14.606-.568-4.1-4.362-6.961-8.945-4.269a19.12,19.12,0,0,0-6.288,6.172l-4.583-2.645c.07-.1.139-.22.22-.325a2.168,2.168,0,0,1,.186-.267c.151-.232.313-.452.476-.673a19.707,19.707,0,0,1,1.5-1.763l.394-.418.29-.278a16.975,16.975,0,0,1,3.225-2.459,6.96,6.96,0,0,1,3.48-1.021,5.081,5.081,0,0,1,2.854.858l3.179,1.821c1.323-4.467,4.571-9.792,8.376-11.984,2.75-1.589,5.209-1.787,6.856-.8h0Z" transform="translate(-348.952 -260.481)" opacity="0.2"/>
      </g>
      <g id="freepik--like-icon--inject-5">
        <path id="Path_7944" data-name="Path 7944" d="M401.715,91.465a13.075,13.075,0,0,0,4.548-9.142c0-5-3.724-3.886-3.724-3.886a13.667,13.667,0,0,0,2.982-8.051,4.5,4.5,0,0,0-1.926-4.014h0l-9.455-5.325c-.893-.615-2.181-.684-3.91.313l-8.272,4.8a22.634,22.634,0,0,0-1.856-6.427,3.875,3.875,0,0,0-1.821-2h0l-9.374-5.279c-3.156-2.065-8.631,1.879-8.631,3.4,0,1.056.255,4.641.336,8.017v2.216a19.166,19.166,0,0,1-.348,4.223c-.081.267-.22.673-.418,1.16-.081.22-.186.476-.29.731l-.452,1.16c-.394.963-.847,2.088-1.357,3.295-.116.29-.244.6-.383.917-1.427,3.4-3.109,7.309-4.385,10.256l-.65,1.508-1.288,2.947h0v40.419l.139-.07,9.629,5.557,30.848-17.843c4.037-2.32,6.868-7.355,6.845-10.708a11.057,11.057,0,0,0-.789-4.443c2.61-1.52,5.232-6.961,5.232-9.281C402.945,92.4,401.715,91.465,401.715,91.465Z" transform="translate(-333.116 -51.868)" fill="#fa935b"/>
        <g id="Group_15286" data-name="Group 15286" transform="translate(27.159)" opacity="0.4">
          <path id="Path_7945" data-name="Path 7945" d="M377.017,57.741c-3.19-1.566-8.26,2.1-8.26,3.62L359,55.873c0-1.566,5.487-5.487,8.655-3.411Z" transform="translate(-359 -51.869)" fill="#fff"/>
          <path id="Path_7946" data-name="Path 7946" d="M399.423,65.157h0a3.689,3.689,0,0,0-3.62.487L377.16,76.422a33.853,33.853,0,0,0,.627-11.485l8.283-4.791c1.717-1.009,3-.917,3.9-.313Z" transform="translate(-356.092 -50.666)" fill="#fff"/>
        </g>
        <g id="Group_15287" data-name="Group 15287" transform="translate(17.901 40.421)" opacity="0.1">
          <path id="Path_7947" data-name="Path 7947" d="M360.812,132.617l-9.757-5.638L351.02,86.71l9.757,5.638Z" transform="translate(-351.02 -86.71)"/>
        </g>
        <g id="Group_15288" data-name="Group 15288" transform="translate(17.878 4.004)" opacity="0.05">
          <path id="Path_7948" data-name="Path 7948" d="M370.038,75.24c-.789,2.819-9.281,22.136-9.281,22.136L351,91.876s8.446-19.316,9.281-22.112,0-12.576,0-14.444l9.768,5.487C370.038,62.687,370.85,72.455,370.038,75.24Z" transform="translate(-351 -55.32)"/>
        </g>
        <path id="Path_7949" data-name="Path 7949" d="M358.813,95.517a3.945,3.945,0,0,0-1.787-3.086l-6.2-3.573a3.979,3.979,0,0,0-3.55,0h0l-9.884,5.72a3.654,3.654,0,0,0-1.265,1.323,3.8,3.8,0,0,0-.522,1.763v42.763a3.887,3.887,0,0,0,1.787,3.086l6.2,3.585a3.55,3.55,0,0,0,1.775.418,3.678,3.678,0,0,0,1.775-.406h0l9.919-5.731a3.91,3.91,0,0,0,1.775-3.074h0Z" transform="translate(-335.587 -46.012)" fill="#fa935b"/>
        <g id="Group_15289" data-name="Group 15289" transform="translate(0 49.888)" opacity="0.1">
          <path id="Path_7950" data-name="Path 7950" d="M345.347,100.207v46.278a3.55,3.55,0,0,1-1.775-.418l-6.2-3.585a3.886,3.886,0,0,1-1.787-3.086V96.633a3.8,3.8,0,0,1,.522-1.763Z" transform="translate(-335.59 -94.87)"/>
        </g>
        <g id="Group_15290" data-name="Group 15290" transform="translate(0.476 42.428)" opacity="0.3">
          <path id="Path_7951" data-name="Path 7951" d="M358.228,93.73l-12.947,7.506L336,95.9a3.655,3.655,0,0,1,1.265-1.323l9.884-5.72h0a3.979,3.979,0,0,1,3.55,0l6.2,3.573a3.782,3.782,0,0,1,1.334,1.3Z" transform="translate(-336 -88.44)" fill="#fff"/>
        </g>
      </g>
      <g id="freepik--like-icon--inject-5-2" data-name="freepik--like-icon--inject-5" transform="translate(46.545 97.487)">
        <path id="Path_7952" data-name="Path 7952" d="M416.033,160.009a7.97,7.97,0,0,0,2.761-5.58c0-3.04-2.262-2.32-2.262-2.32a8.318,8.318,0,0,0,1.821-4.907,2.738,2.738,0,0,0-1.16-2.448h0l-5.8-3.248a2.135,2.135,0,0,0-2.32.2l-5.047,2.924a13.92,13.92,0,0,0-1.16-3.921,2.32,2.32,0,0,0-1.16-1.16h0l-5.731-3.225c-1.926-1.253-5.267,1.16-5.267,2.088,0,.638.151,2.808.209,4.884v1.357a11.1,11.1,0,0,1-.209,2.564,3.454,3.454,0,0,1-.255.731,1.711,1.711,0,0,1-.174.452l-.278.7c-.232.592-.522,1.276-.824,2.007l-.232.557c-.87,2.077-1.9,4.455-2.68,6.253-.139.336-.267.638-.394.916-.406.951-.7,1.613-.789,1.81h0v24.653h.081l5.87,3.388,18.818-10.882a8.69,8.69,0,0,0,4.177-6.532,6.591,6.591,0,0,0-.487-2.7c1.6-.928,3.19-4.258,3.19-5.685C416.775,160.577,416.033,160.009,416.033,160.009Z" transform="translate(-374.209 -135.888)" fill="#fa935b"/>
        <path id="Path_7953" data-name="Path 7953" d="M416.033,160.009a7.97,7.97,0,0,0,2.761-5.58c0-3.04-2.262-2.32-2.262-2.32a8.318,8.318,0,0,0,1.821-4.907,2.738,2.738,0,0,0-1.16-2.448h0l-5.8-3.248a2.135,2.135,0,0,0-2.32.2l-5.047,2.924a13.92,13.92,0,0,0-1.16-3.921,2.32,2.32,0,0,0-1.16-1.16h0l-5.731-3.225c-1.926-1.253-5.267,1.16-5.267,2.088,0,.638.151,2.808.209,4.884v1.357a11.1,11.1,0,0,1-.209,2.564,3.454,3.454,0,0,1-.255.731,1.711,1.711,0,0,1-.174.452l-.278.7c-.232.592-.522,1.276-.824,2.007l-.232.557c-.87,2.077-1.9,4.455-2.68,6.253-.139.336-.267.638-.394.916-.406.951-.7,1.613-.789,1.81h0v24.653h.081l5.87,3.388,18.818-10.882a8.69,8.69,0,0,0,4.177-6.532,6.591,6.591,0,0,0-.487-2.7c1.6-.928,3.19-4.258,3.19-5.685C416.775,160.577,416.033,160.009,416.033,160.009Z" transform="translate(-374.209 -135.888)" opacity="0.5"/>
        <path id="Path_7954" data-name="Path 7954" d="M400.963,139.5c-1.949-.951-5.047,1.276-5.047,2.2L390,138.336c0-.951,3.341-3.341,5.279-2.077Z" transform="translate(-373.422 -135.899)" fill="#fa935b"/>
        <path id="Path_7955" data-name="Path 7955" d="M414.624,143.969h0a2.251,2.251,0,0,0-2.2.29l-11.369,6.578a20.7,20.7,0,0,0,.383-6.961l5.047-2.935a2.158,2.158,0,0,1,2.32-.186Z" transform="translate(-371.652 -135.162)" fill="#fa935b"/>
        <g id="Group_15291" data-name="Group 15291" transform="translate(16.578)" opacity="0.2">
          <path id="Path_7956" data-name="Path 7956" d="M400.963,139.5c-1.949-.951-5.047,1.276-5.047,2.2L390,138.336c0-.951,3.341-3.341,5.279-2.077Z" transform="translate(-390 -135.899)"/>
          <path id="Path_7957" data-name="Path 7957" d="M414.624,143.969h0a2.251,2.251,0,0,0-2.2.29l-11.369,6.578a20.7,20.7,0,0,0,.383-6.961l5.047-2.935a2.158,2.158,0,0,1,2.32-.186Z" transform="translate(-388.23 -135.162)"/>
        </g>
        <path id="Path_7958" data-name="Path 7958" d="M391.073,185.114l-5.94-3.434-.023-24.56,5.952,3.434Z" transform="translate(-374.205 -132.5)" fill="#fa935b"/>
        <g id="Group_15292" data-name="Group 15292" transform="translate(10.905 24.62)" opacity="0.7">
          <path id="Path_7959" data-name="Path 7959" d="M391.073,185.114l-5.94-3.434-.023-24.56,5.952,3.434Z" transform="translate(-385.11 -157.12)"/>
        </g>
        <g id="Group_15293" data-name="Group 15293" transform="translate(10.905 2.414)" opacity="0.2">
          <path id="Path_7960" data-name="Path 7960" d="M396.7,150.127c-.476,1.717-5.638,13.493-5.638,13.493l-5.952-3.353s5.151-11.822,5.673-13.481,0-7.669,0-8.805l5.952,3.341C396.7,142.47,397.2,148.445,396.7,150.127Z" transform="translate(-385.11 -137.98)" fill="#455a64"/>
        </g>
        <path id="Path_7961" data-name="Path 7961" d="M389.862,162.5a2.193,2.193,0,0,0-.325-1.067,2.25,2.25,0,0,0-.766-.812l-3.782-2.181a2.32,2.32,0,0,0-2.158,0h0l-6.033,3.48a2.39,2.39,0,0,0-1.079,1.879v26.08a2.32,2.32,0,0,0,1.079,1.879l3.77,2.181a2.227,2.227,0,0,0,1.091.267,2.32,2.32,0,0,0,1.079-.255h0l6.044-3.48a2.39,2.39,0,0,0,1.09-1.868h0Z" transform="translate(-375.708 -132.332)" fill="#fa935b"/>
        <path id="Path_7962" data-name="Path 7962" d="M389.862,162.5a2.193,2.193,0,0,0-.325-1.067,2.25,2.25,0,0,0-.766-.812l-3.782-2.181a2.32,2.32,0,0,0-2.158,0h0l-6.033,3.48a2.39,2.39,0,0,0-1.079,1.879v26.08a2.32,2.32,0,0,0,1.079,1.879l3.77,2.181a2.227,2.227,0,0,0,1.091.267,2.32,2.32,0,0,0,1.079-.255h0l6.044-3.48a2.39,2.39,0,0,0,1.09-1.868h0Z" transform="translate(-375.708 -132.332)" opacity="0.5"/>
        <path id="Path_7963" data-name="Path 7963" d="M381.662,165.352v28.226a2.227,2.227,0,0,1-1.091-.267l-3.782-2.181a2.32,2.32,0,0,1-1.079-1.879v-26.1a2.251,2.251,0,0,1,.313-1.067Z" transform="translate(-375.71 -131.706)" fill="#fa935b"/>
        <g id="Group_15294" data-name="Group 15294" transform="translate(0 30.374)" opacity="0.7">
          <path id="Path_7964" data-name="Path 7964" d="M381.662,165.352v28.226a2.227,2.227,0,0,1-1.091-.267l-3.782-2.181a2.32,2.32,0,0,1-1.079-1.879v-26.1a2.251,2.251,0,0,1,.313-1.067Z" transform="translate(-375.71 -162.08)"/>
        </g>
        <path id="Path_7965" data-name="Path 7965" d="M389.492,161.453,381.615,166,376,162.729a2.25,2.25,0,0,1,.766-.812l6.033-3.48h0a2.32,2.32,0,0,1,2.158,0l3.782,2.181a2.25,2.25,0,0,1,.754.835Z" transform="translate(-375.664 -132.332)" fill="#fa935b"/>
        <g id="Group_15295" data-name="Group 15295" transform="translate(0.336 25.839)" opacity="0.2">
          <path id="Path_7966" data-name="Path 7966" d="M389.492,161.453,381.615,166,376,162.729a2.25,2.25,0,0,1,.766-.812l6.033-3.48h0a2.32,2.32,0,0,1,2.158,0l3.782,2.181a2.25,2.25,0,0,1,.754.835Z" transform="translate(-376 -158.171)"/>
        </g>
      </g>
      <g id="freepik--like-icon--inject-5-3" data-name="freepik--like-icon--inject-5" transform="translate(105.898 41.98)">
        <path id="Path_7967" data-name="Path 7967" d="M468.814,113.116a8.318,8.318,0,0,0,2.866-5.8c0-3.167-2.32-2.471-2.32-2.471a8.7,8.7,0,0,0,1.9-5.093A2.819,2.819,0,0,0,470,97.268h0L464,93.9a2.2,2.2,0,0,0-2.471.2l-5.244,3.04a14.466,14.466,0,0,0-1.16-4.072,2.494,2.494,0,0,0-1.16-1.265h0l-5.94-3.353c-2.007-1.3-5.487,1.16-5.487,2.169,0,.661.174,2.912.22,5.07v1.415a12.6,12.6,0,0,1-.22,2.668,3.31,3.31,0,0,1-.267.754,1.49,1.49,0,0,1-.186.464c-.07.162-.174.464-.278.731l-.858,2.077-.244.592c-.9,2.158-1.972,4.641-2.784,6.5-.151.336-.278.661-.406.951l-.824,1.879h0v25.6h.081l6.1,3.48,19.548-11.311a8.991,8.991,0,0,0,4.339-6.775,6.961,6.961,0,0,0-.5-2.819c1.659-.963,3.318-4.432,3.318-5.905C469.592,113.707,468.814,113.116,468.814,113.116Z" transform="translate(-425.297 -88.05)" fill="#fa935b"/>
        <g id="Group_15296" data-name="Group 15296" transform="translate(17.251)" opacity="0.4">
          <path id="Path_7968" data-name="Path 7968" d="M453.156,91.75c-2.019-.986-5.232,1.334-5.232,2.32l-6.184-3.48c0-.986,3.48-3.48,5.476-2.158Z" transform="translate(-441.74 -88.054)" fill="#fff"/>
          <path id="Path_7969" data-name="Path 7969" d="M467.361,96.506h0a2.32,2.32,0,0,0-2.32.3l-11.81,6.833a21.461,21.461,0,0,0,.394-7.274l5.244-3.04a2.251,2.251,0,0,1,2.471-.209Z" transform="translate(-439.9 -87.287)" fill="#fff"/>
        </g>
        <g id="Group_15297" data-name="Group 15297" transform="translate(11.393 25.588)" opacity="0.1">
          <path id="Path_7970" data-name="Path 7970" d="M442.885,139.195l-6.184-3.573-.012-25.512,6.172,3.573Z" transform="translate(-436.69 -110.11)"/>
        </g>
        <g id="Group_15298" data-name="Group 15298" transform="translate(11.393 2.513)" opacity="0.05">
          <path id="Path_7971" data-name="Path 7971" d="M448.732,102.842c-.5,1.787-5.87,14.026-5.87,14.026l-6.172-3.48s5.348-12.251,5.87-14.015,0-7.97,0-9.154l6.184,3.48C448.732,94.884,449.254,101.079,448.732,102.842Z" transform="translate(-436.69 -90.22)"/>
        </g>
        <path id="Path_7972" data-name="Path 7972" d="M441.622,115.7a2.436,2.436,0,0,0-1.16-1.949l-3.921-2.32a2.552,2.552,0,0,0-2.251,0h0l-6.265,3.631a2.228,2.228,0,0,0-.8.835,2.4,2.4,0,0,0-.325,1.16v27.1a2.46,2.46,0,0,0,1.16,1.949l3.921,2.32a2.412,2.412,0,0,0,1.16.267,2.32,2.32,0,0,0,1.16-.267h0l6.288-3.631a2.471,2.471,0,0,0,1.16-1.949h0Z" transform="translate(-426.865 -84.353)" fill="#fa935b"/>
        <g id="Group_15299" data-name="Group 15299" transform="translate(0 31.54)" opacity="0.1">
          <path id="Path_7973" data-name="Path 7973" d="M433.112,118.674v29.317a2.413,2.413,0,0,1-1.16-.267l-3.921-2.32a2.46,2.46,0,0,1-1.16-1.949V116.4a2.4,2.4,0,0,1,.325-1.16Z" transform="translate(-426.87 -115.24)"/>
        </g>
        <g id="Group_15300" data-name="Group 15300" transform="translate(0.383 26.858)" opacity="0.3">
          <path id="Path_7974" data-name="Path 7974" d="M441.249,114.575l-8.191,4.745-5.859-3.388a2.227,2.227,0,0,1,.8-.835l6.265-3.631h0a2.552,2.552,0,0,1,2.251,0l3.921,2.32a2.414,2.414,0,0,1,.812.789Z" transform="translate(-427.2 -111.205)" fill="#fff"/>
        </g>
      </g>
    </g>
  </g>
</svg>
