<svg xmlns="http://www.w3.org/2000/svg" width="65.943" height="74.056" viewBox="0 0 65.943 74.056">
  <g id="Group_15146" data-name="Group 15146" transform="translate(0 0)">
    <path id="Path_7610" data-name="Path 7610" d="M-1088.192,155c1.222.242,2.461.418,3.663.736a20.56,20.56,0,0,1,15.021,17.559,1.657,1.657,0,0,0,.45.916,4.441,4.441,0,0,1,1.387,3.227q.01,5.311,0,10.623a4.485,4.485,0,0,1-1.289,3.125,1.551,1.551,0,0,0-.41.977,13.449,13.449,0,0,1-1.329,6.8,12.405,12.405,0,0,1-11.259,7.067c-2.479.071-4.962.018-7.443.011a2.537,2.537,0,0,1-2.723-2.546,2.514,2.514,0,0,1,2.7-2.566c2.361-.017,4.721.012,7.082-.009a7.5,7.5,0,0,0,7.644-6.065,18.807,18.807,0,0,0,.17-3.021.727.727,0,0,0-.183-.442c-.309-.365-.644-.708-1-1.094-.364.806-.665,1.638-1.1,2.395a33.568,33.568,0,0,1-2.057,3.214,3.976,3.976,0,0,1-3.4,1.586c-2.192,0-4.385.052-6.576-.015a6.344,6.344,0,0,0-5.823,2.814c-4.681-1.885-7.6-5.411-9.473-10.037-.175.214-.315.387-.456.558a4.286,4.286,0,0,1-4.7,1.336,4.2,4.2,0,0,1-2.876-3.869c-.035-3.685-.025-7.371,0-11.056a4.261,4.261,0,0,1,1.321-2.96,1.819,1.819,0,0,0,.5-.966,20.571,20.571,0,0,1,18.21-18.168,3.179,3.179,0,0,0,.478-.127Zm12.4,20.352a11.8,11.8,0,0,0,.866-1.056,1.324,1.324,0,0,0,.256-.809,15.358,15.358,0,0,0-15-13.332,15.406,15.406,0,0,0-15.526,13.406.891.891,0,0,0,.125.589c.314.417.681.794,1.027,1.185,2.8-6.055,6.959-10.482,14.09-10.5C-1082.8,164.83-1078.611,169.255-1075.8,175.356Z" transform="translate(1122.913 -155.004)" fill="#131a45"/>
    <path id="Path_7611" data-name="Path 7611" d="M-1108.1,367.9a23.66,23.66,0,0,1,6.39,5.407,24.368,24.368,0,0,1,5.6,17.159,3.725,3.725,0,0,1-3.879,3.579c-4.794.01-9.587,0-14.381,0-14.212,0-28.425-.059-42.636.043-3.467.025-5.1-1.661-5.018-5.069a24.429,24.429,0,0,1,8.059-18.2,23.774,23.774,0,0,1,10.272-5.494,1.043,1.043,0,0,1,1.146.293,19.635,19.635,0,0,0,7.72,4.792,1.353,1.353,0,0,1,.691.627,5.7,5.7,0,0,0,5.058,3.438,91.578,91.578,0,0,0,9.458-.093,15.348,15.348,0,0,0,11.049-5.969c.122-.148.242-.3.365-.446A.561.561,0,0,1-1108.1,367.9Z" transform="translate(1162.03 -320.032)" fill="#131a45"/>
  </g>
</svg>
