<svg id="Group_15604" data-name="Group 15604" xmlns="http://www.w3.org/2000/svg" width="89.233" height="86.464" viewBox="0 0 89.233 86.464">
  <rect id="Image_container" data-name="Image container" width="89.233" height="86.464" rx="5" fill="rgba(250,147,91,0.17)"/>
  <g id="Group_15603" data-name="Group 15603" transform="translate(12.696 17.012)">
    <path id="Path_14815" data-name="Path 14815" d="M384.5,363.354a8.735,8.735,0,0,1-.8,1.092q-13.893,13.916-27.8,27.815c-1.12,1.119-1.889,1.117-3.016-.012-1.026-1.027-2.05-2.057-3.1-3.111-2.161,1.83-4.876,2.306-7.391,3.247-.543.2-1.095.393-1.655.541a5.5,5.5,0,0,0-2.779,1.988c1,1.426.933,2.211-.29,3.436-.558.558-1.1,1.131-1.678,1.67a1.993,1.993,0,0,1-2.949-.023q-5.873-5.85-11.723-11.724a1.988,1.988,0,0,1,0-2.946c.591-.613,1.2-1.208,1.8-1.81,1.086-1.083,2.041-1.13,3.349-.063a15.537,15.537,0,0,1,1.517-1.6,12.158,12.158,0,0,0,3.929-6.265c.7-2.322,1.493-4.616,2.207-6.935a8.326,8.326,0,0,1,2.846-4.212c2.626-2.07,5.267-4.122,7.868-6.223A5.6,5.6,0,0,1,349.36,357c1.664.231,3.346.338,5.022.484.476.041.94.192.99.674a1.52,1.52,0,0,1-.379,1.085c-2.634,2.683-5.272,5.365-7.981,7.971a2.445,2.445,0,0,0-.828,2.589c.179-.169.353-.324.517-.488q8.464-8.46,16.925-16.922c.82-.82,1.058-.863,2.145-.435a3.05,3.05,0,0,0,2.421-.05,1.373,1.373,0,0,1,1.9.354q3.794,3.786,7.581,7.58a1.358,1.358,0,0,1,.332,1.851,3.087,3.087,0,0,0,.008,2.592,1.355,1.355,0,0,1-.354,1.846q-7.423,7.429-14.851,14.853c-.546.546-1.109.61-1.518.189s-.323-.957.23-1.517c.131-.133.264-.265.4-.4q6.831-6.831,13.673-13.651a1.465,1.465,0,0,0,.452-1.536,13.427,13.427,0,0,1,.069-2.63,1.039,1.039,0,0,0-.16-.685c-2.246-2.279-4.518-4.532-6.769-6.805a.62.62,0,0,0-.76-.158,4.406,4.406,0,0,1-2.992,0,.659.659,0,0,0-.8.212q-9.07,9.087-18.142,18.173a1.426,1.426,0,0,0-.359.85c-.05.765,0,1.537-.022,2.3a1.448,1.448,0,0,0,1,1.365,1.148,1.148,0,0,0,1.415-.3c.8-.786,1.574-1.6,2.387-2.372,1.049-1,2.125-1.965,3.251-3a6.738,6.738,0,1,1,13.241-1.791,6.817,6.817,0,0,1-4.408,6.351,3.44,3.44,0,0,0-1.175.747c-2.354,2.318-4.683,4.66-7.014,7-.3.305-.572.646-.87.987.787.167,1.517.339,2.254.462.136.023.332-.125.455-.242.5-.473.969-.971,1.461-1.447a.931.931,0,1,1,1.307,1.3c-.637.656-1.292,1.294-1.936,1.942a1.364,1.364,0,0,1-1.7.311,2.979,2.979,0,0,0-2.757,0c-.093.046-.2.12-.288.109-.852-.1-1.155.565-1.529,1.055l3.213,3.248,27.974-27.977-15.58-15.58c-.043.04-.209.188-.366.344l-7.8,7.8a3.192,3.192,0,0,1-.457.421.914.914,0,0,1-1.262-1.278,2.829,2.829,0,0,1,.376-.413q4.1-4.1,8.2-8.2c1.032-1.031,1.851-1.032,2.88,0q7.692,7.69,15.374,15.388a8.044,8.044,0,0,1,.762,1.054Zm-31.994-4.2c-1.365-.115-2.569-.154-3.752-.333a3.255,3.255,0,0,0-2.654.762q-3.952,3.138-7.923,6.252a6.746,6.746,0,0,0-2.322,3.449c-.75,2.437-1.578,4.85-2.335,7.285a12.507,12.507,0,0,1-4.056,6.407,15.874,15.874,0,0,0-1.371,1.359c-.125.127-.236.267-.307.348l8.941,8.933a5.178,5.178,0,0,1,.825-.935,10.335,10.335,0,0,1,2.206-1.346c1.857-.711,3.759-1.308,5.653-1.921a9.506,9.506,0,0,0,4.809-3.385,51.325,51.325,0,0,1,5.991-6.744c.147-.137.273-.3.5-.54a7.287,7.287,0,0,1-.6-.493,2.448,2.448,0,0,1,.012-3.7,10.678,10.678,0,0,1,1.339-1.3,6.6,6.6,0,0,1,1.795-.928,3.755,3.755,0,0,1,3.131.595,1.069,1.069,0,0,0-.732-1.643,5.539,5.539,0,0,0-1.967-.124,11.091,11.091,0,0,0-6.614,3.294c-1.106,1.127-2.211,2.256-3.356,3.341a2.829,2.829,0,0,1-3.334.6,3.192,3.192,0,0,1-2.13-3.01c.009-2.389.014-4.778-.006-7.167a1.765,1.765,0,0,1,.561-1.38c1.69-1.659,3.355-3.343,5.03-5.017C350.683,360.967,351.535,360.119,352.5,359.154Zm-29.951,27.694a.371.371,0,0,0,.054.1q5.806,5.815,11.611,11.631c.235.235.4.21.62-.013.52-.536,1.031-1.084,1.589-1.58.4-.359.335-.584-.019-.937q-5.586-5.551-11.145-11.129c-.142-.142-.3-.27-.411-.373Zm33.362-16.575a5.755,5.755,0,0,1,.681-.242c1.27-.272,2.533-.6,3.818-.772a3.784,3.784,0,0,1,2.612.63,3.21,3.21,0,0,1,1.46,2.274,4.73,4.73,0,0,0,.141-5.755,4.861,4.861,0,0,0-8.711,3.864Zm5.073,4.053a1.86,1.86,0,0,0-2.278.265c-.445.4-.852.848-1.283,1.266a.7.7,0,0,0,.006,1.126,2.794,2.794,0,0,1,.349.57Z" transform="translate(-320.656 -345.393)" fill="#fa935b"/>
  </g>
</svg>
