<?xml version="1.0" encoding="utf-8"?>
<!-- Generator: Adobe Illustrator 16.0.0, SVG Export Plug-In . SVG Version: 6.00 Build 0)  -->
<!DOCTYPE svg PUBLIC "-//W3C//DTD SVG 1.1//EN" "http://www.w3.org/Graphics/SVG/1.1/DTD/svg11.dtd">
<svg version="1.1" id="verified" xmlns="http://www.w3.org/2000/svg" xmlns:xlink="http://www.w3.org/1999/xlink" x="0px" y="0px"
	 width="12.917px" height="12.917px" viewBox="0 0 12.917 12.917" enable-background="new 0 0 12.917 12.917" xml:space="preserve">
<circle id="Oval" fill="#00C569" cx="6.458" cy="6.458" r="6.458"/>
<g id="checkmark" transform="translate(2.67 4.478)">
	<path id="Combined_Shape" fill="#FEFFFE" d="M2.584,4.867L0.22,2.5c-0.292-0.293-0.292-0.767,0-1.06L0.3,1.362
		c0.292-0.293,0.768-0.293,1.061,0c0,0,0,0,0,0l1.753,1.751L6.009,0.22c0.293-0.292,0.768-0.292,1.061,0L7.151,0.3
		c0.294,0.293,0.294,0.768,0.001,1.061c0,0,0,0-0.001,0L3.726,4.786L3.645,4.867C3.352,5.16,2.877,5.16,2.584,4.867L2.584,4.867z"/>
</g>
</svg>
